<?xml version="1.0" encoding="UTF-8"?>
<!DOCTYPE svg PUBLIC "-//W3C//DTD SVG 1.1//EN" "http://www.w3.org/Graphics/SVG/1.1/DTD/svg11.dtd">
<svg xmlns="http://www.w3.org/2000/svg" version="1.1" width="1279px" height="1280px"
  style="shape-rendering:geometricPrecision; text-rendering:geometricPrecision; image-rendering:optimizeQuality; fill-rule:evenodd; clip-rule:evenodd"
  xmlns:xlink="http://www.w3.org/1999/xlink">
  <g>
    <path style="opacity:0.412" fill="#000101"
      d="M 384.5,273.5 C 385.077,272.227 385.743,272.227 386.5,273.5C 386.03,274.463 385.363,274.463 384.5,273.5 Z" />
  </g>
  <g>
    <path style="opacity:1" fill="#b22e2a"
      d="M 219.5,392.5 C 234.266,382.273 249.6,372.773 265.5,364C 374.493,301.839 483.16,239.172 591.5,176C 607.056,166.721 623.056,158.221 639.5,150.5C 648.779,154.473 657.779,158.973 666.5,164C 788.5,234.333 910.5,304.667 1032.5,375C 1042.67,380.916 1052.67,387.083 1062.5,393.5C 1063.33,405.82 1063.83,418.153 1064,430.5C 1064.17,472.333 1064.33,514.167 1064.5,556C 1064.4,665.855 1063.56,775.688 1062,885.5C 927.576,964.298 792.743,1042.46 657.5,1120C 651.513,1123.24 645.346,1126.08 639,1128.5C 627.487,1123.33 616.32,1117.49 605.5,1111C 481.5,1039.33 357.5,967.667 233.5,896C 227.41,892.54 221.577,888.706 216,884.5C 215.707,806.832 215.207,729.165 214.5,651.5C 215.221,566.168 215.721,480.835 216,395.5C 216.422,393.574 217.589,392.574 219.5,392.5 Z" />
  </g>
  <g>
    <path style="opacity:1" fill="#932d2c"
      d="M 318.5,362.5 C 317.22,363.931 315.553,364.598 313.5,364.5C 313.5,365.5 313.5,366.5 313.5,367.5C 302.834,373.305 292.501,379.805 282.5,387C 275.568,389.133 269.235,392.3 263.5,396.5C 261.716,396.893 260.05,397.559 258.5,398.5C 259.024,395.812 260.691,394.312 263.5,394C 264.743,392.846 265.743,391.512 266.5,390C 270.123,388.895 273.79,387.895 277.5,387C 279.754,386.376 281.421,385.043 282.5,383C 283.833,382.667 285.167,382.333 286.5,382C 285.833,381.667 285.167,381.333 284.5,381C 288.027,380.049 291.36,378.716 294.5,377C 296.037,375.89 296.703,374.39 296.5,372.5C 300.658,373.033 303.992,371.7 306.5,368.5C 308.078,367.702 309.744,367.202 311.5,367C 312.337,365.989 312.67,364.822 312.5,363.5C 314.5,363.167 316.5,362.833 318.5,362.5 Z" />
  </g>
  <g>
    <path style="opacity:1" fill="#6e2322"
      d="M 927.5,346.5 C 936.113,349.431 944.113,353.598 951.5,359C 955.5,360.667 959.5,362.333 963.5,364C 968.54,367.845 973.54,371.678 978.5,375.5C 960.9,366.543 943.9,356.877 927.5,346.5 Z" />
  </g>
  <g>
    <path style="opacity:1" fill="#6a2322"
      d="M 351.5,346.5 C 339.361,354.27 326.695,361.27 313.5,367.5C 313.5,366.5 313.5,365.5 313.5,364.5C 315.553,364.598 317.22,363.931 318.5,362.5C 319.873,362.657 321.207,362.49 322.5,362C 330.633,357.182 338.633,352.182 346.5,347C 348.134,346.506 349.801,346.34 351.5,346.5 Z" />
  </g>
  <g>
    <path style="opacity:1" fill="#6d2422"
      d="M 367.5,335.5 C 367.719,336.675 367.386,337.675 366.5,338.5C 361.314,340.925 356.314,343.591 351.5,346.5C 351.414,345.504 351.748,344.671 352.5,344C 356.5,341.333 360.5,338.667 364.5,336C 365.448,335.517 366.448,335.351 367.5,335.5 Z" />
  </g>
  <g>
    <path style="opacity:1" fill="#692320"
      d="M 911.5,337.5 C 916.271,337.715 919.938,339.715 922.5,343.5C 918.345,342.258 914.678,340.258 911.5,337.5 Z" />
  </g>
  <g>
    <path style="opacity:1" fill="#8a2a2b"
      d="M 397.5,319.5 C 392.948,323.612 387.615,326.445 381.5,328C 377.468,331.676 372.801,334.176 367.5,335.5C 371.968,331.763 376.635,328.263 381.5,325C 386.652,322.548 391.985,320.715 397.5,319.5 Z" />
  </g>
  <g>
    <path style="opacity:1" fill="#691f20"
      d="M 880.5,319.5 C 885.478,320.82 890.145,322.987 894.5,326C 895.252,326.671 895.586,327.504 895.5,328.5C 890.216,325.863 885.216,322.863 880.5,319.5 Z" />
  </g>
  <g>
    <path style="opacity:1" fill="#7c2723"
      d="M 415.5,309.5 C 410.206,312.482 404.873,315.482 399.5,318.5C 401.255,317.038 402.588,315.205 403.5,313C 407.446,311.532 411.446,310.366 415.5,309.5 Z" />
  </g>
  <g>
    <path style="opacity:1" fill="#692320"
      d="M 847.5,300.5 C 851.1,301.62 854.767,302.787 858.5,304C 863.514,307.954 868.847,311.454 874.5,314.5C 875.425,315.357 876.092,316.357 876.5,317.5C 867.021,311.319 857.354,305.653 847.5,300.5 Z" />
  </g>
  <g>
    <path style="opacity:1" fill="#5b1919"
      d="M 838.5,294.5 C 842.025,295.759 845.025,297.759 847.5,300.5C 843.639,299.74 840.639,297.74 838.5,294.5 Z" />
  </g>
  <g>
    <path style="opacity:1" fill="#7d2526"
      d="M 447.5,290.5 C 443.072,293.891 438.406,297.058 433.5,300C 430.495,300.533 427.828,301.7 425.5,303.5C 427.695,300.149 430.528,297.482 434,295.5C 438.862,294.494 443.362,292.828 447.5,290.5 Z" />
  </g>
  <g>
    <path style="opacity:1" fill="#68201e"
      d="M 783.5,263.5 C 784.873,263.343 786.207,263.51 787.5,264C 798.534,270.898 809.868,277.231 821.5,283C 822.833,284.333 824.167,285.667 825.5,287C 830.235,288.923 834.568,291.423 838.5,294.5C 837.127,294.657 835.793,294.49 834.5,294C 830.294,291.398 825.961,289.064 821.5,287C 808.635,279.405 795.968,271.572 783.5,263.5 Z" />
  </g>
  <g>
    <path style="opacity:1" fill="#852827"
      d="M 511.5,254.5 C 501.416,261.209 490.749,266.876 479.5,271.5C 480.475,269.807 481.808,268.307 483.5,267C 488.852,263.992 494.185,260.992 499.5,258C 503.231,255.901 507.231,254.734 511.5,254.5 Z" />
  </g>
  <g>
    <path style="opacity:1" fill="#802624"
      d="M 751.5,245.5 C 759.725,249.125 768.059,252.125 776.5,254.5C 776.343,255.873 776.51,257.207 777,258.5C 779.394,260.086 781.561,261.752 783.5,263.5C 781.914,262.852 780.247,262.352 778.5,262C 769.57,256.211 760.57,250.711 751.5,245.5 Z" />
  </g>
  <g>
    <path style="opacity:1" fill="#7b2724"
      d="M 535.5,239.5 C 528.054,245.257 520.054,250.257 511.5,254.5C 517.911,247.114 525.911,242.114 535.5,239.5 Z" />
  </g>
  <g>
    <path style="opacity:1" fill="#8c2c2a"
      d="M 559.5,226.5 C 551.963,231.707 543.963,236.041 535.5,239.5C 535.58,234.293 538.247,232.126 543.5,233C 548.352,229.399 553.685,227.233 559.5,226.5 Z" />
  </g>
  <g>
    <path style="opacity:1" fill="#8e2a2a"
      d="M 717.5,223.5 C 725.086,226.573 732.42,230.073 739.5,234C 741.213,235.378 742.547,237.045 743.5,239C 746.267,240.161 748.933,241.327 751.5,242.5C 751.5,243.5 751.5,244.5 751.5,245.5C 742.398,240.78 733.398,235.78 724.5,230.5C 722.327,227.932 719.994,225.599 717.5,223.5 Z" />
  </g>
  <g>
    <path style="opacity:1" fill="#762424"
      d="M 591.5,207.5 C 587.231,211.112 582.565,214.279 577.5,217C 575.833,217.333 574.167,217.667 572.5,218C 568.793,221.85 564.46,224.683 559.5,226.5C 561.327,225.068 562.994,223.401 564.5,221.5C 572.22,217.609 579.554,213.109 586.5,208C 588.134,207.506 589.801,207.34 591.5,207.5 Z" />
  </g>
  <g>
    <path style="opacity:1" fill="#611a1a"
      d="M 683.5,206.5 C 690.974,208.573 697.64,212.239 703.5,217.5C 696.328,214.64 689.661,210.973 683.5,206.5 Z" />
  </g>
  <g>
    <path style="opacity:1" fill="#5f1a1e"
      d="M 671.5,199.5 C 672.873,199.343 674.207,199.51 675.5,200C 677.526,201.594 679.526,203.094 681.5,204.5C 680.127,204.657 678.793,204.49 677.5,204C 675.474,202.406 673.474,200.906 671.5,199.5 Z" />
  </g>
  <g>
    <path style="opacity:1" fill="#752626"
      d="M 623.5,188.5 C 623.586,189.496 623.252,190.329 622.5,191C 621.167,191.333 619.833,191.667 618.5,192C 616.393,194.227 614.06,196.227 611.5,198C 610.207,198.49 608.873,198.657 607.5,198.5C 607.561,196.408 608.561,194.908 610.5,194C 614.906,192.124 619.24,190.291 623.5,188.5 Z" />
  </g>
  <g>
    <path style="opacity:1" fill="#822424"
      d="M 639.5,181.5 C 645.793,184.484 652.459,186.484 659.5,187.5C 660.771,189.829 662.771,190.995 665.5,191C 667.229,194.029 669.229,196.862 671.5,199.5C 660.556,193.865 649.889,187.865 639.5,181.5 Z" />
  </g>
  <g>
    <path style="opacity:1" fill="#7e2825"
      d="M 639.5,181.5 C 634.67,184.914 629.336,187.247 623.5,188.5C 623.414,187.504 623.748,186.671 624.5,186C 629.093,184.305 633.427,182.139 637.5,179.5C 638.713,179.747 639.38,180.414 639.5,181.5 Z" />
  </g>
  <g>
    <path style="opacity:1" fill="#010000"
      d="M 639.5,181.5 C 649.889,187.865 660.556,193.865 671.5,199.5C 673.474,200.906 675.474,202.406 677.5,204C 678.793,204.49 680.127,204.657 681.5,204.5C 682.167,205.167 682.833,205.833 683.5,206.5C 689.661,210.973 696.328,214.64 703.5,217.5C 707.832,220.095 712.499,222.095 717.5,223.5C 719.994,225.599 722.327,227.932 724.5,230.5C 733.398,235.78 742.398,240.78 751.5,245.5C 760.57,250.711 769.57,256.211 778.5,262C 780.247,262.352 781.914,262.852 783.5,263.5C 795.968,271.572 808.635,279.405 821.5,287C 825.961,289.064 830.294,291.398 834.5,294C 835.793,294.49 837.127,294.657 838.5,294.5C 840.639,297.74 843.639,299.74 847.5,300.5C 857.354,305.653 867.021,311.319 876.5,317.5C 878.199,317.527 879.533,318.194 880.5,319.5C 885.216,322.863 890.216,325.863 895.5,328.5C 899.738,332.191 904.738,334.358 910.5,335C 911.252,335.671 911.586,336.504 911.5,337.5C 914.678,340.258 918.345,342.258 922.5,343.5C 923.913,344.935 925.58,345.935 927.5,346.5C 943.9,356.877 960.9,366.543 978.5,375.5C 991.634,384.24 1005.3,392.24 1019.5,399.5C 1019.83,399.5 1020.17,399.5 1020.5,399.5C 1019.6,402.99 1017.27,405.156 1013.5,406C 1010.91,409.8 1007.24,411.8 1002.5,412C 1001.29,413.039 1000.29,414.206 999.5,415.5C 999.167,415.5 998.833,415.5 998.5,415.5C 987.329,421.584 976.329,427.917 965.5,434.5C 959.377,437.093 953.71,440.426 948.5,444.5C 946.566,445.11 944.899,446.11 943.5,447.5C 937.554,449.471 932.221,452.471 927.5,456.5C 927.5,456.833 927.5,457.167 927.5,457.5C 924.593,457.575 921.927,458.409 919.5,460C 913.266,463.608 907.266,467.441 901.5,471.5C 899.636,473.014 897.636,474.347 895.5,475.5C 895.5,475.833 895.5,476.167 895.5,476.5C 882.926,481.138 871.26,487.471 860.5,495.5C 858.188,496.32 855.854,497.153 853.5,498C 842.722,504.705 831.722,511.039 820.5,517C 819.619,517.708 818.953,518.542 818.5,519.5C 813.576,521.767 808.909,524.433 804.5,527.5C 799.73,528.19 796.063,530.523 793.5,534.5C 788.927,535.787 784.594,537.62 780.5,540C 771.781,545.7 762.781,551.033 753.5,556C 752.619,556.708 751.953,557.542 751.5,558.5C 750.791,559.404 749.791,559.737 748.5,559.5C 733.695,567.403 719.028,575.57 704.5,584C 703.29,585.039 702.29,586.206 701.5,587.5C 698.148,587.53 695.482,588.863 693.5,591.5C 679.166,598.998 665.166,606.998 651.5,615.5C 646.949,617.374 642.615,619.707 638.5,622.5C 633.588,619.876 628.588,617.543 623.5,615.5C 618.429,612.133 613.096,609.133 607.5,606.5C 605.837,604.467 603.837,602.634 601.5,601C 597.933,599.269 594.266,597.769 590.5,596.5C 590.167,596.5 589.833,596.5 589.5,596.5C 587.412,592.611 584.079,590.444 579.5,590C 576.034,586.477 572.034,583.977 567.5,582.5C 561.11,577.64 554.11,573.807 546.5,571C 541.047,565.714 534.714,561.88 527.5,559.5C 523.742,556.443 519.742,553.61 515.5,551C 512.264,549.214 508.93,547.714 505.5,546.5C 503.589,545.925 501.922,544.925 500.5,543.5C 494.894,539.063 488.894,535.23 482.5,532C 478.528,530.961 474.861,529.461 471.5,527.5C 470.71,526.206 469.71,525.039 468.5,524C 463.792,522.313 459.459,520.146 455.5,517.5C 451.526,514.763 447.526,511.93 443.5,509C 442.207,508.51 440.873,508.343 439.5,508.5C 432.746,502.962 425.246,498.629 417,495.5C 415.304,492.634 412.804,491.3 409.5,491.5C 401.735,484.951 393.069,479.951 383.5,476.5C 376.933,470.947 369.6,466.614 361.5,463.5C 360.833,463.5 360.167,463.5 359.5,463.5C 358.375,461.871 357.041,460.371 355.5,459C 350.788,455.754 345.788,453.254 340.5,451.5C 335.057,447.933 329.724,444.1 324.5,440C 316.958,437.876 309.958,434.709 303.5,430.5C 301.475,428.925 299.475,427.092 297.5,425C 291.981,422.409 286.648,419.575 281.5,416.5C 275.6,412.292 269.267,408.792 262.5,406C 260.983,404.315 259.316,402.815 257.5,401.5C 259.531,399.825 261.531,398.159 263.5,396.5C 269.235,392.3 275.568,389.133 282.5,387C 292.501,379.805 302.834,373.305 313.5,367.5C 326.695,361.27 339.361,354.27 351.5,346.5C 356.314,343.591 361.314,340.925 366.5,338.5C 367.386,337.675 367.719,336.675 367.5,335.5C 372.801,334.176 377.468,331.676 381.5,328C 387.615,326.445 392.948,323.612 397.5,319.5C 398.492,319.672 399.158,319.338 399.5,318.5C 404.873,315.482 410.206,312.482 415.5,309.5C 415.414,308.504 415.748,307.671 416.5,307C 419.6,306.061 422.6,304.895 425.5,303.5C 427.828,301.7 430.495,300.533 433.5,300C 438.406,297.058 443.072,293.891 447.5,290.5C 458.272,284.123 468.938,277.79 479.5,271.5C 490.749,266.876 501.416,261.209 511.5,254.5C 520.054,250.257 528.054,245.257 535.5,239.5C 543.963,236.041 551.963,231.707 559.5,226.5C 564.46,224.683 568.793,221.85 572.5,218C 574.167,217.667 575.833,217.333 577.5,217C 582.565,214.279 587.231,211.112 591.5,207.5C 597.489,205.509 602.823,202.509 607.5,198.5C 608.873,198.657 610.207,198.49 611.5,198C 614.06,196.227 616.393,194.227 618.5,192C 619.833,191.667 621.167,191.333 622.5,191C 623.252,190.329 623.586,189.496 623.5,188.5C 629.336,187.247 634.67,184.914 639.5,181.5 Z" />
  </g>
  <g>
    <path style="opacity:1" fill="#959595"
      d="M 827.5,368.5 C 824.423,369.856 821.09,370.689 817.5,371C 809.158,371.835 800.824,372.669 792.5,373.5C 803.957,371.249 815.624,369.582 827.5,368.5 Z" />
  </g>
  <g>
    <path style="opacity:1" fill="#969696"
      d="M 862.5,375.5 C 861.778,375.082 861.278,374.416 861,373.5C 860.503,370.854 860.336,368.187 860.5,365.5C 856.167,365.5 851.833,365.5 847.5,365.5C 851.964,364.356 856.63,363.69 861.5,363.5C 861.505,367.534 861.838,371.534 862.5,375.5 Z" />
  </g>
  <g>
    <path style="opacity:1" fill="#939393"
      d="M 846.5,365.5 C 840.474,367.55 834.141,368.55 827.5,368.5C 833.639,367.103 839.973,366.103 846.5,365.5 Z" />
  </g>
  <g>
    <path style="opacity:1" fill="#fafafa"
      d="M 846.5,365.5 C 846.833,365.5 847.167,365.5 847.5,365.5C 851.833,365.5 856.167,365.5 860.5,365.5C 860.336,368.187 860.503,370.854 861,373.5C 861.278,374.416 861.778,375.082 862.5,375.5C 862.736,378.609 862.403,381.609 861.5,384.5C 853.225,385.968 844.892,386.968 836.5,387.5C 826.598,388.111 816.932,389.444 807.5,391.5C 806.791,392.404 805.791,392.737 804.5,392.5C 798.108,391.95 792.108,392.95 786.5,395.5C 781.848,395.998 777.181,396.331 772.5,396.5C 760.462,397.216 748.462,398.382 736.5,400C 733.269,400.861 730.269,402.028 727.5,403.5C 726.244,403.461 725.244,403.961 724.5,405C 741.286,410.127 755.786,418.96 768,431.5C 769.299,434.755 770.965,437.755 773,440.5C 773.49,441.793 773.657,443.127 773.5,444.5C 773.5,450.167 773.5,455.833 773.5,461.5C 772.956,465.673 771.79,469.673 770,473.5C 766.667,478.167 763.333,482.833 760,487.5C 730.747,513.539 696.58,528.872 657.5,533.5C 638.171,534.629 618.838,534.629 599.5,533.5C 593.687,532.672 588.02,531.338 582.5,529.5C 577.804,527.303 573.137,524.803 568.5,522C 566.26,521.023 563.927,520.523 561.5,520.5C 547.907,514.564 537.573,505.23 530.5,492.5C 529.025,486.929 528.025,481.262 527.5,475.5C 528.758,468.062 530.425,460.729 532.5,453.5C 538.435,446.227 544.768,439.227 551.5,432.5C 555.866,429.984 559.866,426.984 563.5,423.5C 566.127,422.895 568.793,422.395 571.5,422C 570.167,421.333 570.167,420.667 571.5,420C 577.68,416.746 583.68,413.246 589.5,409.5C 593.04,407.209 597.04,405.875 601.5,405.5C 607.811,403.904 614.144,402.404 620.5,401C 621.571,400.148 622.571,399.315 623.5,398.5C 624.167,398.5 624.833,398.5 625.5,398.5C 630.287,398.652 634.954,397.985 639.5,396.5C 642.341,397.983 644.841,397.65 647,395.5C 647.414,395.957 647.914,396.291 648.5,396.5C 652.502,394.258 656.669,393.925 661,395.5C 662.009,394.342 663.342,393.675 665,393.5C 669.158,392.927 673.324,392.427 677.5,392C 678.756,391.583 679.423,390.75 679.5,389.5C 696.228,387.897 712.894,385.897 729.5,383.5C 744.902,382.253 760.236,380.42 775.5,378C 780.202,376.274 784.868,374.774 789.5,373.5C 790.5,373.5 791.5,373.5 792.5,373.5C 800.824,372.669 809.158,371.835 817.5,371C 821.09,370.689 824.423,369.856 827.5,368.5C 834.141,368.55 840.474,367.55 846.5,365.5 Z" />
  </g>
  <g>
    <path style="opacity:1" fill="#9f9f9f"
      d="M 493.5,361.5 C 491.349,364.415 488.349,366.082 484.5,366.5C 487.008,364.076 490.008,362.41 493.5,361.5 Z" />
  </g>
  <g>
    <path style="opacity:1" fill="#b3b3b3"
      d="M 535.5,337.5 C 535.063,339.074 534.063,340.241 532.5,341C 528.03,343.069 523.697,345.402 519.5,348C 518.167,348.667 518.167,349.333 519.5,350C 515.553,351.484 511.553,352.65 507.5,353.5C 516.206,347.145 525.539,341.811 535.5,337.5 Z" />
  </g>
  <g>
    <path style="opacity:1" fill="#b1b1b1"
      d="M 564.5,320.5 C 562.405,322.434 560.405,324.601 558.5,327C 550.708,330.31 543.041,333.81 535.5,337.5C 544.666,331.08 554.332,325.413 564.5,320.5 Z" />
  </g>
  <g>
    <path style="opacity:1" fill="#838383"
      d="M 569.5,317.5 C 568.514,319.408 566.848,320.408 564.5,320.5C 565.659,318.75 567.326,317.75 569.5,317.5 Z" />
  </g>
  <g>
    <path style="opacity:1" fill="#a6a6a6"
      d="M 599.5,300.5 C 599.586,301.496 599.252,302.329 598.5,303C 595.075,305.044 591.408,306.544 587.5,307.5C 590.976,304.377 594.976,302.043 599.5,300.5 Z" />
  </g>
  <g>
    <path style="opacity:1" fill="#9b9b9b"
      d="M 625.5,285.5 C 625.631,286.376 625.298,287.043 624.5,287.5C 620.133,289.561 615.8,291.561 611.5,293.5C 615.474,289.84 620.141,287.173 625.5,285.5 Z" />
  </g>
  <g>
    <path style="opacity:1" fill="#797979"
      d="M 667.5,259.5 C 669.777,260.449 671.777,261.782 673.5,263.5C 670.708,263.378 668.708,262.044 667.5,259.5 Z" />
  </g>
  <g>
    <path style="opacity:1" fill="#929292"
      d="M 656.5,253.5 C 660.173,255 663.506,257 666.5,259.5C 662.07,259.153 658.736,257.153 656.5,253.5 Z" />
  </g>
  <g>
    <path style="opacity:1" fill="#b6b6b6"
      d="M 625.5,249.5 C 619.94,251.08 614.273,253.08 608.5,255.5C 609.18,256.86 609.847,258.193 610.5,259.5C 607.517,258.342 604.85,256.675 602.5,254.5C 610.067,252.358 617.733,250.692 625.5,249.5 Z" />
  </g>
  <g>
    <path style="opacity:1" fill="#c0c0c0"
      d="M 651.5,251.5 C 648.354,250.055 645.021,249.055 641.5,248.5C 636.193,249.276 630.86,249.609 625.5,249.5C 632.211,247.2 639.211,246.367 646.5,247C 648.063,248.736 649.73,250.236 651.5,251.5 Z" />
  </g>
  <g>
    <path style="opacity:1" fill="#f7f7f7"
      d="M 651.5,251.5 C 653.05,252.441 654.716,253.107 656.5,253.5C 658.736,257.153 662.07,259.153 666.5,259.5C 666.833,259.5 667.167,259.5 667.5,259.5C 668.708,262.044 670.708,263.378 673.5,263.5C 679.473,266.821 685.473,270.155 691.5,273.5C 692.711,274.274 692.711,275.107 691.5,276C 602.487,327.016 513.487,378.35 424.5,430C 422.35,431.59 420.017,432.257 417.5,432C 409.748,428.06 402.415,423.56 395.5,418.5C 398.616,415.768 401.949,413.268 405.5,411C 417.394,404.221 429.394,397.721 441.5,391.5C 442.873,391.657 444.207,391.49 445.5,391C 446.989,389.532 448.323,388.032 449.5,386.5C 460.715,379.09 472.382,372.423 484.5,366.5C 488.349,366.082 491.349,364.415 493.5,361.5C 497.833,358.331 502.5,355.664 507.5,353.5C 511.553,352.65 515.553,351.484 519.5,350C 518.167,349.333 518.167,348.667 519.5,348C 523.697,345.402 528.03,343.069 532.5,341C 534.063,340.241 535.063,339.074 535.5,337.5C 543.041,333.81 550.708,330.31 558.5,327C 560.405,324.601 562.405,322.434 564.5,320.5C 566.848,320.408 568.514,319.408 569.5,317.5C 575.17,313.663 581.17,310.33 587.5,307.5C 591.408,306.544 595.075,305.044 598.5,303C 599.252,302.329 599.586,301.496 599.5,300.5C 602.976,297.377 606.976,295.043 611.5,293.5C 615.8,291.561 620.133,289.561 624.5,287.5C 625.298,287.043 625.631,286.376 625.5,285.5C 629.664,282.252 633.997,279.252 638.5,276.5C 629.127,270.772 619.794,265.105 610.5,259.5C 609.847,258.193 609.18,256.86 608.5,255.5C 614.273,253.08 619.94,251.08 625.5,249.5C 630.86,249.609 636.193,249.276 641.5,248.5C 645.021,249.055 648.354,250.055 651.5,251.5 Z" />
  </g>
  <g>
    <path style="opacity:1" fill="#d1d1d1"
      d="M 789.5,373.5 C 784.868,374.774 780.202,376.274 775.5,378C 760.236,380.42 744.902,382.253 729.5,383.5C 729.5,383.167 729.5,382.833 729.5,382.5C 749.432,379.941 769.432,376.941 789.5,373.5 Z" />
  </g>
  <g>
    <path style="opacity:1" fill="#676767"
      d="M 862.5,375.5 C 863.158,376.793 863.492,378.293 863.5,380C 863.431,381.986 862.765,383.486 861.5,384.5C 862.403,381.609 862.736,378.609 862.5,375.5 Z" />
  </g>
  <g>
    <path style="opacity:1" fill="#6a221f"
      d="M 978.5,375.5 C 983.816,376.66 988.483,379.16 992.5,383C 999.029,386.431 1005.7,389.597 1012.5,392.5C 1015.24,394.569 1017.57,396.903 1019.5,399.5C 1005.3,392.24 991.634,384.24 978.5,375.5 Z" />
  </g>
  <g>
    <path style="opacity:1" fill="#ababab"
      d="M 729.5,382.5 C 729.5,382.833 729.5,383.167 729.5,383.5C 712.894,385.897 696.228,387.897 679.5,389.5C 695.914,386.323 712.581,383.99 729.5,382.5 Z" />
  </g>
  <g>
    <path style="opacity:1" fill="#bababa"
      d="M 836.5,387.5 C 827.092,389.719 817.425,391.053 807.5,391.5C 816.932,389.444 826.598,388.111 836.5,387.5 Z" />
  </g>
  <g>
    <path style="opacity:1" fill="#aaaaaa"
      d="M 449.5,386.5 C 448.323,388.032 446.989,389.532 445.5,391C 444.207,391.49 442.873,391.657 441.5,391.5C 443.629,389.05 446.296,387.383 449.5,386.5 Z" />
  </g>
  <g>
    <path style="opacity:1" fill="#c7c7c7"
      d="M 679.5,389.5 C 679.423,390.75 678.756,391.583 677.5,392C 673.324,392.427 669.158,392.927 665,393.5C 663.342,393.675 662.009,394.342 661,395.5C 656.669,393.925 652.502,394.258 648.5,396.5C 647.914,396.291 647.414,395.957 647,395.5C 644.841,397.65 642.341,397.983 639.5,396.5C 634.954,397.985 630.287,398.652 625.5,398.5C 631.551,396.372 637.884,394.872 644.5,394C 656.135,392.17 667.802,390.67 679.5,389.5 Z" />
  </g>
  <g>
    <path style="opacity:1" fill="#8e8e8e"
      d="M 804.5,392.5 C 798.599,393.365 792.599,394.365 786.5,395.5C 792.108,392.95 798.108,391.95 804.5,392.5 Z" />
  </g>
  <g>
    <path style="opacity:1" fill="#cacaca"
      d="M 772.5,396.5 C 757.682,399.135 742.682,401.468 727.5,403.5C 730.269,402.028 733.269,400.861 736.5,400C 748.462,398.382 760.462,397.216 772.5,396.5 Z" />
  </g>
  <g>
    <path style="opacity:1" fill="#b33024"
      d="M 219.5,392.5 C 222.384,391.62 225.05,390.287 227.5,388.5C 229.743,387.526 232.076,387.192 234.5,387.5C 234.5,388.833 234.5,390.167 234.5,391.5C 230.615,394.125 226.615,396.792 222.5,399.5C 221.808,398.975 221.308,398.308 221,397.5C 220.626,398.416 220.126,399.25 219.5,400C 220.251,546.434 220.584,692.934 220.5,839.5C 220.444,852.851 219.944,866.184 219,879.5C 217.834,798.973 217.334,718.307 217.5,637.5C 217.667,557.167 217.833,476.833 218,396.5C 218.41,395.099 218.91,393.766 219.5,392.5 Z" />
  </g>
  <g>
    <path style="opacity:1" fill="#a0a0a0"
      d="M 623.5,398.5 C 622.571,399.315 621.571,400.148 620.5,401C 614.144,402.404 607.811,403.904 601.5,405.5C 608.319,402.007 615.652,399.673 623.5,398.5 Z" />
  </g>
  <g>
    <path style="opacity:1" fill="#601e1c"
      d="M 263.5,396.5 C 261.531,398.159 259.531,399.825 257.5,401.5C 259.316,402.815 260.983,404.315 262.5,406C 269.267,408.792 275.6,412.292 281.5,416.5C 280.127,416.657 278.793,416.49 277.5,416C 270.219,411.684 263.052,407.184 256,402.5C 255.51,401.207 255.343,399.873 255.5,398.5C 256.5,398.5 257.5,398.5 258.5,398.5C 260.05,397.559 261.716,396.893 263.5,396.5 Z" />
  </g>
  <g>
    <path style="opacity:1" fill="#6d2120"
      d="M 1020.5,399.5 C 1022.23,399.843 1022.73,400.843 1022,402.5C 1018.07,404.809 1014.57,407.642 1011.5,411C 1007.34,412.393 1003.34,413.893 999.5,415.5C 1000.29,414.206 1001.29,413.039 1002.5,412C 1007.24,411.8 1010.91,409.8 1013.5,406C 1017.27,405.156 1019.6,402.99 1020.5,399.5 Z" />
  </g>
  <g>
    <path style="opacity:1" fill="#010101"
      d="M 683.5,416.5 C 697.636,419.377 710.636,424.877 722.5,433C 732.091,440.934 736.091,451.101 734.5,463.5C 732.649,467.039 730.982,470.706 729.5,474.5C 728.094,474.973 727.427,475.973 727.5,477.5C 723.833,480.5 720.5,483.833 717.5,487.5C 710.825,491.503 704.159,495.503 697.5,499.5C 690.837,502.383 684.171,505.05 677.5,507.5C 674.059,508.193 670.725,509.193 667.5,510.5C 650.942,513.052 634.275,514.052 617.5,513.5C 606.337,511.555 595.67,508.222 585.5,503.5C 581.524,500.531 577.524,497.531 573.5,494.5C 570.815,491.81 568.482,488.81 566.5,485.5C 564.676,479.012 564.009,472.346 564.5,465.5C 567.433,456.53 572.766,449.03 580.5,443C 588.402,436.995 596.736,431.829 605.5,427.5C 617.916,421.794 630.916,418.127 644.5,416.5C 657.487,415.294 670.487,415.294 683.5,416.5 Z" />
  </g>
  <g>
    <path style="opacity:1" fill="#9c9c9c"
      d="M 683.5,416.5 C 670.487,415.294 657.487,415.294 644.5,416.5C 644.5,416.167 644.5,415.833 644.5,415.5C 656.133,414.397 667.8,414.231 679.5,415C 681.058,415.21 682.391,415.71 683.5,416.5 Z" />
  </g>
  <g>
    <path style="opacity:1" fill="#d2d2d2"
      d="M 644.5,415.5 C 644.5,415.833 644.5,416.167 644.5,416.5C 630.916,418.127 617.916,421.794 605.5,427.5C 605.414,426.504 605.748,425.671 606.5,425C 618.461,419.523 631.128,416.356 644.5,415.5 Z" />
  </g>
  <g>
    <path style="opacity:1" fill="#67201e"
      d="M 281.5,416.5 C 286.648,419.575 291.981,422.409 297.5,425C 299.475,427.092 301.475,428.925 303.5,430.5C 296.439,426.303 289.106,422.636 281.5,419.5C 281.5,418.5 281.5,417.5 281.5,416.5 Z" />
  </g>
  <g>
    <path style="opacity:1" fill="#bbbbbb"
      d="M 589.5,409.5 C 583.68,413.246 577.68,416.746 571.5,420C 570.167,420.667 570.167,421.333 571.5,422C 568.793,422.395 566.127,422.895 563.5,423.5C 567.426,420.193 571.76,417.36 576.5,415C 580.624,412.603 584.957,410.769 589.5,409.5 Z" />
  </g>
  <g>
    <path style="opacity:1" fill="#742323"
      d="M 998.5,415.5 C 996.455,416.923 995.455,418.923 995.5,421.5C 986.429,424.869 977.762,429.036 969.5,434C 968.207,434.49 966.873,434.657 965.5,434.5C 976.329,427.917 987.329,421.584 998.5,415.5 Z" />
  </g>
  <g>
    <path style="opacity:1" fill="#878787"
      d="M 563.5,423.5 C 559.866,426.984 555.866,429.984 551.5,432.5C 554.776,428.529 558.776,425.529 563.5,423.5 Z" />
  </g>
  <g>
    <path style="opacity:1" fill="#010000"
      d="M 1036.5,429.5 C 1036.67,575.834 1036.5,722.167 1036,868.5C 1034.96,869.373 1034.12,870.373 1033.5,871.5C 1029.39,872.283 1026.06,874.283 1023.5,877.5C 1022.83,878.167 1022.17,878.833 1021.5,879.5C 1017.89,879.799 1014.56,880.965 1011.5,883C 996.515,891.644 981.849,900.477 967.5,909.5C 964.111,910.691 960.778,912.191 957.5,914C 950.725,917.705 944.392,921.872 938.5,926.5C 929.6,930.618 920.934,935.285 912.5,940.5C 911.614,941.325 911.281,942.325 911.5,943.5C 909.801,943.34 908.134,943.506 906.5,944C 881.829,957.845 857.496,971.845 833.5,986C 832.619,986.708 831.953,987.542 831.5,988.5C 825.554,990.471 820.221,993.471 815.5,997.5C 810.285,999.441 805.285,1001.94 800.5,1005C 799.748,1005.67 799.414,1006.5 799.5,1007.5C 788.948,1010.77 779.615,1016.11 771.5,1023.5C 770.127,1023.34 768.793,1023.51 767.5,1024C 760.631,1028.27 753.631,1032.27 746.5,1036C 744.937,1036.76 743.937,1037.93 743.5,1039.5C 743.167,1039.5 742.833,1039.5 742.5,1039.5C 731.093,1045.37 719.759,1051.54 708.5,1058C 706.308,1059.07 704.642,1060.57 703.5,1062.5C 697.16,1064.17 691.493,1067.17 686.5,1071.5C 676.906,1076.44 667.573,1081.77 658.5,1087.5C 657.432,1086.57 656.099,1086.23 654.5,1086.5C 654.833,942.666 654.5,798.999 653.5,655.5C 653.336,652.813 653.503,650.146 654,647.5C 656.928,646.393 659.428,644.726 661.5,642.5C 668.31,639.235 674.977,635.735 681.5,632C 682.833,630.667 684.167,629.333 685.5,628C 689.271,625.925 693.271,624.258 697.5,623C 698.71,621.961 699.71,620.794 700.5,619.5C 702.322,619.169 703.989,618.502 705.5,617.5C 709.392,615.938 712.725,613.605 715.5,610.5C 717.632,610.446 718.965,609.446 719.5,607.5C 735.824,601.345 750.824,592.845 764.5,582C 768.814,580.846 772.481,578.679 775.5,575.5C 778.897,574.626 782.23,573.459 785.5,572C 788.833,570 792.167,568 795.5,566C 797.192,564.693 798.525,563.193 799.5,561.5C 810.81,556.959 821.476,551.293 831.5,544.5C 831.5,544.167 831.5,543.833 831.5,543.5C 840.128,540.293 848.128,535.96 855.5,530.5C 856.167,529.5 856.833,528.5 857.5,527.5C 859.527,527.662 861.527,527.495 863.5,527C 871.074,523.097 878.407,518.764 885.5,514C 886.833,512 888.5,510.333 890.5,509C 898.104,506.324 905.104,502.824 911.5,498.5C 922.173,492.164 932.84,485.831 943.5,479.5C 945.308,479.509 946.975,479.009 948.5,478C 954.899,473.81 961.232,469.643 967.5,465.5C 972.15,463.443 976.817,461.276 981.5,459C 995.386,450.228 1009.39,441.728 1023.5,433.5C 1026.75,432.541 1029.75,431.041 1032.5,429C 1034.07,428.235 1035.4,428.402 1036.5,429.5 Z" />
  </g>
  <g>
    <path style="opacity:1" fill="#010000"
      d="M 247.5,428.5 C 255.127,433.987 263.127,438.987 271.5,443.5C 276.574,446.704 281.907,449.37 287.5,451.5C 298.396,459.717 310.062,466.717 322.5,472.5C 326.39,475.613 330.724,477.946 335.5,479.5C 338.65,482.579 342.317,484.913 346.5,486.5C 352.59,490.071 358.59,493.904 364.5,498C 370.897,501.199 377.231,504.365 383.5,507.5C 385.835,510.165 388.835,511.498 392.5,511.5C 393.028,512.721 393.695,513.887 394.5,515C 401.231,519.301 408.231,523.135 415.5,526.5C 416.209,527.404 417.209,527.737 418.5,527.5C 422.587,531.713 427.587,534.546 433.5,536C 436.172,539.169 439.505,541.336 443.5,542.5C 444.833,543.167 446.167,543.833 447.5,544.5C 450.976,547.623 454.976,549.957 459.5,551.5C 461.153,551.66 462.486,552.326 463.5,553.5C 468.013,558 473.346,561 479.5,562.5C 479.5,562.833 479.5,563.167 479.5,563.5C 489.737,570.045 500.404,576.045 511.5,581.5C 525.925,590.888 540.925,599.555 556.5,607.5C 558.179,607.285 559.179,607.952 559.5,609.5C 567.863,615.052 576.53,619.719 585.5,623.5C 587.595,626.276 590.262,628.442 593.5,630C 594.793,630.49 596.127,630.657 597.5,630.5C 598.167,631.167 598.833,631.833 599.5,632.5C 607.249,637.601 615.249,642.434 623.5,647C 624.126,647.75 624.626,648.584 625,649.5C 625.667,795.5 625.667,941.5 625,1087.5C 623.612,1088.55 622.112,1088.72 620.5,1088C 611.159,1081.99 601.492,1076.49 591.5,1071.5C 586.79,1067.48 581.457,1064.48 575.5,1062.5C 571.171,1058 565.837,1055.67 559.5,1055.5C 559.5,1054.5 559.5,1053.5 559.5,1052.5C 558.167,1052.5 556.833,1052.5 555.5,1052.5C 553.522,1049.33 550.855,1046.83 547.5,1045C 536.156,1039.86 525.489,1033.69 515.5,1026.5C 514.311,1025.57 512.978,1025.24 511.5,1025.5C 498.032,1017.35 484.366,1009.35 470.5,1001.5C 469.426,1000.12 468.093,998.949 466.5,998C 463.204,996.489 459.871,995.323 456.5,994.5C 445.449,985.971 433.449,978.971 420.5,973.5C 414.332,968.243 407.332,964.243 399.5,961.5C 394.503,956.81 388.837,952.81 382.5,949.5C 377.356,947.347 372.356,945.014 367.5,942.5C 363.126,938.021 357.792,935.021 351.5,933.5C 351.586,932.504 351.252,931.671 350.5,931C 336.63,924.266 323.297,916.599 310.5,908C 301.044,902.605 291.377,897.772 281.5,893.5C 278.794,890.479 275.461,888.479 271.5,887.5C 271.063,885.926 270.063,884.759 268.5,884C 259.427,879.729 250.76,874.896 242.5,869.5C 242.5,868.833 242.5,868.167 242.5,867.5C 242.5,721.167 242.5,574.833 242.5,428.5C 244.167,428.5 245.833,428.5 247.5,428.5 Z" />
  </g>
  <g>
    <path style="opacity:1" fill="#7e2526"
      d="M 247.5,428.5 C 252.372,430.277 257.372,431.943 262.5,433.5C 266.257,436.251 269.257,439.585 271.5,443.5C 263.127,438.987 255.127,433.987 247.5,428.5 Z" />
  </g>
  <g>
    <path style="opacity:1" fill="#682021"
      d="M 271.5,443.5 C 273.527,443.338 275.527,443.505 277.5,444C 281.08,446.277 284.414,448.777 287.5,451.5C 281.907,449.37 276.574,446.704 271.5,443.5 Z" />
  </g>
  <g>
    <path style="opacity:1" fill="#6f221f"
      d="M 965.5,434.5 C 964.933,436.03 964.267,437.53 963.5,439C 958.732,441.313 953.732,443.147 948.5,444.5C 953.71,440.426 959.377,437.093 965.5,434.5 Z" />
  </g>
  <g>
    <path style="opacity:1" fill="#8d2926"
      d="M 303.5,430.5 C 309.958,434.709 316.958,437.876 324.5,440C 329.724,444.1 335.057,447.933 340.5,451.5C 337.134,451.788 333.8,451.954 330.5,452C 329.32,448.481 327.32,445.481 324.5,443C 320.276,440.721 315.943,438.721 311.5,437C 308.645,434.969 305.978,432.803 303.5,430.5 Z" />
  </g>
  <g>
    <path style="opacity:1" fill="#8b8b8b"
      d="M 551.5,432.5 C 544.768,439.227 538.435,446.227 532.5,453.5C 537.07,444.929 543.403,437.929 551.5,432.5 Z" />
  </g>
  <g>
    <path style="opacity:1" fill="#a3a3a3"
      d="M 773.5,444.5 C 776.103,450.151 776.103,455.818 773.5,461.5C 773.5,455.833 773.5,450.167 773.5,444.5 Z" />
  </g>
  <g>
    <path style="opacity:1" fill="#732220"
      d="M 340.5,451.5 C 345.788,453.254 350.788,455.754 355.5,459C 357.041,460.371 358.375,461.871 359.5,463.5C 355.599,460.719 351.266,458.719 346.5,457.5C 344.467,455.493 342.467,453.493 340.5,451.5 Z" />
  </g>
  <g>
    <path style="opacity:1" fill="#772525"
      d="M 1023.5,433.5 C 1009.39,441.728 995.386,450.228 981.5,459C 976.817,461.276 972.15,463.443 967.5,465.5C 970.023,463.202 972.689,460.868 975.5,458.5C 982.588,454.29 989.921,450.623 997.5,447.5C 997.238,446.022 997.571,444.689 998.5,443.5C 1001.64,441.978 1004.97,441.145 1008.5,441C 1012.01,438.843 1015.35,436.509 1018.5,434C 1020.13,433.506 1021.8,433.34 1023.5,433.5 Z" />
  </g>
  <g>
    <path style="opacity:1" fill="#621d1b"
      d="M 943.5,447.5 C 943.586,448.496 943.252,449.329 942.5,450C 939.975,450.424 937.975,451.59 936.5,453.5C 933.702,454.953 930.702,455.953 927.5,456.5C 932.221,452.471 937.554,449.471 943.5,447.5 Z" />
  </g>
  <g>
    <path style="opacity:1" fill="#611d1d"
      d="M 287.5,451.5 C 288.873,451.343 290.207,451.51 291.5,452C 296.376,455.938 301.709,459.105 307.5,461.5C 312.673,464.921 317.673,468.587 322.5,472.5C 310.062,466.717 298.396,459.717 287.5,451.5 Z" />
  </g>
  <g>
    <path style="opacity:1" fill="#9a3030"
      d="M 936.5,453.5 C 933.308,457.188 929.308,459.688 924.5,461C 920.449,465.525 915.449,468.191 909.5,469C 905.597,472.801 900.93,474.968 895.5,475.5C 897.636,474.347 899.636,473.014 901.5,471.5C 902.873,471.657 904.207,471.49 905.5,471C 913.249,467.065 920.582,462.565 927.5,457.5C 927.5,457.167 927.5,456.833 927.5,456.5C 930.702,455.953 933.702,454.953 936.5,453.5 Z" />
  </g>
  <g>
    <path style="opacity:1" fill="#591819"
      d="M 927.5,457.5 C 920.582,462.565 913.249,467.065 905.5,471C 904.207,471.49 902.873,471.657 901.5,471.5C 907.266,467.441 913.266,463.608 919.5,460C 921.927,458.409 924.593,457.575 927.5,457.5 Z" />
  </g>
  <g>
    <path style="opacity:1" fill="#a2a2a2"
      d="M 734.5,463.5 C 734.55,468.045 732.883,471.711 729.5,474.5C 730.982,470.706 732.649,467.039 734.5,463.5 Z" />
  </g>
  <g>
    <path style="opacity:1" fill="#742223"
      d="M 361.5,463.5 C 369.6,466.614 376.933,470.947 383.5,476.5C 378.167,475.332 373.501,472.832 369.5,469C 364.917,469.672 362.25,467.839 361.5,463.5 Z" />
  </g>
  <g>
    <path style="opacity:1" fill="#b1b1b1"
      d="M 532.5,453.5 C 530.425,460.729 528.758,468.062 527.5,475.5C 528.025,481.262 529.025,486.929 530.5,492.5C 528.895,490.52 527.728,488.187 527,485.5C 525.907,476.342 526.574,467.342 529,458.5C 530.03,456.654 531.196,454.987 532.5,453.5 Z" />
  </g>
  <g>
    <path style="opacity:1" fill="#752524"
      d="M 967.5,465.5 C 961.232,469.643 954.899,473.81 948.5,478C 946.975,479.009 945.308,479.509 943.5,479.5C 943.859,477.629 944.859,476.129 946.5,475C 953.218,471.08 960.218,467.914 967.5,465.5 Z" />
  </g>
  <g>
    <path style="opacity:1" fill="#601d1c"
      d="M 322.5,472.5 C 324.655,472.372 326.655,472.872 328.5,474C 331.266,475.371 333.599,477.204 335.5,479.5C 330.724,477.946 326.39,475.613 322.5,472.5 Z" />
  </g>
  <g>
    <path style="opacity:1" fill="#611b1b"
      d="M 335.5,479.5 C 336.873,479.343 338.207,479.51 339.5,480C 342.33,481.728 344.663,483.895 346.5,486.5C 342.317,484.913 338.65,482.579 335.5,479.5 Z" />
  </g>
  <g>
    <path style="opacity:1" fill="#902b28"
      d="M 943.5,479.5 C 932.84,485.831 922.173,492.164 911.5,498.5C 911.5,497.5 911.5,496.5 911.5,495.5C 912.675,495.719 913.675,495.386 914.5,494.5C 912.703,493.305 911.703,491.638 911.5,489.5C 912.5,489.5 913.5,489.5 914.5,489.5C 914.351,490.552 914.517,491.552 915,492.5C 917.041,491.577 919.208,491.244 921.5,491.5C 921.67,490.178 921.337,489.011 920.5,488C 922.623,486.806 924.957,486.14 927.5,486C 928.87,484.559 929.87,482.892 930.5,481C 934.816,481.213 939.149,480.713 943.5,479.5 Z" />
  </g>
  <g>
    <path style="opacity:1" fill="#7c2722"
      d="M 383.5,476.5 C 393.069,479.951 401.735,484.951 409.5,491.5C 404.611,490.21 399.944,488.377 395.5,486C 392.121,483.928 388.787,481.928 385.5,480C 384.695,478.887 384.028,477.721 383.5,476.5 Z" />
  </g>
  <g>
    <path style="opacity:1" fill="#8c8c8c"
      d="M 564.5,465.5 C 564.009,472.346 564.676,479.012 566.5,485.5C 565.504,485.586 564.671,485.252 564,484.5C 563.18,477.986 563.347,471.653 564.5,465.5 Z" />
  </g>
  <g>
    <path style="opacity:1" fill="#a0a0a0"
      d="M 727.5,477.5 C 725.132,481.868 721.799,485.202 717.5,487.5C 720.5,483.833 723.833,480.5 727.5,477.5 Z" />
  </g>
  <g>
    <path style="opacity:1" fill="#702322"
      d="M 346.5,486.5 C 350.154,486.942 353.821,487.276 357.5,487.5C 357.281,488.675 357.614,489.675 358.5,490.5C 360.754,491.124 362.421,492.457 363.5,494.5C 366.387,496.111 369.387,497.444 372.5,498.5C 376.81,500.819 380.477,503.819 383.5,507.5C 377.231,504.365 370.897,501.199 364.5,498C 358.59,493.904 352.59,490.071 346.5,486.5 Z" />
  </g>
  <g>
    <path style="opacity:1" fill="#a6a6a6"
      d="M 573.5,494.5 C 577.524,497.531 581.524,500.531 585.5,503.5C 582.286,502.56 579.286,501.06 576.5,499C 574.859,497.871 573.859,496.371 573.5,494.5 Z" />
  </g>
  <g>
    <path style="opacity:1" fill="#b7b7b7"
      d="M 697.5,499.5 C 696.358,501.433 694.692,502.933 692.5,504C 687.528,505.361 682.528,506.527 677.5,507.5C 684.171,505.05 690.837,502.383 697.5,499.5 Z" />
  </g>
  <g>
    <path style="opacity:1" fill="#882a26"
      d="M 911.5,498.5 C 905.104,502.824 898.104,506.324 890.5,509C 888.5,510.333 886.833,512 885.5,514C 878.407,518.764 871.074,523.097 863.5,527C 861.527,527.495 859.527,527.662 857.5,527.5C 858.53,526.18 859.53,524.68 860.5,523C 862.167,522.667 863.833,522.333 865.5,522C 872.657,517.979 879.657,513.812 886.5,509.5C 886.291,508.914 885.957,508.414 885.5,508C 894.516,505.405 903.183,502.239 911.5,498.5 Z" />
  </g>
  <g>
    <path style="opacity:1" fill="#9a2c2c"
      d="M 895.5,476.5 C 895.66,478.199 895.494,479.866 895,481.5C 893.951,480.483 892.784,480.316 891.5,481C 881.397,485.264 871.73,490.264 862.5,496C 860.193,497.828 860.526,499.494 863.5,501C 862.234,501.309 861.067,501.809 860,502.5C 858.933,500.717 857.433,500.217 855.5,501C 853.159,504.678 849.826,506.678 845.5,507C 842.688,507.946 840.355,509.613 838.5,512C 836.527,512.495 834.527,512.662 832.5,512.5C 842.137,507.348 851.47,501.681 860.5,495.5C 871.26,487.471 882.926,481.138 895.5,476.5 Z" />
  </g>
  <g>
    <path style="opacity:1" fill="#551715"
      d="M 439.5,508.5 C 440.873,508.343 442.207,508.51 443.5,509C 447.526,511.93 451.526,514.763 455.5,517.5C 453.099,516.951 450.765,516.118 448.5,515C 445.433,512.812 442.433,510.645 439.5,508.5 Z" />
  </g>
  <g>
    <path style="opacity:1" fill="#81292c"
      d="M 1037.5,426.5 C 1038.16,572.294 1038.83,717.961 1039.5,863.5C 1039.76,870.403 1036.43,873.903 1029.5,874C 1027.94,875.947 1025.94,877.114 1023.5,877.5C 1026.06,874.283 1029.39,872.283 1033.5,871.5C 1035.02,871.489 1036.18,870.823 1037,869.5C 1037.83,722.666 1037.67,575.999 1036.5,429.5C 1035.4,428.402 1034.07,428.235 1032.5,429C 1029.75,431.041 1026.75,432.541 1023.5,433.5C 1025.85,431.468 1028.52,429.635 1031.5,428C 1033.35,426.872 1035.35,426.372 1037.5,426.5 Z" />
  </g>
  <g>
    <path style="opacity:1" fill="#8c8c8c"
      d="M 667.5,510.5 C 665.852,511.927 663.852,512.76 661.5,513C 646.69,514.644 632.023,514.811 617.5,513.5C 634.275,514.052 650.942,513.052 667.5,510.5 Z" />
  </g>
  <g>
    <path style="opacity:1" fill="#551718"
      d="M 860.5,495.5 C 851.47,501.681 842.137,507.348 832.5,512.5C 828.554,516.288 823.887,518.621 818.5,519.5C 818.953,518.542 819.619,517.708 820.5,517C 831.722,511.039 842.722,504.705 853.5,498C 855.854,497.153 858.188,496.32 860.5,495.5 Z" />
  </g>
  <g>
    <path style="opacity:1" fill="#8f2a29"
      d="M 409.5,491.5 C 412.804,491.3 415.304,492.634 417,495.5C 425.246,498.629 432.746,502.962 439.5,508.5C 442.433,510.645 445.433,512.812 448.5,515C 450.765,516.118 453.099,516.951 455.5,517.5C 459.459,520.146 463.792,522.313 468.5,524C 469.71,525.039 470.71,526.206 471.5,527.5C 463.849,524.843 456.516,521.343 449.5,517C 447.833,516.667 446.167,516.333 444.5,516C 439.822,511.161 434.155,508.161 427.5,507C 426.123,503.295 423.456,500.961 419.5,500C 417.804,497.018 415.137,495.684 411.5,496C 410.733,494.53 410.067,493.03 409.5,491.5 Z" />
  </g>
  <g>
    <path style="opacity:1" fill="#5a1a17"
      d="M 392.5,511.5 C 396.954,514.115 401.287,516.948 405.5,520C 410.077,520.435 413.41,522.602 415.5,526.5C 408.231,523.135 401.231,519.301 394.5,515C 393.695,513.887 393.028,512.721 392.5,511.5 Z" />
  </g>
  <g>
    <path style="opacity:1" fill="#b0b0b0"
      d="M 561.5,520.5 C 563.927,520.523 566.26,521.023 568.5,522C 573.137,524.803 577.804,527.303 582.5,529.5C 574.851,527.838 567.851,524.838 561.5,520.5 Z" />
  </g>
  <g>
    <path style="opacity:1" fill="#6e2124"
      d="M 418.5,527.5 C 419.873,527.343 421.207,527.51 422.5,528C 427.139,531.223 432.139,533.89 437.5,536C 439.372,538.402 441.372,540.569 443.5,542.5C 439.505,541.336 436.172,539.169 433.5,536C 427.587,534.546 422.587,531.713 418.5,527.5 Z" />
  </g>
  <g>
    <path style="opacity:1" fill="#420d0e"
      d="M 804.5,527.5 C 800.746,529.647 797.08,531.98 793.5,534.5C 796.063,530.523 799.73,528.19 804.5,527.5 Z" />
  </g>
  <g>
    <path style="opacity:1" fill="#852728"
      d="M 855.5,530.5 C 848.128,535.96 840.128,540.293 831.5,543.5C 835.724,540.03 840.057,536.53 844.5,533C 848.104,531.846 851.771,531.013 855.5,530.5 Z" />
  </g>
  <g>
    <path style="opacity:1" fill="#bebebe"
      d="M 599.5,533.5 C 618.838,534.629 638.171,534.629 657.5,533.5C 638.178,537.444 618.844,537.444 599.5,533.5 Z" />
  </g>
  <g>
    <path style="opacity:1" fill="#f4f4f4"
      d="M 310.5,533.5 C 312.386,534.361 314.22,535.361 316,536.5C 316.333,560.167 316.667,583.833 317,607.5C 325.778,613.432 334.945,618.765 344.5,623.5C 345.495,628.792 345.828,634.125 345.5,639.5C 333.658,633.972 322.325,627.638 311.5,620.5C 310.496,619.317 309.662,617.984 309,616.5C 308.833,602.667 308.667,588.833 308.5,575C 308.501,560.817 309.167,546.983 310.5,533.5 Z" />
  </g>
  <g>
    <path style="opacity:1" fill="#802728"
      d="M 471.5,527.5 C 474.861,529.461 478.528,530.961 482.5,532C 488.894,535.23 494.894,539.063 500.5,543.5C 495.403,543.457 490.736,541.957 486.5,539C 481.245,535.213 476.245,531.38 471.5,527.5 Z" />
  </g>
  <g>
    <path style="opacity:1" fill="#631c1b"
      d="M 447.5,544.5 C 452.465,545.311 456.465,547.644 459.5,551.5C 454.976,549.957 450.976,547.623 447.5,544.5 Z" />
  </g>
  <g>
    <path style="opacity:1" fill="#742326"
      d="M 245.5,427.5 C 244.167,427.5 242.833,427.5 241.5,427.5C 241.167,574.334 241.5,721.001 242.5,867.5C 242.5,868.167 242.5,868.833 242.5,869.5C 241.883,869.389 241.383,869.056 241,868.5C 240.5,721.167 240.333,573.834 240.5,426.5C 242.415,426.216 244.081,426.549 245.5,427.5 Z" />
  </g>
  <g>
    <path style="opacity:1" fill="#65201e"
      d="M 463.5,553.5 C 467.443,554.568 471.11,556.402 474.5,559C 475.833,559.333 477.167,559.667 478.5,560C 479.252,560.671 479.586,561.504 479.5,562.5C 473.346,561 468.013,558 463.5,553.5 Z" />
  </g>
  <g>
    <path style="opacity:1" fill="#792422"
      d="M 505.5,546.5 C 508.93,547.714 512.264,549.214 515.5,551C 519.742,553.61 523.742,556.443 527.5,559.5C 525.473,559.662 523.473,559.495 521.5,559C 515.466,555.512 510.132,551.346 505.5,546.5 Z" />
  </g>
  <g>
    <path style="opacity:1" fill="#8e2c27"
      d="M 831.5,544.5 C 821.476,551.293 810.81,556.959 799.5,561.5C 799.5,560.5 799.5,559.5 799.5,558.5C 802.657,557.537 805.49,555.87 808,553.5C 816.013,550.908 823.846,547.908 831.5,544.5 Z" />
  </g>
  <g>
    <path style="opacity:1" fill="#691f1e"
      d="M 793.5,534.5 C 791.396,536.099 789.396,537.932 787.5,540C 779.826,543.68 772.159,547.346 764.5,551C 760.672,554.574 756.339,557.074 751.5,558.5C 751.953,557.542 752.619,556.708 753.5,556C 762.781,551.033 771.781,545.7 780.5,540C 784.594,537.62 788.927,535.787 793.5,534.5 Z" />
  </g>
  <g>
    <path style="opacity:1" fill="#f7f7f7"
      d="M 920.5,657.5 C 915.805,664.191 913.471,671.858 913.5,680.5C 918.818,680.189 922.151,677.522 923.5,672.5C 928.177,670.666 932.843,668.499 937.5,666C 942.155,665.501 946.821,665.334 951.5,665.5C 961.511,669.18 968.178,676.18 971.5,686.5C 971.821,692.079 973.488,697.079 976.5,701.5C 978.174,720.79 978.841,740.124 978.5,759.5C 978.658,762.902 978.324,766.236 977.5,769.5C 974.477,784.258 970.81,798.925 966.5,813.5C 966.5,813.833 966.5,814.167 966.5,814.5C 963.162,818.491 961.162,823.158 960.5,828.5C 951.911,849.586 937.578,865.42 917.5,876C 902.19,881.098 890.024,876.932 881,863.5C 874.528,850.956 870.528,837.622 869,823.5C 868.234,808.808 868.401,794.141 869.5,779.5C 870.222,779.082 870.722,778.416 871,777.5C 871.977,772.207 872.477,766.874 872.5,761.5C 872.7,758.37 873.366,755.37 874.5,752.5C 876.995,747.931 878.328,742.931 878.5,737.5C 878.557,736.391 878.89,735.391 879.5,734.5C 881.744,729.767 883.411,724.767 884.5,719.5C 884.232,717.901 884.566,716.568 885.5,715.5C 887.411,711.767 888.744,707.767 889.5,703.5C 889.723,699.838 890.723,696.505 892.5,693.5C 895.133,686.617 897.8,679.617 900.5,672.5C 900.997,670.182 901.33,667.848 901.5,665.5C 903.943,660.5 905.61,655.166 906.5,649.5C 906.875,647.302 907.542,645.302 908.5,643.5C 910.411,639.767 911.744,635.767 912.5,631.5C 914.767,622.368 917.434,613.368 920.5,604.5C 922.555,600.561 924.722,596.561 927,592.5C 927.945,588.886 928.612,585.219 929,581.5C 932.418,575.227 934.252,568.56 934.5,561.5C 935.15,559.565 935.483,557.565 935.5,555.5C 940.819,556.625 945.319,559.291 949,563.5C 949.167,564.333 949.333,565.167 949.5,566C 940.27,596.66 930.604,627.16 920.5,657.5 Z" />
  </g>
  <g>
    <path style="opacity:1" fill="#a73136"
      d="M 1037.5,426.5 C 1038.12,426.611 1038.62,426.944 1039,427.5C 1039.5,572.833 1039.67,718.166 1039.5,863.5C 1038.83,717.961 1038.16,572.294 1037.5,426.5 Z" />
  </g>
  <g>
    <path style="opacity:1" fill="#6c2120"
      d="M 479.5,563.5 C 484.309,564.125 488.642,565.959 492.5,569C 497.401,568.95 501.068,570.95 503.5,575C 505.871,576.879 508.538,578.045 511.5,578.5C 511.5,579.5 511.5,580.5 511.5,581.5C 500.404,576.045 489.737,570.045 479.5,563.5 Z" />
  </g>
  <g>
    <path style="opacity:1" fill="#852928"
      d="M 799.5,561.5 C 798.525,563.193 797.192,564.693 795.5,566C 792.167,568 788.833,570 785.5,572C 782.23,573.459 778.897,574.626 775.5,575.5C 775.297,573.61 775.963,572.11 777.5,571C 784.27,569.615 790.27,566.615 795.5,562C 796.793,561.51 798.127,561.343 799.5,561.5 Z" />
  </g>
  <g>
    <path style="opacity:1" fill="#862828"
      d="M 527.5,559.5 C 534.714,561.88 541.047,565.714 546.5,571C 554.11,573.807 561.11,577.64 567.5,582.5C 565.319,582.716 563.653,581.883 562.5,580C 559.833,579.667 557.167,579.333 554.5,579C 548.593,574.548 542.26,570.881 535.5,568C 534.809,566.933 534.309,565.766 534,564.5C 531.648,562.97 529.481,561.303 527.5,559.5 Z" />
  </g>
  <g>
    <path style="opacity:1" fill="#b1b1b1"
      d="M 378.5,573.5 C 377.167,573.5 375.833,573.5 374.5,573.5C 372.799,576.925 371.633,580.591 371,584.5C 370.051,586.093 368.885,587.426 367.5,588.5C 369.228,583.485 371.061,578.485 373,573.5C 374.969,570.876 376.802,570.876 378.5,573.5 Z" />
  </g>
  <g>
    <path style="opacity:1" fill="#f8f8f8"
      d="M 378.5,573.5 C 379.873,573.343 381.207,573.51 382.5,574C 391.222,580.024 400.222,585.524 409.5,590.5C 409.5,690.833 409.5,791.167 409.5,891.5C 407.097,891.552 404.764,891.219 402.5,890.5C 398.763,889.932 395.596,888.265 393,885.5C 392.5,794.167 392.333,702.834 392.5,611.5C 383.945,607.553 375.611,603.053 367.5,598C 365.196,594.952 365.196,591.785 367.5,588.5C 368.885,587.426 370.051,586.093 371,584.5C 371.633,580.591 372.799,576.925 374.5,573.5C 375.833,573.5 377.167,573.5 378.5,573.5 Z" />
  </g>
  <g>
    <path style="opacity:1" fill="#a0a0a0"
      d="M 310.5,533.5 C 309.167,546.983 308.501,560.817 308.5,575C 308.667,588.833 308.833,602.667 309,616.5C 309.662,617.984 310.496,619.317 311.5,620.5C 309.983,620.489 308.816,619.823 308,618.5C 307.5,589.835 307.333,561.169 307.5,532.5C 308.791,532.263 309.791,532.596 310.5,533.5 Z" />
  </g>
  <g>
    <path style="opacity:1" fill="#651c1c"
      d="M 748.5,559.5 C 743.378,565.446 737.044,569.613 729.5,572C 727.588,574.788 724.921,576.121 721.5,576C 719.5,577.667 717.5,579.333 715.5,581C 710.7,582.989 706.034,585.155 701.5,587.5C 702.29,586.206 703.29,585.039 704.5,584C 719.028,575.57 733.695,567.403 748.5,559.5 Z" />
  </g>
  <g>
    <path style="opacity:1" fill="#832829"
      d="M 567.5,582.5 C 572.034,583.977 576.034,586.477 579.5,590C 584.079,590.444 587.412,592.611 589.5,596.5C 587.436,596.313 585.436,595.813 583.5,595C 579.644,592.485 575.644,590.152 571.5,588C 569.561,586.568 568.228,584.735 567.5,582.5 Z" />
  </g>
  <g>
    <path style="opacity:1" fill="#8d2a28"
      d="M 775.5,575.5 C 772.481,578.679 768.814,580.846 764.5,582C 750.824,592.845 735.824,601.345 719.5,607.5C 723.828,604.996 727.828,601.996 731.5,598.5C 735.897,595.635 740.563,593.302 745.5,591.5C 746.803,589.623 748.303,587.957 750,586.5C 751.726,587.576 753.559,587.743 755.5,587C 757.351,585.316 759.018,583.483 760.5,581.5C 765.88,580.454 770.88,578.454 775.5,575.5 Z" />
  </g>
  <g>
    <path style="opacity:1" fill="#c0c0c0"
      d="M 934.5,561.5 C 934.252,568.56 932.418,575.227 929,581.5C 928.612,585.219 927.945,588.886 927,592.5C 924.722,596.561 922.555,600.561 920.5,604.5C 924.796,589.947 929.463,575.613 934.5,561.5 Z" />
  </g>
  <g>
    <path style="opacity:1" fill="#8b2726"
      d="M 511.5,581.5 C 515.572,582.698 519.572,584.198 523.5,586C 526.557,586.256 529.557,586.756 532.5,587.5C 533.833,588.167 533.833,588.833 532.5,589.5C 531.131,587.876 529.464,587.376 527.5,588C 532.823,592.646 539.156,595.313 546.5,596C 547.227,597.399 547.727,598.899 548,600.5C 551.023,602.698 553.856,605.031 556.5,607.5C 540.925,599.555 525.925,590.888 511.5,581.5 Z" />
  </g>
  <g>
    <path style="opacity:1" fill="#822626"
      d="M 590.5,596.5 C 594.266,597.769 597.933,599.269 601.5,601C 603.837,602.634 605.837,604.467 607.5,606.5C 603.128,605.156 598.795,603.489 594.5,601.5C 592.596,600.234 591.263,598.567 590.5,596.5 Z" />
  </g>
  <g>
    <path style="opacity:1" fill="#611e1d"
      d="M 693.5,591.5 C 690.306,595.126 686.306,597.626 681.5,599C 679.137,602.619 675.804,604.453 671.5,604.5C 671.5,605.5 671.5,606.5 671.5,607.5C 667.1,607.703 663.433,609.537 660.5,613C 657.526,613.993 654.526,614.826 651.5,615.5C 665.166,606.998 679.166,598.998 693.5,591.5 Z" />
  </g>
  <g>
    <path style="opacity:1" fill="#5f1e1b"
      d="M 715.5,610.5 C 712.725,613.605 709.392,615.938 705.5,617.5C 708.275,614.395 711.608,612.062 715.5,610.5 Z" />
  </g>
  <g>
    <path style="opacity:1" fill="#7d2824"
      d="M 559.5,609.5 C 564.916,611.08 570.249,612.913 575.5,615C 579.452,617.137 582.785,619.971 585.5,623.5C 576.53,619.719 567.863,615.052 559.5,609.5 Z" />
  </g>
  <g>
    <path style="opacity:1" fill="#494949"
      d="M 410.5,590.5 C 411.499,691.999 411.833,793.665 411.5,895.5C 410.209,895.737 409.209,895.404 408.5,894.5C 410.498,793.505 411.164,692.172 410.5,590.5 Z" />
  </g>
  <g>
    <path style="opacity:1" fill="#792728"
      d="M 585.5,623.5 C 590.729,623.779 594.729,626.113 597.5,630.5C 596.127,630.657 594.793,630.49 593.5,630C 590.262,628.442 587.595,626.276 585.5,623.5 Z" />
  </g>
  <g>
    <path style="opacity:1" fill="#802624"
      d="M 623.5,615.5 C 628.588,617.543 633.588,619.876 638.5,622.5C 642.615,619.707 646.949,617.374 651.5,615.5C 648.537,620.461 644.203,623.461 638.5,624.5C 635.447,625.048 633.447,623.882 632.5,621C 628.847,620.17 625.847,618.337 623.5,615.5 Z" />
  </g>
  <g>
    <path style="opacity:1" fill="#fcfcfc"
      d="M 821.5,925.5 C 820.341,927.25 818.674,928.25 816.5,928.5C 814.956,928.703 813.622,929.37 812.5,930.5C 811.833,930.167 811.167,929.833 810.5,929.5C 810.167,930.167 809.833,930.833 809.5,931.5C 808.833,931.167 808.167,930.833 807.5,930.5C 806.833,843.001 806.167,755.668 805.5,668.5C 804.209,668.263 803.209,668.596 802.5,669.5C 796.082,673.536 789.416,677.202 782.5,680.5C 781.861,679.903 781.528,679.07 781.5,678C 784.228,670.046 785.895,661.879 786.5,653.5C 786.253,650.495 787.253,647.995 789.5,646C 798.06,640.889 806.726,636.056 815.5,631.5C 817.435,630.85 819.435,630.517 821.5,630.5C 821.5,728.833 821.5,827.167 821.5,925.5 Z" />
  </g>
  <g>
    <path style="opacity:1" fill="#972d2d"
      d="M 700.5,619.5 C 699.71,620.794 698.71,621.961 697.5,623C 693.271,624.258 689.271,625.925 685.5,628C 684.167,629.333 682.833,630.667 681.5,632C 674.977,635.735 668.31,639.235 661.5,642.5C 659.236,643.219 656.903,643.552 654.5,643.5C 659.078,641.2 663.412,638.366 667.5,635C 669.392,634.027 671.392,633.36 673.5,633C 674.833,631 674.833,629 673.5,627C 673.833,626.833 674.167,626.667 674.5,626.5C 675.167,627.5 675.833,628.5 676.5,629.5C 681.49,626.586 686.823,624.586 692.5,623.5C 692.281,622.325 692.614,621.325 693.5,620.5C 695.747,619.626 698.08,619.292 700.5,619.5 Z" />
  </g>
  <g>
    <path style="opacity:1" fill="#909090"
      d="M 912.5,631.5 C 911.744,635.767 910.411,639.767 908.5,643.5C 908.861,639.085 910.194,635.085 912.5,631.5 Z" />
  </g>
  <g>
    <path style="opacity:1" fill="#ededed"
      d="M 304.5,695.5 C 307.609,688.501 309.943,681.168 311.5,673.5C 313.224,665.661 315.557,657.994 318.5,650.5C 322.194,649.634 325.027,650.967 327,654.5C 334.481,685.758 341.648,717.092 348.5,748.5C 348.167,749.5 347.833,750.5 347.5,751.5C 345.004,750.42 342.67,749.086 340.5,747.5C 337.874,739.33 335.707,730.996 334,722.5C 327.178,717.972 320.178,713.972 313,710.5C 312.228,710.645 311.561,710.978 311,711.5C 309.473,716.943 307.64,722.276 305.5,727.5C 302.749,725.707 299.916,724.041 297,722.5C 296.333,720.833 296.333,719.167 297,717.5C 299.213,709.938 301.713,702.605 304.5,695.5 Z" />
  </g>
  <g>
    <path style="opacity:1" fill="#898989"
      d="M 906.5,649.5 C 905.61,655.166 903.943,660.5 901.5,665.5C 902.39,659.834 904.057,654.5 906.5,649.5 Z" />
  </g>
  <g>
    <path style="opacity:1" fill="#f7f7f7"
      d="M 565.5,841.5 C 568.849,863.692 570.183,886.025 569.5,908.5C 569.41,921.781 566.577,934.448 561,946.5C 558.35,950.975 555.183,954.975 551.5,958.5C 547.287,959.811 543.62,961.977 540.5,965C 533.093,965.605 525.759,965.105 518.5,963.5C 509.967,959.155 502.467,953.489 496,946.5C 481.378,928.513 471.211,908.18 465.5,885.5C 465.577,884.25 466.244,883.417 467.5,883C 465.121,877.639 463.288,872.139 462,866.5C 461.347,856.23 459.847,846.23 457.5,836.5C 457.292,819.993 458.792,803.66 462,787.5C 465.514,776.808 469.847,766.475 475,756.5C 475.49,755.207 475.657,753.873 475.5,752.5C 477.326,747.516 479.659,742.849 482.5,738.5C 486.06,735.06 488.893,731.06 491,726.5C 492.213,722.767 493.38,719.1 494.5,715.5C 504.407,694.519 514.74,673.686 525.5,653C 526.167,652.333 526.833,652.333 527.5,653C 528.211,654.255 529.044,655.421 530,656.5C 533.62,663.574 537.12,670.741 540.5,678C 528.635,701.562 516.635,725.062 504.5,748.5C 503.548,750.045 503.215,751.712 503.5,753.5C 509.252,754.078 514.585,755.911 519.5,759C 537.671,773.206 550.504,791.373 558,813.5C 561.444,822.611 563.944,831.945 565.5,841.5 Z" />
  </g>
  <g>
    <path style="opacity:1" fill="#ad2c30"
      d="M 652.5,646.5 C 652.5,729.5 652.5,812.5 652.5,895.5C 651.167,854.839 650.5,813.839 650.5,772.5C 650.667,731.5 650.833,690.5 651,649.5C 651.232,648.263 651.732,647.263 652.5,646.5 Z" />
  </g>
  <g>
    <path style="opacity:1" fill="#acacac"
      d="M 951.5,665.5 C 946.821,665.334 942.155,665.501 937.5,666C 932.843,668.499 928.177,670.666 923.5,672.5C 931.536,664.836 940.87,662.503 951.5,665.5 Z" />
  </g>
  <g>
    <path style="opacity:1" fill="#330d07"
      d="M 1036.5,429.5 C 1037.67,575.999 1037.83,722.666 1037,869.5C 1036.18,870.823 1035.02,871.489 1033.5,871.5C 1034.12,870.373 1034.96,869.373 1036,868.5C 1036.5,722.167 1036.67,575.834 1036.5,429.5 Z" />
  </g>
  <g>
    <path style="opacity:1" fill="#8c8c8c"
      d="M 311.5,673.5 C 309.943,681.168 307.609,688.501 304.5,695.5C 306.057,687.832 308.391,680.499 311.5,673.5 Z" />
  </g>
  <g>
    <path style="opacity:1" fill="#b4b4b4"
      d="M 786.5,653.5 C 785.895,661.879 784.228,670.046 781.5,678C 781.528,679.07 781.861,679.903 782.5,680.5C 781.171,682.377 779.838,682.544 778.5,681C 780.65,671.546 783.317,662.379 786.5,653.5 Z" />
  </g>
  <g>
    <path style="opacity:1" fill="#bebebe"
      d="M 920.5,657.5 C 918.205,664.221 916.205,671.054 914.5,678C 914.667,678.5 914.833,679 915,679.5C 917.411,676.583 920.244,674.25 923.5,672.5C 922.151,677.522 918.818,680.189 913.5,680.5C 913.471,671.858 915.805,664.191 920.5,657.5 Z" />
  </g>
  <g>
    <path style="opacity:1" fill="#121212"
      d="M 321.5,677.5 C 323.631,680.329 325.131,683.662 326,687.5C 327.745,692.386 328.412,697.386 328,702.5C 323.27,700.734 319.437,697.901 316.5,694C 318.403,688.551 320.07,683.051 321.5,677.5 Z" />
  </g>
  <g>
    <path style="opacity:1" fill="#222222"
      d="M 802.5,669.5 C 803.209,668.596 804.209,668.263 805.5,668.5C 805.5,757.167 805.5,845.833 805.5,934.5C 805.166,845.995 804.166,757.662 802.5,669.5 Z" />
  </g>
  <g>
    <path style="opacity:1" fill="#f4f4f4"
      d="M 728.5,681.5 C 730.489,703.475 731.156,725.808 730.5,748.5C 731.791,748.737 732.791,748.404 733.5,747.5C 740.977,742.925 748.644,738.592 756.5,734.5C 758.442,739.056 759.108,744.056 758.5,749.5C 747.167,755.833 735.833,762.167 724.5,768.5C 722.508,740.853 721.842,712.853 722.5,684.5C 724.5,683.5 726.5,682.5 728.5,681.5 Z" />
  </g>
  <g>
    <path style="opacity:1" fill="#d9d9d9"
      d="M 409.5,590.5 C 409.833,590.5 410.167,590.5 410.5,590.5C 411.164,692.172 410.498,793.505 408.5,894.5C 405.802,894.155 403.802,892.822 402.5,890.5C 404.764,891.219 407.097,891.552 409.5,891.5C 409.5,791.167 409.5,690.833 409.5,590.5 Z" />
  </g>
  <g>
    <path style="opacity:1" fill="#4c4c4c"
      d="M 722.5,684.5 C 721.842,712.853 722.508,740.853 724.5,768.5C 724.189,769.478 723.522,770.145 722.5,770.5C 721.17,741.669 721.17,713.003 722.5,684.5 Z" />
  </g>
  <g>
    <path style="opacity:1" fill="#7b7b7b"
      d="M 728.5,681.5 C 729.209,680.596 730.209,680.263 731.5,680.5C 730.844,703.192 731.511,725.525 733.5,747.5C 732.791,748.404 731.791,748.737 730.5,748.5C 731.156,725.808 730.489,703.475 728.5,681.5 Z" />
  </g>
  <g>
    <path style="opacity:1" fill="#e7e7e7"
      d="M 818.5,629.5 C 819.833,629.5 821.167,629.5 822.5,629.5C 822.5,728.167 822.5,826.833 822.5,925.5C 822.167,925.5 821.833,925.5 821.5,925.5C 821.5,827.167 821.5,728.833 821.5,630.5C 819.435,630.517 817.435,630.85 815.5,631.5C 815.973,630.094 816.973,629.427 818.5,629.5 Z" />
  </g>
  <g>
    <path style="opacity:1" fill="#aaaaaa"
      d="M 901.5,665.5 C 901.33,667.848 900.997,670.182 900.5,672.5C 897.8,679.617 895.133,686.617 892.5,693.5C 894.72,683.842 897.72,674.508 901.5,665.5 Z" />
  </g>
  <g>
    <path style="opacity:1" fill="#aaaaaa"
      d="M 971.5,686.5 C 974.14,691.085 975.806,696.085 976.5,701.5C 973.488,697.079 971.821,692.079 971.5,686.5 Z" />
  </g>
  <g>
    <path style="opacity:1" fill="#79262a"
      d="M 661.5,642.5 C 659.428,644.726 656.928,646.393 654,647.5C 653.503,650.146 653.336,652.813 653.5,655.5C 653.333,799.5 653.5,943.5 654,1087.5C 655.49,1088.73 656.99,1088.73 658.5,1087.5C 667.573,1081.77 676.906,1076.44 686.5,1071.5C 684.551,1073.48 682.551,1075.48 680.5,1077.5C 678.394,1078.78 676.06,1079.62 673.5,1080C 672.619,1080.71 671.953,1081.54 671.5,1082.5C 668.676,1083.94 665.676,1085.11 662.5,1086C 660.194,1089.5 656.86,1091 652.5,1090.5C 652.5,1030.83 652.5,971.167 652.5,911.5C 652.5,906.167 652.5,900.833 652.5,895.5C 652.5,812.5 652.5,729.5 652.5,646.5C 653.167,645.5 653.833,644.5 654.5,643.5C 656.903,643.552 659.236,643.219 661.5,642.5 Z" />
  </g>
  <g>
    <path style="opacity:1" fill="#020202"
      d="M 958.5,716.5 C 963.737,739.47 963.737,762.47 958.5,785.5C 954.425,801.657 947.592,816.657 938,830.5C 913.808,855.411 897.141,851.077 888,817.5C 881.553,779.912 888.553,745.246 909,713.5C 913.833,709.333 918.667,705.167 923.5,701C 934.899,694.855 944.733,696.688 953,706.5C 955.13,709.767 956.963,713.1 958.5,716.5 Z" />
  </g>
  <g>
    <path style="opacity:1" fill="#250600"
      d="M 245.5,427.5 C 246.492,427.328 247.158,427.662 247.5,428.5C 245.833,428.5 244.167,428.5 242.5,428.5C 242.5,574.833 242.5,721.167 242.5,867.5C 241.5,721.001 241.167,574.334 241.5,427.5C 242.833,427.5 244.167,427.5 245.5,427.5 Z" />
  </g>
  <g>
    <path style="opacity:1" fill="#929292"
      d="M 889.5,703.5 C 888.744,707.767 887.411,711.767 885.5,715.5C 885.861,711.085 887.194,707.085 889.5,703.5 Z" />
  </g>
  <g>
    <path style="opacity:1" fill="#d9d9d9"
      d="M 805.5,668.5 C 806.167,755.668 806.833,843.001 807.5,930.5C 808.167,930.833 808.833,931.167 809.5,931.5C 809.833,930.833 810.167,930.167 810.5,929.5C 811.167,929.833 811.833,930.167 812.5,930.5C 813.622,929.37 814.956,928.703 816.5,928.5C 816.047,929.458 815.381,930.292 814.5,931C 811.619,932.358 808.786,933.858 806,935.5C 805.601,935.272 805.435,934.938 805.5,934.5C 805.5,845.833 805.5,757.167 805.5,668.5 Z" />
  </g>
  <g>
    <path style="opacity:1" fill="#939393"
      d="M 884.5,719.5 C 883.411,724.767 881.744,729.767 879.5,734.5C 880.194,729.085 881.86,724.085 884.5,719.5 Z" />
  </g>
  <g>
    <path style="opacity:1" fill="#ababab"
      d="M 494.5,715.5 C 493.38,719.1 492.213,722.767 491,726.5C 488.893,731.06 486.06,735.06 482.5,738.5C 486.132,730.575 490.132,722.909 494.5,715.5 Z" />
  </g>
  <g>
    <path style="opacity:1" fill="#b5b5b5"
      d="M 976.5,701.5 C 980.32,718.824 981.487,736.491 980,754.5C 979.802,756.382 979.302,758.048 978.5,759.5C 978.841,740.124 978.174,720.79 976.5,701.5 Z" />
  </g>
  <g>
    <path style="opacity:1" fill="#818181"
      d="M 756.5,734.5 C 757.209,733.596 758.209,733.263 759.5,733.5C 759.821,739.026 759.488,744.36 758.5,749.5C 759.108,744.056 758.442,739.056 756.5,734.5 Z" />
  </g>
  <g>
    <path style="opacity:1" fill="#cbcbcb"
      d="M 958.5,716.5 C 959.649,716.791 960.316,717.624 960.5,719C 964.404,740.486 964.404,761.986 960.5,783.5C 959.818,784.243 959.151,784.909 958.5,785.5C 963.737,762.47 963.737,739.47 958.5,716.5 Z" />
  </g>
  <g>
    <path style="opacity:1" fill="#a5a5a5"
      d="M 878.5,737.5 C 878.328,742.931 876.995,747.931 874.5,752.5C 875.341,747.261 876.674,742.261 878.5,737.5 Z" />
  </g>
  <g>
    <path style="opacity:1" fill="#f1f1f1"
      d="M 305.5,750.5 C 315.858,756.434 326.024,762.767 336,769.5C 344.109,781.712 345.609,794.712 340.5,808.5C 346.621,820.907 348.121,833.907 345,847.5C 341.707,853.612 336.873,855.112 330.5,852C 322.382,846.867 314.049,842.2 305.5,838C 304.619,837.292 303.953,836.458 303.5,835.5C 302.509,807.241 302.175,778.907 302.5,750.5C 303.5,750.5 304.5,750.5 305.5,750.5 Z" />
  </g>
  <g>
    <path style="opacity:1" fill="#a8a8a8"
      d="M 872.5,761.5 C 872.477,766.874 871.977,772.207 871,777.5C 870.722,778.416 870.222,779.082 869.5,779.5C 870.271,773.331 871.271,767.331 872.5,761.5 Z" />
  </g>
  <g>
    <path style="opacity:1" fill="#080808"
      d="M 310.5,769.5 C 313.976,771.401 317.642,773.068 321.5,774.5C 325.7,777.141 329.7,780.141 333.5,783.5C 334.695,787.787 334.695,792.12 333.5,796.5C 331.473,796.662 329.473,796.495 327.5,796C 322.611,792.939 317.611,790.105 312.5,787.5C 312.217,786.711 311.717,786.044 311,785.5C 310.501,780.177 310.334,774.844 310.5,769.5 Z" />
  </g>
  <g>
    <path style="opacity:1" fill="#a7a7a7"
      d="M 310.5,769.5 C 310.334,774.844 310.501,780.177 311,785.5C 311.717,786.044 312.217,786.711 312.5,787.5C 311.504,787.586 310.671,787.252 310,786.5C 309.182,780.651 309.348,774.985 310.5,769.5 Z" />
  </g>
  <g>
    <path style="opacity:1" fill="#9f9f9f"
      d="M 321.5,774.5 C 322.873,774.343 324.207,774.51 325.5,775C 329.035,777.034 331.701,779.867 333.5,783.5C 329.7,780.141 325.7,777.141 321.5,774.5 Z" />
  </g>
  <g>
    <path style="opacity:1" fill="#bdbdbd"
      d="M 977.5,769.5 C 976.321,784.882 972.654,799.549 966.5,813.5C 970.81,798.925 974.477,784.258 977.5,769.5 Z" />
  </g>
  <g>
    <path style="opacity:1" fill="#020202"
      d="M 542.5,823.5 C 546.148,834.108 549.148,844.774 551.5,855.5C 552.194,860.805 552.528,866.138 552.5,871.5C 552.955,884.296 551.955,896.963 549.5,909.5C 547.682,915.128 545.349,920.462 542.5,925.5C 539.408,928.605 536.075,931.271 532.5,933.5C 532.167,933.5 531.833,933.5 531.5,933.5C 522.923,934.748 515.256,932.748 508.5,927.5C 492.286,910.741 482.12,890.741 478,867.5C 473.006,845.705 473.339,824.039 479,802.5C 486.218,781.974 499.051,777.474 517.5,789C 529.173,798.22 537.507,809.72 542.5,823.5 Z" />
  </g>
  <g>
    <path style="opacity:1" fill="#959595"
      d="M 822.5,925.5 C 822.5,826.833 822.5,728.167 822.5,629.5C 821.167,629.5 819.833,629.5 818.5,629.5C 819.635,627.787 821.302,627.12 823.5,627.5C 823.833,727.001 823.499,826.335 822.5,925.5 Z" />
  </g>
  <g>
    <path style="opacity:1" fill="#ececec"
      d="M 746.5,802.5 C 746.345,805.716 747.345,808.383 749.5,810.5C 754.616,825.301 758.949,840.301 762.5,855.5C 758.941,856.425 755.607,857.758 752.5,859.5C 751.436,853.576 749.603,847.909 747,842.5C 744.345,844.053 741.512,845.22 738.5,846C 734.86,849.646 730.693,852.479 726,854.5C 724.398,862.979 722.232,871.313 719.5,879.5C 717.167,880.833 714.833,882.167 712.5,883.5C 712.167,882.333 711.833,881.167 711.5,880C 718.855,848.919 726.188,817.919 733.5,787C 735.274,783.768 737.774,782.935 741,784.5C 743.143,790.428 744.977,796.428 746.5,802.5 Z" />
  </g>
  <g>
    <path style="opacity:1" fill="#b1b1b1"
      d="M 475.5,752.5 C 475.657,753.873 475.49,755.207 475,756.5C 469.847,766.475 465.514,776.808 462,787.5C 458.792,803.66 457.292,819.993 457.5,836.5C 454.337,806.49 460.337,778.49 475.5,752.5 Z" />
  </g>
  <g>
    <path style="opacity:1" fill="#080808"
      d="M 310.5,802.5 C 319.94,806.461 328.44,811.795 336,818.5C 338.146,824.446 337.979,830.279 335.5,836C 333.5,836.667 331.5,836.667 329.5,836C 323.249,832.292 317.083,828.459 311,824.5C 310.5,817.174 310.334,809.841 310.5,802.5 Z" />
  </g>
  <g>
    <path style="opacity:1" fill="#7d7d7d"
      d="M 746.5,802.5 C 747.871,804.936 748.871,807.603 749.5,810.5C 747.345,808.383 746.345,805.716 746.5,802.5 Z" />
  </g>
  <g>
    <path style="opacity:1" fill="#c9c9c9"
      d="M 303.5,749.5 C 304.492,749.328 305.158,749.662 305.5,750.5C 304.5,750.5 303.5,750.5 302.5,750.5C 302.175,778.907 302.509,807.241 303.5,835.5C 302.508,835.672 301.842,835.338 301.5,834.5C 300.842,805.814 301.508,777.48 303.5,749.5 Z" />
  </g>
  <g>
    <path style="opacity:1" fill="#0f0f0f"
      d="M 736.5,810.5 C 739.471,815.484 741.471,820.984 742.5,827C 740.195,830.675 736.861,833.175 732.5,834.5C 732.653,826.389 733.986,818.389 736.5,810.5 Z" />
  </g>
  <g>
    <path style="opacity:1" fill="#a8a8a8"
      d="M 966.5,814.5 C 964.988,819.508 962.988,824.174 960.5,828.5C 961.162,823.158 963.162,818.491 966.5,814.5 Z" />
  </g>
  <g>
    <path style="opacity:1" fill="#525252"
      d="M 303.5,749.5 C 301.508,777.48 300.842,805.814 301.5,834.5C 300.502,806.005 300.169,777.338 300.5,748.5C 301.791,748.263 302.791,748.596 303.5,749.5 Z" />
  </g>
  <g>
    <path style="opacity:1" fill="#bcbcbc"
      d="M 542.5,823.5 C 543.497,823.47 544.164,823.97 544.5,825C 546.15,830.287 547.983,835.453 550,840.5C 551.16,845.434 551.66,850.434 551.5,855.5C 549.148,844.774 546.148,834.108 542.5,823.5 Z" />
  </g>
  <g>
    <path style="opacity:1" fill="#cfcfcf"
      d="M 457.5,836.5 C 459.847,846.23 461.347,856.23 462,866.5C 463.288,872.139 465.121,877.639 467.5,883C 466.244,883.417 465.577,884.25 465.5,885.5C 460.365,869.688 457.698,853.354 457.5,836.5 Z" />
  </g>
  <g>
    <path style="opacity:1" fill="#89272f"
      d="M 599.5,632.5 C 602.885,632.846 606.218,633.512 609.5,634.5C 612.826,637.775 616.492,640.608 620.5,643C 622.811,643.236 624.811,644.069 626.5,645.5C 626.5,793.833 626.5,942.167 626.5,1090.5C 623.487,1090.89 620.82,1090.23 618.5,1088.5C 609.128,1085.15 600.461,1080.49 592.5,1074.5C 591.614,1073.68 591.281,1072.68 591.5,1071.5C 601.492,1076.49 611.159,1081.99 620.5,1088C 622.112,1088.72 623.612,1088.55 625,1087.5C 625.667,941.5 625.667,795.5 625,649.5C 624.626,648.584 624.126,647.75 623.5,647C 615.249,642.434 607.249,637.601 599.5,632.5 Z" />
  </g>
  <g>
    <path style="opacity:1" fill="#ad2e31"
      d="M 626.5,645.5 C 627.321,648.641 627.821,651.975 628,655.5C 628.833,800.834 628.667,946.168 627.5,1091.5C 624.854,1092.36 622.187,1092.2 619.5,1091C 618.748,1090.33 618.414,1089.5 618.5,1088.5C 620.82,1090.23 623.487,1090.89 626.5,1090.5C 626.5,942.167 626.5,793.833 626.5,645.5 Z" />
  </g>
  <g>
    <path style="opacity:1" fill="#7d2825"
      d="M 242.5,869.5 C 250.76,874.896 259.427,879.729 268.5,884C 270.063,884.759 271.063,885.926 271.5,887.5C 269.833,887.5 268.167,887.5 266.5,887.5C 266.719,886.325 266.386,885.325 265.5,884.5C 258.63,881.152 251.63,877.985 244.5,875C 242.845,873.556 242.178,871.722 242.5,869.5 Z" />
  </g>
  <g>
    <path style="opacity:1" fill="#d0d0d0"
      d="M 565.5,841.5 C 568.095,849.846 569.595,858.513 570,867.5C 570.827,881.34 570.661,895.006 569.5,908.5C 570.183,886.025 568.849,863.692 565.5,841.5 Z" />
  </g>
  <g>
    <path style="opacity:1" fill="#f1f1f1"
      d="M 755.5,913.5 C 753.584,917.846 754.584,921.346 758.5,924C 761.305,935.297 760.805,946.464 757,957.5C 754.949,962.214 752.115,966.381 748.5,970C 739.388,976.532 729.721,982.032 719.5,986.5C 718.5,986.5 717.5,986.5 716.5,986.5C 716.5,958.833 716.5,931.167 716.5,903.5C 724.699,898.568 733.032,893.901 741.5,889.5C 745.146,888.717 748.812,888.55 752.5,889C 753.494,890.329 754.494,891.662 755.5,893C 756.444,899.808 756.444,906.641 755.5,913.5 Z" />
  </g>
  <g>
    <path style="opacity:1" fill="#8d2927"
      d="M 1021.5,879.5 C 1021.01,880.473 1020.51,881.473 1020,882.5C 1017.57,883.029 1015.74,884.363 1014.5,886.5C 1015.5,887.167 1016.5,887.833 1017.5,888.5C 1012.19,888.549 1006.86,889.383 1001.5,891C 1000.55,892.955 999.213,894.622 997.5,896C 990.401,896.758 984.401,899.758 979.5,905C 975.56,906.592 971.56,908.092 967.5,909.5C 981.849,900.477 996.515,891.644 1011.5,883C 1014.56,880.965 1017.89,879.799 1021.5,879.5 Z" />
  </g>
  <g>
    <path style="opacity:1" fill="#9f9f9f"
      d="M 552.5,871.5 C 553.855,882.721 553.522,894.055 551.5,905.5C 551.415,907.333 550.748,908.666 549.5,909.5C 551.955,896.963 552.955,884.296 552.5,871.5 Z" />
  </g>
  <g>
    <path style="opacity:1" fill="#0c0c0c"
      d="M 742.5,903.5 C 744.766,903.141 746.599,903.808 748,905.5C 749.311,912.789 746.811,918.289 740.5,922C 735.251,925.123 729.918,927.956 724.5,930.5C 724.334,925.156 724.501,919.823 725,914.5C 730.761,910.544 736.594,906.877 742.5,903.5 Z" />
  </g>
  <g>
    <path style="opacity:1" fill="#b8b8b8"
      d="M 755.5,913.5 C 756.444,906.641 756.444,899.808 755.5,893C 754.494,891.662 753.494,890.329 752.5,889C 748.812,888.55 745.146,888.717 741.5,889.5C 746.576,885.258 751.409,885.591 756,890.5C 758.061,898.337 757.895,906.004 755.5,913.5 Z" />
  </g>
  <g>
    <path style="opacity:1" fill="#7e2826"
      d="M 281.5,893.5 C 291.377,897.772 301.044,902.605 310.5,908C 323.297,916.599 336.63,924.266 350.5,931C 351.252,931.671 351.586,932.504 351.5,933.5C 347.067,933.241 343.4,931.407 340.5,928C 333.528,926.35 327.528,923.016 322.5,918C 316.481,913.989 310.148,910.489 303.5,907.5C 301.326,906.107 299.493,906.44 298,908.5C 297.25,907.874 296.416,907.374 295.5,907C 297.405,906.174 297.739,905.007 296.5,903.5C 292.237,900.202 287.57,897.702 282.5,896C 281.748,895.329 281.414,894.496 281.5,893.5 Z" />
  </g>
  <g>
    <path style="opacity:1" fill="#210200"
      d="M 653.5,655.5 C 654.5,798.999 654.833,942.666 654.5,1086.5C 656.099,1086.23 657.432,1086.57 658.5,1087.5C 656.99,1088.73 655.49,1088.73 654,1087.5C 653.5,943.5 653.333,799.5 653.5,655.5 Z" />
  </g>
  <g>
    <path style="opacity:1" fill="#6f2524"
      d="M 967.5,909.5 C 963.399,912.422 959.399,915.589 955.5,919C 950.384,922.554 944.717,925.054 938.5,926.5C 944.392,921.872 950.725,917.705 957.5,914C 960.778,912.191 964.111,910.691 967.5,909.5 Z" />
  </g>
  <g>
    <path style="opacity:1" fill="#989898"
      d="M 542.5,925.5 C 540.662,930.002 537.328,932.669 532.5,933.5C 536.075,931.271 539.408,928.605 542.5,925.5 Z" />
  </g>
  <g>
    <path style="opacity:1" fill="#a9a9a9"
      d="M 508.5,927.5 C 515.256,932.748 522.923,934.748 531.5,933.5C 524.637,935.287 517.971,934.454 511.5,931C 509.937,930.241 508.937,929.074 508.5,927.5 Z" />
  </g>
  <g>
    <path style="opacity:1" fill="#090909"
      d="M 750.5,936.5 C 750.726,941.562 750.392,946.562 749.5,951.5C 748.781,953.091 747.781,954.591 746.5,956C 739.5,960.167 732.5,964.333 725.5,968.5C 724.335,961.189 724.169,953.856 725,946.5C 731.116,942.529 737.282,938.695 743.5,935C 745.5,934.333 747.5,934.333 749.5,935C 750.056,935.383 750.389,935.883 750.5,936.5 Z" />
  </g>
  <g>
    <path style="opacity:1" fill="#752422"
      d="M 351.5,933.5 C 357.792,935.021 363.126,938.021 367.5,942.5C 365.254,941.79 362.92,941.29 360.5,941C 357.798,938.005 354.798,935.505 351.5,933.5 Z" />
  </g>
  <g>
    <path style="opacity:1" fill="#757575"
      d="M 750.5,936.5 C 751.648,940.981 751.815,945.648 751,950.5C 750.617,951.056 750.117,951.389 749.5,951.5C 750.392,946.562 750.726,941.562 750.5,936.5 Z" />
  </g>
  <g>
    <path style="opacity:1" fill="#702223"
      d="M 367.5,942.5 C 372.356,945.014 377.356,947.347 382.5,949.5C 388.837,952.81 394.503,956.81 399.5,961.5C 387.99,956.739 377.324,950.406 367.5,942.5 Z" />
  </g>
  <g>
    <path style="opacity:1" fill="#752424"
      d="M 938.5,926.5 C 930.421,932.057 922.421,937.891 914.5,944C 903.85,947.158 894.183,952.158 885.5,959C 876.194,963.774 867.194,969.107 858.5,975C 850.414,978.38 842.747,982.713 835.5,988C 834.207,988.49 832.873,988.657 831.5,988.5C 831.953,987.542 832.619,986.708 833.5,986C 857.496,971.845 881.829,957.845 906.5,944C 908.134,943.506 909.801,943.34 911.5,943.5C 911.281,942.325 911.614,941.325 912.5,940.5C 920.934,935.285 929.6,930.618 938.5,926.5 Z" />
  </g>
  <g>
    <path style="opacity:1" fill="#bbbbbb"
      d="M 551.5,958.5 C 541.845,968.37 530.845,970.036 518.5,963.5C 525.759,965.105 533.093,965.605 540.5,965C 543.62,961.977 547.287,959.811 551.5,958.5 Z" />
  </g>
  <g>
    <path style="opacity:1" fill="#7f2723"
      d="M 399.5,961.5 C 407.332,964.243 414.332,968.243 420.5,973.5C 412.425,971.301 405.425,967.301 399.5,961.5 Z" />
  </g>
  <g>
    <path style="opacity:1" fill="#aeaeae"
      d="M 716.5,903.5 C 716.5,931.167 716.5,958.833 716.5,986.5C 717.5,986.5 718.5,986.5 719.5,986.5C 718.713,988.104 717.38,988.771 715.5,988.5C 715.169,959.995 715.502,931.662 716.5,903.5 Z" />
  </g>
  <g>
    <path style="opacity:1" fill="#972e29"
      d="M 420.5,973.5 C 433.449,978.971 445.449,985.971 456.5,994.5C 450.132,991.663 443.632,988.996 437,986.5C 431.959,989.125 427.126,988.791 422.5,985.5C 423.167,985.167 423.833,984.833 424.5,984.5C 427.115,985.269 429.781,985.603 432.5,985.5C 432.5,984.167 432.5,982.833 432.5,981.5C 430.801,981.66 429.134,981.494 427.5,981C 425.3,978.303 422.967,975.803 420.5,973.5 Z" />
  </g>
  <g>
    <path style="opacity:1" fill="#66211d"
      d="M 831.5,988.5 C 828.35,991.137 825.017,993.637 821.5,996C 819.655,997.128 817.655,997.628 815.5,997.5C 820.221,993.471 825.554,990.471 831.5,988.5 Z" />
  </g>
  <g>
    <path style="opacity:1" fill="#762323"
      d="M 456.5,994.5 C 459.871,995.323 463.204,996.489 466.5,998C 468.093,998.949 469.426,1000.12 470.5,1001.5C 466.636,1000.9 462.969,999.732 459.5,998C 457.944,997.28 456.944,996.113 456.5,994.5 Z" />
  </g>
  <g>
    <path style="opacity:1" fill="#7f2827"
      d="M 470.5,1001.5 C 484.366,1009.35 498.032,1017.35 511.5,1025.5C 506.481,1023.46 501.481,1021.46 496.5,1019.5C 492.303,1016.23 487.637,1013.73 482.5,1012C 480.588,1009.21 477.921,1007.88 474.5,1008C 472.992,1005.91 471.658,1003.74 470.5,1001.5 Z" />
  </g>
  <g>
    <path style="opacity:1" fill="#642022"
      d="M 799.5,1007.5 C 795.417,1010.83 790.75,1013.33 785.5,1015C 781.934,1017.85 778.268,1020.51 774.5,1023C 773.552,1023.48 772.552,1023.65 771.5,1023.5C 779.615,1016.11 788.948,1010.77 799.5,1007.5 Z" />
  </g>
  <g>
    <path style="opacity:1" fill="#772522"
      d="M 771.5,1023.5 C 764.76,1027.72 758.094,1032.22 751.5,1037C 749.073,1038.59 746.407,1039.42 743.5,1039.5C 743.937,1037.93 744.937,1036.76 746.5,1036C 753.631,1032.27 760.631,1028.27 767.5,1024C 768.793,1023.51 770.127,1023.34 771.5,1023.5 Z" />
  </g>
  <g>
    <path style="opacity:1" fill="#8f2a2a"
      d="M 511.5,1025.5 C 512.978,1025.24 514.311,1025.57 515.5,1026.5C 525.489,1033.69 536.156,1039.86 547.5,1045C 550.855,1046.83 553.522,1049.33 555.5,1052.5C 549.028,1050.1 542.695,1047.43 536.5,1044.5C 532.933,1039.68 528.266,1036.34 522.5,1034.5C 519.105,1031.1 515.438,1028.1 511.5,1025.5 Z" />
  </g>
  <g>
    <path style="opacity:1" fill="#60201e"
      d="M 742.5,1039.5 C 741.972,1040.72 741.305,1041.89 740.5,1043C 738.122,1043.51 735.788,1044.18 733.5,1045C 731.905,1047.1 729.905,1048.6 727.5,1049.5C 719.5,1053.83 711.5,1058.17 703.5,1062.5C 704.642,1060.57 706.308,1059.07 708.5,1058C 719.759,1051.54 731.093,1045.37 742.5,1039.5 Z" />
  </g>
  <g>
    <path style="opacity:1" fill="#932d2c"
      d="M 727.5,1049.5 C 725.383,1053.39 722.05,1055.55 717.5,1056C 716.663,1057.01 716.33,1058.18 716.5,1059.5C 714.5,1059.5 712.5,1059.5 710.5,1059.5C 710.67,1060.82 710.337,1061.99 709.5,1063C 704.712,1062.93 700.712,1064.59 697.5,1068C 692.094,1069.56 687.761,1072.56 684.5,1077C 683.207,1077.49 681.873,1077.66 680.5,1077.5C 682.551,1075.48 684.551,1073.48 686.5,1071.5C 691.493,1067.17 697.16,1064.17 703.5,1062.5C 711.5,1058.17 719.5,1053.83 727.5,1049.5 Z" />
  </g>
  <g>
    <path style="opacity:1" fill="#a22e33"
      d="M 652.5,911.5 C 652.5,971.167 652.5,1030.83 652.5,1090.5C 656.86,1091 660.194,1089.5 662.5,1086C 665.676,1085.11 668.676,1083.94 671.5,1082.5C 670.524,1083.81 669.524,1085.15 668.5,1086.5C 665.349,1087.24 662.682,1088.74 660.5,1091C 658.302,1091.37 656.135,1091.87 654,1092.5C 653.228,1092.36 652.561,1092.02 652,1091.5C 651.168,1031.33 651.335,971.332 652.5,911.5 Z" />
  </g>
  <g>
    <path style="opacity:1" fill="#611d1a"
      d="M 575.5,1062.5 C 581.457,1064.48 586.79,1067.48 591.5,1071.5C 589.801,1071.66 588.134,1071.49 586.5,1071C 582.869,1067.84 579.202,1065 575.5,1062.5 Z" />
  </g>
</svg>