<svg id="svg" version="1.1" xmlns="http://www.w3.org/2000/svg" xmlns:xlink="http://www.w3.org/1999/xlink" width="400" height="400" viewBox="0, 0, 400,400"><g id="svgg"><path id="path0" d="M318.212 51.495 C 317.536 52.334,316.860 53.371,316.549 54.044 C 316.413 54.338,316.174 54.738,316.017 54.933 C 315.311 55.811,313.244 59.029,313.244 59.250 C 313.244 59.385,313.002 59.749,312.706 60.059 C 311.894 60.909,309.689 64.290,309.689 64.685 C 309.689 64.875,309.487 65.159,309.239 65.316 C 308.639 65.696,306.133 69.410,306.133 69.921 C 306.133 70.142,305.893 70.416,305.600 70.529 C 305.307 70.641,305.067 70.897,305.067 71.097 C 305.067 71.425,303.726 73.366,301.864 75.733 C 301.480 76.222,301.163 76.814,301.160 77.049 C 301.158 77.284,300.954 77.604,300.708 77.760 C 300.461 77.916,299.945 78.644,299.560 79.378 C 299.175 80.111,298.733 80.711,298.578 80.711 C 298.423 80.711,298.110 81.119,297.883 81.617 C 297.522 82.409,297.428 82.449,297.138 81.931 C 296.791 81.310,292.213 81.460,291.378 82.119 C 291.182 82.273,290.542 82.486,289.956 82.591 C 288.293 82.890,285.708 83.649,285.511 83.896 C 285.413 84.018,284.632 84.345,283.775 84.621 C 282.918 84.897,282.038 85.293,281.820 85.501 C 281.601 85.709,280.742 86.181,279.911 86.549 C 279.080 86.918,278.400 87.355,278.400 87.521 C 278.400 87.687,278.227 87.822,278.015 87.822 C 277.804 87.822,276.947 88.382,276.112 89.067 C 275.277 89.751,274.507 90.311,274.402 90.311 C 273.787 90.311,267.733 97.036,267.733 97.719 C 267.733 97.914,267.538 98.139,267.299 98.219 C 266.884 98.357,266.022 99.712,264.640 102.400 C 264.288 103.084,263.900 103.724,263.777 103.822 C 263.654 103.920,263.258 104.960,262.897 106.133 C 262.537 107.307,262.155 108.347,262.048 108.444 C 261.561 108.893,260.912 112.506,260.723 115.822 C 260.609 117.827,260.379 119.467,260.213 119.467 C 259.787 119.467,259.836 122.222,260.267 122.489 C 260.462 122.610,260.622 123.525,260.622 124.524 C 260.622 127.770,261.729 132.622,262.469 132.622 C 262.822 132.622,263.111 132.704,263.111 132.805 C 263.111 133.118,262.251 134.509,261.600 135.249 C 261.258 135.638,260.978 136.075,260.978 136.219 C 260.978 136.364,260.778 136.701,260.533 136.967 C 259.885 137.675,259.210 138.755,258.970 139.467 C 258.856 139.809,258.624 140.089,258.457 140.089 C 258.289 140.089,257.885 140.609,257.560 141.244 C 257.234 141.880,256.858 142.480,256.724 142.578 C 256.590 142.676,256.172 143.316,255.795 144.000 C 255.419 144.684,254.932 145.361,254.713 145.503 C 254.494 145.645,254.115 146.245,253.870 146.836 C 253.625 147.427,253.321 147.911,253.193 147.911 C 253.066 147.911,252.646 148.511,252.260 149.244 C 251.875 149.978,251.278 150.787,250.935 151.042 C 250.592 151.298,250.311 151.726,250.311 151.995 C 250.311 152.263,250.108 152.694,249.859 152.952 C 248.981 153.865,246.756 157.078,246.756 157.432 C 246.756 157.629,246.516 157.883,246.222 157.995 C 245.929 158.108,245.689 158.383,245.689 158.608 C 245.689 158.832,245.129 159.779,244.444 160.711 C 243.760 161.644,243.200 162.585,243.200 162.803 C 243.200 163.021,243.074 163.200,242.920 163.200 C 242.630 163.200,240.000 166.940,240.000 167.352 C 240.000 167.480,239.758 167.838,239.462 168.148 C 238.761 168.882,236.444 172.355,236.444 172.673 C 236.444 172.808,236.202 173.172,235.906 173.481 C 235.094 174.331,232.889 177.712,232.889 178.107 C 232.889 178.298,232.672 178.582,232.407 178.738 C 232.143 178.894,231.727 179.401,231.484 179.864 C 231.240 180.328,230.337 181.632,229.476 182.764 C 228.615 183.896,227.911 184.912,227.911 185.023 C 227.911 185.286,225.776 188.399,224.978 189.299 C 224.636 189.685,224.356 190.128,224.356 190.285 C 224.356 190.800,222.408 193.395,222.010 193.409 C 221.436 193.429,219.378 192.349,219.378 192.028 C 219.378 191.876,218.658 191.455,217.778 191.092 C 216.898 190.729,216.178 190.297,216.178 190.131 C 216.178 189.966,215.618 189.596,214.933 189.310 C 214.249 189.024,213.689 188.662,213.689 188.506 C 213.689 188.350,213.129 188.002,212.444 187.733 C 211.760 187.465,211.200 187.111,211.200 186.948 C 211.200 186.785,210.760 186.458,210.222 186.222 C 209.684 185.985,208.620 185.349,207.858 184.807 C 207.095 184.265,206.255 183.822,205.991 183.822 C 205.727 183.822,205.511 183.658,205.511 183.458 C 205.511 183.257,205.151 182.951,204.711 182.777 C 204.271 182.604,203.360 182.048,202.686 181.542 C 202.013 181.036,201.248 180.622,200.986 180.622 C 200.725 180.622,200.423 180.393,200.315 180.112 C 200.208 179.831,199.413 179.311,198.550 178.956 C 197.687 178.602,196.980 178.195,196.979 178.054 C 196.978 177.912,196.458 177.530,195.822 177.204 C 195.187 176.878,194.587 176.506,194.489 176.376 C 194.391 176.247,193.711 175.862,192.978 175.520 C 192.244 175.179,191.644 174.772,191.644 174.615 C 191.644 174.458,190.966 174.026,190.136 173.654 C 189.307 173.282,188.347 172.698,188.003 172.356 C 187.659 172.013,187.146 171.733,186.862 171.733 C 186.578 171.733,186.218 171.532,186.062 171.285 C 185.906 171.039,185.138 170.519,184.356 170.130 C 183.573 169.741,182.805 169.222,182.649 168.978 C 182.493 168.733,182.157 168.533,181.904 168.533 C 181.651 168.533,181.156 168.215,180.804 167.827 C 180.452 167.438,179.628 166.926,178.971 166.689 C 178.315 166.451,177.778 166.143,177.778 166.003 C 177.778 164.907,173.650 163.624,173.333 164.622 C 173.209 165.013,172.989 165.333,172.843 165.333 C 172.698 165.333,172.291 166.293,171.940 167.467 C 171.589 168.640,171.179 169.600,171.031 169.600 C 170.882 169.600,170.491 170.560,170.162 171.733 C 169.833 172.907,169.444 173.867,169.297 173.867 C 169.151 173.867,168.827 174.467,168.577 175.200 C 168.326 175.933,167.791 177.253,167.387 178.133 C 164.952 183.435,163.689 186.355,163.157 187.911 C 162.889 188.693,162.568 189.413,162.444 189.511 C 162.319 189.609,161.967 190.428,161.662 191.331 C 161.356 192.235,160.797 193.526,160.418 194.200 C 160.039 194.874,159.611 195.966,159.466 196.626 C 159.321 197.286,159.002 198.027,158.757 198.271 C 158.513 198.516,158.097 199.445,157.834 200.336 C 157.571 201.227,157.256 201.956,157.134 201.956 C 157.012 201.956,156.622 202.916,156.267 204.089 C 155.911 205.262,155.501 206.222,155.355 206.222 C 155.208 206.222,154.804 207.142,154.455 208.267 C 154.107 209.391,153.711 210.391,153.575 210.489 C 153.439 210.587,153.069 211.432,152.753 212.368 C 152.437 213.304,151.958 214.424,151.689 214.857 C 151.420 215.290,150.987 216.400,150.725 217.324 C 150.464 218.248,150.021 219.091,149.742 219.199 C 149.323 219.359,149.313 219.297,149.683 218.852 C 150.868 217.423,150.073 216.431,138.217 204.556 C 125.574 191.893,126.480 192.577,124.677 194.328 C 122.758 196.192,122.755 196.187,130.933 204.324 C 135.089 208.458,140.546 213.928,143.060 216.478 C 145.575 219.029,147.934 221.165,148.303 221.225 C 148.900 221.321,148.924 221.432,148.517 222.222 C 148.265 222.711,147.847 223.671,147.589 224.356 C 147.330 225.040,146.832 226.240,146.482 227.022 C 145.306 229.651,144.460 231.636,143.982 232.889 C 143.721 233.573,143.410 234.213,143.291 234.311 C 143.172 234.409,142.786 235.289,142.432 236.267 C 141.649 238.434,140.627 240.824,139.771 242.489 C 139.419 243.173,138.911 244.493,138.643 245.422 C 138.375 246.351,138.057 247.111,137.936 247.111 C 137.815 247.111,137.416 247.991,137.051 249.067 C 136.685 250.142,136.276 251.022,136.143 251.022 C 136.009 251.022,135.611 251.982,135.260 253.156 C 134.909 254.329,134.524 255.289,134.406 255.289 C 134.288 255.289,133.885 256.209,133.510 257.333 C 133.134 258.458,132.720 259.458,132.589 259.556 C 132.458 259.653,132.091 260.499,131.775 261.435 C 131.459 262.371,130.978 263.491,130.706 263.924 C 130.435 264.357,130.011 265.347,129.764 266.124 C 129.517 266.900,129.099 267.752,128.835 268.016 C 128.571 268.279,128.356 268.730,128.356 269.018 C 128.356 269.306,127.876 270.567,127.289 271.822 C 126.702 273.077,126.222 274.215,126.222 274.351 C 126.222 274.615,124.719 277.995,123.946 279.467 C 123.689 279.956,123.261 281.116,122.995 282.044 C 122.729 282.973,122.412 283.733,122.291 283.733 C 122.170 283.733,121.772 284.613,121.406 285.689 C 121.041 286.764,120.637 287.644,120.508 287.644 C 120.380 287.644,119.989 288.564,119.638 289.689 C 119.288 290.813,118.898 291.813,118.771 291.911 C 118.645 292.009,118.244 292.889,117.881 293.867 C 117.518 294.844,117.119 295.724,116.995 295.822 C 116.872 295.920,116.548 296.720,116.277 297.600 C 116.005 298.480,115.428 299.840,114.993 300.622 C 114.559 301.404,114.095 302.564,113.962 303.200 C 113.830 303.836,113.582 304.356,113.412 304.356 C 113.242 304.356,112.834 305.316,112.505 306.489 C 112.176 307.662,111.793 308.622,111.655 308.622 C 111.517 308.622,111.098 309.542,110.724 310.667 C 110.350 311.791,109.844 312.923,109.600 313.181 C 109.356 313.439,109.156 313.856,109.156 314.106 C 109.156 314.356,108.756 315.313,108.267 316.233 C 107.778 317.152,107.373 318.096,107.367 318.330 C 107.361 318.564,106.962 319.556,106.481 320.533 C 106.000 321.511,105.605 322.572,105.603 322.890 C 105.601 323.208,105.375 323.655,105.100 323.883 C 104.826 324.111,104.315 325.251,103.966 326.416 C 103.618 327.580,103.236 328.533,103.117 328.533 C 102.999 328.533,102.596 329.453,102.221 330.578 C 101.845 331.702,101.438 332.702,101.314 332.800 C 101.191 332.898,100.792 333.778,100.427 334.756 C 100.062 335.733,99.492 337.013,99.160 337.600 C 98.829 338.187,98.450 339.187,98.317 339.822 C 98.185 340.458,97.939 340.978,97.771 340.978 C 97.602 340.978,97.180 341.938,96.831 343.111 C 96.483 344.284,96.091 345.244,95.960 345.244 C 95.829 345.244,95.434 346.204,95.082 347.378 C 94.731 348.551,94.328 349.511,94.188 349.511 C 94.048 349.511,93.646 350.431,93.296 351.556 C 92.946 352.680,92.474 353.760,92.246 353.956 C 92.019 354.151,91.630 355.071,91.381 356.000 C 91.133 356.929,90.816 357.689,90.677 357.689 C 90.539 357.689,90.210 358.369,89.947 359.200 C 89.684 360.031,89.186 361.271,88.840 361.956 C 87.923 363.771,86.892 366.197,86.347 367.822 C 86.085 368.604,85.744 369.337,85.589 369.451 C 85.137 369.783,84.871 372.119,85.128 373.491 C 85.506 375.506,86.732 375.249,88.004 372.889 C 88.558 371.862,89.112 370.942,89.235 370.844 C 89.358 370.747,89.754 370.027,90.114 369.244 C 90.474 368.462,90.986 367.694,91.251 367.538 C 91.516 367.382,91.733 367.090,91.733 366.891 C 91.733 366.691,92.213 365.830,92.800 364.978 C 93.387 364.125,93.867 363.256,93.867 363.047 C 93.867 362.838,94.011 362.667,94.187 362.667 C 94.363 362.667,94.803 361.947,95.165 361.068 C 95.526 360.189,95.938 359.469,96.080 359.468 C 96.221 359.467,96.604 358.947,96.929 358.311 C 97.255 357.676,97.621 357.076,97.742 356.978 C 97.863 356.880,98.277 356.200,98.662 355.467 C 99.047 354.733,99.461 354.133,99.583 354.133 C 99.704 354.133,100.101 353.413,100.464 352.533 C 100.827 351.653,101.259 350.933,101.424 350.933 C 101.590 350.933,101.959 350.373,102.245 349.689 C 102.531 349.004,102.887 348.444,103.036 348.444 C 103.185 348.444,103.623 347.726,104.009 346.848 C 104.395 345.970,104.835 345.250,104.987 345.248 C 105.138 345.246,105.418 344.834,105.609 344.331 C 105.800 343.829,106.338 342.909,106.804 342.287 C 107.270 341.665,107.760 340.796,107.894 340.356 C 108.027 339.916,108.279 339.556,108.452 339.556 C 108.625 339.556,109.049 338.956,109.394 338.222 C 109.739 337.489,110.306 336.579,110.655 336.200 C 111.004 335.821,111.289 335.384,111.289 335.229 C 111.289 335.074,111.889 334.041,112.622 332.932 C 114.524 330.058,115.451 328.522,116.081 327.200 C 116.384 326.564,116.774 326.044,116.947 326.044 C 117.121 326.044,117.559 325.325,117.920 324.446 C 118.282 323.567,118.694 322.847,118.835 322.846 C 118.977 322.845,119.359 322.324,119.685 321.689 C 120.011 321.053,120.376 320.453,120.497 320.356 C 120.619 320.258,121.036 319.538,121.426 318.756 C 121.815 317.973,122.333 317.205,122.578 317.049 C 122.822 316.893,123.022 316.601,123.022 316.402 C 123.022 316.202,123.502 315.342,124.089 314.489 C 124.676 313.636,125.156 312.775,125.156 312.576 C 125.156 312.376,125.357 312.085,125.604 311.929 C 125.850 311.772,126.370 311.004,126.759 310.222 C 127.148 309.440,127.667 308.672,127.911 308.516 C 128.156 308.359,128.356 307.999,128.356 307.716 C 128.356 307.432,128.641 306.915,128.990 306.566 C 129.338 306.217,129.921 305.297,130.285 304.522 C 130.649 303.746,131.164 302.983,131.429 302.827 C 131.694 302.670,131.911 302.379,131.911 302.180 C 131.911 301.980,132.391 301.119,132.978 300.267 C 133.564 299.414,134.044 298.545,134.044 298.336 C 134.044 298.127,134.208 297.956,134.409 297.956 C 134.609 297.956,134.929 297.545,135.120 297.042 C 135.311 296.540,135.849 295.620,136.315 294.998 C 136.781 294.376,137.271 293.507,137.405 293.067 C 137.539 292.627,137.761 292.267,137.899 292.267 C 138.037 292.267,138.465 291.667,138.852 290.933 C 139.238 290.200,139.744 289.398,139.977 289.152 C 140.210 288.905,140.603 288.145,140.850 287.463 C 141.097 286.781,141.422 286.222,141.573 286.222 C 141.725 286.222,142.115 285.702,142.440 285.067 C 142.766 284.431,143.132 283.831,143.253 283.733 C 143.374 283.636,143.792 282.916,144.181 282.133 C 144.570 281.351,145.089 280.583,145.333 280.427 C 145.578 280.270,145.778 279.965,145.778 279.749 C 145.778 279.533,146.178 278.832,146.666 278.191 C 147.155 277.551,147.711 276.615,147.902 276.113 C 148.093 275.611,148.389 275.200,148.559 275.200 C 148.730 275.200,149.170 274.520,149.536 273.689 C 149.902 272.858,150.406 272.050,150.657 271.893 C 150.907 271.737,151.111 271.377,151.111 271.093 C 151.111 270.810,151.391 270.293,151.733 269.945 C 152.076 269.597,152.596 268.837,152.889 268.256 C 153.182 267.675,153.702 266.890,154.044 266.511 C 154.387 266.132,154.667 265.700,154.667 265.551 C 154.667 265.402,155.147 264.569,155.733 263.700 C 156.320 262.830,156.800 262.016,156.800 261.889 C 156.800 261.762,156.967 261.466,157.171 261.229 C 157.831 260.465,159.996 256.929,160.203 256.277 C 160.313 255.929,160.528 255.644,160.681 255.644 C 160.834 255.644,161.247 255.004,161.600 254.222 C 161.953 253.440,162.353 252.800,162.489 252.800 C 162.626 252.800,163.034 252.080,163.397 251.200 C 163.760 250.320,164.192 249.600,164.358 249.600 C 164.523 249.600,164.892 249.040,165.178 248.356 C 165.464 247.671,165.816 247.109,165.960 247.107 C 166.104 247.105,166.540 246.425,166.928 245.596 C 167.316 244.767,167.836 243.961,168.083 243.805 C 168.331 243.648,168.533 243.308,168.533 243.048 C 168.533 242.788,168.773 242.377,169.067 242.133 C 169.508 241.767,169.601 241.805,169.607 242.356 C 169.615 243.178,198.389 272.000,199.200 272.000 C 199.512 272.000,200.260 271.586,200.862 271.080 C 203.027 269.257,203.315 269.627,187.266 253.600 C 173.478 239.830,171.709 238.259,171.258 239.378 C 171.151 239.643,171.067 239.572,171.050 239.200 C 171.035 238.858,171.171 238.578,171.354 238.578 C 171.536 238.578,171.796 238.229,171.932 237.802 C 172.067 237.376,172.638 236.392,173.200 235.616 C 173.762 234.839,174.222 233.988,174.222 233.724 C 174.222 233.460,174.384 233.244,174.581 233.244 C 174.778 233.244,175.195 232.604,175.508 231.822 C 175.821 231.040,176.202 230.400,176.354 230.400 C 176.506 230.400,176.913 229.800,177.259 229.067 C 177.605 228.333,178.263 227.238,178.722 226.633 C 179.180 226.028,179.556 225.348,179.556 225.122 C 179.556 224.896,179.700 224.711,179.876 224.711 C 180.052 224.711,180.492 223.992,180.854 223.112 C 181.215 222.233,181.627 221.513,181.769 221.512 C 181.910 221.512,182.293 220.991,182.618 220.356 C 182.944 219.720,183.310 219.120,183.431 219.022 C 183.552 218.924,183.966 218.244,184.351 217.511 C 184.736 216.778,185.163 216.178,185.301 216.178 C 185.439 216.178,185.663 215.818,185.799 215.378 C 185.934 214.938,186.505 213.946,187.067 213.174 C 187.629 212.403,188.089 211.570,188.089 211.325 C 188.089 211.080,188.289 210.752,188.533 210.595 C 188.778 210.439,189.290 209.751,189.671 209.067 C 191.122 206.462,191.306 206.400,193.360 207.813 C 194.363 208.502,195.341 209.067,195.534 209.067 C 195.728 209.067,196.057 209.387,196.267 209.778 C 196.476 210.169,196.842 210.489,197.079 210.489 C 197.317 210.490,197.948 210.850,198.482 211.289 C 200.501 212.952,202.572 214.400,202.930 214.400 C 203.134 214.400,203.394 214.640,203.506 214.933 C 203.619 215.227,203.875 215.467,204.075 215.467 C 204.371 215.467,206.353 216.808,208.178 218.245 C 208.373 218.399,209.053 218.831,209.689 219.206 C 210.324 219.580,210.844 220.001,210.844 220.142 C 210.844 220.282,211.124 220.487,211.467 220.597 C 211.809 220.707,212.649 221.277,213.333 221.864 C 214.018 222.451,214.770 222.932,215.005 222.932 C 215.239 222.933,215.559 223.133,215.716 223.378 C 216.048 223.898,217.159 224.643,218.044 224.941 C 218.387 225.056,218.667 225.287,218.667 225.455 C 218.667 225.622,219.155 226.012,219.752 226.321 C 220.349 226.630,221.109 227.124,221.441 227.420 C 222.632 228.481,225.386 230.400,225.718 230.400 C 225.905 230.400,226.149 230.640,226.262 230.933 C 226.374 231.227,226.649 231.467,226.871 231.467 C 227.093 231.467,227.881 231.947,228.622 232.533 C 229.363 233.120,230.066 233.600,230.184 233.600 C 230.303 233.600,230.680 233.844,231.022 234.142 C 233.278 236.108,233.793 236.444,234.546 236.444 C 235.512 236.444,236.668 234.823,237.016 232.978 C 237.136 232.342,237.361 231.822,237.515 231.822 C 237.669 231.822,238.083 231.022,238.435 230.044 C 238.786 229.067,239.191 228.267,239.334 228.267 C 239.477 228.267,239.850 227.387,240.162 226.311 C 240.475 225.236,240.861 224.356,241.020 224.356 C 241.178 224.356,241.529 223.676,241.798 222.844 C 242.067 222.013,242.732 220.477,243.277 219.431 C 243.821 218.384,244.267 217.293,244.267 217.005 C 244.267 216.718,244.474 216.275,244.728 216.022 C 244.981 215.768,245.414 214.860,245.690 214.003 C 245.967 213.146,246.294 212.364,246.418 212.267 C 246.542 212.169,246.930 211.329,247.281 210.400 C 247.632 209.471,248.035 208.711,248.177 208.711 C 248.320 208.711,248.713 207.831,249.051 206.756 C 249.389 205.680,249.779 204.800,249.917 204.800 C 250.055 204.800,250.383 204.200,250.646 203.467 C 251.072 202.278,252.615 198.876,255.121 193.600 C 255.586 192.622,256.071 191.382,256.199 190.844 C 256.328 190.307,256.554 189.867,256.701 189.867 C 256.849 189.867,257.257 189.107,257.608 188.178 C 257.959 187.249,258.347 186.409,258.471 186.311 C 258.595 186.213,258.922 185.432,259.198 184.575 C 259.475 183.718,259.883 182.835,260.106 182.612 C 260.329 182.389,260.789 181.372,261.127 180.352 C 261.466 179.332,261.879 178.413,262.044 178.311 C 262.210 178.209,262.623 177.290,262.962 176.271 C 263.300 175.251,263.760 174.234,263.983 174.011 C 264.206 173.788,264.614 172.904,264.890 172.047 C 265.167 171.190,265.494 170.409,265.618 170.311 C 265.742 170.213,266.130 169.373,266.481 168.444 C 266.832 167.516,267.228 166.756,267.361 166.756 C 267.494 166.756,267.881 165.876,268.220 164.800 C 268.559 163.724,268.956 162.844,269.102 162.844 C 269.249 162.844,269.571 162.244,269.818 161.511 C 270.065 160.778,270.877 158.898,271.622 157.333 C 272.368 155.769,273.188 153.929,273.446 153.244 C 273.704 152.560,274.028 151.920,274.166 151.822 C 274.303 151.724,274.670 151.084,274.981 150.400 L 275.546 149.156 275.345 150.311 C 275.193 151.183,275.272 151.467,275.667 151.467 C 275.955 151.467,276.286 151.714,276.402 152.017 C 276.518 152.319,277.095 152.735,277.684 152.941 C 278.273 153.146,278.756 153.447,278.756 153.609 C 278.756 153.961,280.798 155.022,281.477 155.022 C 281.740 155.022,281.956 155.160,281.956 155.329 C 281.956 155.498,282.716 155.914,283.644 156.252 C 284.573 156.590,285.813 157.076,286.400 157.331 C 286.987 157.586,288.427 158.001,289.600 158.253 C 290.773 158.505,291.848 158.881,291.987 159.089 C 292.345 159.622,306.424 159.607,306.769 159.074 C 306.908 158.858,308.094 158.482,309.405 158.237 C 310.715 157.993,312.075 157.574,312.427 157.308 C 313.277 156.663,312.616 156.677,310.726 157.344 C 302.397 160.282,291.302 159.314,282.133 154.848 C 275.908 151.816,275.078 150.772,276.939 148.315 L 277.576 147.474 279.297 148.788 C 287.114 154.755,298.963 156.722,309.207 153.753 C 334.589 146.397,342.368 113.822,323.137 95.418 C 318.639 91.114,307.911 85.480,307.911 87.422 C 307.911 87.642,308.213 87.822,308.581 87.822 C 309.423 87.822,313.005 88.945,313.245 89.283 C 313.344 89.422,314.104 89.807,314.934 90.140 C 315.765 90.472,316.444 90.876,316.444 91.037 C 316.444 91.198,316.786 91.438,317.203 91.571 C 318.449 91.966,321.815 94.700,324.029 97.116 C 326.824 100.164,326.945 100.312,327.469 101.333 C 327.721 101.822,328.114 102.334,328.345 102.471 C 328.575 102.609,328.977 103.369,329.239 104.160 C 329.500 104.952,329.844 105.600,330.003 105.600 C 330.161 105.600,330.557 106.520,330.882 107.644 C 331.206 108.769,331.597 109.770,331.750 109.869 C 333.456 110.973,333.431 131.200,331.724 131.200 C 331.599 131.200,331.190 132.160,330.815 133.333 C 330.440 134.507,330.013 135.467,329.867 135.467 C 329.720 135.467,329.600 135.683,329.600 135.947 C 329.600 136.211,329.120 137.089,328.533 137.899 C 327.947 138.709,327.467 139.459,327.467 139.565 C 327.467 140.528,320.253 147.911,319.313 147.911 C 319.104 147.911,318.933 148.064,318.933 148.250 C 318.933 148.436,318.373 148.855,317.689 149.179 C 317.004 149.504,316.444 149.880,316.444 150.015 C 316.444 150.149,315.644 150.547,314.667 150.899 C 313.689 151.250,312.889 151.658,312.889 151.805 C 312.889 151.952,311.809 152.362,310.489 152.715 C 309.169 153.069,308.009 153.468,307.911 153.602 C 307.155 154.638,291.271 154.617,290.904 153.580 C 290.839 153.395,290.577 153.244,290.322 153.244 C 289.638 153.244,286.073 152.076,285.866 151.783 C 285.767 151.645,284.967 151.245,284.088 150.895 C 283.208 150.546,282.277 150.051,282.019 149.796 C 281.761 149.542,281.401 149.333,281.219 149.333 C 281.037 149.333,280.598 149.053,280.242 148.711 C 278.649 147.179,277.437 146.528,276.972 146.957 C 276.612 147.290,276.566 147.242,276.749 146.723 C 276.877 146.362,277.077 145.682,277.196 145.211 C 277.314 144.741,277.513 144.356,277.639 144.356 C 277.764 144.356,278.175 143.392,278.551 142.214 C 278.927 141.037,279.447 139.897,279.706 139.682 C 279.966 139.467,280.178 139.127,280.178 138.927 C 280.178 138.727,280.738 137.399,281.422 135.976 C 282.107 134.553,282.667 133.136,282.667 132.828 C 282.667 132.519,282.805 132.267,282.974 132.267 C 283.143 132.267,283.568 131.507,283.919 130.578 C 284.270 129.649,284.658 128.809,284.782 128.711 C 284.906 128.613,285.233 127.832,285.510 126.975 C 285.786 126.118,286.195 125.234,286.419 125.010 C 286.643 124.786,287.032 123.967,287.283 123.190 C 287.535 122.413,288.103 121.138,288.546 120.356 C 288.990 119.573,289.461 118.413,289.593 117.778 C 289.726 117.142,289.971 116.622,290.138 116.622 C 290.304 116.622,290.551 116.262,290.687 115.822 C 290.822 115.382,291.392 114.029,291.955 112.815 C 292.518 111.601,292.978 110.441,292.978 110.237 C 292.978 110.033,293.125 109.867,293.305 109.867 C 293.485 109.867,293.910 109.030,294.249 108.008 C 294.589 106.986,295.049 105.967,295.272 105.744 C 295.495 105.521,295.903 104.637,296.179 103.780 C 296.455 102.923,296.783 102.142,296.907 102.044 C 297.030 101.947,297.429 101.079,297.793 100.117 C 298.157 99.155,299.042 97.218,299.760 95.814 C 300.478 94.410,301.270 92.641,301.520 91.885 C 301.770 91.128,302.184 90.299,302.440 90.043 C 302.696 89.787,303.012 89.010,303.142 88.316 C 303.272 87.622,303.598 86.970,303.867 86.867 C 304.136 86.764,304.356 86.386,304.356 86.027 C 304.356 85.669,304.522 85.272,304.725 85.147 C 304.963 85.000,305.017 85.231,304.876 85.792 C 304.672 86.605,306.810 87.620,307.426 87.003 C 307.511 86.919,307.103 86.754,306.519 86.637 L 305.457 86.425 306.006 84.813 C 306.828 82.402,308.140 82.483,314.798 85.351 C 344.698 98.235,345.568 139.558,316.267 155.110 C 314.507 156.044,313.547 156.703,314.133 156.574 C 315.446 156.285,318.368 154.836,319.887 153.720 C 320.510 153.263,321.150 152.889,321.310 152.889 C 321.470 152.889,322.300 152.249,323.156 151.467 C 324.012 150.684,324.816 150.044,324.943 150.044 C 325.070 150.044,326.169 148.964,327.386 147.644 C 330.270 144.517,330.449 144.300,331.228 142.982 C 331.590 142.369,331.993 141.867,332.122 141.867 C 332.252 141.867,332.568 141.347,332.826 140.711 C 333.083 140.076,333.400 139.476,333.530 139.378 C 333.886 139.111,334.933 136.982,334.933 136.526 C 334.933 136.306,335.149 135.912,335.412 135.648 C 335.675 135.385,336.097 134.197,336.349 133.007 C 336.602 131.818,336.924 130.844,337.065 130.844 C 337.620 130.844,338.311 125.087,338.302 120.533 C 338.294 115.943,337.607 110.222,337.065 110.222 C 336.924 110.222,336.602 109.249,336.349 108.059 C 336.097 106.870,335.710 105.710,335.490 105.482 C 335.270 105.253,334.866 104.379,334.593 103.538 C 334.320 102.697,333.916 101.897,333.694 101.760 C 333.473 101.623,333.086 101.003,332.836 100.381 C 332.585 99.760,332.074 98.975,331.701 98.637 C 331.328 98.299,331.022 97.865,331.022 97.671 C 331.022 97.478,330.700 96.982,330.306 96.571 C 329.912 96.159,328.596 94.742,327.382 93.422 C 326.167 92.102,325.069 91.022,324.942 91.022 C 324.816 91.022,324.112 90.473,323.379 89.801 C 321.913 88.459,318.165 86.044,317.546 86.044 C 317.331 86.044,317.156 85.916,317.156 85.759 C 317.156 85.602,316.316 85.179,315.289 84.818 C 314.262 84.457,313.262 84.039,313.067 83.890 C 312.500 83.458,308.451 82.489,307.214 82.489 C 305.914 82.489,305.928 82.203,307.384 79.111 C 307.844 78.133,308.423 76.733,308.671 76.000 C 308.918 75.267,309.238 74.667,309.381 74.667 C 309.524 74.667,309.754 74.307,309.891 73.867 C 310.029 73.427,310.600 72.063,311.160 70.836 C 311.720 69.608,312.178 68.517,312.178 68.410 C 312.178 68.303,312.398 67.996,312.666 67.728 C 312.935 67.459,313.370 66.510,313.633 65.620 C 313.896 64.729,314.214 64.000,314.340 64.000 C 314.467 64.000,314.860 63.240,315.215 62.311 C 315.570 61.383,316.039 60.444,316.258 60.225 C 316.476 60.006,316.881 59.126,317.157 58.269 C 317.433 57.412,317.757 56.631,317.876 56.533 C 317.996 56.436,318.377 55.636,318.723 54.757 C 319.070 53.877,319.486 53.076,319.649 52.975 C 319.811 52.875,320.054 52.354,320.188 51.819 C 320.487 50.627,319.095 50.399,318.212 51.495 M318.095 54.133 C 317.824 54.769,316.243 58.249,314.582 61.867 C 312.921 65.484,309.924 72.044,307.922 76.444 C 305.920 80.844,303.754 85.564,303.108 86.933 C 302.462 88.302,300.812 91.902,299.442 94.933 C 298.072 97.964,295.482 103.644,293.688 107.556 C 291.893 111.467,289.224 117.307,287.758 120.533 C 286.291 123.760,284.610 127.440,284.022 128.711 C 283.435 129.982,281.356 134.542,279.403 138.844 C 276.122 146.072,273.344 152.141,268.094 163.556 C 266.970 166.000,265.365 169.520,264.528 171.378 C 263.691 173.236,262.407 176.036,261.675 177.600 C 260.943 179.164,259.625 182.044,258.746 184.000 C 257.867 185.956,256.553 188.836,255.826 190.400 C 255.100 191.964,253.488 195.506,252.246 198.271 C 251.004 201.036,249.364 204.636,248.602 206.271 C 247.841 207.906,246.853 210.044,246.408 211.022 C 245.963 212.000,244.242 215.760,242.584 219.378 C 239.115 226.944,238.097 229.185,236.440 232.889 C 235.784 234.356,235.131 235.693,234.989 235.861 C 234.847 236.030,226.552 230.430,216.557 223.417 C 190.246 204.957,191.323 205.674,190.781 206.259 C 190.366 206.708,177.520 227.214,171.500 237.036 C 170.161 239.220,167.879 242.900,166.428 245.214 C 164.977 247.529,162.353 251.742,160.597 254.578 C 158.841 257.413,156.702 260.853,155.842 262.222 C 154.983 263.591,153.586 265.831,152.738 267.200 C 146.165 277.801,140.370 287.120,136.597 293.156 C 134.151 297.067,131.973 300.587,131.757 300.978 C 131.540 301.369,130.943 302.329,130.430 303.111 C 129.916 303.893,126.578 309.253,123.011 315.022 C 119.445 320.791,116.012 326.311,115.384 327.289 C 114.756 328.267,111.719 333.147,108.635 338.133 C 105.551 343.120,102.269 348.400,101.341 349.867 C 100.414 351.333,98.327 354.693,96.705 357.333 C 95.082 359.973,93.087 363.173,92.272 364.444 C 91.457 365.716,89.764 368.432,88.511 370.481 L 86.232 374.206 85.979 372.792 C 85.717 371.322,85.884 370.663,87.375 367.289 C 88.637 364.434,89.068 363.423,89.957 361.244 C 90.396 360.169,91.045 358.649,91.401 357.867 C 91.756 357.084,92.441 355.484,92.924 354.311 C 94.163 351.296,96.267 346.389,97.038 344.711 C 97.398 343.929,98.287 341.849,99.013 340.089 C 99.739 338.329,100.618 336.249,100.966 335.467 C 101.313 334.684,103.154 330.364,105.056 325.867 C 106.958 321.369,109.282 315.929,110.222 313.778 C 111.161 311.627,113.790 305.467,116.063 300.089 C 118.336 294.711,120.348 289.991,120.535 289.600 C 121.004 288.617,123.314 283.188,124.093 281.237 C 124.447 280.352,125.134 278.752,125.621 277.681 C 126.107 276.610,126.932 274.693,127.453 273.422 C 127.974 272.151,128.615 270.631,128.877 270.044 C 129.140 269.458,131.054 264.978,133.132 260.089 C 135.210 255.200,137.056 250.880,137.235 250.489 C 137.955 248.917,139.233 245.934,145.534 231.109 C 155.269 208.205,157.506 202.958,158.040 201.778 C 158.305 201.191,159.659 197.991,161.048 194.667 C 162.437 191.342,163.826 188.062,164.135 187.378 C 164.443 186.694,165.887 183.334,167.343 179.911 C 168.799 176.489,170.144 173.369,170.332 172.978 C 170.520 172.587,171.383 170.587,172.249 168.533 C 173.269 166.115,174.006 164.815,174.341 164.843 C 174.863 164.887,189.968 174.260,204.267 183.414 C 205.469 184.184,209.751 186.876,217.017 191.432 C 219.728 193.131,222.081 194.474,222.247 194.416 C 222.413 194.359,224.121 191.991,226.042 189.156 C 227.964 186.320,231.603 180.960,234.129 177.244 C 238.414 170.941,240.473 167.905,251.309 151.906 C 255.173 146.200,263.021 134.549,263.818 133.333 C 264.011 133.040,265.394 131.040,266.892 128.889 C 268.390 126.738,270.520 123.618,271.626 121.956 C 272.731 120.293,275.481 116.213,277.737 112.889 C 286.693 99.688,290.438 94.152,294.213 88.533 C 296.380 85.307,299.202 81.147,300.483 79.289 C 302.931 75.739,309.774 65.647,315.130 57.689 C 318.432 52.783,318.920 52.198,318.095 54.133 M296.178 82.646 C 296.178 82.927,296.011 83.261,295.808 83.387 C 295.604 83.512,295.061 84.212,294.601 84.941 C 293.828 86.165,293.525 86.325,290.616 87.041 C 274.134 91.099,262.434 108.426,265.000 124.978 C 265.316 127.020,265.371 128.259,265.150 128.403 C 264.956 128.529,265.097 128.815,265.468 129.052 C 265.872 129.310,265.918 129.411,265.585 129.311 C 264.870 129.096,264.098 129.714,263.559 130.933 C 261.409 135.793,260.161 118.027,262.141 110.756 C 266.019 96.515,278.229 85.072,291.911 82.857 C 293.378 82.619,294.818 82.378,295.111 82.320 C 295.404 82.263,295.764 82.197,295.911 82.175 C 296.058 82.152,296.178 82.364,296.178 82.646 M295.944 84.858 C 295.589 85.413,295.096 86.078,294.849 86.337 C 294.602 86.595,294.400 86.925,294.400 87.069 C 294.400 87.214,294.120 87.651,293.778 88.041 C 292.932 89.005,292.288 90.009,292.037 90.756 C 291.922 91.098,291.683 91.378,291.505 91.378 C 291.328 91.378,291.040 91.738,290.866 92.178 C 290.693 92.618,290.301 93.298,289.996 93.689 C 288.193 96.000,286.933 97.829,286.933 98.136 C 286.933 98.330,286.768 98.489,286.567 98.489 C 286.365 98.489,286.100 98.769,285.977 99.111 C 285.854 99.453,285.219 100.475,284.566 101.381 C 283.912 102.287,283.378 103.190,283.378 103.387 C 283.378 103.585,283.138 103.838,282.844 103.951 C 282.551 104.063,282.311 104.324,282.311 104.531 C 282.311 104.938,280.148 108.288,279.326 109.156 C 279.048 109.449,278.608 110.169,278.349 110.756 C 278.090 111.342,277.595 112.031,277.250 112.287 C 276.905 112.542,276.622 112.929,276.622 113.146 C 276.622 113.363,276.380 113.794,276.084 114.104 C 275.383 114.837,273.067 118.311,273.067 118.628 C 273.067 118.763,272.822 119.127,272.523 119.437 C 271.764 120.224,270.315 122.315,269.781 123.394 C 269.535 123.891,269.124 124.531,268.869 124.816 C 268.614 125.101,267.854 126.121,267.180 127.085 L 265.956 128.836 265.956 126.996 C 265.956 125.984,265.796 125.156,265.600 125.156 C 265.136 125.156,265.124 116.118,265.588 115.284 C 265.776 114.944,266.180 113.387,266.486 111.822 C 266.791 110.258,267.182 108.929,267.354 108.870 C 267.527 108.811,267.953 107.811,268.301 106.648 C 268.650 105.485,269.072 104.533,269.241 104.533 C 269.410 104.533,269.781 103.973,270.067 103.289 C 270.353 102.604,270.745 102.044,270.938 102.044 C 271.131 102.044,271.289 101.833,271.289 101.575 C 271.289 101.317,271.849 100.452,272.533 99.652 C 273.218 98.852,273.778 98.105,273.778 97.992 C 273.778 97.487,280.595 91.733,281.194 91.733 C 281.402 91.733,281.859 91.441,282.208 91.084 C 282.558 90.727,283.404 90.216,284.089 89.949 C 284.773 89.681,285.413 89.366,285.511 89.247 C 285.773 88.929,289.396 87.822,290.174 87.822 C 290.543 87.822,290.844 87.683,290.844 87.512 C 290.844 87.342,291.644 87.097,292.622 86.967 C 293.600 86.837,294.400 86.601,294.400 86.443 C 294.400 86.285,294.800 85.690,295.288 85.122 C 295.777 84.554,296.177 83.942,296.177 83.763 C 296.178 83.584,296.271 83.530,296.384 83.643 C 296.497 83.757,296.299 84.303,295.944 84.858 M80.533 114.366 C 79.164 114.658,77.991 115.045,77.926 115.226 C 77.861 115.407,77.506 115.556,77.138 115.556 C 76.136 115.556,73.195 116.621,72.626 117.190 C 72.352 117.464,71.898 117.689,71.619 117.689 C 71.340 117.689,70.826 117.969,70.478 118.311 C 70.130 118.653,69.242 119.215,68.504 119.558 C 67.767 119.902,66.972 120.340,66.737 120.531 C 62.034 124.367,58.311 128.123,58.311 129.030 C 58.311 129.232,57.991 129.568,57.600 129.778 C 57.209 129.987,56.889 130.363,56.889 130.612 C 56.889 130.862,56.596 131.380,56.239 131.763 C 55.882 132.147,55.291 133.137,54.926 133.964 C 54.562 134.790,54.159 135.467,54.032 135.467 C 53.905 135.467,53.504 136.467,53.140 137.689 C 52.776 138.911,52.342 140.006,52.175 140.122 C 51.787 140.392,50.873 145.484,50.857 147.467 C 50.850 148.298,50.684 148.978,50.489 148.978 C 50.276 148.978,50.133 150.400,50.133 152.533 C 50.133 154.667,50.276 156.089,50.489 156.089 C 50.684 156.089,50.844 156.711,50.844 157.472 C 50.844 159.161,51.872 164.726,52.230 164.975 C 52.372 165.074,52.774 166.076,53.122 167.200 C 53.470 168.324,53.875 169.244,54.021 169.244 C 54.167 169.244,54.500 169.892,54.761 170.684 C 55.023 171.476,55.408 172.236,55.618 172.373 C 55.828 172.510,56.312 173.182,56.693 173.867 C 57.539 175.385,57.859 175.809,59.111 177.075 C 59.649 177.618,60.089 178.180,60.089 178.323 C 60.089 178.664,62.679 181.333,63.010 181.333 C 63.151 181.333,63.825 181.893,64.510 182.578 C 65.194 183.262,65.858 183.822,65.985 183.822 C 66.112 183.822,66.979 184.382,67.911 185.067 C 68.844 185.751,69.774 186.311,69.978 186.311 C 70.182 186.311,70.561 186.519,70.819 186.774 C 71.347 187.294,74.091 188.450,74.763 188.435 C 75.003 188.429,73.920 187.814,72.356 187.067 C 51.980 177.339,44.618 150.785,57.022 131.756 C 75.382 103.588,117.970 110.562,126.638 143.156 C 133.559 169.178,110.541 194.767,83.951 190.611 C 81.538 190.234,80.653 190.283,81.137 190.766 C 82.069 191.698,96.663 191.573,97.940 190.622 C 98.144 190.470,99.551 190.046,101.067 189.679 C 102.582 189.313,103.822 188.897,103.822 188.754 C 103.822 188.612,104.702 188.239,105.778 187.926 C 106.853 187.614,107.735 187.242,107.737 187.101 C 107.740 186.960,108.380 186.539,109.160 186.165 C 109.940 185.791,110.578 185.362,110.578 185.211 C 110.578 185.060,110.938 184.828,111.378 184.696 C 112.361 184.400,112.758 184.057,116.940 179.874 C 121.123 175.691,121.467 175.295,121.763 174.311 C 121.895 173.871,122.127 173.511,122.278 173.511 C 122.429 173.511,122.858 172.873,123.232 172.093 C 123.605 171.313,124.027 170.673,124.168 170.671 C 124.309 170.669,124.680 169.787,124.993 168.711 C 125.306 167.636,125.678 166.756,125.821 166.756 C 125.963 166.756,126.380 165.516,126.746 164.000 C 127.113 162.484,127.585 161.020,127.795 160.745 C 128.377 159.987,128.318 144.639,127.733 144.444 C 127.489 144.363,127.289 144.023,127.289 143.690 C 127.289 142.783,126.231 138.896,125.925 138.678 C 125.779 138.574,125.433 137.788,125.157 136.931 C 124.881 136.074,124.481 135.194,124.268 134.975 C 124.055 134.757,123.663 134.018,123.397 133.333 C 123.130 132.649,122.737 131.928,122.523 131.732 C 122.309 131.536,121.824 130.816,121.446 130.132 C 121.068 129.448,120.468 128.680,120.113 128.424 C 119.757 128.169,119.467 127.795,119.467 127.593 C 119.467 127.392,118.387 126.192,117.067 124.926 C 113.954 121.942,113.938 121.929,111.644 120.409 C 110.569 119.697,109.524 118.980,109.323 118.816 C 109.122 118.653,108.202 118.230,107.279 117.878 C 106.355 117.525,105.600 117.123,105.600 116.983 C 105.600 116.713,102.276 115.556,101.500 115.556 C 101.245 115.556,100.981 115.389,100.913 115.185 C 100.483 113.894,85.560 113.295,80.533 114.366 M86.829 118.308 C 88.140 118.376,90.380 118.376,91.807 118.309 C 93.233 118.241,92.160 118.185,89.422 118.185 C 86.684 118.184,85.517 118.240,86.829 118.308 M80.000 119.155 C 55.172 125.783,46.372 157.922,64.305 176.476 C 84.384 197.251,119.093 186.170,123.711 157.511 C 126.556 139.855,113.405 121.381,96.000 118.584 C 93.539 118.189,94.747 118.910,97.422 119.434 C 98.693 119.683,100.373 120.172,101.156 120.522 C 101.938 120.871,103.178 121.369,103.911 121.628 C 104.644 121.887,105.244 122.195,105.244 122.314 C 105.244 122.433,105.905 122.821,106.713 123.178 C 107.520 123.534,108.470 124.085,108.823 124.402 C 109.177 124.718,109.897 125.298,110.424 125.689 C 111.989 126.850,115.911 130.753,115.911 131.149 C 115.911 131.350,116.192 131.724,116.535 131.980 C 116.878 132.235,117.475 133.044,117.860 133.778 C 118.246 134.511,118.664 135.111,118.788 135.111 C 118.913 135.111,119.302 135.871,119.652 136.800 C 120.003 137.729,120.395 138.569,120.523 138.667 C 120.651 138.764,121.035 139.804,121.376 140.978 C 121.718 142.151,122.153 143.397,122.343 143.747 C 123.436 145.754,123.434 161.422,122.341 161.422 C 122.211 161.422,121.797 162.542,121.422 163.911 C 121.047 165.280,120.636 166.400,120.507 166.400 C 120.379 166.400,119.988 167.160,119.638 168.089 C 119.287 169.018,118.786 169.906,118.523 170.062 C 118.260 170.218,118.044 170.538,118.044 170.773 C 118.043 171.008,117.564 171.760,116.978 172.444 C 116.392 173.129,115.912 173.785,115.912 173.903 C 115.910 174.299,111.593 178.479,110.547 179.097 C 109.977 179.433,109.511 179.830,109.511 179.979 C 109.511 180.127,108.991 180.515,108.356 180.840 C 107.720 181.166,107.120 181.535,107.022 181.659 C 106.924 181.784,106.164 182.186,105.333 182.553 C 104.502 182.919,103.822 183.355,103.822 183.521 C 103.822 183.687,103.588 183.822,103.301 183.822 C 102.666 183.822,99.605 184.785,98.777 185.245 C 96.243 186.654,81.009 186.682,80.000 185.279 C 79.902 185.143,79.102 184.823,78.222 184.567 C 75.567 183.795,70.762 181.284,68.497 179.484 C 66.372 177.796,63.644 175.117,63.644 174.718 C 63.644 174.490,63.244 174.042,62.756 173.722 C 62.267 173.401,61.867 172.911,61.867 172.632 C 61.867 172.353,61.665 171.996,61.419 171.840 C 61.172 171.684,60.652 170.916,60.263 170.133 C 59.874 169.351,59.450 168.631,59.321 168.532 C 59.192 168.434,58.803 167.634,58.457 166.755 C 58.110 165.875,57.723 165.076,57.597 164.978 C 57.307 164.753,56.176 160.067,56.177 159.093 C 56.177 158.692,55.995 158.182,55.772 157.958 C 55.222 157.408,55.230 147.650,55.781 147.099 C 55.999 146.881,56.178 146.397,56.178 146.024 C 56.178 144.851,57.347 140.444,57.658 140.444 C 57.822 140.444,57.961 140.164,57.967 139.822 C 57.977 139.256,58.494 138.123,60.237 134.844 C 60.575 134.209,60.982 133.689,61.140 133.689 C 61.299 133.689,61.522 133.409,61.637 133.067 C 62.121 131.625,67.571 125.933,69.478 124.876 C 70.083 124.541,70.706 124.067,70.862 123.822 C 71.018 123.578,71.314 123.378,71.518 123.378 C 71.723 123.378,72.331 123.064,72.869 122.681 C 73.408 122.297,74.632 121.718,75.591 121.394 C 76.549 121.070,77.413 120.686,77.511 120.539 C 77.728 120.216,82.060 119.111,83.113 119.111 C 83.529 119.111,83.968 118.951,84.089 118.756 C 84.420 118.219,82.976 118.360,80.000 119.155 M244.444 123.621 C 243.858 123.697,243.058 123.903,242.667 124.080 C 242.276 124.257,239.636 124.658,236.800 124.971 C 233.964 125.284,231.324 125.674,230.933 125.838 C 230.542 126.002,227.830 126.415,224.905 126.755 C 221.981 127.095,219.341 127.502,219.038 127.658 C 218.736 127.815,216.676 128.130,214.461 128.360 C 212.245 128.589,209.956 128.914,209.373 129.081 C 208.789 129.248,206.002 129.656,203.178 129.988 C 200.355 130.320,198.044 130.728,198.044 130.896 C 198.044 131.063,197.684 131.197,197.244 131.194 C 195.697 131.181,186.131 132.404,185.956 132.637 C 185.858 132.766,184.658 132.979,183.289 133.110 C 179.209 133.500,175.159 134.097,174.400 134.420 C 174.009 134.586,171.049 134.991,167.822 135.319 C 164.596 135.647,161.876 136.023,161.778 136.155 C 161.680 136.287,159.080 136.694,156.000 137.060 C 152.920 137.426,150.400 137.828,150.400 137.953 C 150.400 138.078,148.264 138.385,145.654 138.635 C 143.044 138.886,140.700 139.220,140.445 139.378 C 140.011 139.646,140.145 143.819,140.602 144.276 C 140.878 144.552,148.267 143.551,148.267 143.237 C 148.267 143.070,148.627 142.936,149.067 142.940 C 151.077 142.956,160.000 141.699,160.000 141.399 C 160.000 141.011,158.904 141.134,149.423 142.592 C 140.383 143.982,140.935 144.022,140.701 141.956 C 140.595 141.027,140.552 140.223,140.604 140.169 C 140.797 139.971,145.195 139.303,178.489 134.419 C 183.867 133.631,188.667 132.900,189.156 132.797 C 189.644 132.693,194.924 131.896,200.889 131.025 C 206.853 130.154,216.533 128.723,222.400 127.844 C 228.267 126.965,236.330 125.757,240.318 125.160 C 244.307 124.562,247.605 124.117,247.648 124.170 C 247.691 124.223,247.831 125.090,247.959 126.096 L 248.192 127.924 245.074 128.344 C 243.359 128.574,241.796 128.830,241.600 128.913 C 241.172 129.094,245.660 128.773,247.600 128.484 L 248.978 128.278 248.745 126.296 C 248.400 123.359,248.072 123.155,244.444 123.621 M234.667 129.823 C 232.418 130.189,228.178 130.871,225.244 131.338 C 222.311 131.806,220.315 132.206,220.809 132.228 C 222.114 132.284,227.337 131.629,230.222 131.046 C 231.591 130.769,234.511 130.350,236.711 130.113 C 238.911 129.876,240.711 129.544,240.711 129.375 C 240.711 128.952,239.439 129.046,234.667 129.823 M217.067 132.441 C 216.871 132.507,214.791 132.839,212.444 133.180 C 206.694 134.015,207.845 134.259,213.960 133.500 C 218.758 132.905,221.262 132.270,218.667 132.306 C 217.982 132.315,217.262 132.376,217.067 132.441 M199.467 135.107 C 195.849 135.649,190.935 136.384,188.546 136.741 C 186.158 137.097,184.267 137.453,184.345 137.531 C 184.571 137.756,195.302 136.528,196.089 136.187 C 196.480 136.017,199.240 135.593,202.222 135.244 C 205.204 134.896,207.644 134.483,207.644 134.327 C 207.644 133.925,206.841 134.001,199.467 135.107 M175.467 138.680 C 160.042 140.987,156.328 141.789,166.756 140.561 C 169.591 140.227,171.991 139.848,172.089 139.719 C 172.187 139.590,173.387 139.375,174.756 139.242 C 179.251 138.806,183.283 138.193,183.627 137.894 C 184.135 137.451,182.870 137.573,175.467 138.680 M286.368 167.018 C 286.156 167.167,285.763 168.289,285.495 169.511 C 285.228 170.733,284.909 171.733,284.786 171.733 C 284.664 171.733,284.265 172.933,283.899 174.400 C 283.534 175.867,283.134 177.067,283.011 177.067 C 282.887 177.067,282.483 178.307,282.113 179.822 C 281.743 181.338,281.325 182.662,281.184 182.764 C 280.957 182.930,280.565 184.252,279.922 187.022 C 279.809 187.511,279.606 187.991,279.472 188.089 C 279.338 188.187,278.951 189.384,278.612 190.749 C 278.273 192.114,277.861 193.394,277.696 193.593 C 277.532 193.792,277.128 194.996,276.800 196.267 C 276.472 197.538,276.082 198.738,275.934 198.933 C 275.787 199.129,275.457 200.089,275.203 201.067 C 274.948 202.044,274.461 203.484,274.120 204.267 C 273.779 205.049,273.293 206.649,273.039 207.822 C 272.785 208.996,272.473 210.036,272.345 210.133 C 272.218 210.231,271.818 211.431,271.456 212.800 C 271.095 214.169,270.695 215.369,270.568 215.467 C 270.440 215.564,270.044 216.764,269.687 218.133 C 269.330 219.502,268.925 220.782,268.786 220.978 C 268.400 221.522,265.956 229.384,265.956 230.082 C 265.956 230.420,265.799 230.750,265.607 230.815 C 265.415 230.880,264.987 232.053,264.654 233.422 C 264.322 234.791,263.930 235.994,263.783 236.094 C 263.636 236.195,263.239 237.395,262.900 238.761 C 262.561 240.127,262.175 241.324,262.043 241.422 C 261.911 241.520,261.507 242.720,261.145 244.089 C 260.784 245.458,260.382 246.658,260.253 246.756 C 260.123 246.853,259.922 247.333,259.805 247.822 C 259.080 250.867,258.680 252.288,258.506 252.444 C 258.107 252.801,257.390 255.282,257.185 257.013 L 256.974 258.788 258.369 259.206 C 260.319 259.790,261.484 259.565,261.625 258.578 C 261.687 258.138,261.860 257.778,262.010 257.778 C 262.159 257.778,262.580 256.578,262.945 255.111 C 263.310 253.644,263.705 252.444,263.822 252.444 C 263.939 252.444,264.334 251.244,264.699 249.778 C 265.065 248.311,265.474 247.111,265.608 247.111 C 265.743 247.111,266.129 245.831,266.467 244.267 C 266.805 242.702,267.211 241.422,267.369 241.422 C 267.527 241.422,267.915 240.277,268.231 238.878 C 268.547 237.478,268.950 236.158,269.127 235.944 C 269.303 235.730,269.716 234.516,270.044 233.244 C 270.373 231.973,270.771 230.773,270.930 230.578 C 271.089 230.382,271.404 229.502,271.631 228.622 C 271.857 227.742,272.269 226.525,272.547 225.916 C 272.825 225.308,273.237 223.950,273.463 222.898 C 273.689 221.845,274.085 220.661,274.345 220.265 C 274.604 219.870,275.001 218.668,275.227 217.595 C 275.453 216.522,275.766 215.484,275.921 215.289 C 276.076 215.093,276.472 213.893,276.800 212.622 C 277.128 211.351,277.528 210.151,277.689 209.956 C 277.849 209.760,278.231 208.633,278.537 207.451 C 278.843 206.269,279.322 204.829,279.602 204.251 C 279.882 203.673,280.317 202.240,280.567 201.067 C 280.818 199.893,281.151 198.845,281.308 198.737 C 281.465 198.628,281.858 197.468,282.181 196.159 C 282.504 194.849,282.898 193.778,283.056 193.778 C 283.214 193.778,283.618 192.498,283.954 190.933 C 284.290 189.369,284.672 188.089,284.801 188.089 C 284.931 188.089,285.335 186.889,285.701 185.422 C 286.066 183.956,286.471 182.756,286.601 182.756 C 286.730 182.756,287.138 181.476,287.507 179.912 C 287.876 178.348,288.280 177.068,288.405 177.067 C 288.530 177.067,288.920 175.987,289.272 174.667 C 289.624 173.347,290.016 172.187,290.143 172.089 C 290.341 171.936,291.200 168.927,291.200 168.384 C 291.200 167.597,287.170 166.458,286.368 167.018 M289.221 168.013 C 290.183 168.415,290.478 168.720,290.337 169.169 C 288.691 174.398,286.603 180.889,285.050 185.600 C 283.986 188.827,281.324 196.987,279.134 203.733 C 276.944 210.480,274.690 217.360,274.123 219.022 C 273.051 222.170,263.340 252.045,262.681 254.222 C 261.085 259.496,260.281 260.120,257.475 258.262 C 257.332 258.167,257.102 258.892,263.830 238.222 C 272.479 211.648,274.846 204.397,276.246 200.178 C 276.992 197.929,279.311 190.809,281.399 184.356 C 287.498 165.509,286.787 166.996,289.221 168.013 M75.378 188.821 C 75.378 189.181,77.491 189.810,79.467 190.036 C 80.249 190.125,80.569 190.106,80.178 189.992 C 79.787 189.879,78.547 189.501,77.422 189.152 C 76.298 188.804,75.378 188.655,75.378 188.821 M149.322 217.420 C 149.316 217.812,149.076 218.444,148.789 218.824 C 148.502 219.203,148.267 219.842,148.267 220.244 C 148.267 220.758,144.685 217.393,136.178 208.889 C 129.529 202.242,124.089 196.651,124.089 196.463 C 124.089 196.276,124.604 195.591,125.234 194.942 L 126.379 193.760 137.856 205.234 C 145.420 212.795,149.329 216.950,149.322 217.420 M187.020 254.398 L 201.770 269.151 200.438 270.483 L 199.106 271.816 184.473 257.183 L 169.840 242.551 170.787 241.426 C 171.307 240.807,171.733 240.153,171.733 239.973 C 171.733 239.182,173.043 240.417,187.020 254.398 M232.711 268.241 C 231.342 268.511,229.262 269.003,228.089 269.335 C 226.916 269.666,225.596 270.020,225.156 270.121 C 224.716 270.222,224.356 270.415,224.356 270.549 C 224.356 270.683,223.556 271.081,222.578 271.432 C 221.600 271.784,220.800 272.190,220.800 272.334 C 220.800 272.479,220.152 272.811,219.360 273.072 C 218.569 273.334,217.809 273.738,217.671 273.970 C 217.534 274.202,216.902 274.658,216.267 274.983 C 215.631 275.308,215.111 275.705,215.111 275.866 C 215.111 276.027,214.792 276.302,214.402 276.479 C 212.496 277.342,206.298 284.508,205.128 287.200 C 204.852 287.836,204.522 288.356,204.393 288.356 C 204.265 288.356,203.873 289.156,203.521 290.133 C 203.169 291.111,202.764 291.911,202.621 291.911 C 202.477 291.911,202.086 293.151,201.751 294.667 C 201.417 296.182,201.026 297.502,200.882 297.600 C 199.587 298.483,199.575 313.194,200.867 316.267 C 201.032 316.658,201.360 317.698,201.597 318.578 C 202.083 320.378,203.135 322.934,203.941 324.267 C 204.236 324.756,204.785 325.836,205.160 326.667 C 205.535 327.498,206.007 328.178,206.210 328.178 C 206.412 328.178,206.578 328.361,206.578 328.586 C 206.578 329.067,208.947 332.062,209.857 332.731 C 210.205 332.987,210.489 333.363,210.489 333.566 C 210.489 333.996,212.553 336.000,212.995 336.000 C 213.159 336.000,213.511 336.311,213.777 336.691 C 214.319 337.465,217.746 339.911,218.289 339.911 C 218.481 339.911,218.925 340.210,219.275 340.576 C 219.625 340.942,220.511 341.454,221.244 341.714 C 221.978 341.974,222.578 342.290,222.578 342.415 C 222.578 342.540,223.578 342.941,224.800 343.304 C 226.022 343.668,227.117 344.102,227.233 344.270 C 227.538 344.708,232.756 345.581,234.844 345.543 L 236.622 345.510 234.419 345.223 C 221.859 343.588,212.328 337.089,204.986 325.156 C 196.896 312.005,199.984 291.683,211.880 279.793 C 238.246 253.442,283.242 276.815,276.837 313.534 C 273.931 330.189,258.406 344.699,242.844 345.302 L 241.244 345.364 242.663 345.509 C 244.276 345.673,250.667 344.616,250.667 344.184 C 250.667 344.029,251.188 343.804,251.825 343.684 C 252.821 343.497,255.810 342.095,260.178 339.764 C 260.813 339.425,261.333 339.000,261.333 338.818 C 261.333 338.637,261.562 338.489,261.841 338.489 C 262.120 338.489,262.663 338.089,263.048 337.600 C 263.432 337.111,263.888 336.711,264.061 336.711 C 264.425 336.711,268.800 332.368,268.800 332.007 C 268.800 331.874,269.160 331.374,269.600 330.894 C 271.568 328.751,271.682 328.570,273.889 324.089 C 276.365 319.059,276.541 318.577,277.030 315.467 C 277.283 313.853,277.615 312.533,277.767 312.533 C 278.156 312.533,278.115 302.348,277.723 301.595 C 277.546 301.256,277.131 299.426,276.800 297.529 C 276.469 295.633,276.094 294.033,275.966 293.974 C 275.838 293.915,275.428 292.987,275.056 291.911 C 274.683 290.836,274.083 289.531,273.722 289.012 C 273.362 288.493,273.067 287.969,273.067 287.849 C 273.067 287.541,271.238 284.763,270.489 283.933 C 270.147 283.554,269.867 283.124,269.867 282.978 C 269.867 282.545,263.962 276.622,263.531 276.622 C 263.314 276.622,262.965 276.302,262.756 275.911 C 262.546 275.520,262.160 275.200,261.898 275.200 C 261.635 275.200,261.212 274.948,260.956 274.641 C 260.701 274.333,259.841 273.752,259.046 273.348 C 258.251 272.945,257.520 272.502,257.422 272.364 C 257.324 272.226,256.444 271.820,255.467 271.462 C 254.489 271.104,253.487 270.657,253.239 270.469 C 252.992 270.280,251.952 269.913,250.928 269.653 C 249.904 269.393,248.187 268.921,247.111 268.605 C 244.399 267.807,235.992 267.595,232.711 268.241 M232.403 272.884 C 204.803 278.630,194.889 312.148,214.945 331.910 C 233.271 349.967,264.937 341.574,272.130 316.753 C 273.649 311.510,274.157 301.416,272.961 300.221 C 272.921 300.181,272.889 303.181,272.889 306.887 C 272.889 311.121,272.752 313.720,272.522 313.880 C 272.320 314.019,271.942 315.013,271.683 316.089 C 271.249 317.893,270.121 320.678,268.948 322.844 C 268.683 323.333,268.261 324.131,268.011 324.617 C 267.760 325.104,267.348 325.744,267.095 326.040 C 266.842 326.336,266.076 327.298,265.393 328.178 C 263.031 331.222,259.419 334.578,258.507 334.578 C 258.289 334.578,258.027 334.798,257.923 335.067 C 257.820 335.335,257.065 335.853,256.246 336.216 C 255.426 336.579,254.577 337.047,254.358 337.255 C 254.140 337.463,253.260 337.859,252.403 338.135 C 251.546 338.411,250.764 338.736,250.667 338.857 C 250.367 339.227,245.593 340.269,244.199 340.268 C 243.477 340.267,242.788 340.427,242.667 340.622 C 242.391 341.068,235.238 341.096,234.395 340.654 C 234.056 340.476,232.668 340.147,231.312 339.922 C 229.957 339.698,228.197 339.228,227.401 338.880 C 226.606 338.531,225.396 338.027,224.711 337.760 C 224.027 337.493,223.255 337.068,222.997 336.815 C 222.738 336.562,222.321 336.356,222.070 336.356 C 221.819 336.356,220.880 335.796,219.984 335.111 C 219.087 334.427,218.268 333.867,218.163 333.867 C 217.559 333.867,211.580 327.359,210.649 325.689 C 210.268 325.004,209.847 324.362,209.714 324.261 C 209.137 323.824,207.350 319.960,206.947 318.280 C 206.705 317.270,206.381 316.444,206.228 316.444 C 204.857 316.444,204.833 298.612,206.203 297.600 C 206.335 297.502,206.732 296.342,207.084 295.022 C 207.435 293.702,207.834 292.622,207.968 292.622 C 208.103 292.622,208.426 292.022,208.686 291.289 C 208.946 290.556,209.458 289.669,209.824 289.319 C 210.190 288.970,210.489 288.451,210.489 288.167 C 210.489 287.883,210.809 287.451,211.200 287.206 C 211.591 286.962,211.911 286.620,211.911 286.446 C 211.911 286.273,212.450 285.534,213.109 284.805 C 213.768 284.075,214.368 283.336,214.442 283.161 C 214.517 282.987,215.298 282.262,216.178 281.550 C 217.058 280.838,218.258 279.839,218.844 279.328 C 219.431 278.818,220.103 278.401,220.338 278.400 C 220.573 278.400,220.893 278.185,221.049 277.922 C 221.205 277.659,222.093 277.157,223.022 276.807 C 223.951 276.457,224.711 276.061,224.711 275.928 C 224.711 275.794,225.631 275.398,226.756 275.047 C 227.880 274.696,228.960 274.285,229.156 274.134 C 231.057 272.664,246.834 272.667,248.711 274.138 C 249.174 274.501,252.880 275.594,253.055 275.419 C 253.201 275.273,248.886 273.697,246.578 273.052 C 244.258 272.404,235.223 272.297,232.403 272.884 M253.511 275.876 C 253.511 276.053,253.991 276.364,254.577 276.569 C 255.163 276.773,256.178 277.349,256.833 277.848 C 257.487 278.347,258.154 278.756,258.315 278.756 C 258.697 278.756,259.133 279.153,262.933 282.967 C 266.476 286.523,267.374 287.626,268.116 289.333 C 268.392 289.969,268.723 290.489,268.851 290.489 C 268.979 290.489,269.372 291.289,269.723 292.267 C 270.075 293.244,270.469 294.044,270.600 294.044 C 270.730 294.044,271.138 295.324,271.507 296.888 C 271.876 298.452,272.298 299.732,272.444 299.733 C 273.761 299.736,269.811 290.208,266.917 286.400 C 263.251 281.577,253.511 273.931,253.511 275.876 " stroke="none" fill="#5e5e5e" fill-rule="evenodd"></path><path id="path1" d="M314.443 59.111 C 311.594 63.305,306.881 70.225,300.702 79.289 C 299.569 80.951,298.010 83.271,297.239 84.444 C 296.468 85.618,295.667 86.778,295.460 87.022 C 295.253 87.267,295.209 87.469,295.364 87.472 C 295.518 87.475,295.475 87.595,295.267 87.739 C 294.791 88.068,290.576 94.195,278.576 112.000 C 275.610 116.400,271.709 122.160,269.907 124.800 C 268.105 127.440,265.081 131.920,263.186 134.756 C 261.292 137.591,259.660 139.991,259.559 140.089 C 259.458 140.187,258.096 142.171,256.532 144.497 C 254.968 146.824,251.401 152.104,248.605 156.231 C 245.808 160.357,242.182 165.733,240.547 168.178 C 235.718 175.394,229.396 184.678,228.995 185.141 C 228.790 185.377,228.622 185.723,228.622 185.911 C 228.622 186.098,228.497 186.305,228.343 186.370 C 228.190 186.436,226.888 188.249,225.450 190.400 C 224.012 192.551,222.710 194.451,222.557 194.621 C 222.403 194.792,220.092 193.552,217.419 191.866 C 214.747 190.180,212.478 188.800,212.376 188.800 C 212.275 188.800,211.716 188.400,211.135 187.911 C 210.554 187.422,209.864 187.022,209.602 187.022 C 209.340 187.022,209.073 186.895,209.007 186.740 C 208.942 186.585,208.249 186.077,207.467 185.610 C 206.684 185.142,204.482 183.749,202.573 182.514 C 200.664 181.278,198.944 180.267,198.751 180.267 C 198.558 180.267,198.400 180.132,198.400 179.968 C 198.400 179.804,197.960 179.469,197.422 179.225 C 196.884 178.980,195.404 178.091,194.133 177.249 C 192.862 176.407,190.432 174.862,188.733 173.815 C 187.035 172.768,183.195 170.376,180.200 168.500 C 177.206 166.623,174.573 164.985,174.351 164.859 C 174.095 164.714,173.613 165.509,173.037 167.026 C 172.537 168.344,171.071 171.822,169.779 174.756 C 168.488 177.689,166.863 181.529,166.169 183.289 C 165.475 185.049,164.535 187.289,164.080 188.267 C 163.625 189.244,162.432 191.964,161.429 194.311 C 160.425 196.658,159.458 198.898,159.279 199.289 C 158.384 201.241,152.533 215.174,152.533 215.351 C 152.533 215.464,152.082 216.456,151.531 217.556 C 150.980 218.656,150.161 220.516,149.712 221.689 C 149.262 222.862,148.526 224.622,148.076 225.600 C 147.626 226.578,146.659 228.818,145.927 230.578 C 145.195 232.338,144.084 234.978,143.459 236.444 C 142.834 237.911,141.241 241.671,139.919 244.800 C 138.597 247.929,137.215 251.169,136.847 252.000 C 134.713 256.819,134.527 257.250,132.978 260.978 C 132.368 262.444,131.731 263.964,131.562 264.356 C 128.832 270.681,127.243 274.396,124.797 280.178 C 123.184 283.991,121.752 287.271,121.615 287.467 C 121.479 287.662,121.073 288.622,120.714 289.600 C 120.355 290.578,119.632 292.338,119.107 293.511 C 118.582 294.684,117.938 296.204,117.677 296.889 C 117.416 297.573,116.615 299.413,115.897 300.978 C 115.179 302.542,114.466 304.219,114.312 304.705 C 114.159 305.191,113.495 306.751,112.839 308.173 C 112.182 309.595,111.639 310.878,111.632 311.024 C 111.626 311.170,111.311 311.929,110.933 312.711 C 110.555 313.493,110.241 314.413,110.234 314.756 C 110.228 315.098,110.076 315.378,109.898 315.378 C 109.719 315.378,109.143 316.538,108.618 317.956 C 108.093 319.373,107.289 321.333,106.832 322.311 C 105.772 324.576,101.689 334.146,101.689 334.362 C 101.689 334.452,101.150 335.698,100.492 337.130 C 99.833 338.562,99.171 340.133,99.020 340.622 C 98.870 341.111,98.149 342.791,97.418 344.356 C 96.688 345.920,95.799 348.000,95.444 348.978 C 95.088 349.956,94.575 351.107,94.303 351.537 C 94.032 351.967,93.767 352.527,93.715 352.781 C 93.581 353.436,92.868 355.118,87.596 367.207 C 86.370 370.018,86.029 371.204,86.113 372.362 L 86.222 373.867 87.740 371.378 C 88.574 370.009,90.116 367.529,91.166 365.867 C 92.217 364.204,93.902 361.484,94.913 359.822 C 95.923 358.160,97.624 355.444,98.693 353.786 C 99.762 352.129,100.555 350.561,100.456 350.301 C 100.356 350.042,100.396 349.905,100.544 349.996 C 100.692 350.088,101.594 348.936,102.549 347.437 C 103.504 345.938,104.715 344.071,105.239 343.289 C 105.764 342.507,106.302 341.627,106.436 341.333 C 106.569 341.040,107.145 340.080,107.715 339.200 C 108.285 338.320,109.282 336.733,109.931 335.674 C 110.580 334.615,111.386 333.335,111.723 332.830 C 112.059 332.325,112.600 331.431,112.926 330.844 C 113.252 330.258,114.033 328.978,114.662 328.000 C 115.291 327.022,116.987 324.302,118.431 321.956 C 119.875 319.609,121.182 317.529,121.336 317.333 C 121.489 317.138,122.594 315.378,123.791 313.422 C 124.988 311.467,126.477 309.067,127.101 308.089 C 127.725 307.111,128.827 305.351,129.550 304.178 C 130.274 303.004,131.061 301.733,131.299 301.352 C 131.538 300.971,132.677 299.131,133.831 297.263 C 134.985 295.395,136.281 293.307,136.711 292.622 C 137.525 291.325,140.459 286.595,141.689 284.595 C 142.724 282.911,145.746 278.068,146.663 276.622 C 147.372 275.505,151.106 269.515,152.000 268.061 C 152.196 267.743,152.886 266.620,153.535 265.564 C 154.184 264.508,155.179 262.924,155.746 262.044 C 156.313 261.164,157.176 259.702,157.663 258.795 C 158.151 257.888,158.767 256.928,159.031 256.662 C 159.296 256.395,160.117 255.138,160.855 253.867 C 162.652 250.773,164.524 247.728,164.905 247.278 C 165.076 247.076,165.874 245.796,166.679 244.433 C 167.484 243.071,168.430 241.556,168.782 241.067 C 169.606 239.923,171.733 236.409,171.733 236.193 C 171.733 236.102,172.188 235.361,172.743 234.547 C 173.298 233.733,174.153 232.427,174.644 231.644 C 175.135 230.862,176.321 228.972,177.279 227.444 C 178.238 225.917,179.342 224.131,179.733 223.476 C 180.891 221.538,182.723 218.540,183.200 217.802 C 185.330 214.507,187.378 211.167,187.378 210.988 C 187.378 210.867,187.824 210.186,188.369 209.473 C 188.914 208.761,189.670 207.578,190.049 206.844 C 191.001 205.006,190.466 204.765,198.875 210.824 C 200.080 211.693,202.427 213.341,204.089 214.488 C 207.232 216.655,210.203 218.725,214.781 221.935 C 232.073 234.061,234.476 235.728,234.671 235.731 C 234.871 235.734,235.977 233.438,239.296 226.133 C 240.495 223.493,242.024 220.183,242.694 218.777 C 243.363 217.372,243.911 216.118,243.911 215.990 C 243.911 215.863,244.611 214.293,245.466 212.502 C 246.321 210.710,247.862 207.404,248.890 205.156 C 249.917 202.907,251.315 199.867,251.996 198.400 C 252.677 196.933,253.760 194.517,254.403 193.031 C 255.046 191.545,255.738 190.025,255.942 189.653 C 256.145 189.282,256.703 188.098,257.182 187.022 C 257.661 185.947,258.631 183.823,259.337 182.303 C 260.044 180.783,260.622 179.467,260.622 179.379 C 260.622 179.290,261.422 177.530,262.400 175.467 C 263.378 173.404,264.178 171.500,264.178 171.235 C 264.178 170.970,264.402 170.568,264.675 170.341 C 264.949 170.113,265.535 169.014,265.978 167.897 C 266.421 166.780,267.477 164.382,268.325 162.568 C 269.173 160.753,269.867 159.206,269.867 159.130 C 269.867 159.053,270.764 157.098,271.862 154.784 C 274.249 149.750,274.622 148.883,274.546 148.533 C 274.515 148.387,274.629 148.267,274.801 148.267 C 274.973 148.267,275.313 147.747,275.556 147.111 C 275.979 146.010,277.691 142.166,281.062 134.756 C 281.907 132.898,283.433 129.538,284.453 127.289 C 285.473 125.040,286.928 121.871,287.687 120.246 C 288.446 118.621,289.067 117.218,289.067 117.127 C 289.067 116.974,289.630 115.759,293.553 107.461 C 294.410 105.648,295.111 104.076,295.111 103.966 C 295.111 103.856,295.831 102.245,296.711 100.387 C 297.591 98.529,298.311 96.951,298.311 96.881 C 298.311 96.811,299.091 95.104,300.045 93.088 C 304.039 84.643,304.814 82.961,305.251 81.778 C 305.505 81.093,306.618 78.613,307.726 76.267 C 308.834 73.920,310.030 71.360,310.385 70.578 C 314.248 62.062,317.356 55.352,317.754 54.667 C 317.839 54.520,317.849 54.400,317.776 54.400 C 317.702 54.400,316.203 56.520,314.443 59.111 M291.200 83.027 C 289.022 83.471,284.040 85.319,281.502 86.626 C 277.213 88.833,268.499 96.481,268.946 97.646 C 269.047 97.909,269.001 98.087,268.844 98.040 C 267.549 97.656,263.132 106.803,261.846 112.533 C 260.494 118.555,261.612 134.367,263.178 131.378 C 263.383 130.987,263.932 130.098,264.398 129.402 C 265.193 128.217,265.221 128.006,264.849 126.024 C 264.180 122.460,264.648 114.850,265.745 111.471 C 266.252 109.909,266.667 108.500,266.667 108.340 C 266.667 108.180,267.123 107.138,267.680 106.025 C 272.681 96.034,279.738 90.047,290.014 87.078 C 293.770 85.993,294.246 85.701,295.180 83.911 C 295.435 83.422,295.804 82.905,295.999 82.761 C 296.557 82.352,293.749 82.507,291.200 83.027 M306.049 84.793 L 305.524 86.387 306.806 86.601 C 321.938 89.122,334.222 104.465,334.222 120.840 C 334.222 132.099,326.971 145.118,317.954 150.049 C 317.221 150.449,315.923 151.169,315.069 151.648 C 314.215 152.127,312.455 152.859,311.158 153.275 C 309.861 153.691,308.560 154.116,308.267 154.220 C 307.973 154.325,307.493 154.451,307.200 154.501 C 306.907 154.551,305.805 154.769,304.751 154.985 C 296.729 156.630,285.717 153.910,278.712 148.552 L 277.423 147.567 276.707 149.290 L 275.991 151.013 278.268 152.510 C 296.309 164.371,320.305 159.112,331.800 140.779 C 333.666 137.804,334.153 136.807,335.615 132.978 C 342.261 115.563,332.909 93.749,315.378 85.777 C 308.698 82.739,306.791 82.538,306.049 84.793 M86.044 114.364 C 71.429 115.692,57.661 126.245,53.407 139.378 C 51.810 144.309,51.488 145.658,51.163 148.775 C 49.174 167.840,62.564 186.110,81.422 190.064 C 110.056 196.068,134.311 169.157,125.824 140.800 C 125.203 138.726,122.210 132.358,121.647 131.911 C 121.523 131.813,120.793 130.800,120.025 129.659 C 113.409 119.836,98.696 113.214,86.044 114.364 M98.253 118.899 C 127.022 126.583,133.479 164.683,108.853 181.444 C 98.918 188.206,83.910 189.264,74.091 183.895 C 73.481 183.562,72.281 182.908,71.424 182.442 C 56.925 174.557,50.440 153.684,57.650 138.111 C 64.806 122.659,81.953 114.545,98.253 118.899 M243.911 124.679 C 237.596 125.773,231.501 126.715,225.956 127.453 C 222.240 127.948,218.480 128.510,217.600 128.702 C 216.720 128.894,211.920 129.611,206.933 130.296 C 201.947 130.982,197.147 131.707,196.267 131.909 C 195.387 132.110,190.187 132.913,184.711 133.692 C 174.538 135.140,157.917 137.606,147.733 139.179 C 144.604 139.662,141.764 140.065,141.422 140.073 C 140.766 140.090,140.517 142.294,141.073 143.167 C 141.324 143.563,150.730 142.356,164.800 140.122 C 167.342 139.719,172.222 138.989,175.644 138.501 C 179.067 138.013,183.947 137.284,186.489 136.882 C 189.031 136.480,193.751 135.772,196.978 135.309 C 212.348 133.105,218.723 132.158,225.778 131.034 C 229.982 130.364,236.062 129.469,239.289 129.045 C 247.964 127.905,247.885 127.932,247.753 126.114 C 247.637 124.525,246.739 124.189,243.911 124.679 M287.112 167.821 C 286.890 168.180,282.554 181.272,280.575 187.556 C 279.959 189.511,279.305 191.431,279.121 191.822 C 278.938 192.213,278.275 194.293,277.650 196.444 C 277.025 198.596,276.390 200.596,276.241 200.889 C 276.001 201.359,272.160 213.103,266.066 232.000 C 264.994 235.324,263.749 239.084,263.301 240.356 C 261.506 245.443,258.088 256.392,258.024 257.259 C 257.968 258.015,260.570 259.736,260.799 259.095 C 261.948 255.881,262.729 253.516,263.874 249.778 C 264.653 247.236,265.520 244.651,265.800 244.035 C 266.081 243.419,266.310 242.779,266.310 242.613 C 266.308 242.309,273.015 221.654,274.835 216.356 C 275.966 213.067,277.985 206.856,281.597 195.556 C 283.004 191.156,284.445 186.756,284.799 185.778 C 287.176 179.217,290.398 168.533,289.999 168.533 C 289.925 168.533,289.294 168.295,288.596 168.003 C 287.806 167.673,287.246 167.604,287.112 167.821 M125.103 195.156 L 123.911 196.234 135.966 208.307 L 148.021 220.380 148.677 219.093 C 149.038 218.385,149.333 217.622,149.333 217.398 C 149.333 217.081,131.362 198.838,127.176 194.905 L 126.295 194.078 125.103 195.156 M171.272 240.889 C 170.945 241.573,170.476 242.133,170.230 242.133 C 169.983 242.133,176.340 248.693,184.356 256.711 C 192.372 264.729,199.011 271.284,199.109 271.278 C 199.208 271.273,199.797 270.806,200.417 270.241 L 201.545 269.215 186.774 254.429 C 178.650 246.298,171.972 239.644,171.934 239.644 C 171.896 239.644,171.598 240.204,171.272 240.889 M234.335 268.831 C 207.942 272.247,192.704 301.037,204.900 324.444 C 218.175 349.923,253.319 352.408,270.253 329.067 C 279.997 315.636,279.364 295.445,268.809 283.022 C 267.896 281.947,266.840 280.696,266.463 280.243 C 260.121 272.620,245.416 267.396,234.335 268.831 M246.635 273.037 C 265.811 276.995,278.094 297.771,272.403 316.622 C 264.224 343.711,229.964 350.654,211.890 328.885 C 208.587 324.907,206.507 320.586,204.960 314.489 C 204.811 313.902,204.620 313.182,204.536 312.889 C 203.775 310.232,204.056 303.255,205.090 299.114 C 209.837 280.106,227.417 269.071,246.635 273.037 " stroke="none" fill="#040404" fill-rule="evenodd"></path><path id="path2" d="M333.949 117.689 C 333.949 118.373,334.022 118.653,334.112 118.311 C 334.201 117.969,334.201 117.409,334.112 117.067 C 334.022 116.724,333.949 117.004,333.949 117.689 M85.422 117.934 C 85.764 118.023,86.324 118.023,86.667 117.934 C 87.009 117.845,86.729 117.771,86.044 117.771 C 85.360 117.771,85.080 117.845,85.422 117.934 M91.289 117.940 C 91.729 118.025,92.449 118.025,92.889 117.940 C 93.329 117.855,92.969 117.786,92.089 117.786 C 91.209 117.786,90.849 117.855,91.289 117.940 M333.949 123.733 C 333.949 124.418,334.022 124.698,334.112 124.356 C 334.201 124.013,334.201 123.453,334.112 123.111 C 334.022 122.769,333.949 123.049,333.949 123.733 M127.746 152.356 C 127.749 153.333,127.818 153.691,127.900 153.151 C 127.981 152.610,127.979 151.810,127.895 151.373 C 127.810 150.936,127.743 151.378,127.746 152.356 M116.072 180.000 L 114.667 181.511 116.178 180.106 C 117.583 178.799,117.852 178.489,117.583 178.489 C 117.525 178.489,116.845 179.169,116.072 180.000 M126.008 194.222 C 125.868 194.467,125.886 194.545,126.050 194.397 C 126.213 194.248,126.759 194.488,127.263 194.930 L 128.178 195.733 127.316 194.756 C 126.321 193.628,126.345 193.637,126.008 194.222 M129.422 197.156 C 130.086 197.840,130.708 198.400,130.806 198.400 C 130.904 198.400,130.441 197.840,129.778 197.156 C 129.114 196.471,128.492 195.911,128.394 195.911 C 128.296 195.911,128.759 196.471,129.422 197.156 M127.289 200.000 C 127.952 200.684,128.575 201.244,128.673 201.244 C 128.771 201.244,128.308 200.684,127.644 200.000 C 126.981 199.316,126.358 198.756,126.261 198.756 C 126.163 198.756,126.625 199.316,127.289 200.000 M132.267 200.000 C 132.930 200.684,133.553 201.244,133.651 201.244 C 133.748 201.244,133.286 200.684,132.622 200.000 C 131.959 199.316,131.336 198.756,131.238 198.756 C 131.141 198.756,131.603 199.316,132.267 200.000 M132.978 205.689 C 135.220 207.938,137.135 209.778,137.233 209.778 C 137.331 209.778,135.576 207.938,133.333 205.689 C 131.091 203.440,129.176 201.600,129.078 201.600 C 128.980 201.600,130.735 203.440,132.978 205.689 M136.178 203.911 C 136.841 204.596,137.464 205.156,137.562 205.156 C 137.659 205.156,137.197 204.596,136.533 203.911 C 135.870 203.227,135.247 202.667,135.149 202.667 C 135.052 202.667,135.514 203.227,136.178 203.911 M139.556 207.289 C 140.519 208.267,141.387 209.067,141.484 209.067 C 141.582 209.067,140.874 208.267,139.911 207.289 C 138.948 206.311,138.080 205.511,137.982 205.511 C 137.885 205.511,138.592 206.311,139.556 207.289 M142.933 210.667 C 143.597 211.351,144.219 211.911,144.317 211.911 C 144.415 211.911,143.952 211.351,143.289 210.667 C 142.625 209.982,142.003 209.422,141.905 209.422 C 141.807 209.422,142.270 209.982,142.933 210.667 M138.667 211.378 C 139.330 212.062,139.953 212.622,140.051 212.622 C 140.148 212.622,139.686 212.062,139.022 211.378 C 138.359 210.693,137.736 210.133,137.638 210.133 C 137.541 210.133,138.003 210.693,138.667 211.378 M145.778 213.511 C 146.441 214.196,147.064 214.756,147.162 214.756 C 147.259 214.756,146.797 214.196,146.133 213.511 C 145.470 212.827,144.847 212.267,144.749 212.267 C 144.652 212.267,145.114 212.827,145.778 213.511 M141.511 214.222 C 142.175 214.907,142.797 215.467,142.895 215.467 C 142.993 215.467,142.530 214.907,141.867 214.222 C 141.203 213.538,140.581 212.978,140.483 212.978 C 140.385 212.978,140.848 213.538,141.511 214.222 M144.356 217.067 C 145.019 217.751,145.642 218.311,145.739 218.311 C 145.837 218.311,145.375 217.751,144.711 217.067 C 144.048 216.382,143.425 215.822,143.327 215.822 C 143.229 215.822,143.692 216.382,144.356 217.067 M146.133 218.778 C 146.133 218.839,146.653 219.359,147.289 219.933 L 148.444 220.978 147.400 219.822 C 146.427 218.745,146.133 218.503,146.133 218.778 M174.222 241.956 C 174.886 242.640,175.508 243.200,175.606 243.200 C 175.704 243.200,175.241 242.640,174.578 241.956 C 173.914 241.271,173.292 240.711,173.194 240.711 C 173.096 240.711,173.559 241.271,174.222 241.956 M172.800 245.511 C 173.463 246.196,174.086 246.756,174.184 246.756 C 174.282 246.756,173.819 246.196,173.156 245.511 C 172.492 244.827,171.869 244.267,171.772 244.267 C 171.674 244.267,172.137 244.827,172.800 245.511 M177.778 245.511 C 178.441 246.196,179.064 246.756,179.162 246.756 C 179.259 246.756,178.797 246.196,178.133 245.511 C 177.470 244.827,176.847 244.267,176.749 244.267 C 176.652 244.267,177.114 244.827,177.778 245.511 M175.644 248.356 C 176.308 249.040,176.931 249.600,177.028 249.600 C 177.126 249.600,176.663 249.040,176.000 248.356 C 175.337 247.671,174.714 247.111,174.616 247.111 C 174.518 247.111,174.981 247.671,175.644 248.356 M179.911 247.578 C 179.911 247.639,180.431 248.159,181.067 248.733 L 182.222 249.778 181.178 248.622 C 180.204 247.545,179.911 247.303,179.911 247.578 M182.756 255.467 C 185.782 258.498,188.338 260.978,188.436 260.978 C 188.534 260.978,186.137 258.498,183.111 255.467 C 180.085 252.436,177.529 249.956,177.431 249.956 C 177.333 249.956,179.729 252.436,182.756 255.467 M183.467 251.200 C 184.130 251.884,184.753 252.444,184.851 252.444 C 184.948 252.444,184.486 251.884,183.822 251.200 C 183.159 250.516,182.536 249.956,182.438 249.956 C 182.341 249.956,182.803 250.516,183.467 251.200 M187.007 254.667 C 188.481 256.237,188.800 256.519,188.800 256.252 C 188.800 256.195,188.040 255.435,187.111 254.563 L 185.422 252.978 187.007 254.667 M191.289 259.022 C 191.952 259.707,192.575 260.267,192.673 260.267 C 192.771 260.267,192.308 259.707,191.644 259.022 C 190.981 258.338,190.358 257.778,190.261 257.778 C 190.163 257.778,190.625 258.338,191.289 259.022 M194.133 261.867 C 194.797 262.551,195.419 263.111,195.517 263.111 C 195.615 263.111,195.152 262.551,194.489 261.867 C 193.825 261.182,193.203 260.622,193.105 260.622 C 193.007 260.622,193.470 261.182,194.133 261.867 M189.867 262.578 C 190.530 263.262,191.153 263.822,191.251 263.822 C 191.348 263.822,190.886 263.262,190.222 262.578 C 189.559 261.893,188.936 261.333,188.838 261.333 C 188.741 261.333,189.203 261.893,189.867 262.578 M195.911 263.578 C 195.911 263.639,196.431 264.159,197.067 264.733 L 198.222 265.778 197.178 264.622 C 196.204 263.545,195.911 263.303,195.911 263.578 M192.711 265.422 C 193.375 266.107,193.997 266.667,194.095 266.667 C 194.193 266.667,193.730 266.107,193.067 265.422 C 192.403 264.738,191.781 264.178,191.683 264.178 C 191.585 264.178,192.048 264.738,192.711 265.422 M195.556 268.267 C 196.219 268.951,196.842 269.511,196.939 269.511 C 197.037 269.511,196.575 268.951,195.911 268.267 C 195.248 267.582,194.625 267.022,194.527 267.022 C 194.429 267.022,194.892 267.582,195.556 268.267 M200.091 270.471 L 199.131 271.431 198.143 270.570 L 197.156 269.709 198.134 270.758 L 199.112 271.807 200.260 270.659 C 200.892 270.028,201.328 269.511,201.230 269.511 C 201.131 269.511,200.619 269.943,200.091 270.471 M212.778 278.844 L 211.733 280.000 212.889 278.956 C 213.524 278.381,214.044 277.861,214.044 277.800 C 214.044 277.525,213.751 277.767,212.778 278.844 M214.736 281.867 L 213.511 283.200 214.844 281.975 C 216.085 280.834,216.341 280.533,216.070 280.533 C 216.010 280.533,215.410 281.133,214.736 281.867 M263.289 282.311 C 264.053 283.093,264.758 283.733,264.855 283.733 C 264.953 283.733,264.408 283.093,263.644 282.311 C 262.881 281.529,262.176 280.889,262.078 280.889 C 261.980 280.889,262.525 281.529,263.289 282.311 M204.179 303.822 C 204.183 304.604,204.255 304.883,204.340 304.440 C 204.425 303.998,204.422 303.358,204.333 303.018 C 204.244 302.678,204.175 303.040,204.179 303.822 M204.171 310.044 C 204.171 310.729,204.245 311.009,204.334 310.667 C 204.423 310.324,204.423 309.764,204.334 309.422 C 204.245 309.080,204.171 309.360,204.171 310.044 M263.267 331.822 L 262.222 332.978 263.378 331.933 C 264.013 331.359,264.533 330.839,264.533 330.778 C 264.533 330.503,264.240 330.745,263.267 331.822 M265.581 334.489 L 264.356 335.822 265.689 334.597 C 266.422 333.923,267.022 333.323,267.022 333.264 C 267.022 332.992,266.721 333.248,265.581 334.489 M234.044 345.134 C 234.387 345.223,234.947 345.223,235.289 345.134 C 235.631 345.045,235.351 344.971,234.667 344.971 C 233.982 344.971,233.702 345.045,234.044 345.134 M238.667 345.490 C 239.009 345.579,239.569 345.579,239.911 345.490 C 240.253 345.400,239.973 345.327,239.289 345.327 C 238.604 345.327,238.324 345.400,238.667 345.490 " stroke="none" fill="#313131" fill-rule="evenodd"></path><path id="path3" d="" stroke="none" fill="#4c4c4c" fill-rule="evenodd"></path><path id="path4" d="M88.978 117.934 C 89.320 118.023,89.880 118.023,90.222 117.934 C 90.564 117.845,90.284 117.771,89.600 117.771 C 88.916 117.771,88.636 117.845,88.978 117.934 M204.171 306.133 C 204.171 306.818,204.245 307.098,204.334 306.756 C 204.423 306.413,204.423 305.853,204.334 305.511 C 204.245 305.169,204.171 305.449,204.171 306.133 " stroke="none" fill="#444444" fill-rule="evenodd"></path></g></svg>