<svg id="svg" version="1.1" xmlns="http://www.w3.org/2000/svg" xmlns:xlink="http://www.w3.org/1999/xlink" width="400"
  height="227.20763723150358" viewBox="0, 0, 400,227.20763723150358">
  <g id="svgg">
    <path id="path0"
      d="M366.732 28.820 C 366.637 28.973,367.207 29.090,368.350 29.151 C 369.320 29.204,370.369 29.323,370.682 29.417 C 371.219 29.578,371.216 29.568,370.626 29.239 C 369.841 28.802,366.936 28.489,366.732 28.820 M364.336 29.373 C 363.758 29.653,363.463 29.904,363.643 29.964 C 363.814 30.021,363.994 29.951,364.042 29.807 C 364.090 29.663,364.304 29.545,364.519 29.545 C 364.734 29.545,365.006 29.453,365.125 29.340 C 365.244 29.227,365.545 29.086,365.795 29.026 L 366.250 28.916 365.795 28.901 C 365.545 28.893,364.889 29.105,364.336 29.373 M371.364 29.734 C 371.364 30.006,372.470 30.560,372.651 30.379 C 372.735 30.296,372.644 30.227,372.449 30.227 C 372.254 30.227,372.035 30.074,371.963 29.886 C 371.826 29.528,371.364 29.411,371.364 29.734 M369.941 33.892 C 369.724 34.014,369.545 34.353,369.545 34.646 C 369.545 34.939,369.386 35.240,369.190 35.315 C 368.995 35.390,368.898 35.554,368.976 35.680 C 369.206 36.052,369.449 35.946,369.777 35.333 C 369.947 35.016,370.199 34.800,370.337 34.853 C 370.478 34.907,370.584 34.719,370.578 34.426 C 370.565 33.741,370.423 33.622,369.941 33.892 M366.787 36.144 C 367.082 36.390,367.203 36.591,367.057 36.591 C 366.911 36.591,366.846 36.679,366.913 36.787 C 367.016 36.954,367.487 36.975,368.239 36.847 C 368.939 36.728,368.331 35.883,367.614 35.979 C 367.176 36.038,366.818 35.995,366.818 35.884 C 366.818 35.773,366.690 35.685,366.534 35.689 C 366.378 35.694,366.491 35.898,366.787 36.144 M82.727 46.135 C 82.415 46.236,81.484 46.329,80.659 46.341 C 79.834 46.353,78.862 46.465,78.500 46.589 C 78.137 46.714,77.330 46.862,76.705 46.919 C 74.347 47.133,69.096 48.358,65.568 49.516 C 54.887 53.022,48.659 58.137,46.577 65.114 C 46.428 65.614,46.216 66.258,46.107 66.545 C 45.837 67.258,45.849 115.121,46.120 115.628 C 46.236 115.845,46.563 116.534,46.846 117.159 C 48.136 120.008,51.278 122.261,56.136 123.822 C 58.376 124.541,58.889 124.656,61.364 124.992 C 62.176 125.103,63.250 125.278,63.750 125.381 C 65.472 125.736,76.215 125.197,76.497 124.741 C 76.563 124.634,76.849 124.545,77.132 124.545 C 77.781 124.545,80.959 123.601,82.289 123.012 C 82.843 122.767,83.476 122.503,83.698 122.425 C 85.502 121.789,88.486 119.009,89.354 117.155 C 90.403 114.912,90.456 113.679,90.514 90.110 L 90.568 68.061 91.364 66.495 C 92.514 64.229,95.032 62.341,98.182 61.382 C 98.744 61.211,99.634 60.935,100.159 60.769 C 103.170 59.818,105.227 59.708,121.023 59.656 C 141.195 59.589,144.555 59.857,148.463 61.845 C 148.680 61.955,148.996 62.045,149.166 62.045 C 150.357 62.045,153.653 64.985,154.517 66.818 C 157.052 72.194,153.958 77.315,146.770 79.642 C 142.748 80.944,142.312 80.976,126.932 81.062 C 110.801 81.152,111.301 81.101,109.343 82.862 C 105.568 86.256,106.468 91.856,111.186 94.323 C 111.971 94.734,113.227 95.389,113.977 95.779 C 114.727 96.169,115.597 96.648,115.909 96.842 C 116.493 97.206,119.546 98.950,121.364 99.958 C 123.018 100.875,127.765 103.534,128.750 104.095 C 129.250 104.379,130.222 104.920,130.909 105.295 C 131.597 105.671,132.415 106.151,132.727 106.362 C 133.040 106.574,133.602 106.896,133.977 107.080 C 134.944 107.552,138.088 109.276,139.432 110.071 C 140.057 110.441,141.233 111.104,142.045 111.544 C 143.522 112.344,144.249 112.750,145.852 113.671 C 146.321 113.941,147.369 114.522,148.182 114.962 C 148.994 115.403,150.300 116.154,151.084 116.632 C 151.867 117.109,152.559 117.500,152.622 117.500 C 152.684 117.500,153.373 117.886,154.152 118.359 C 154.931 118.831,156.076 119.455,156.696 119.746 C 157.316 120.037,158.390 120.638,159.082 121.081 C 160.801 122.182,161.788 122.727,162.063 122.727 C 162.191 122.727,162.718 122.932,163.235 123.182 C 163.753 123.432,164.312 123.636,164.478 123.636 C 164.643 123.636,164.956 123.729,165.174 123.842 C 168.929 125.803,181.798 125.960,188.182 124.124 C 194.760 122.231,198.280 119.118,199.334 114.261 C 199.935 111.493,197.851 107.755,194.871 106.255 C 194.380 106.007,193.336 105.419,192.553 104.948 C 191.769 104.476,191.084 104.091,191.029 104.091 C 190.974 104.091,190.388 103.770,189.726 103.377 C 189.064 102.985,188.114 102.438,187.614 102.163 C 187.114 101.888,185.899 101.212,184.914 100.661 C 183.929 100.110,182.651 99.400,182.073 99.084 C 181.495 98.768,180.460 98.191,179.773 97.803 C 176.965 96.219,175.160 95.227,175.086 95.227 C 175.042 95.227,174.489 94.908,173.856 94.519 C 172.462 93.662,172.429 93.138,173.753 92.917 C 174.251 92.834,175.068 92.648,175.568 92.504 C 176.068 92.360,176.835 92.154,177.273 92.045 C 188.350 89.302,196.364 83.540,198.784 76.582 C 200.469 71.736,200.066 65.115,197.914 62.299 C 197.686 62.001,197.500 61.661,197.500 61.544 C 197.500 60.275,192.337 55.195,189.468 53.641 C 187.093 52.355,184.535 51.147,183.182 50.672 C 182.369 50.387,181.607 50.068,181.489 49.963 C 181.370 49.858,181.044 49.773,180.763 49.773 C 180.483 49.773,180.191 49.670,180.114 49.545 C 180.036 49.420,179.771 49.318,179.525 49.318 C 179.278 49.318,178.478 49.117,177.746 48.870 C 176.180 48.342,172.904 47.545,171.136 47.262 C 168.186 46.789,166.581 46.557,164.659 46.323 C 162.222 46.027,83.623 45.847,82.727 46.135 M276.497 46.080 C 276.403 46.173,274.980 46.322,273.334 46.411 C 269.447 46.620,266.309 46.911,266.023 47.088 C 265.898 47.166,265.233 47.290,264.545 47.365 C 263.858 47.439,262.784 47.599,262.159 47.719 C 261.534 47.839,259.847 48.152,258.409 48.413 C 255.828 48.882,254.642 49.147,253.279 49.561 C 252.895 49.677,252.357 49.773,252.083 49.773 C 251.809 49.773,251.407 49.866,251.190 49.981 C 250.973 50.095,250.028 50.411,249.091 50.682 C 233.068 55.315,223.090 61.997,218.094 71.439 C 217.642 72.293,217.273 73.139,217.273 73.317 C 217.273 73.496,217.174 73.820,217.053 74.037 C 215.370 77.054,214.775 88.260,216.126 91.477 C 216.231 91.727,216.538 92.597,216.808 93.409 C 218.791 99.364,223.050 104.623,229.279 108.807 C 230.070 109.338,230.756 109.773,230.803 109.773 C 230.850 109.773,231.232 110.006,231.651 110.290 C 232.382 110.786,236.293 112.759,237.955 113.469 C 238.392 113.657,239.108 113.972,239.545 114.171 C 240.629 114.664,243.816 115.814,246.023 116.509 C 247.023 116.824,248.781 117.380,249.930 117.745 C 251.079 118.110,252.275 118.409,252.587 118.409 C 252.899 118.409,253.212 118.501,253.281 118.612 C 253.350 118.724,253.790 118.871,254.260 118.939 C 254.729 119.006,255.625 119.171,256.250 119.304 C 256.875 119.438,257.795 119.606,258.295 119.678 C 258.795 119.749,259.409 119.897,259.659 120.006 C 259.909 120.114,260.574 120.255,261.136 120.318 C 263.635 120.597,265.548 120.905,266.276 121.145 C 266.710 121.288,267.188 121.358,267.339 121.300 C 267.490 121.243,268.227 121.291,268.977 121.407 C 269.727 121.523,271.351 121.661,272.586 121.715 C 273.820 121.769,275.201 121.916,275.654 122.041 C 276.190 122.190,289.090 122.271,312.678 122.271 L 348.879 122.273 349.951 121.726 C 355.878 118.701,355.998 111.870,350.170 109.179 L 348.750 108.523 322.500 108.367 C 294.964 108.204,292.913 108.128,286.932 107.047 C 286.182 106.911,285.159 106.743,284.659 106.672 C 284.159 106.602,283.653 106.453,283.534 106.340 C 283.415 106.228,283.100 106.136,282.834 106.136 C 281.823 106.136,274.970 103.776,274.811 103.374 C 274.769 103.268,274.555 103.182,274.335 103.182 C 273.928 103.182,271.316 101.865,268.993 100.490 C 267.730 99.741,264.323 96.558,263.120 95.000 C 259.544 90.373,258.801 81.531,261.516 75.909 C 263.401 72.005,266.959 68.603,271.751 66.122 C 275.076 64.400,281.469 62.045,282.818 62.045 C 283.128 62.045,283.437 61.957,283.504 61.848 C 283.622 61.658,284.402 61.509,287.045 61.172 C 287.733 61.084,288.429 60.929,288.591 60.826 C 288.754 60.724,289.470 60.609,290.182 60.571 C 290.894 60.533,292.142 60.378,292.955 60.226 C 294.039 60.024,301.529 59.927,321.136 59.861 C 340.317 59.796,348.119 59.697,348.829 59.509 C 355.898 57.634,356.449 49.521,349.718 46.407 L 348.641 45.909 312.654 45.909 C 292.861 45.909,276.590 45.986,276.497 46.080 "
      stroke="none" fill="#848484" fill-rule="evenodd"></path>
    <path id="path1"
      d="M363.655 28.208 C 361.826 29.201,360.440 30.861,360.756 31.682 C 360.923 32.118,362.000 32.410,362.307 32.102 C 362.459 31.950,362.349 31.910,361.976 31.981 C 361.406 32.090,360.821 31.582,361.323 31.415 C 361.471 31.366,361.591 31.178,361.591 30.997 C 361.591 30.816,361.770 30.601,361.989 30.519 C 362.207 30.438,362.520 30.185,362.683 29.958 C 362.847 29.731,363.128 29.545,363.308 29.545 C 363.489 29.545,363.636 29.443,363.636 29.318 C 363.636 29.193,363.791 29.091,363.980 29.091 C 364.170 29.091,364.502 29.001,364.719 28.892 C 366.049 28.219,368.677 27.923,368.979 28.412 C 369.057 28.538,369.395 28.623,369.731 28.602 C 370.407 28.557,371.869 29.325,372.937 30.284 C 373.803 31.062,373.864 31.061,373.864 30.262 C 373.864 29.618,373.272 28.864,372.766 28.864 C 372.620 28.864,372.500 28.761,372.500 28.636 C 372.500 28.511,372.295 28.409,372.045 28.409 C 371.795 28.409,371.591 28.307,371.591 28.182 C 371.591 28.057,371.290 27.955,370.923 27.955 C 370.555 27.955,370.191 27.852,370.114 27.727 C 369.754 27.146,364.953 27.503,363.655 28.208 M365.288 29.640 C 364.135 30.059,362.406 31.361,362.662 31.617 C 362.890 31.845,364.314 31.187,364.317 30.852 C 364.318 30.759,364.517 30.682,364.759 30.682 C 365.002 30.682,365.264 30.580,365.341 30.455 C 365.418 30.330,365.680 30.227,365.923 30.227 C 366.165 30.227,366.364 30.125,366.364 30.000 C 366.364 29.872,367.003 29.773,367.827 29.773 C 368.633 29.773,369.355 29.670,369.432 29.545 C 369.629 29.226,366.213 29.303,365.288 29.640 M369.773 30.000 C 369.773 30.125,369.907 30.227,370.071 30.227 C 370.235 30.227,370.567 30.407,370.809 30.627 C 371.355 31.122,372.411 31.604,372.580 31.435 C 372.741 31.274,372.155 30.682,371.834 30.682 C 371.700 30.682,371.590 30.605,371.589 30.511 C 371.587 30.307,370.486 29.773,370.068 29.773 C 369.906 29.773,369.773 29.875,369.773 30.000 M368.864 34.028 C 368.264 34.255,366.602 35.516,366.698 35.671 C 366.878 35.963,368.379 35.630,368.845 35.196 C 369.211 34.855,369.548 33.791,369.261 33.882 C 369.230 33.891,369.051 33.957,368.864 34.028 M370.255 35.436 C 370.083 35.543,370.011 35.744,370.096 35.881 C 370.189 36.031,370.127 36.083,369.941 36.012 C 369.519 35.850,368.736 36.713,369.100 36.938 C 369.412 37.130,370.778 35.854,370.652 35.487 C 370.601 35.339,370.444 35.319,370.255 35.436 M366.364 36.184 C 366.364 36.377,366.534 36.676,366.742 36.847 C 367.088 37.132,367.095 37.111,366.825 36.591 C 366.429 35.829,366.364 35.772,366.364 36.184 M90.146 44.248 C 90.058 44.336,88.190 44.479,85.995 44.565 C 83.578 44.660,81.906 44.821,81.753 44.975 C 81.600 45.127,80.574 45.227,79.159 45.227 C 77.750 45.227,76.818 45.318,76.818 45.455 C 76.818 45.580,76.262 45.682,75.582 45.682 C 74.901 45.682,74.282 45.784,74.205 45.909 C 74.127 46.034,73.565 46.136,72.955 46.136 C 72.344 46.136,71.782 46.239,71.705 46.364 C 71.627 46.489,71.167 46.591,70.682 46.591 C 70.197 46.591,69.736 46.693,69.659 46.818 C 69.582 46.943,69.173 47.045,68.750 47.045 C 68.327 47.045,67.918 47.148,67.841 47.273 C 67.764 47.398,67.398 47.500,67.029 47.500 C 66.660 47.500,66.180 47.590,65.963 47.699 C 65.746 47.809,65.159 48.022,64.659 48.173 C 64.159 48.324,63.327 48.638,62.809 48.872 C 62.292 49.106,61.600 49.364,61.273 49.446 C 60.945 49.529,60.621 49.687,60.553 49.798 C 60.484 49.909,60.229 50.000,59.987 50.000 C 59.744 50.000,59.545 50.102,59.545 50.227 C 59.545 50.352,59.341 50.455,59.091 50.455 C 58.841 50.455,58.636 50.557,58.636 50.682 C 58.636 50.807,58.406 50.911,58.125 50.914 C 57.844 50.917,57.358 51.119,57.045 51.364 C 56.733 51.608,56.406 51.810,56.319 51.813 C 56.052 51.822,53.551 53.346,53.068 53.795 C 52.818 54.027,52.256 54.466,51.818 54.770 C 49.735 56.218,46.136 60.747,46.136 61.922 C 46.136 62.240,46.034 62.500,45.909 62.500 C 45.784 62.500,45.682 62.705,45.682 62.955 C 45.682 63.205,45.580 63.409,45.455 63.409 C 45.330 63.409,45.227 63.671,45.227 63.992 C 45.227 64.313,45.116 64.783,44.981 65.036 C 43.789 67.263,43.819 116.131,45.013 116.553 C 45.131 116.595,45.227 116.764,45.227 116.929 C 45.227 117.345,46.179 119.091,46.406 119.091 C 46.508 119.091,46.591 119.201,46.591 119.336 C 46.591 119.595,47.820 120.909,48.063 120.909 C 48.142 120.909,48.520 121.202,48.904 121.561 C 49.287 121.919,50.381 122.595,51.335 123.064 C 52.288 123.532,53.246 124.005,53.463 124.116 C 53.680 124.227,54.057 124.318,54.302 124.318 C 54.546 124.318,54.809 124.420,54.886 124.545 C 54.964 124.670,55.322 124.773,55.682 124.773 C 56.042 124.773,56.400 124.875,56.477 125.000 C 56.555 125.125,57.063 125.227,57.608 125.227 C 58.153 125.227,58.634 125.335,58.678 125.467 C 58.911 126.165,73.661 126.740,74.361 126.077 C 74.527 125.920,75.256 125.792,76.006 125.788 C 76.856 125.783,77.388 125.678,77.446 125.504 C 77.497 125.350,77.928 125.227,78.415 125.227 C 78.897 125.227,79.355 125.125,79.432 125.000 C 79.509 124.875,79.873 124.773,80.241 124.773 C 80.608 124.773,80.909 124.670,80.909 124.545 C 80.909 124.420,81.216 124.318,81.591 124.318 C 81.966 124.318,82.273 124.216,82.273 124.091 C 82.273 123.966,82.580 123.864,82.955 123.864 C 83.330 123.864,83.636 123.761,83.636 123.636 C 83.636 123.511,83.780 123.409,83.956 123.409 C 84.386 123.409,86.136 122.463,86.136 122.231 C 86.136 122.129,86.279 122.045,86.453 122.045 C 86.628 122.045,87.011 121.780,87.306 121.455 C 87.600 121.130,88.030 120.696,88.261 120.489 C 89.706 119.199,90.000 118.871,90.000 118.545 C 90.000 118.345,90.102 118.182,90.227 118.182 C 90.352 118.182,90.455 117.983,90.455 117.741 C 90.455 117.498,90.557 117.236,90.682 117.159 C 90.807 117.082,90.909 116.718,90.909 116.350 C 90.909 115.983,91.011 115.682,91.136 115.682 C 91.286 115.682,91.364 107.727,91.364 92.273 C 91.364 76.818,91.441 68.864,91.591 68.864 C 91.716 68.864,91.818 68.557,91.818 68.182 C 91.818 67.807,91.920 67.500,92.045 67.500 C 92.170 67.500,92.273 67.343,92.273 67.151 C 92.273 66.488,95.124 63.636,95.787 63.636 C 95.979 63.636,96.136 63.534,96.136 63.409 C 96.136 63.284,96.341 63.182,96.591 63.182 C 96.841 63.182,97.045 63.080,97.045 62.955 C 97.045 62.830,97.250 62.727,97.500 62.727 C 97.750 62.727,97.955 62.625,97.955 62.500 C 97.955 62.375,98.255 62.273,98.623 62.273 C 98.991 62.273,99.355 62.170,99.432 62.045 C 99.509 61.920,99.873 61.818,100.241 61.818 C 100.608 61.818,100.909 61.716,100.909 61.591 C 100.909 61.466,101.318 61.364,101.818 61.364 C 102.488 61.364,102.727 61.271,102.727 61.011 C 102.727 60.630,101.297 60.679,100.199 61.099 C 99.902 61.213,99.250 61.428,98.750 61.577 C 96.038 62.386,92.336 64.706,92.288 65.625 C 92.279 65.781,92.195 65.909,92.099 65.909 C 91.048 65.909,91.026 66.392,90.963 91.117 C 90.930 103.919,90.816 114.504,90.710 114.640 C 90.604 114.775,90.447 115.193,90.362 115.568 C 89.710 118.424,87.168 121.121,83.523 122.823 C 82.773 123.174,81.982 123.551,81.764 123.662 C 81.547 123.773,81.164 123.864,80.912 123.864 C 80.660 123.864,80.455 123.966,80.455 124.091 C 80.455 124.216,80.097 124.318,79.659 124.318 C 79.222 124.318,78.864 124.420,78.864 124.545 C 78.864 124.670,78.461 124.773,77.968 124.773 C 77.475 124.773,77.009 124.875,76.932 125.000 C 76.855 125.125,76.184 125.227,75.441 125.227 C 74.692 125.227,74.091 125.329,74.091 125.455 C 74.091 125.600,71.974 125.682,68.195 125.682 C 64.510 125.682,62.247 125.597,62.159 125.455 C 62.082 125.330,61.417 125.227,60.682 125.227 C 59.947 125.227,59.282 125.125,59.205 125.000 C 59.127 124.875,58.661 124.773,58.168 124.773 C 57.676 124.773,57.273 124.670,57.273 124.545 C 57.273 124.420,57.101 124.318,56.890 124.318 C 55.861 124.318,50.455 122.001,50.455 121.560 C 50.455 121.452,50.321 121.364,50.157 121.364 C 49.994 121.364,49.269 120.769,48.546 120.042 C 47.359 118.849,46.878 118.127,45.883 116.044 C 45.472 115.183,45.476 66.705,45.888 66.294 C 46.025 66.157,46.136 65.828,46.136 65.562 C 46.136 62.899,49.918 57.639,53.864 54.816 C 54.676 54.234,55.375 53.680,55.417 53.584 C 55.458 53.488,55.647 53.409,55.836 53.409 C 56.025 53.409,56.451 53.220,56.783 52.989 C 57.583 52.432,61.467 50.576,62.614 50.203 C 63.114 50.040,63.620 49.826,63.739 49.726 C 63.857 49.627,64.190 49.545,64.477 49.545 C 64.765 49.545,65.000 49.443,65.000 49.318 C 65.000 49.193,65.251 49.091,65.557 49.091 C 65.864 49.091,66.350 48.999,66.637 48.887 C 66.924 48.775,67.619 48.559,68.182 48.406 C 68.744 48.254,69.460 48.050,69.773 47.953 C 70.085 47.855,70.955 47.654,71.705 47.506 C 72.455 47.357,73.528 47.131,74.091 47.003 C 80.082 45.644,84.754 45.498,122.273 45.493 C 160.314 45.488,164.077 45.599,170.795 46.926 C 172.545 47.272,174.361 47.605,174.831 47.665 C 175.301 47.726,175.741 47.867,175.810 47.979 C 175.879 48.090,176.181 48.182,176.480 48.182 C 176.779 48.182,177.259 48.273,177.546 48.385 C 177.833 48.497,178.528 48.720,179.091 48.879 C 179.653 49.039,180.211 49.254,180.330 49.358 C 180.448 49.461,180.826 49.545,181.168 49.545 C 181.511 49.545,181.855 49.648,181.932 49.773 C 182.009 49.898,182.322 50.000,182.627 50.000 C 182.932 50.000,183.182 50.082,183.182 50.182 C 183.182 50.282,183.565 50.499,184.034 50.665 C 185.302 51.113,190.564 53.769,191.048 54.205 C 191.187 54.330,191.692 54.739,192.171 55.114 C 194.677 57.077,195.183 57.595,197.115 60.173 C 197.702 60.956,198.182 61.742,198.182 61.921 C 198.182 62.100,198.284 62.309,198.409 62.386 C 198.534 62.464,198.636 62.725,198.636 62.968 C 198.636 63.211,198.727 63.409,198.838 63.409 C 198.949 63.409,199.091 63.690,199.153 64.034 C 199.216 64.378,199.451 65.222,199.676 65.909 C 200.517 68.482,200.136 74.791,199.002 77.064 C 198.801 77.467,198.636 77.935,198.636 78.103 C 198.636 78.271,198.534 78.409,198.409 78.409 C 198.284 78.409,198.182 78.614,198.182 78.864 C 198.182 79.114,198.080 79.318,197.955 79.318 C 197.830 79.318,197.727 79.428,197.727 79.561 C 197.727 80.274,194.497 83.952,192.639 85.355 C 192.153 85.722,191.623 86.151,191.462 86.307 C 191.301 86.463,191.059 86.591,190.925 86.591 C 190.791 86.591,190.682 86.674,190.682 86.776 C 190.682 86.877,190.324 87.101,189.886 87.273 C 189.449 87.444,189.091 87.668,189.091 87.770 C 189.091 87.871,188.886 87.955,188.636 87.955 C 188.386 87.955,188.182 88.057,188.182 88.182 C 188.182 88.307,187.986 88.409,187.746 88.409 C 187.507 88.409,187.277 88.486,187.235 88.580 C 187.132 88.811,183.968 90.322,182.841 90.678 C 182.341 90.836,181.754 91.055,181.537 91.164 C 181.320 91.274,180.937 91.364,180.685 91.364 C 180.433 91.364,180.227 91.466,180.227 91.591 C 180.227 91.716,179.869 91.818,179.432 91.818 C 178.994 91.818,178.636 91.920,178.636 92.045 C 178.636 92.170,178.284 92.273,177.854 92.273 C 177.424 92.273,177.009 92.375,176.932 92.500 C 176.855 92.625,176.511 92.727,176.168 92.727 C 175.826 92.727,175.448 92.823,175.330 92.939 C 175.211 93.056,174.712 93.184,174.222 93.223 C 172.968 93.325,172.982 93.712,174.265 94.382 C 174.871 94.699,175.770 95.187,176.263 95.466 C 176.756 95.745,177.619 96.229,178.182 96.541 C 178.744 96.853,179.869 97.488,180.682 97.952 C 182.163 98.799,183.899 99.760,186.023 100.907 C 187.323 101.609,188.067 102.034,190.455 103.435 C 191.392 103.985,192.670 104.686,193.295 104.994 C 195.860 106.254,198.636 108.556,198.636 109.422 C 198.636 109.615,198.739 109.773,198.864 109.773 C 198.989 109.773,199.091 109.957,199.091 110.182 C 199.091 110.407,199.188 110.688,199.306 110.807 C 199.425 110.926,199.590 111.688,199.673 112.501 C 200.032 116.015,197.481 120.212,193.805 122.154 C 193.337 122.401,192.955 122.682,192.955 122.779 C 192.955 122.876,192.878 122.934,192.784 122.908 C 192.499 122.831,190.909 123.488,190.909 123.682 C 190.909 123.782,190.602 123.864,190.227 123.864 C 189.852 123.864,189.545 123.966,189.545 124.091 C 189.545 124.216,189.259 124.318,188.909 124.318 C 188.559 124.318,188.176 124.410,188.057 124.522 C 187.839 124.728,186.795 124.916,184.602 125.145 C 183.946 125.213,183.409 125.362,183.409 125.476 C 183.409 125.767,170.748 125.746,170.568 125.455 C 170.491 125.330,169.871 125.227,169.191 125.227 C 168.511 125.227,167.955 125.125,167.955 125.000 C 167.955 124.875,167.603 124.773,167.173 124.773 C 166.742 124.773,166.327 124.670,166.250 124.545 C 166.173 124.420,165.773 124.318,165.362 124.318 C 164.729 124.318,159.703 122.067,159.318 121.611 C 159.256 121.537,158.898 121.323,158.523 121.136 C 158.148 120.949,157.790 120.744,157.727 120.679 C 157.665 120.615,157.102 120.310,156.477 120.001 C 155.852 119.693,154.471 118.927,153.407 118.300 C 152.343 117.672,150.963 116.905,150.339 116.594 C 149.715 116.283,149.153 115.976,149.091 115.912 C 149.028 115.847,148.670 115.642,148.295 115.455 C 147.920 115.267,147.563 115.063,147.500 115.000 C 147.438 114.938,146.977 114.670,146.477 114.406 C 145.977 114.142,144.903 113.540,144.091 113.068 C 143.278 112.597,142.205 111.995,141.705 111.730 C 141.205 111.466,140.761 111.173,140.720 111.080 C 140.678 110.986,140.448 110.909,140.208 110.909 C 139.969 110.909,139.773 110.819,139.773 110.708 C 139.773 110.598,139.594 110.447,139.375 110.372 C 139.156 110.298,138.159 109.768,137.159 109.195 C 136.159 108.622,135.162 108.096,134.943 108.027 C 134.724 107.958,134.545 107.811,134.545 107.701 C 134.545 107.590,134.341 107.500,134.091 107.500 C 133.841 107.500,133.636 107.423,133.636 107.328 C 133.636 107.234,133.304 107.012,132.898 106.835 C 132.491 106.658,132.108 106.454,132.045 106.382 C 131.912 106.227,131.228 105.831,129.659 105.001 C 129.034 104.670,128.090 104.125,127.561 103.790 C 127.033 103.456,126.445 103.182,126.255 103.182 C 126.065 103.182,125.909 103.080,125.909 102.955 C 125.909 102.830,125.756 102.727,125.568 102.727 C 125.381 102.727,125.227 102.649,125.227 102.554 C 125.227 102.458,124.844 102.206,124.375 101.992 C 123.505 101.597,122.250 100.889,122.045 100.679 C 121.983 100.615,121.420 100.312,120.795 100.006 C 120.170 99.700,119.120 99.113,118.461 98.702 C 117.803 98.291,117.164 97.955,117.041 97.955 C 116.918 97.955,116.818 97.852,116.818 97.727 C 116.818 97.602,116.622 97.500,116.383 97.500 C 116.143 97.500,115.913 97.423,115.871 97.330 C 115.830 97.236,115.284 96.905,114.659 96.594 C 114.034 96.283,113.472 95.970,113.409 95.899 C 113.347 95.828,112.502 95.366,111.533 94.873 C 109.367 93.773,107.273 91.824,107.273 90.909 C 107.273 90.659,107.170 90.455,107.045 90.455 C 106.908 90.455,106.818 89.470,106.818 87.955 C 106.818 86.580,106.909 85.455,107.021 85.455 C 107.132 85.455,107.288 85.196,107.367 84.881 C 107.665 83.696,110.208 81.429,111.705 81.015 C 112.080 80.911,118.983 80.759,127.045 80.677 C 141.110 80.534,143.150 80.434,145.000 79.795 C 145.313 79.687,146.028 79.471,146.591 79.315 C 147.153 79.159,148.047 78.840,148.577 78.607 C 149.107 78.373,149.598 78.182,149.669 78.182 C 150.879 78.182,154.545 74.257,154.545 72.961 C 154.545 72.722,154.648 72.464,154.773 72.386 C 154.898 72.309,155.000 71.440,155.000 70.455 C 155.000 69.469,154.898 68.600,154.773 68.523 C 154.648 68.445,154.545 68.081,154.545 67.714 C 154.545 67.346,154.443 67.045,154.318 67.045 C 154.193 67.045,154.091 66.893,154.091 66.707 C 154.091 66.396,153.930 66.157,152.955 65.018 C 152.386 64.355,150.489 62.990,149.593 62.601 C 149.129 62.399,148.572 62.141,148.355 62.026 C 148.138 61.912,147.805 61.818,147.614 61.818 C 147.423 61.818,147.089 61.728,146.872 61.618 C 145.923 61.138,144.032 60.640,143.524 60.737 C 143.220 60.795,142.934 60.735,142.890 60.602 C 142.613 59.771,103.285 59.794,103.010 60.625 C 102.856 61.094,114.389 61.030,114.779 60.560 C 115.084 60.193,118.745 60.095,118.519 60.461 C 118.273 60.858,119.665 60.909,130.801 60.909 C 138.337 60.909,142.523 60.990,142.614 61.136 C 142.691 61.261,143.151 61.364,143.636 61.364 C 144.122 61.364,144.582 61.466,144.659 61.591 C 144.736 61.716,145.043 61.818,145.341 61.818 C 145.639 61.818,145.945 61.920,146.023 62.045 C 146.100 62.170,146.407 62.273,146.705 62.273 C 147.002 62.273,147.309 62.375,147.386 62.500 C 147.464 62.625,147.725 62.727,147.968 62.727 C 148.211 62.727,148.409 62.830,148.409 62.955 C 148.409 63.080,148.614 63.182,148.864 63.182 C 149.114 63.182,149.318 63.284,149.318 63.409 C 149.318 63.534,149.480 63.636,149.679 63.636 C 150.169 63.636,152.360 65.952,152.858 66.996 C 154.849 71.173,153.198 75.062,148.488 77.289 C 147.450 77.780,146.445 78.182,146.255 78.182 C 146.065 78.182,145.909 78.284,145.909 78.409 C 145.909 78.534,145.557 78.636,145.127 78.636 C 144.697 78.636,144.282 78.739,144.205 78.864 C 144.127 78.989,143.616 79.091,143.068 79.091 C 142.520 79.091,142.009 79.193,141.932 79.318 C 141.840 79.466,136.593 79.545,126.932 79.545 C 117.271 79.545,112.023 79.625,111.932 79.773 C 111.855 79.898,111.545 80.000,111.243 80.000 C 108.741 80.000,105.375 84.431,105.461 87.614 C 105.564 91.446,107.153 93.662,111.250 95.688 C 111.875 95.997,112.420 96.327,112.462 96.420 C 112.504 96.514,112.734 96.591,112.973 96.591 C 113.213 96.591,113.409 96.693,113.409 96.818 C 113.409 96.943,113.567 97.045,113.760 97.045 C 113.952 97.045,114.302 97.224,114.537 97.443 C 114.772 97.662,115.561 98.148,116.289 98.523 C 117.018 98.898,117.648 99.281,117.689 99.375 C 117.731 99.469,117.961 99.545,118.201 99.545 C 118.440 99.545,118.636 99.648,118.636 99.773 C 118.636 99.898,118.790 100.000,118.977 100.000 C 119.165 100.000,119.319 100.077,119.320 100.170 C 119.322 100.375,120.423 100.909,120.841 100.909 C 121.003 100.909,121.136 101.011,121.136 101.136 C 121.136 101.261,121.294 101.364,121.487 101.364 C 121.680 101.364,122.051 101.563,122.312 101.806 C 122.574 102.050,123.362 102.535,124.064 102.884 C 124.766 103.233,125.396 103.592,125.462 103.682 C 125.565 103.821,127.979 105.135,129.714 105.997 C 129.994 106.136,130.225 106.327,130.225 106.420 C 130.226 106.514,130.423 106.591,130.663 106.591 C 130.902 106.591,131.133 106.675,131.174 106.779 C 131.241 106.944,133.492 108.244,134.941 108.955 C 135.222 109.092,135.452 109.281,135.453 109.375 C 135.454 109.469,135.659 109.545,135.909 109.545 C 136.159 109.545,136.364 109.648,136.364 109.773 C 136.364 109.898,136.568 110.000,136.818 110.000 C 137.068 110.000,137.273 110.084,137.273 110.186 C 137.273 110.288,138.219 110.864,139.375 111.466 C 140.531 112.068,141.733 112.735,142.045 112.949 C 142.358 113.163,142.946 113.481,143.352 113.656 C 143.759 113.831,144.091 114.052,144.091 114.146 C 144.091 114.241,144.295 114.318,144.545 114.318 C 144.795 114.318,145.001 114.395,145.002 114.489 C 145.003 114.582,145.233 114.774,145.513 114.914 C 146.983 115.650,148.143 116.301,148.751 116.731 C 149.359 117.161,150.433 117.758,153.864 119.573 C 154.426 119.870,154.920 120.190,154.962 120.284 C 155.004 120.378,155.234 120.455,155.473 120.455 C 155.713 120.455,155.909 120.557,155.909 120.682 C 155.909 120.807,156.016 120.909,156.147 120.909 C 156.278 120.909,156.949 121.269,157.637 121.710 C 158.326 122.150,158.986 122.451,159.104 122.378 C 159.222 122.306,159.318 122.345,159.318 122.466 C 159.318 122.711,161.510 123.864,161.976 123.864 C 162.139 123.864,162.273 123.966,162.273 124.091 C 162.273 124.216,162.574 124.318,162.941 124.318 C 163.309 124.318,163.673 124.420,163.750 124.545 C 163.827 124.670,164.134 124.773,164.432 124.773 C 164.730 124.773,165.036 124.875,165.114 125.000 C 165.191 125.125,165.688 125.227,166.218 125.227 C 166.748 125.227,167.283 125.329,167.407 125.453 C 168.047 126.092,182.960 126.717,183.750 126.137 C 183.875 126.046,184.589 125.911,185.337 125.837 C 186.085 125.764,186.733 125.596,186.777 125.465 C 186.820 125.334,187.257 125.227,187.746 125.227 C 188.236 125.227,188.636 125.125,188.636 125.000 C 188.636 124.875,188.994 124.773,189.432 124.773 C 189.869 124.773,190.227 124.670,190.227 124.545 C 190.227 124.420,190.534 124.318,190.909 124.318 C 191.284 124.318,191.591 124.216,191.591 124.091 C 191.591 123.966,191.795 123.864,192.045 123.864 C 192.295 123.864,192.500 123.761,192.500 123.636 C 192.500 123.511,192.699 123.409,192.941 123.409 C 193.184 123.409,193.445 123.307,193.523 123.182 C 193.600 123.057,193.862 122.955,194.104 122.955 C 194.347 122.955,194.545 122.852,194.545 122.727 C 194.545 122.602,194.690 122.500,194.867 122.500 C 195.044 122.500,195.530 122.135,195.947 121.688 C 196.364 121.242,197.190 120.405,197.784 119.830 C 198.378 119.254,198.864 118.648,198.864 118.482 C 198.864 118.317,198.966 118.182,199.091 118.182 C 199.216 118.182,199.318 117.983,199.318 117.741 C 199.318 117.498,199.420 117.236,199.545 117.159 C 199.670 117.082,199.773 116.820,199.773 116.577 C 199.773 116.335,199.875 116.136,200.000 116.136 C 200.140 116.136,200.227 115.004,200.227 113.195 C 200.227 111.480,200.133 110.196,200.000 110.114 C 199.875 110.036,199.773 109.786,199.773 109.558 C 199.773 108.640,196.967 105.251,196.193 105.234 C 196.037 105.230,195.909 105.125,195.909 105.000 C 195.909 104.875,195.751 104.773,195.559 104.773 C 195.366 104.773,194.989 104.568,194.720 104.318 C 194.452 104.068,194.047 103.864,193.821 103.864 C 193.594 103.864,193.409 103.761,193.409 103.636 C 193.409 103.511,193.205 103.409,192.955 103.409 C 192.705 103.409,192.500 103.307,192.500 103.182 C 192.500 103.057,192.295 102.955,192.045 102.955 C 191.795 102.955,191.591 102.852,191.591 102.727 C 191.591 102.602,191.424 102.500,191.220 102.500 C 191.016 102.500,190.683 102.319,190.481 102.098 C 190.279 101.877,189.680 101.493,189.150 101.246 C 188.621 100.998,188.186 100.719,188.184 100.625 C 188.183 100.531,187.977 100.455,187.727 100.455 C 187.477 100.455,187.273 100.352,187.273 100.227 C 187.273 100.102,187.068 100.000,186.818 100.000 C 186.568 100.000,186.364 99.915,186.364 99.811 C 186.364 99.597,183.714 98.182,183.314 98.182 C 183.171 98.182,182.907 97.977,182.727 97.727 C 182.547 97.477,182.218 97.273,181.995 97.273 C 181.773 97.273,181.591 97.170,181.591 97.045 C 181.591 96.920,181.484 96.818,181.353 96.818 C 181.222 96.818,180.555 96.460,179.871 96.023 C 179.187 95.585,178.527 95.227,178.405 95.227 C 178.282 95.227,178.182 95.125,178.182 95.000 C 178.182 94.875,177.977 94.773,177.727 94.773 C 177.477 94.773,177.273 94.670,177.273 94.545 C 177.273 94.420,177.079 94.318,176.842 94.318 C 176.411 94.318,176.049 93.799,176.304 93.545 C 176.378 93.470,176.672 93.409,176.956 93.409 C 177.241 93.409,177.536 93.307,177.614 93.182 C 177.691 93.057,178.035 92.955,178.379 92.955 C 178.723 92.955,179.203 92.804,179.445 92.621 C 179.688 92.437,180.168 92.284,180.511 92.280 C 180.855 92.276,181.136 92.170,181.136 92.045 C 181.136 91.920,181.341 91.818,181.591 91.818 C 181.841 91.818,182.045 91.716,182.045 91.591 C 182.045 91.466,182.352 91.364,182.727 91.364 C 183.102 91.364,183.409 91.261,183.409 91.136 C 183.409 91.011,183.665 90.909,183.977 90.909 C 184.290 90.909,184.545 90.807,184.545 90.682 C 184.545 90.557,184.750 90.455,185.000 90.455 C 185.250 90.455,185.455 90.352,185.455 90.227 C 185.455 90.102,185.761 90.000,186.136 90.000 C 186.511 90.000,186.818 89.898,186.818 89.773 C 186.818 89.648,187.023 89.545,187.273 89.545 C 187.523 89.545,187.727 89.443,187.727 89.318 C 187.727 89.193,187.865 89.091,188.033 89.091 C 188.552 89.091,189.785 88.386,189.650 88.167 C 189.579 88.053,189.669 88.016,189.850 88.085 C 190.030 88.155,190.439 87.949,190.760 87.628 C 191.081 87.308,191.451 87.045,191.583 87.045 C 191.714 87.045,192.143 86.739,192.536 86.364 C 192.928 85.989,193.371 85.682,193.520 85.682 C 193.758 85.682,194.241 85.227,196.307 83.058 C 196.588 82.762,196.818 82.404,196.818 82.261 C 196.818 82.118,197.108 81.729,197.462 81.398 C 198.171 80.734,199.318 78.812,199.318 78.287 C 199.318 78.104,199.420 77.955,199.545 77.955 C 199.670 77.955,199.773 77.648,199.773 77.273 C 199.773 76.898,199.875 76.591,200.000 76.591 C 200.125 76.591,200.227 76.188,200.227 75.695 C 200.227 75.203,200.330 74.736,200.455 74.659 C 200.593 74.573,200.682 72.843,200.682 70.227 C 200.682 67.612,200.593 65.881,200.455 65.795 C 200.330 65.718,200.227 65.252,200.227 64.759 C 200.227 64.267,200.125 63.864,200.000 63.864 C 199.875 63.864,199.773 63.616,199.773 63.314 C 199.773 62.661,198.310 59.824,197.701 59.295 C 197.465 59.091,197.273 58.757,197.273 58.553 C 197.273 58.349,197.170 58.182,197.045 58.182 C 196.920 58.182,196.818 58.078,196.818 57.950 C 196.818 57.648,193.942 54.773,193.641 54.773 C 193.513 54.773,193.409 54.670,193.409 54.545 C 193.409 54.420,193.281 54.315,193.125 54.311 C 192.969 54.307,192.506 53.967,192.097 53.556 C 191.689 53.145,190.998 52.669,190.563 52.498 C 190.129 52.327,189.773 52.105,189.773 52.003 C 189.773 51.901,189.587 51.818,189.361 51.818 C 189.135 51.818,188.730 51.614,188.461 51.364 C 188.193 51.114,187.816 50.909,187.623 50.909 C 187.430 50.909,187.273 50.807,187.273 50.682 C 187.273 50.557,186.966 50.455,186.591 50.455 C 186.216 50.455,185.909 50.352,185.909 50.227 C 185.909 50.102,185.705 50.000,185.455 50.000 C 185.205 50.000,185.000 49.923,184.999 49.830 C 184.999 49.736,184.513 49.473,183.920 49.245 C 183.326 49.018,182.663 48.736,182.446 48.620 C 182.229 48.504,181.852 48.409,181.607 48.409 C 181.363 48.409,181.100 48.307,181.023 48.182 C 180.945 48.057,180.581 47.955,180.214 47.955 C 179.846 47.955,179.545 47.852,179.545 47.727 C 179.545 47.602,179.136 47.500,178.636 47.500 C 178.136 47.500,177.727 47.398,177.727 47.273 C 177.727 47.148,177.324 47.045,176.832 47.045 C 176.339 47.045,175.873 46.943,175.795 46.818 C 175.718 46.693,175.150 46.591,174.532 46.591 C 173.914 46.591,173.409 46.489,173.409 46.364 C 173.409 46.239,173.006 46.136,172.513 46.136 C 172.021 46.136,171.555 46.034,171.477 45.909 C 171.400 45.784,170.729 45.682,169.987 45.682 C 169.238 45.682,168.636 45.581,168.636 45.455 C 168.636 45.319,167.771 45.227,166.496 45.227 C 165.156 45.227,164.325 45.135,164.274 44.980 C 164.064 44.352,90.765 43.629,90.146 44.248 M286.499 44.258 C 286.404 44.354,283.772 44.493,280.652 44.568 C 276.846 44.659,274.891 44.790,274.716 44.966 C 274.543 45.138,273.355 45.227,271.218 45.227 C 269.305 45.227,267.924 45.320,267.841 45.455 C 267.764 45.580,267.150 45.682,266.477 45.682 C 265.805 45.682,265.191 45.784,265.114 45.909 C 265.036 46.034,264.269 46.136,263.409 46.136 C 262.549 46.136,261.782 46.239,261.705 46.364 C 261.627 46.489,260.977 46.591,260.259 46.591 C 259.542 46.591,258.857 46.683,258.739 46.796 C 258.620 46.909,258.062 47.059,257.500 47.130 C 255.259 47.411,254.537 47.557,254.417 47.751 C 254.348 47.863,253.843 47.955,253.295 47.955 C 252.748 47.955,252.236 48.057,252.159 48.182 C 252.082 48.307,251.774 48.409,251.475 48.409 C 251.175 48.409,250.696 48.501,250.408 48.612 C 250.121 48.724,249.273 49.001,248.523 49.227 C 247.773 49.454,247.062 49.720,246.943 49.819 C 246.824 49.919,246.498 50.000,246.218 50.000 C 245.938 50.000,245.645 50.102,245.568 50.227 C 245.491 50.352,245.133 50.455,244.773 50.455 C 244.412 50.455,244.055 50.557,243.977 50.682 C 243.900 50.807,243.637 50.909,243.393 50.909 C 243.148 50.909,242.771 50.999,242.554 51.110 C 242.337 51.220,241.852 51.437,241.477 51.591 C 241.102 51.745,240.618 51.962,240.401 52.072 C 240.184 52.182,239.852 52.273,239.663 52.273 C 239.474 52.273,238.569 52.619,237.652 53.043 C 234.719 54.398,232.844 55.311,232.727 55.441 C 232.618 55.564,231.111 56.392,230.059 56.909 C 229.778 57.047,229.548 57.236,229.547 57.330 C 229.546 57.423,229.443 57.500,229.319 57.500 C 229.058 57.500,226.743 59.111,226.629 59.372 C 226.587 59.467,226.432 59.545,226.283 59.545 C 225.875 59.545,221.364 63.627,221.364 63.997 C 221.364 64.073,221.078 64.407,220.729 64.738 C 220.380 65.070,219.792 65.750,219.422 66.250 C 219.052 66.750,218.616 67.300,218.452 67.473 C 218.289 67.646,217.983 68.183,217.774 68.666 C 217.564 69.150,217.315 69.545,217.219 69.545 C 217.124 69.545,217.045 69.690,217.045 69.867 C 217.045 70.045,216.707 70.837,216.294 71.629 C 215.881 72.420,215.411 73.528,215.249 74.091 C 215.088 74.653,214.863 75.291,214.751 75.508 C 214.638 75.725,214.545 76.307,214.545 76.802 C 214.545 77.296,214.443 77.764,214.318 77.841 C 214.193 77.918,214.091 78.583,214.091 79.318 C 214.091 80.053,213.989 80.718,213.864 80.795 C 213.732 80.877,213.636 82.119,213.636 83.750 C 213.636 85.381,213.732 86.623,213.864 86.705 C 213.989 86.782,214.091 87.498,214.091 88.295 C 214.091 89.093,214.193 89.809,214.318 89.886 C 214.443 89.964,214.545 90.346,214.545 90.736 C 214.545 91.442,214.876 92.712,215.255 93.463 C 215.365 93.680,215.455 94.022,215.455 94.223 C 215.455 94.627,216.151 95.979,216.420 96.098 C 216.514 96.140,216.591 96.367,216.591 96.603 C 216.591 96.839,216.812 97.418,217.083 97.891 C 217.353 98.363,217.717 99.029,217.892 99.370 C 218.067 99.712,218.314 100.055,218.439 100.132 C 218.565 100.210,218.738 100.453,218.823 100.671 C 219.303 101.906,224.859 107.533,226.561 108.508 C 226.765 108.625,227.064 108.852,227.227 109.014 C 227.389 109.175,227.874 109.475,228.306 109.679 C 228.738 109.884,229.091 110.142,229.091 110.253 C 229.091 110.364,229.295 110.455,229.545 110.455 C 229.795 110.455,230.000 110.540,230.000 110.643 C 230.000 110.747,230.281 110.977,230.625 111.154 C 230.969 111.332,231.301 111.542,231.364 111.621 C 231.584 111.903,236.710 114.316,237.089 114.317 C 237.300 114.318,237.536 114.420,237.614 114.545 C 237.691 114.670,237.953 114.773,238.195 114.773 C 238.438 114.773,238.636 114.875,238.636 115.000 C 238.636 115.125,238.943 115.227,239.318 115.227 C 239.693 115.227,240.000 115.330,240.000 115.455 C 240.000 115.580,240.205 115.682,240.455 115.682 C 240.705 115.682,240.909 115.772,240.909 115.883 C 240.909 115.993,241.139 116.136,241.420 116.200 C 242.058 116.347,243.394 116.815,243.917 117.076 C 244.134 117.184,244.512 117.273,244.756 117.273 C 245.001 117.273,245.264 117.375,245.341 117.500 C 245.418 117.625,245.725 117.727,246.023 117.727 C 246.320 117.727,246.627 117.830,246.705 117.955 C 246.782 118.080,247.140 118.182,247.500 118.182 C 247.860 118.182,248.218 118.284,248.295 118.409 C 248.373 118.534,248.782 118.636,249.205 118.636 C 249.627 118.636,250.036 118.739,250.114 118.864 C 250.191 118.989,250.498 119.091,250.795 119.091 C 251.093 119.091,251.400 119.193,251.477 119.318 C 251.555 119.443,252.123 119.545,252.741 119.545 C 253.358 119.545,253.864 119.648,253.864 119.773 C 253.864 119.898,254.375 120.000,255.000 120.000 C 255.625 120.000,256.136 120.102,256.136 120.227 C 256.136 120.352,256.690 120.455,257.367 120.455 C 258.100 120.455,258.634 120.561,258.686 120.718 C 258.738 120.873,259.299 120.991,260.045 121.003 C 260.745 121.014,261.272 121.096,261.217 121.187 C 261.053 121.458,263.004 121.773,266.023 121.964 C 267.023 122.027,267.938 122.173,268.057 122.289 C 268.343 122.569,272.973 122.555,273.409 122.273 C 273.712 122.077,273.712 122.049,273.409 122.025 C 273.222 122.010,271.994 121.903,270.682 121.787 C 269.369 121.672,267.580 121.521,266.705 121.453 C 265.830 121.384,265.016 121.234,264.898 121.119 C 264.779 121.003,264.044 120.909,263.263 120.909 C 262.483 120.909,261.782 120.807,261.705 120.682 C 261.627 120.557,261.014 120.455,260.341 120.455 C 259.668 120.455,259.055 120.352,258.977 120.227 C 258.900 120.102,258.389 120.000,257.841 120.000 C 257.293 120.000,256.782 119.898,256.705 119.773 C 256.627 119.648,256.167 119.545,255.682 119.545 C 255.197 119.545,254.736 119.443,254.659 119.318 C 254.582 119.193,254.114 119.091,253.620 119.091 C 253.126 119.091,252.544 118.999,252.326 118.886 C 252.109 118.773,251.472 118.557,250.909 118.406 C 249.261 117.964,246.283 117.014,245.855 116.794 C 245.638 116.682,245.305 116.591,245.114 116.591 C 244.923 116.591,244.563 116.489,244.315 116.364 C 244.067 116.239,243.660 116.034,243.412 115.909 C 243.164 115.784,242.761 115.682,242.516 115.682 C 242.272 115.682,242.009 115.580,241.932 115.455 C 241.855 115.330,241.491 115.227,241.123 115.227 C 240.755 115.227,240.455 115.125,240.455 115.000 C 240.455 114.875,240.270 114.773,240.045 114.773 C 239.820 114.773,239.539 114.679,239.420 114.564 C 239.302 114.450,239.000 114.322,238.750 114.280 C 238.500 114.239,238.244 114.153,238.182 114.091 C 238.119 114.028,236.636 113.262,234.886 112.388 C 233.136 111.514,231.670 110.721,231.629 110.627 C 231.587 110.532,231.408 110.455,231.231 110.455 C 231.054 110.455,230.909 110.377,230.909 110.283 C 230.909 110.188,230.628 109.986,230.284 109.834 C 229.940 109.681,229.097 109.137,228.409 108.624 C 227.722 108.112,226.852 107.474,226.477 107.207 C 225.765 106.700,221.508 102.497,220.899 101.699 C 219.450 99.803,217.500 96.534,217.500 96.001 C 217.500 95.825,217.398 95.682,217.273 95.682 C 217.148 95.682,217.045 95.476,217.045 95.224 C 217.045 94.972,216.927 94.538,216.783 94.258 C 216.208 93.146,216.136 92.940,216.136 92.389 C 216.136 92.075,216.044 91.818,215.932 91.818 C 214.913 91.818,214.913 77.340,215.932 76.261 C 216.045 76.143,216.136 75.816,216.136 75.536 C 216.136 75.256,216.239 74.964,216.364 74.886 C 216.489 74.809,216.591 74.546,216.591 74.302 C 216.591 74.057,216.681 73.680,216.792 73.463 C 216.902 73.246,217.431 72.200,217.968 71.138 C 218.818 69.456,219.578 68.252,220.909 66.477 C 221.594 65.563,226.079 61.228,227.138 60.455 C 227.738 60.017,228.364 59.531,228.530 59.375 C 228.696 59.219,228.895 59.091,228.974 59.091 C 229.052 59.091,229.698 58.697,230.410 58.216 C 231.694 57.347,237.128 54.574,239.091 53.785 C 239.653 53.559,240.318 53.287,240.568 53.180 C 241.506 52.781,244.669 51.701,249.221 50.226 C 249.605 50.102,250.135 50.000,250.400 50.000 C 250.665 50.000,250.938 49.909,251.007 49.798 C 251.076 49.687,251.465 49.538,251.873 49.468 C 252.280 49.397,252.972 49.277,253.409 49.200 C 253.847 49.123,254.409 48.971,254.659 48.862 C 254.909 48.754,255.472 48.613,255.909 48.551 C 256.347 48.488,257.267 48.324,257.955 48.185 C 258.642 48.047,259.767 47.837,260.455 47.718 C 261.142 47.600,262.625 47.343,263.750 47.148 C 266.057 46.747,268.548 46.431,272.045 46.096 C 273.485 45.958,289.212 45.829,311.698 45.772 L 348.965 45.676 350.211 46.267 C 352.269 47.241,354.300 49.287,354.312 50.398 C 354.316 50.679,354.420 50.909,354.545 50.909 C 354.828 50.909,354.851 54.171,354.572 54.719 C 354.462 54.936,354.232 55.420,354.061 55.795 C 353.293 57.483,350.360 59.773,348.967 59.773 C 348.697 59.773,348.180 59.874,347.818 59.998 C 347.402 60.139,337.258 60.244,320.319 60.282 C 301.035 60.324,293.389 60.412,293.160 60.594 C 292.984 60.733,292.075 60.868,291.139 60.895 C 290.203 60.921,289.334 61.021,289.207 61.115 C 289.081 61.210,288.466 61.313,287.841 61.344 C 287.216 61.376,286.670 61.495,286.629 61.610 C 286.587 61.724,286.005 61.818,285.335 61.818 C 284.666 61.818,284.055 61.920,283.977 62.045 C 283.900 62.170,283.485 62.273,283.055 62.273 C 282.625 62.273,282.273 62.375,282.273 62.500 C 282.273 62.625,281.921 62.727,281.491 62.727 C 281.061 62.727,280.645 62.830,280.568 62.955 C 280.491 63.080,280.076 63.182,279.646 63.182 C 279.216 63.182,278.864 63.284,278.864 63.409 C 278.864 63.534,278.608 63.636,278.295 63.636 C 277.983 63.636,277.727 63.739,277.727 63.864 C 277.727 63.989,277.521 64.091,277.270 64.091 C 277.018 64.091,276.634 64.181,276.417 64.292 C 276.200 64.402,275.767 64.598,275.455 64.727 C 274.474 65.131,271.255 66.698,271.136 66.830 C 271.074 66.899,270.662 67.123,270.222 67.328 C 269.781 67.532,269.116 67.962,268.744 68.282 C 268.372 68.601,267.981 68.863,267.874 68.863 C 267.590 68.864,263.639 72.798,263.638 73.082 C 263.637 73.215,263.457 73.525,263.239 73.771 C 262.311 74.814,260.682 78.513,260.682 79.577 C 260.682 79.935,260.580 80.227,260.455 80.227 C 260.312 80.227,260.227 81.624,260.227 83.964 C 260.227 86.210,260.318 87.756,260.455 87.841 C 260.580 87.918,260.682 88.263,260.682 88.607 C 260.682 89.704,261.715 92.026,263.473 94.881 C 264.397 96.379,268.157 99.706,270.341 100.955 C 271.931 101.865,275.446 103.482,277.159 104.092 C 277.909 104.359,278.727 104.661,278.977 104.763 C 279.227 104.865,279.892 105.069,280.455 105.217 C 281.017 105.364,281.791 105.581,282.175 105.697 C 282.559 105.814,283.090 105.909,283.355 105.909 C 283.620 105.909,283.900 106.011,283.977 106.136 C 284.055 106.261,284.551 106.364,285.082 106.364 C 285.612 106.364,286.143 106.456,286.261 106.570 C 286.380 106.683,286.989 106.834,287.614 106.905 C 288.239 106.975,289.517 107.140,290.455 107.272 C 294.588 107.851,299.797 107.986,323.750 108.136 L 349.205 108.295 350.516 108.949 C 351.861 109.620,353.507 111.225,354.061 112.406 C 354.231 112.770,354.462 113.246,354.572 113.463 C 354.848 114.005,354.826 116.986,354.545 117.159 C 354.420 117.236,354.318 117.549,354.318 117.854 C 354.318 118.159,354.216 118.409,354.091 118.409 C 353.966 118.409,353.864 118.551,353.864 118.725 C 353.864 119.208,351.389 121.576,350.711 121.742 C 350.383 121.822,350.054 121.979,349.981 122.090 C 349.595 122.675,299.788 122.969,276.477 122.524 C 273.520 122.467,273.586 122.462,273.756 122.736 C 273.849 122.887,275.379 122.962,277.999 122.944 C 280.681 122.925,282.183 123.001,282.344 123.162 C 282.676 123.495,348.182 123.514,348.182 123.182 C 348.182 123.057,348.693 122.955,349.318 122.955 C 349.943 122.955,350.455 122.852,350.455 122.727 C 350.455 122.602,350.640 122.500,350.866 122.500 C 351.093 122.500,351.497 122.295,351.766 122.045 C 352.034 121.795,352.321 121.591,352.403 121.591 C 352.699 121.591,354.318 119.765,354.318 119.432 C 354.318 119.244,354.420 119.091,354.545 119.091 C 354.670 119.091,354.773 118.930,354.773 118.734 C 354.773 118.537,354.926 118.223,355.114 118.036 C 355.301 117.848,355.455 117.350,355.455 116.929 C 355.455 116.508,355.566 116.094,355.703 116.010 C 356.094 115.768,355.481 112.244,355.021 112.090 C 354.885 112.045,354.773 111.812,354.773 111.572 C 354.773 111.332,354.670 111.136,354.545 111.136 C 354.420 111.136,354.318 110.932,354.318 110.682 C 354.318 110.432,354.216 110.227,354.091 110.227 C 353.966 110.227,353.864 110.120,353.864 109.989 C 353.864 109.677,352.695 108.653,352.330 108.644 C 352.173 108.640,352.045 108.534,352.045 108.409 C 352.045 108.284,351.847 108.182,351.604 108.182 C 351.362 108.182,351.100 108.080,351.023 107.955 C 350.945 107.830,350.684 107.727,350.441 107.727 C 350.199 107.727,350.000 107.625,350.000 107.500 C 350.000 107.350,341.444 107.273,324.786 107.273 C 308.222 107.273,299.524 107.195,299.432 107.045 C 299.349 106.911,297.952 106.818,296.009 106.818 C 294.204 106.818,292.727 106.730,292.727 106.623 C 292.727 106.442,290.531 106.056,287.841 105.763 C 287.216 105.696,286.607 105.547,286.489 105.434 C 286.370 105.320,285.782 105.227,285.182 105.227 C 284.582 105.227,284.091 105.125,284.091 105.000 C 284.091 104.875,283.682 104.773,283.182 104.773 C 282.682 104.773,282.273 104.670,282.273 104.545 C 282.273 104.420,281.972 104.318,281.604 104.318 C 281.237 104.318,280.873 104.216,280.795 104.091 C 280.718 103.966,280.252 103.864,279.759 103.864 C 279.267 103.864,278.864 103.761,278.864 103.636 C 278.864 103.511,278.659 103.409,278.409 103.409 C 278.159 103.409,277.955 103.307,277.955 103.182 C 277.955 103.057,277.648 102.955,277.273 102.955 C 276.898 102.955,276.591 102.852,276.591 102.727 C 276.591 102.602,276.392 102.500,276.150 102.500 C 275.907 102.500,275.645 102.398,275.568 102.273 C 275.491 102.148,275.224 102.045,274.974 102.045 C 274.725 102.045,273.816 101.585,272.955 101.023 C 272.093 100.460,271.327 100.000,271.253 100.000 C 271.178 100.000,270.898 99.795,270.629 99.545 C 270.361 99.295,269.979 99.091,269.780 99.091 C 269.581 99.091,269.271 98.886,269.091 98.636 C 268.911 98.386,268.630 98.182,268.467 98.182 C 268.097 98.182,264.091 94.154,264.091 93.782 C 264.091 93.632,263.886 93.362,263.636 93.182 C 263.386 93.002,263.182 92.672,263.182 92.450 C 263.182 92.227,263.080 92.045,262.955 92.045 C 262.830 92.045,262.727 91.847,262.727 91.604 C 262.727 91.362,262.625 91.100,262.500 91.023 C 262.375 90.945,262.273 90.684,262.273 90.441 C 262.273 90.199,262.170 90.000,262.045 90.000 C 261.920 90.000,261.818 89.693,261.818 89.318 C 261.818 88.943,261.716 88.636,261.591 88.636 C 261.466 88.636,261.364 88.125,261.364 87.500 C 261.364 86.875,261.261 86.364,261.136 86.364 C 260.999 86.364,260.909 85.383,260.909 83.877 C 260.909 82.464,261.007 81.330,261.136 81.250 C 261.261 81.173,261.364 80.604,261.364 79.987 C 261.364 79.369,261.466 78.864,261.591 78.864 C 261.716 78.864,261.818 78.557,261.818 78.182 C 261.818 77.807,261.920 77.500,262.045 77.500 C 262.170 77.500,262.273 77.295,262.273 77.045 C 262.273 76.795,262.375 76.591,262.500 76.591 C 262.625 76.591,262.727 76.386,262.727 76.136 C 262.727 75.886,262.830 75.682,262.955 75.682 C 263.080 75.682,263.182 75.524,263.182 75.331 C 263.182 75.139,263.386 74.761,263.636 74.493 C 263.886 74.225,264.091 73.820,264.091 73.594 C 264.091 73.367,264.184 73.182,264.297 73.182 C 264.411 73.182,265.408 72.313,266.513 71.250 C 269.303 68.568,269.489 68.409,269.835 68.409 C 270.004 68.409,270.361 68.205,270.629 67.955 C 270.898 67.705,271.275 67.500,271.468 67.500 C 271.660 67.500,271.818 67.398,271.818 67.273 C 271.818 67.148,272.023 67.045,272.273 67.045 C 272.523 67.045,272.727 66.943,272.727 66.818 C 272.727 66.693,272.932 66.591,273.182 66.591 C 273.432 66.591,273.636 66.489,273.636 66.364 C 273.636 66.239,273.841 66.136,274.091 66.136 C 274.341 66.136,274.545 66.034,274.545 65.909 C 274.545 65.784,274.744 65.682,274.987 65.682 C 275.229 65.682,275.491 65.580,275.568 65.455 C 275.645 65.330,275.897 65.227,276.128 65.227 C 276.505 65.227,277.065 64.993,279.166 63.954 C 279.520 63.779,280.057 63.636,280.359 63.636 C 280.662 63.636,280.909 63.534,280.909 63.409 C 280.909 63.284,281.318 63.182,281.818 63.182 C 282.318 63.182,282.727 63.080,282.727 62.955 C 282.727 62.830,283.130 62.727,283.623 62.727 C 284.116 62.727,284.582 62.625,284.659 62.500 C 284.736 62.375,285.203 62.273,285.695 62.273 C 286.188 62.273,286.591 62.170,286.591 62.045 C 286.591 61.916,287.268 61.818,288.168 61.818 C 289.036 61.818,289.809 61.716,289.886 61.591 C 289.964 61.466,290.839 61.364,291.832 61.364 C 292.883 61.364,293.636 61.269,293.636 61.136 C 293.636 60.986,302.836 60.909,320.782 60.909 C 338.634 60.909,347.976 60.831,348.068 60.682 C 348.145 60.557,348.613 60.455,349.107 60.455 C 349.602 60.455,350.184 60.360,350.401 60.244 C 350.618 60.128,350.981 59.975,351.208 59.905 C 351.434 59.834,351.569 59.694,351.507 59.594 C 351.446 59.494,351.589 59.398,351.825 59.380 C 352.354 59.340,354.318 57.416,354.318 56.938 C 354.318 56.747,354.420 56.591,354.545 56.591 C 354.670 56.591,354.773 56.430,354.773 56.234 C 354.773 56.037,354.926 55.723,355.114 55.536 C 355.301 55.348,355.455 54.850,355.455 54.429 C 355.455 54.008,355.566 53.594,355.703 53.510 C 356.079 53.277,355.526 49.981,355.027 49.482 C 354.887 49.342,354.773 49.043,354.773 48.818 C 354.773 48.593,354.670 48.409,354.545 48.409 C 354.420 48.409,354.318 48.252,354.318 48.061 C 354.318 47.666,352.872 46.136,352.498 46.136 C 352.364 46.136,352.034 45.932,351.766 45.682 C 351.497 45.432,351.101 45.227,350.885 45.227 C 350.669 45.227,350.456 45.117,350.410 44.981 C 350.186 44.308,287.163 43.595,286.499 44.258 "
      stroke="none" fill="#d5d5d5" fill-rule="evenodd"></path>
    <path id="path2"
      d="M366.214 28.356 C 366.070 28.448,366.648 28.523,367.499 28.523 C 368.350 28.523,368.999 28.446,368.941 28.352 C 368.807 28.133,366.560 28.136,366.214 28.356 M368.511 35.437 C 368.393 35.552,367.989 35.691,367.614 35.744 L 366.932 35.841 367.643 35.875 C 368.034 35.894,368.480 35.756,368.636 35.568 C 368.946 35.195,368.857 35.101,368.511 35.437 M105.756 45.625 C 114.985 45.658,130.019 45.658,139.166 45.625 C 148.312 45.592,140.761 45.565,122.386 45.565 C 104.011 45.565,96.528 45.592,105.756 45.625 M161.991 45.843 C 162.274 45.897,162.683 45.895,162.900 45.838 C 163.118 45.781,162.886 45.737,162.386 45.739 C 161.886 45.742,161.709 45.788,161.991 45.843 M275.514 45.845 C 275.860 45.897,276.371 45.896,276.651 45.842 C 276.930 45.788,276.648 45.745,276.023 45.747 C 275.398 45.749,275.169 45.793,275.514 45.845 M279.037 45.843 C 279.319 45.897,279.729 45.895,279.946 45.838 C 280.163 45.781,279.932 45.737,279.432 45.739 C 278.932 45.742,278.754 45.788,279.037 45.843 M348.239 45.838 C 348.457 45.896,348.815 45.896,349.034 45.838 C 349.253 45.781,349.074 45.735,348.636 45.735 C 348.199 45.735,348.020 45.781,348.239 45.838 M78.580 46.297 C 78.861 46.351,79.321 46.351,79.602 46.297 C 79.884 46.243,79.653 46.198,79.091 46.198 C 78.528 46.198,78.298 46.243,78.580 46.297 M165.739 46.299 C 166.082 46.351,166.645 46.351,166.989 46.299 C 167.332 46.247,167.051 46.204,166.364 46.204 C 165.676 46.204,165.395 46.247,165.739 46.299 M270.511 46.302 C 270.980 46.351,271.747 46.351,272.216 46.302 C 272.685 46.253,272.301 46.213,271.364 46.213 C 270.426 46.213,270.043 46.253,270.511 46.302 M75.855 46.752 C 76.138 46.806,76.547 46.804,76.764 46.747 C 76.981 46.690,76.750 46.646,76.250 46.648 C 75.750 46.651,75.572 46.697,75.855 46.752 M266.648 46.754 C 266.991 46.806,267.554 46.806,267.898 46.754 C 268.241 46.702,267.960 46.659,267.273 46.659 C 266.585 46.659,266.304 46.702,266.648 46.754 M106.967 59.943 C 106.909 60.037,114.134 60.114,123.022 60.114 C 131.910 60.114,138.880 60.049,138.511 59.970 C 137.551 59.764,107.093 59.738,106.967 59.943 M313.256 60.170 C 319.609 60.204,329.939 60.204,336.211 60.170 C 342.482 60.137,337.284 60.109,324.659 60.109 C 312.034 60.109,306.903 60.137,313.256 60.170 M115.620 60.391 C 116.023 60.442,116.739 60.442,117.211 60.393 C 117.682 60.344,117.352 60.303,116.477 60.302 C 115.602 60.301,115.216 60.341,115.620 60.391 M293.011 60.378 C 292.855 60.441,292.727 60.599,292.727 60.729 C 292.727 60.889,292.818 60.891,293.011 60.734 C 293.168 60.607,293.500 60.453,293.750 60.392 L 294.205 60.280 293.750 60.272 C 293.500 60.267,293.168 60.315,293.011 60.378 M197.527 61.023 C 197.730 61.273,197.952 61.631,198.021 61.818 C 198.127 62.108,198.149 62.104,198.164 61.797 C 198.174 61.597,197.952 61.239,197.670 61.001 C 197.163 60.572,197.162 60.572,197.527 61.023 M290.398 60.846 C 290.804 60.897,291.469 60.897,291.875 60.846 C 292.281 60.796,291.949 60.755,291.136 60.755 C 290.324 60.755,289.991 60.796,290.398 60.846 M285.682 61.591 L 284.886 61.758 285.739 61.788 C 286.207 61.805,286.591 61.716,286.591 61.591 C 286.591 61.466,286.565 61.377,286.534 61.394 C 286.503 61.410,286.119 61.499,285.682 61.591 M93.128 64.438 C 92.661 64.872,92.360 65.227,92.459 65.227 C 92.557 65.227,92.985 64.869,93.409 64.432 C 94.398 63.411,94.229 63.415,93.128 64.438 M199.949 69.396 C 200.047 73.361,200.148 73.813,200.186 70.455 C 200.205 68.767,200.145 67.268,200.053 67.123 C 199.962 66.978,199.914 68.001,199.949 69.396 M90.682 91.636 C 90.619 104.349,90.645 114.673,90.740 114.578 C 90.834 114.484,90.885 104.083,90.853 91.465 L 90.795 68.523 90.682 91.636 M264.760 71.534 L 263.977 72.386 264.830 71.603 C 265.298 71.172,265.682 70.789,265.682 70.751 C 265.682 70.577,265.489 70.741,264.760 71.534 M141.591 80.455 C 141.123 80.604,141.103 80.640,141.477 80.656 C 141.727 80.666,142.085 80.576,142.273 80.455 C 142.671 80.197,142.394 80.197,141.591 80.455 M115.745 80.849 C 116.343 80.896,117.263 80.896,117.791 80.848 C 118.318 80.800,117.830 80.762,116.705 80.762 C 115.580 80.763,115.148 80.802,115.745 80.849 M215.053 82.500 C 215.053 82.938,215.099 83.116,215.157 82.898 C 215.214 82.679,215.214 82.321,215.157 82.102 C 215.099 81.884,215.053 82.063,215.053 82.500 M194.190 83.920 L 193.523 84.659 194.261 83.992 C 194.668 83.624,195.000 83.292,195.000 83.253 C 195.000 83.077,194.812 83.232,194.190 83.920 M45.560 95.682 C 45.560 101.744,45.589 104.224,45.625 101.193 C 45.661 98.162,45.661 93.202,45.625 90.170 C 45.589 87.139,45.560 89.619,45.560 95.682 M215.053 85.909 C 215.053 86.347,215.099 86.526,215.157 86.307 C 215.214 86.088,215.214 85.730,215.157 85.511 C 215.099 85.293,215.053 85.472,215.053 85.909 M264.991 96.875 C 265.932 97.878,266.136 98.059,266.136 97.888 C 266.136 97.852,265.651 97.366,265.057 96.809 L 263.977 95.795 264.991 96.875 M224.318 105.298 C 224.318 105.338,224.651 105.670,225.057 106.037 L 225.795 106.705 225.128 105.966 C 224.506 105.277,224.318 105.123,224.318 105.298 M287.746 106.900 C 287.798 106.945,288.148 107.050,288.523 107.134 C 289.021 107.245,289.113 107.224,288.864 107.056 C 288.557 106.848,287.518 106.703,287.746 106.900 M294.836 107.895 C 295.434 107.942,296.354 107.941,296.882 107.893 C 297.409 107.846,296.920 107.807,295.795 107.808 C 294.670 107.809,294.239 107.848,294.836 107.895 M298.927 108.122 C 299.525 108.169,300.445 108.168,300.973 108.121 C 301.500 108.073,301.011 108.035,299.886 108.035 C 298.761 108.036,298.330 108.075,298.927 108.122 M45.532 111.250 C 45.533 112.250,45.573 112.631,45.621 112.096 C 45.669 111.562,45.669 110.744,45.620 110.278 C 45.571 109.813,45.532 110.250,45.532 111.250 M199.614 113.409 C 199.614 114.097,199.656 114.378,199.708 114.034 C 199.760 113.690,199.760 113.128,199.708 112.784 C 199.656 112.440,199.614 112.722,199.614 113.409 M252.381 118.855 C 252.461 118.985,252.794 119.091,253.119 119.091 C 253.832 119.091,253.749 118.982,252.879 118.773 C 252.456 118.671,252.285 118.699,252.381 118.855 M48.636 120.071 C 48.636 120.110,48.969 120.443,49.375 120.810 L 50.114 121.477 49.446 120.739 C 48.824 120.050,48.636 119.896,48.636 120.071 M268.409 121.591 C 268.597 121.712,268.903 121.811,269.091 121.811 C 269.394 121.811,269.394 121.787,269.091 121.591 C 268.903 121.470,268.597 121.371,268.409 121.371 C 268.106 121.371,268.106 121.395,268.409 121.591 M273.409 122.273 C 273.133 122.451,273.166 122.494,273.580 122.497 C 273.861 122.498,274.091 122.398,274.091 122.273 C 274.091 121.988,273.850 121.988,273.409 122.273 M275.291 122.440 C 275.888 122.487,276.809 122.486,277.336 122.439 C 277.864 122.391,277.375 122.353,276.250 122.353 C 275.125 122.354,274.693 122.393,275.291 122.440 M279.029 122.437 C 279.432 122.487,280.148 122.488,280.620 122.439 C 281.091 122.389,280.761 122.348,279.886 122.347 C 279.011 122.346,278.626 122.387,279.029 122.437 M348.239 122.429 C 348.457 122.487,348.815 122.487,349.034 122.429 C 349.253 122.372,349.074 122.325,348.636 122.325 C 348.199 122.325,348.020 122.372,348.239 122.429 M299.943 122.670 C 308.724 122.703,323.094 122.703,331.875 122.670 C 340.656 122.637,333.472 122.611,315.909 122.611 C 298.347 122.611,291.162 122.637,299.943 122.670 M170.568 125.455 C 170.645 125.580,170.933 125.675,171.207 125.666 C 171.687 125.650,171.688 125.643,171.250 125.455 C 170.624 125.186,170.402 125.186,170.568 125.455 M175.625 126.304 C 176.281 126.350,177.355 126.350,178.011 126.304 C 178.668 126.258,178.131 126.220,176.818 126.220 C 175.506 126.220,174.969 126.258,175.625 126.304 "
      stroke="none" fill="#bcbcbc" fill-rule="evenodd"></path>
    <path id="path3"
      d="M366.767 29.258 C 367.302 29.306,368.120 29.305,368.586 29.256 C 369.051 29.207,368.614 29.168,367.614 29.169 C 366.614 29.170,366.233 29.210,366.767 29.258 M85.855 45.843 C 86.138 45.897,86.547 45.895,86.764 45.838 C 86.981 45.781,86.750 45.737,86.250 45.739 C 85.750 45.742,85.572 45.788,85.855 45.843 M158.352 45.842 C 158.634 45.896,159.094 45.896,159.375 45.842 C 159.656 45.788,159.426 45.744,158.864 45.744 C 158.301 45.744,158.071 45.788,158.352 45.842 M280.739 45.845 C 281.082 45.897,281.645 45.897,281.989 45.845 C 282.332 45.793,282.051 45.750,281.364 45.750 C 280.676 45.750,280.395 45.793,280.739 45.845 M300.909 59.977 C 299.942 60.106,339.306 60.067,345.114 59.934 C 346.614 59.899,337.511 59.864,324.886 59.856 C 312.261 59.848,301.472 59.902,300.909 59.977 M223.175 64.034 L 221.705 65.568 223.239 64.097 C 224.082 63.289,224.773 62.598,224.773 62.563 C 224.773 62.396,224.541 62.609,223.175 64.034 M45.744 67.727 C 45.744 68.290,45.788 68.520,45.842 68.239 C 45.896 67.957,45.896 67.497,45.842 67.216 C 45.788 66.935,45.744 67.165,45.744 67.727 M123.368 80.852 C 126.032 80.888,130.328 80.888,132.913 80.852 C 135.498 80.816,133.318 80.786,128.068 80.786 C 122.818 80.786,120.703 80.816,123.368 80.852 M215.065 84.205 C 215.067 84.830,215.111 85.058,215.163 84.713 C 215.215 84.367,215.214 83.856,215.160 83.576 C 215.106 83.297,215.063 83.580,215.065 84.205 M306.537 108.343 C 306.819 108.397,307.229 108.395,307.446 108.338 C 307.663 108.281,307.432 108.237,306.932 108.239 C 306.432 108.242,306.254 108.288,306.537 108.343 M315.625 108.351 C 317.031 108.391,319.332 108.391,320.739 108.351 C 322.145 108.312,320.994 108.279,318.182 108.279 C 315.369 108.279,314.219 108.312,315.625 108.351 M329.618 108.352 C 332.971 108.388,338.391 108.388,341.664 108.352 C 344.936 108.317,342.193 108.288,335.568 108.288 C 328.943 108.288,326.266 108.317,329.618 108.352 M283.014 122.436 C 283.360 122.488,283.871 122.487,284.151 122.433 C 284.430 122.379,284.148 122.336,283.523 122.338 C 282.898 122.339,282.669 122.384,283.014 122.436 "
      stroke="none" fill="#b4b4b4" fill-rule="evenodd"></path>
    <path id="path4"
      d="M366.136 28.567 C 364.906 28.698,361.474 30.682,362.478 30.682 C 362.634 30.682,362.681 30.800,362.586 30.954 C 362.494 31.103,362.753 30.987,363.162 30.696 C 363.654 30.345,363.815 30.111,363.638 30.001 C 363.446 29.883,363.468 29.799,363.716 29.703 C 363.906 29.631,364.094 29.664,364.133 29.778 C 364.175 29.901,364.344 29.897,364.545 29.769 C 364.828 29.590,364.808 29.550,364.432 29.540 C 364.114 29.531,364.216 29.424,364.771 29.184 C 365.207 28.994,365.765 28.892,366.009 28.956 C 366.254 29.020,366.562 28.982,366.694 28.873 C 366.826 28.763,367.291 28.630,367.728 28.578 L 368.523 28.482 367.727 28.482 C 367.290 28.482,366.574 28.520,366.136 28.567 M369.318 28.803 C 369.756 28.854,370.216 28.998,370.341 29.123 C 370.492 29.275,370.346 29.295,369.901 29.186 C 369.307 29.039,369.270 29.059,369.561 29.373 C 369.740 29.567,369.942 29.692,370.010 29.651 C 370.448 29.388,373.093 31.134,372.780 31.480 C 372.688 31.581,372.746 31.587,372.909 31.493 C 373.117 31.373,373.135 31.240,372.968 31.038 C 372.838 30.882,372.799 30.686,372.881 30.604 C 372.963 30.522,372.783 30.453,372.481 30.451 C 372.106 30.449,372.025 30.388,372.227 30.261 C 372.462 30.111,372.449 30.013,372.165 29.777 C 371.862 29.526,371.830 29.538,371.952 29.857 C 372.059 30.136,372.002 30.196,371.730 30.092 C 371.528 30.015,371.364 29.799,371.364 29.613 C 371.364 29.428,371.159 29.222,370.909 29.157 C 370.659 29.091,370.455 28.948,370.455 28.837 C 370.455 28.727,370.020 28.653,369.489 28.673 C 368.569 28.707,368.561 28.714,369.318 28.803 M361.672 31.256 C 361.400 31.831,361.481 32.045,361.970 32.045 C 362.297 32.045,362.372 31.416,362.096 30.983 C 361.982 30.804,361.843 30.894,361.672 31.256 M370.060 34.948 C 369.780 35.289,369.553 35.670,369.555 35.795 C 369.558 35.920,369.664 35.844,369.791 35.625 C 369.918 35.406,370.149 35.227,370.304 35.227 C 370.459 35.227,370.600 35.023,370.619 34.773 C 370.662 34.204,370.671 34.201,370.060 34.948 M368.682 35.500 C 368.532 35.650,368.409 35.999,368.409 36.277 C 368.409 36.554,368.281 36.826,368.125 36.882 C 367.638 37.056,368.060 37.262,368.609 37.119 C 368.977 37.022,369.045 36.930,368.841 36.804 C 368.635 36.677,368.620 36.539,368.790 36.324 C 368.922 36.158,369.026 35.844,369.022 35.625 C 369.014 35.152,369.025 35.156,368.682 35.500 M104.716 45.852 C 114.497 45.885,130.503 45.885,140.284 45.852 C 150.065 45.819,142.063 45.793,122.500 45.793 C 102.937 45.793,94.935 45.819,104.716 45.852 M298.711 45.852 C 307.690 45.885,322.315 45.885,331.211 45.852 C 340.107 45.819,332.761 45.792,314.886 45.792 C 297.011 45.792,289.732 45.819,298.711 45.852 M81.477 46.136 L 80.795 46.310 81.477 46.314 C 81.852 46.316,82.415 46.236,82.727 46.136 L 83.295 45.954 82.727 45.959 C 82.415 45.961,81.852 46.041,81.477 46.136 M162.614 46.125 C 163.046 46.321,164.726 46.457,164.527 46.279 C 164.474 46.233,163.920 46.132,163.295 46.056 C 162.530 45.963,162.308 45.986,162.614 46.125 M274.318 46.136 L 273.295 46.295 274.545 46.314 C 275.233 46.324,276.000 46.244,276.250 46.136 C 276.819 45.892,275.891 45.892,274.318 46.136 M77.614 46.591 L 77.159 46.786 77.614 46.786 C 77.864 46.786,78.273 46.698,78.523 46.591 L 78.977 46.396 78.523 46.396 C 78.273 46.396,77.864 46.483,77.614 46.591 M166.705 46.591 C 167.770 46.862,168.374 46.862,167.955 46.591 C 167.767 46.470,167.256 46.381,166.818 46.394 L 166.023 46.417 166.705 46.591 M269.318 46.591 L 268.750 46.773 269.318 46.792 C 269.631 46.803,270.040 46.712,270.227 46.591 C 270.661 46.310,270.194 46.310,269.318 46.591 M74.773 47.045 C 74.470 47.241,74.470 47.266,74.773 47.266 C 74.960 47.266,75.267 47.167,75.455 47.045 C 75.758 46.850,75.758 46.825,75.455 46.825 C 75.267 46.825,74.960 46.924,74.773 47.045 M169.773 47.045 C 170.085 47.146,170.545 47.227,170.795 47.227 C 171.155 47.227,171.132 47.190,170.682 47.045 C 170.369 46.945,169.909 46.863,169.659 46.863 C 169.299 46.863,169.323 46.901,169.773 47.045 M265.455 47.045 C 265.003 47.337,265.571 47.337,266.250 47.045 L 266.705 46.850 266.250 46.838 C 266.000 46.831,265.642 46.924,265.455 47.045 M350.909 46.906 C 350.909 46.954,351.190 47.174,351.534 47.395 L 352.159 47.798 351.726 47.308 C 351.343 46.875,350.909 46.661,350.909 46.906 M72.273 47.510 C 72.024 47.679,72.116 47.700,72.614 47.589 C 73.449 47.402,73.631 47.272,73.049 47.276 C 72.810 47.278,72.460 47.384,72.273 47.510 M172.500 47.500 C 172.688 47.621,172.994 47.720,173.182 47.720 C 173.485 47.720,173.485 47.696,173.182 47.500 C 172.994 47.379,172.688 47.280,172.500 47.280 C 172.197 47.280,172.197 47.304,172.500 47.500 M262.386 47.506 C 262.083 47.640,262.272 47.662,262.955 47.572 C 263.517 47.498,264.020 47.400,264.072 47.355 C 264.269 47.184,262.820 47.314,262.386 47.506 M70.455 47.958 C 70.215 48.115,70.349 48.138,70.909 48.035 C 71.889 47.855,72.074 47.726,71.345 47.731 C 71.043 47.733,70.642 47.835,70.455 47.958 M174.318 47.955 C 175.194 48.235,175.661 48.235,175.227 47.955 C 175.040 47.833,174.631 47.743,174.318 47.753 L 173.750 47.773 174.318 47.955 M259.677 47.926 C 259.563 48.109,261.585 47.999,261.799 47.811 C 261.851 47.765,261.423 47.727,260.847 47.727 C 260.271 47.727,259.744 47.817,259.677 47.926 M353.115 48.952 C 353.589 49.626,354.015 50.142,354.061 50.099 C 354.157 50.011,352.517 47.727,352.357 47.727 C 352.300 47.727,352.641 48.278,353.115 48.952 M68.775 48.368 C 68.712 48.470,68.962 48.510,69.330 48.456 C 69.699 48.402,70.000 48.318,70.000 48.270 C 70.000 48.096,68.888 48.186,68.775 48.368 M178.151 48.965 C 178.572 49.159,179.134 49.308,179.401 49.295 C 179.767 49.277,179.719 49.226,179.205 49.085 C 177.558 48.634,177.395 48.615,178.151 48.965 M255.739 48.793 C 255.957 48.850,256.315 48.850,256.534 48.793 C 256.753 48.736,256.574 48.689,256.136 48.689 C 255.699 48.689,255.520 48.736,255.739 48.793 M252.273 49.545 C 251.486 49.711,251.485 49.713,252.159 49.739 C 252.534 49.754,252.994 49.667,253.182 49.545 C 253.560 49.301,253.435 49.301,252.273 49.545 M182.614 50.455 C 183.239 50.723,183.462 50.723,183.295 50.455 C 183.218 50.330,182.931 50.234,182.657 50.243 C 182.177 50.259,182.175 50.266,182.614 50.455 M247.614 50.909 C 247.327 51.032,247.285 51.104,247.500 51.104 C 247.688 51.104,248.045 51.017,248.295 50.909 C 248.582 50.786,248.624 50.714,248.409 50.714 C 248.222 50.714,247.864 50.802,247.614 50.909 M59.773 51.591 C 59.335 51.830,59.080 52.026,59.205 52.026 C 59.330 52.026,59.790 51.830,60.227 51.591 C 60.665 51.351,60.920 51.155,60.795 51.155 C 60.670 51.155,60.210 51.351,59.773 51.591 M354.526 53.011 C 354.445 53.814,354.117 54.864,353.673 55.738 C 353.234 56.602,353.129 56.937,353.405 56.591 C 354.126 55.688,354.803 53.660,354.727 52.632 C 354.663 51.780,354.647 51.810,354.526 53.011 M58.011 52.406 C 57.605 52.583,57.273 52.774,57.273 52.830 C 57.273 52.997,58.627 52.471,58.764 52.250 C 58.915 52.005,58.937 52.001,58.011 52.406 M186.818 52.147 C 186.818 52.210,187.125 52.420,187.500 52.614 C 187.875 52.808,188.182 52.915,188.182 52.853 C 188.182 52.790,187.875 52.580,187.500 52.386 C 187.125 52.192,186.818 52.085,186.818 52.147 M188.428 53.044 C 188.713 53.313,190.240 54.068,190.126 53.884 C 190.052 53.763,189.670 53.505,189.279 53.310 C 188.597 52.970,188.226 52.854,188.428 53.044 M239.659 53.735 C 238.166 54.454,238.457 54.476,240.028 53.763 C 240.700 53.458,241.148 53.203,241.023 53.198 C 240.898 53.192,240.284 53.434,239.659 53.735 M54.939 54.213 C 54.473 54.530,54.091 54.833,54.091 54.887 C 54.091 55.034,55.664 54.076,55.810 53.841 C 56.004 53.526,55.857 53.589,54.939 54.213 M236.875 54.887 C 236.219 55.185,235.682 55.488,235.682 55.561 C 235.682 55.634,235.984 55.537,236.352 55.347 C 236.721 55.156,237.156 54.997,237.318 54.993 C 237.481 54.989,237.812 54.835,238.055 54.652 C 238.686 54.174,238.252 54.261,236.875 54.887 M191.136 54.618 C 191.136 54.675,191.878 55.317,192.784 56.044 C 193.690 56.772,194.304 57.208,194.148 57.013 C 193.814 56.596,191.136 54.467,191.136 54.618 M52.727 55.928 L 51.705 56.855 52.784 56.014 C 53.730 55.276,54.011 54.998,53.807 55.001 C 53.776 55.001,53.290 55.418,52.727 55.928 M50.364 58.139 L 49.259 59.432 50.455 58.231 C 51.112 57.570,51.610 56.988,51.559 56.938 C 51.509 56.888,50.971 57.429,50.364 58.139 M232.310 57.155 C 231.323 57.699,231.243 58.008,232.216 57.520 C 232.747 57.254,233.182 56.987,233.182 56.927 C 233.182 56.759,232.892 56.835,232.310 57.155 M352.027 57.867 C 351.725 58.192,351.273 58.543,351.023 58.647 C 350.732 58.767,350.691 58.838,350.909 58.843 C 351.267 58.851,352.841 57.538,352.674 57.371 C 352.621 57.318,352.330 57.541,352.027 57.867 M194.773 57.798 C 194.773 57.838,195.105 58.170,195.511 58.537 L 196.250 59.205 195.582 58.466 C 194.960 57.777,194.773 57.623,194.773 57.798 M230.110 58.555 C 228.950 59.323,228.541 59.729,229.447 59.213 C 230.244 58.758,231.308 57.967,231.132 57.960 C 231.068 57.957,230.607 58.225,230.110 58.555 M196.754 60.227 C 197.113 60.790,197.534 61.506,197.689 61.818 C 198.247 62.938,198.630 63.518,198.633 63.251 C 198.637 62.900,197.219 60.478,196.588 59.758 C 196.285 59.413,196.348 59.590,196.754 60.227 M348.750 59.545 C 348.312 59.734,348.313 59.741,348.793 59.757 C 349.067 59.766,349.355 59.670,349.432 59.545 C 349.598 59.277,349.376 59.277,348.750 59.545 M48.915 59.830 C 48.426 60.431,47.257 62.560,47.360 62.663 C 47.420 62.723,47.693 62.327,47.968 61.783 C 48.243 61.240,48.667 60.514,48.909 60.170 C 49.348 59.547,49.353 59.291,48.915 59.830 M108.924 59.709 C 109.269 59.761,109.780 59.759,110.060 59.705 C 110.339 59.651,110.057 59.609,109.432 59.610 C 108.807 59.612,108.578 59.656,108.924 59.709 M111.534 59.712 C 112.065 59.760,112.935 59.760,113.466 59.712 C 113.997 59.664,113.563 59.625,112.500 59.625 C 111.438 59.625,111.003 59.664,111.534 59.712 M122.117 59.716 C 124.469 59.753,128.253 59.753,130.526 59.716 C 132.799 59.678,130.875 59.648,126.250 59.648 C 121.625 59.648,119.765 59.679,122.117 59.716 M227.595 60.357 L 226.705 61.169 227.670 60.433 C 228.553 59.760,228.768 59.545,228.561 59.545 C 228.519 59.545,228.084 59.911,227.595 60.357 M104.318 60.000 C 103.575 60.157,103.597 60.168,104.659 60.175 C 105.284 60.179,106.051 60.100,106.364 60.000 C 107.126 59.756,105.478 59.756,104.318 60.000 M139.318 59.993 C 139.870 60.176,142.671 60.311,142.481 60.144 C 142.429 60.099,141.568 60.003,140.568 59.932 C 139.476 59.855,138.977 59.879,139.318 59.993 M296.136 60.012 C 294.846 60.115,295.441 60.141,297.929 60.090 C 299.977 60.048,301.707 59.960,301.773 59.893 C 301.925 59.741,298.681 59.810,296.136 60.012 M101.364 60.455 L 100.795 60.637 101.364 60.656 C 101.676 60.666,102.085 60.576,102.273 60.455 C 102.707 60.174,102.240 60.174,101.364 60.455 M291.705 60.455 L 291.250 60.650 291.705 60.650 C 291.955 60.650,292.364 60.562,292.614 60.455 L 293.068 60.259 292.614 60.259 C 292.364 60.259,291.955 60.347,291.705 60.455 M145.341 60.909 C 145.418 61.034,145.705 61.135,145.979 61.133 C 146.384 61.130,146.414 61.088,146.136 60.909 C 145.689 60.620,145.162 60.620,145.341 60.909 M288.409 60.909 C 288.106 61.105,288.106 61.129,288.409 61.129 C 288.597 61.129,288.903 61.030,289.091 60.909 C 289.394 60.713,289.394 60.689,289.091 60.689 C 288.903 60.689,288.597 60.788,288.409 60.909 M223.636 63.807 C 222.177 65.276,220.655 66.963,220.254 67.557 C 219.176 69.150,219.538 68.868,220.872 67.074 C 221.511 66.215,223.069 64.528,224.334 63.324 C 225.600 62.121,226.558 61.136,226.462 61.136 C 226.367 61.136,225.096 62.338,223.636 63.807 M285.568 61.364 L 285.114 61.559 285.568 61.571 C 285.818 61.578,286.176 61.485,286.364 61.364 C 286.815 61.072,286.248 61.072,285.568 61.364 M283.523 61.818 C 283.357 62.087,283.579 62.087,284.205 61.818 C 284.643 61.630,284.641 61.622,284.161 61.607 C 283.887 61.598,283.600 61.693,283.523 61.818 M95.455 62.498 C 95.017 62.736,94.352 63.203,93.977 63.536 L 93.295 64.141 94.091 63.581 C 94.528 63.273,95.295 62.806,95.795 62.543 C 96.295 62.281,96.602 62.066,96.477 62.066 C 96.352 62.066,95.892 62.260,95.455 62.498 M149.984 62.648 C 150.649 62.980,151.871 63.873,152.699 64.634 C 154.069 65.892,154.089 65.686,152.727 64.353 C 151.930 63.573,149.545 62.045,149.125 62.045 C 148.932 62.045,149.319 62.317,149.984 62.648 M281.136 62.420 C 280.297 62.757,280.810 62.707,282.273 62.309 C 282.892 62.140,282.942 62.093,282.500 62.096 C 282.188 62.098,281.574 62.244,281.136 62.420 M279.318 62.955 C 278.850 63.104,278.830 63.140,279.205 63.156 C 279.455 63.166,279.813 63.076,280.000 62.955 C 280.398 62.697,280.122 62.697,279.318 62.955 M92.573 64.603 C 91.780 65.484,91.707 65.832,92.482 65.038 C 92.888 64.622,93.178 64.239,93.126 64.187 C 93.075 64.135,92.825 64.322,92.573 64.603 M274.148 64.884 C 273.173 65.308,273.205 65.451,274.205 65.138 C 274.642 65.001,275.000 64.812,275.000 64.717 C 275.000 64.505,275.038 64.497,274.148 64.884 M199.291 65.731 C 199.396 66.363,199.428 66.395,199.499 65.940 C 199.546 65.644,199.490 65.308,199.376 65.194 C 199.250 65.068,199.216 65.280,199.291 65.731 M90.998 67.184 C 90.809 67.635,90.696 68.045,90.747 68.095 C 90.797 68.146,90.999 67.777,91.196 67.275 C 91.642 66.142,91.467 66.061,90.998 67.184 M269.716 67.176 C 268.541 67.945,268.638 68.101,269.830 67.359 C 270.976 66.645,271.048 66.587,270.777 66.604 C 270.662 66.612,270.185 66.869,269.716 67.176 M199.565 67.159 C 199.558 67.409,199.652 67.767,199.773 67.955 C 200.065 68.406,200.065 67.839,199.773 67.159 L 199.577 66.705 199.565 67.159 M155.053 69.091 C 155.053 69.528,155.099 69.707,155.157 69.489 C 155.214 69.270,155.214 68.912,155.157 68.693 C 155.099 68.474,155.053 68.653,155.053 69.091 M45.791 91.705 C 45.791 104.455,45.819 109.637,45.852 103.221 C 45.886 96.806,45.886 86.374,45.852 80.039 C 45.819 73.705,45.791 78.955,45.791 91.705 M218.985 69.452 C 218.773 69.775,218.639 70.079,218.687 70.126 C 218.735 70.174,218.953 69.910,219.173 69.538 C 219.662 68.709,219.516 68.641,218.985 69.452 M265.233 70.789 C 264.432 71.598,263.821 72.291,263.876 72.329 C 263.932 72.367,264.634 71.705,265.437 70.858 C 267.293 68.899,267.154 68.852,265.233 70.789 M90.508 91.023 C 90.477 102.773,90.394 112.949,90.324 113.636 C 90.230 114.572,90.259 114.791,90.441 114.507 C 90.610 114.242,90.666 107.388,90.625 91.893 L 90.566 69.659 90.508 91.023 M155.057 71.705 C 155.060 72.205,155.106 72.382,155.161 72.100 C 155.215 71.817,155.213 71.408,155.156 71.191 C 155.099 70.973,155.055 71.205,155.057 71.705 M199.659 72.955 C 199.573 73.347,199.553 73.720,199.616 73.783 C 199.678 73.845,199.800 73.575,199.886 73.182 C 199.973 72.789,199.992 72.416,199.930 72.354 C 199.867 72.291,199.745 72.562,199.659 72.955 M262.767 73.676 C 262.353 74.303,262.056 74.859,262.107 74.911 C 262.159 74.962,262.528 74.479,262.928 73.837 C 263.870 72.320,263.747 72.197,262.767 73.676 M154.243 74.219 C 154.032 74.662,153.378 75.555,152.790 76.205 L 151.720 77.386 152.697 76.477 C 153.644 75.595,154.931 73.719,154.727 73.515 C 154.672 73.460,154.454 73.777,154.243 74.219 M199.221 75.130 C 199.137 75.463,199.120 75.787,199.182 75.849 C 199.245 75.912,199.364 75.690,199.448 75.357 C 199.532 75.024,199.549 74.700,199.486 74.638 C 199.424 74.575,199.304 74.797,199.221 75.130 M261.466 75.930 C 261.266 76.317,261.143 76.673,261.193 76.723 C 261.242 76.772,261.452 76.456,261.660 76.020 C 262.128 75.040,261.966 74.965,261.466 75.930 M260.795 77.500 C 260.710 77.769,260.691 78.040,260.754 78.102 C 260.816 78.165,260.937 77.996,261.023 77.727 C 261.108 77.458,261.127 77.187,261.064 77.125 C 261.002 77.062,260.881 77.231,260.795 77.500 M215.574 78.352 C 215.488 78.821,215.387 80.023,215.351 81.023 L 215.285 82.841 215.468 81.023 C 215.568 80.023,215.720 78.821,215.805 78.352 C 215.889 77.884,215.908 77.500,215.845 77.500 C 215.783 77.500,215.661 77.884,215.574 78.352 M149.545 78.409 C 149.108 78.649,148.832 78.849,148.932 78.854 C 149.173 78.867,150.455 78.200,150.455 78.062 C 150.455 77.914,150.441 77.919,149.545 78.409 M260.236 79.601 C 259.823 80.970,259.874 87.256,260.310 88.750 C 260.492 89.375,260.650 89.663,260.661 89.390 C 260.673 89.117,260.571 88.605,260.436 88.253 C 260.099 87.379,260.118 80.679,260.459 79.644 C 260.607 79.198,260.682 78.788,260.627 78.733 C 260.572 78.678,260.396 79.069,260.236 79.601 M196.931 80.322 C 196.608 80.874,196.194 81.449,196.012 81.599 C 195.831 81.750,195.682 81.971,195.682 82.091 C 195.682 82.210,195.919 82.019,196.208 81.665 C 196.860 80.869,197.807 79.318,197.642 79.318 C 197.574 79.318,197.255 79.770,196.931 80.322 M144.886 80.000 C 144.720 80.269,144.943 80.269,145.568 80.000 C 146.006 79.812,146.005 79.804,145.525 79.789 C 145.251 79.780,144.964 79.875,144.886 80.000 M142.500 80.455 C 142.066 80.735,142.533 80.735,143.409 80.455 L 143.977 80.273 143.409 80.253 C 143.097 80.243,142.688 80.333,142.500 80.455 M112.778 80.939 C 112.250 81.132,136.023 81.140,139.318 80.948 C 140.756 80.864,135.460 80.795,127.550 80.795 C 119.641 80.795,112.993 80.860,112.778 80.939 M110.993 81.464 C 110.602 81.634,110.199 81.911,110.097 82.080 C 109.947 82.330,109.978 82.334,110.264 82.102 C 110.458 81.945,111.014 81.671,111.501 81.493 C 111.988 81.314,112.233 81.165,112.045 81.161 C 111.858 81.157,111.384 81.293,110.993 81.464 M108.716 83.239 C 107.852 84.141,107.217 85.202,107.730 84.885 C 107.853 84.808,107.955 84.628,107.955 84.484 C 107.955 84.340,108.385 83.783,108.911 83.247 C 109.437 82.711,109.816 82.273,109.754 82.273 C 109.691 82.273,109.224 82.707,108.716 83.239 M193.750 83.954 C 192.465 85.221,192.377 85.345,193.295 84.602 C 194.531 83.601,195.589 82.536,195.437 82.444 C 195.384 82.412,194.625 83.092,193.750 83.954 M215.354 87.045 C 215.432 89.250,215.623 90.818,215.895 91.477 C 216.525 93.008,216.588 93.113,216.440 92.386 C 216.363 92.011,216.226 91.602,216.134 91.477 C 215.953 91.232,215.742 89.804,215.463 86.932 L 215.286 85.114 215.354 87.045 M190.309 86.577 C 189.416 87.180,188.547 87.728,188.377 87.796 C 188.140 87.890,188.136 87.923,188.363 87.937 C 188.654 87.954,192.045 85.767,192.045 85.561 C 192.045 85.404,192.064 85.393,190.309 86.577 M106.857 87.755 C 106.818 89.501,107.294 91.134,108.105 92.037 C 108.910 92.931,110.129 94.088,110.269 94.089 C 110.355 94.090,109.876 93.542,109.206 92.872 C 107.646 91.312,107.219 90.342,107.041 87.955 L 106.897 86.023 106.857 87.755 M181.932 90.576 C 181.014 90.997,181.563 90.997,182.531 90.577 C 182.951 90.394,183.142 90.249,182.955 90.255 C 182.767 90.260,182.307 90.405,181.932 90.576 M180.000 91.234 C 179.563 91.400,178.795 91.642,178.295 91.772 C 175.919 92.389,175.303 92.562,174.819 92.751 C 174.532 92.863,173.992 92.955,173.619 92.955 C 172.891 92.955,172.493 93.493,172.912 93.912 C 173.086 94.086,173.122 94.024,173.036 93.695 C 172.933 93.303,173.046 93.216,173.787 93.117 C 174.267 93.053,175.068 92.878,175.568 92.727 C 176.068 92.577,176.861 92.402,177.331 92.339 C 177.801 92.276,178.241 92.133,178.310 92.021 C 178.379 91.910,178.660 91.811,178.934 91.801 C 179.208 91.792,179.841 91.595,180.341 91.364 C 181.394 90.876,181.168 90.791,180.000 91.234 M216.600 93.326 C 216.595 93.468,216.740 93.928,216.923 94.349 C 217.106 94.770,217.259 94.998,217.264 94.856 C 217.269 94.714,217.123 94.254,216.941 93.833 C 216.758 93.412,216.605 93.184,216.600 93.326 M262.045 93.308 C 262.045 93.377,262.301 93.809,262.614 94.269 C 263.304 95.286,263.363 95.106,262.705 93.990 C 262.258 93.233,262.045 93.013,262.045 93.308 M173.523 94.262 C 173.648 94.389,174.466 94.877,175.341 95.346 C 176.216 95.815,176.830 96.094,176.705 95.966 C 176.580 95.838,175.761 95.350,174.886 94.881 C 174.011 94.413,173.398 94.134,173.523 94.262 M111.818 94.784 C 112.606 95.319,113.055 95.475,112.500 95.020 C 112.188 94.765,111.830 94.555,111.705 94.554 C 111.580 94.553,111.631 94.657,111.818 94.784 M263.815 95.839 C 264.434 96.711,267.656 99.722,268.295 100.026 C 268.545 100.145,268.341 99.911,267.841 99.505 C 267.341 99.100,266.115 97.945,265.116 96.941 C 264.117 95.936,263.531 95.440,263.815 95.839 M113.184 95.521 C 113.424 95.786,115.921 97.021,115.790 96.810 C 115.716 96.689,115.175 96.361,114.588 96.081 C 113.262 95.448,113.038 95.359,113.184 95.521 M218.068 97.045 C 218.262 97.420,218.472 97.727,218.534 97.727 C 218.597 97.727,218.489 97.420,218.295 97.045 C 218.102 96.670,217.892 96.364,217.829 96.364 C 217.767 96.364,217.874 96.670,218.068 97.045 M178.409 97.025 C 178.722 97.281,179.080 97.491,179.205 97.491 C 179.448 97.493,179.037 97.178,178.295 96.795 C 177.994 96.639,178.032 96.716,178.409 97.025 M117.045 97.570 C 117.045 97.744,119.672 99.318,119.963 99.318 C 120.147 99.318,119.446 98.847,118.125 98.082 C 117.531 97.738,117.045 97.508,117.045 97.570 M218.636 98.058 C 218.636 98.269,220.657 101.136,220.805 101.136 C 220.889 101.136,219.005 98.272,218.725 97.973 C 218.676 97.921,218.636 97.960,218.636 98.058 M181.136 98.511 C 181.136 98.574,181.443 98.783,181.818 98.977 C 182.193 99.171,182.500 99.279,182.500 99.216 C 182.500 99.154,182.193 98.944,181.818 98.750 C 181.443 98.556,181.136 98.449,181.136 98.511 M120.909 99.831 C 121.159 100.096,123.470 101.379,123.551 101.297 C 123.599 101.249,123.102 100.912,122.447 100.548 C 121.189 99.850,120.721 99.632,120.909 99.831 M184.545 100.466 C 185.138 100.870,186.136 101.379,186.136 101.278 C 186.136 101.152,184.568 100.226,184.362 100.231 C 184.275 100.233,184.358 100.339,184.545 100.466 M124.318 101.799 C 124.865 102.245,125.227 102.391,125.227 102.165 C 125.227 102.106,124.895 101.895,124.489 101.697 L 123.750 101.336 124.318 101.799 M125.843 102.695 C 126.119 102.963,126.482 103.182,126.650 103.182 C 126.817 103.182,127.076 103.303,127.223 103.451 C 127.371 103.599,127.546 103.666,127.611 103.601 C 127.676 103.536,127.192 103.196,126.535 102.846 C 125.526 102.308,125.419 102.284,125.843 102.695 M221.818 102.501 C 221.818 102.661,225.780 106.515,226.490 107.045 C 227.625 107.894,227.757 107.926,226.818 107.123 C 226.256 106.643,224.901 105.374,223.807 104.304 C 222.713 103.234,221.818 102.423,221.818 102.501 M188.864 102.829 C 188.864 102.892,189.170 103.102,189.545 103.295 C 189.920 103.489,190.227 103.597,190.227 103.534 C 190.227 103.472,189.920 103.262,189.545 103.068 C 189.170 102.874,188.864 102.767,188.864 102.829 M128.636 104.199 C 128.636 104.258,128.969 104.469,129.375 104.667 L 130.114 105.027 129.545 104.564 C 128.998 104.118,128.636 103.973,128.636 104.199 M193.011 105.232 C 193.604 105.604,194.167 105.907,194.261 105.905 C 194.355 105.902,193.946 105.596,193.353 105.223 C 192.760 104.850,192.197 104.547,192.103 104.550 C 192.009 104.552,192.417 104.859,193.011 105.232 M278.295 104.858 C 279.090 105.202,280.227 105.504,280.227 105.371 C 280.227 105.265,278.074 104.541,277.798 104.554 C 277.697 104.559,277.920 104.696,278.295 104.858 M131.591 105.739 C 131.591 105.883,133.350 107.045,133.568 107.045 C 133.661 107.045,133.536 106.908,133.289 106.739 C 132.205 105.999,131.591 105.638,131.591 105.739 M194.545 105.986 C 194.545 106.044,194.889 106.294,195.308 106.541 C 196.408 107.191,197.243 107.943,197.986 108.955 C 198.344 109.442,198.636 109.732,198.636 109.598 C 198.636 109.163,196.446 106.946,195.483 106.406 C 194.967 106.117,194.545 105.928,194.545 105.986 M283.609 106.427 C 283.719 106.537,284.102 106.590,284.461 106.545 C 285.062 106.470,285.046 106.454,284.262 106.346 C 283.773 106.278,283.495 106.313,283.609 106.427 M288.182 107.273 C 288.369 107.394,288.727 107.487,288.977 107.481 L 289.432 107.468 288.977 107.273 C 288.298 106.981,287.730 106.981,288.182 107.273 M134.773 107.602 C 134.773 107.664,135.080 107.874,135.455 108.068 C 135.830 108.262,136.136 108.370,136.136 108.307 C 136.136 108.245,135.830 108.035,135.455 107.841 C 135.080 107.647,134.773 107.539,134.773 107.602 M291.364 107.715 C 291.551 107.843,292.003 107.949,292.367 107.951 C 293.241 107.956,293.059 107.824,291.932 107.635 C 291.280 107.526,291.119 107.549,291.364 107.715 M228.409 108.389 C 229.055 108.929,230.455 109.803,230.455 109.668 C 230.455 109.573,228.766 108.406,228.182 108.096 C 227.994 107.996,228.097 108.129,228.409 108.389 M296.932 108.211 C 298.030 108.364,306.599 108.432,305.909 108.282 C 305.722 108.242,303.369 108.173,300.682 108.130 C 297.994 108.088,296.307 108.124,296.932 108.211 M309.034 108.350 C 309.815 108.394,311.094 108.394,311.875 108.350 C 312.656 108.306,312.017 108.269,310.455 108.269 C 308.892 108.269,308.253 108.306,309.034 108.350 M136.364 108.467 C 136.614 108.733,138.924 110.015,139.006 109.933 C 139.054 109.885,138.557 109.548,137.901 109.184 C 136.643 108.486,136.176 108.268,136.364 108.467 M352.273 110.568 C 352.697 111.006,353.095 111.364,353.157 111.364 C 353.220 111.364,352.924 111.006,352.500 110.568 C 352.076 110.131,351.678 109.773,351.615 109.773 C 351.553 109.773,351.849 110.131,352.273 110.568 M139.659 110.345 C 139.909 110.549,140.318 110.816,140.568 110.938 L 141.023 111.161 140.568 110.791 C 140.318 110.588,139.909 110.321,139.659 110.198 L 139.205 109.975 139.659 110.345 M232.273 110.884 C 232.585 111.142,232.994 111.355,233.182 111.357 C 233.481 111.360,233.299 111.239,231.989 110.562 C 231.833 110.481,231.960 110.626,232.273 110.884 M199.110 111.250 C 199.103 111.500,199.197 111.858,199.318 112.045 C 199.610 112.497,199.610 111.929,199.318 111.250 L 199.123 110.795 199.110 111.250 M353.732 112.583 C 353.992 113.116,354.236 113.476,354.275 113.383 C 354.360 113.179,353.719 111.896,353.450 111.730 C 353.345 111.665,353.472 112.049,353.732 112.583 M142.500 111.920 C 142.500 111.983,142.807 112.192,143.182 112.386 C 143.557 112.580,143.864 112.688,143.864 112.625 C 143.864 112.563,143.557 112.353,143.182 112.159 C 142.807 111.965,142.500 111.858,142.500 111.920 M238.378 113.895 C 239.173 114.266,239.878 114.516,239.943 114.450 C 240.009 114.385,239.768 114.219,239.407 114.083 C 239.045 113.947,238.453 113.689,238.090 113.509 C 237.727 113.329,237.318 113.191,237.181 113.201 C 237.044 113.212,237.583 113.524,238.378 113.895 M145.682 113.744 C 145.682 113.803,146.014 114.014,146.420 114.212 L 147.159 114.573 146.591 114.110 C 146.044 113.664,145.682 113.518,145.682 113.744 M354.610 115.341 C 354.612 115.966,354.656 116.195,354.709 115.849 C 354.761 115.504,354.759 114.992,354.705 114.713 C 354.651 114.433,354.609 114.716,354.610 115.341 M147.273 114.637 C 147.273 114.708,147.886 115.076,148.636 115.455 C 149.386 115.833,150.000 116.092,150.000 116.030 C 150.000 115.968,149.463 115.634,148.807 115.289 C 147.282 114.487,147.273 114.483,147.273 114.637 M240.227 114.629 C 240.227 114.674,240.866 114.934,241.648 115.206 C 242.429 115.478,243.246 115.799,243.463 115.919 C 243.972 116.200,244.571 116.204,244.091 115.923 C 243.445 115.545,240.227 114.467,240.227 114.629 M90.031 115.266 C 90.014 115.474,89.934 115.832,89.853 116.061 C 89.739 116.382,89.770 116.418,89.986 116.219 C 90.140 116.078,90.220 115.720,90.164 115.424 C 90.108 115.128,90.048 115.057,90.031 115.266 M150.682 116.571 C 150.994 116.826,151.352 117.036,151.477 117.037 C 151.720 117.039,151.309 116.724,150.568 116.341 C 150.266 116.185,150.304 116.262,150.682 116.571 M46.365 116.600 C 46.366 116.782,46.570 117.239,46.818 117.614 C 47.397 118.488,47.397 118.295,46.818 117.159 C 46.568 116.669,46.364 116.417,46.365 116.600 M89.198 117.515 C 88.968 118.026,88.210 119.014,87.515 119.712 C 86.625 120.604,86.490 120.803,87.060 120.382 C 88.297 119.468,90.045 117.015,89.703 116.673 C 89.656 116.625,89.428 117.004,89.198 117.515 M246.250 116.818 C 246.327 116.943,246.615 117.038,246.888 117.029 C 247.368 117.014,247.370 117.006,246.932 116.818 C 246.306 116.549,246.084 116.549,246.250 116.818 M353.865 117.789 C 353.105 119.467,353.098 119.494,353.594 118.881 C 354.001 118.377,354.617 116.814,354.467 116.664 C 354.433 116.630,354.162 117.136,353.865 117.789 M247.727 117.273 C 247.915 117.394,248.273 117.487,248.523 117.481 L 248.977 117.468 248.523 117.273 C 247.843 116.981,247.275 116.981,247.727 117.273 M249.205 117.727 C 249.282 117.852,249.569 117.947,249.843 117.939 C 250.323 117.923,250.325 117.916,249.886 117.727 C 249.261 117.458,249.038 117.458,249.205 117.727 M196.971 119.163 L 195.875 120.568 197.028 119.338 C 197.663 118.662,198.182 118.022,198.182 117.918 C 198.182 117.624,198.140 117.666,196.971 119.163 M153.409 118.057 C 153.409 118.119,153.716 118.329,154.091 118.523 C 154.466 118.717,154.773 118.824,154.773 118.762 C 154.773 118.699,154.466 118.489,154.091 118.295 C 153.716 118.102,153.409 117.994,153.409 118.057 M48.409 119.659 C 49.088 120.347,49.688 120.909,49.742 120.909 C 49.935 120.909,47.610 118.458,47.394 118.434 C 47.273 118.420,47.730 118.972,48.409 119.659 M252.064 118.491 C 252.332 118.722,253.433 118.859,253.301 118.645 C 253.221 118.515,252.888 118.409,252.562 118.409 C 252.236 118.409,252.012 118.446,252.064 118.491 M254.110 118.945 C 254.162 118.990,254.511 119.096,254.886 119.179 C 255.384 119.291,255.476 119.270,255.227 119.101 C 254.920 118.894,253.882 118.749,254.110 118.945 M256.477 119.559 C 256.977 119.684,257.872 119.847,258.466 119.922 C 259.060 119.997,259.545 120.147,259.545 120.256 C 259.545 120.365,260.102 120.455,260.782 120.455 C 261.462 120.455,262.082 120.557,262.159 120.682 C 262.236 120.807,262.882 120.894,263.593 120.876 L 264.886 120.842 263.523 120.643 C 262.773 120.534,261.699 120.390,261.136 120.324 C 260.574 120.258,259.909 120.113,259.659 120.002 C 259.218 119.807,258.734 119.721,256.591 119.459 L 255.568 119.333 256.477 119.559 M157.831 120.572 C 158.562 121.012,159.201 121.330,159.252 121.278 C 159.358 121.172,156.976 119.773,156.690 119.773 C 156.588 119.773,157.101 120.132,157.831 120.572 M85.166 121.538 C 84.695 121.854,84.355 122.158,84.410 122.213 C 84.465 122.268,84.850 122.074,85.266 121.782 C 85.682 121.490,86.065 121.226,86.117 121.194 C 86.170 121.162,86.170 121.098,86.117 121.050 C 86.065 121.003,85.637 121.222,85.166 121.538 M265.568 121.136 C 265.645 121.261,265.933 121.356,266.207 121.348 C 266.687 121.332,266.688 121.325,266.250 121.136 C 265.624 120.868,265.402 120.868,265.568 121.136 M350.568 121.379 C 349.804 121.869,349.909 121.954,350.785 121.554 C 351.103 121.409,351.364 121.205,351.364 121.100 C 351.364 120.862,351.388 120.854,350.568 121.379 M193.832 121.813 L 193.295 122.262 193.919 121.983 C 194.261 121.830,194.543 121.628,194.544 121.534 C 194.546 121.273,194.415 121.325,193.832 121.813 M269.318 121.591 C 269.506 121.712,269.864 121.806,270.114 121.799 L 270.568 121.786 270.114 121.591 C 269.434 121.299,268.866 121.299,269.318 121.591 M271.648 121.748 C 271.866 121.805,272.224 121.805,272.443 121.748 C 272.662 121.690,272.483 121.644,272.045 121.644 C 271.608 121.644,271.429 121.690,271.648 121.748 M274.318 122.045 C 274.631 122.146,275.193 122.227,275.568 122.227 C 276.231 122.227,276.234 122.222,275.682 122.045 C 275.369 121.945,274.807 121.863,274.432 121.863 C 273.769 121.863,273.766 121.869,274.318 122.045 M301.307 122.443 C 309.838 122.476,323.798 122.476,332.330 122.443 C 340.861 122.410,333.881 122.383,316.818 122.383 C 299.756 122.383,292.776 122.410,301.307 122.443 M189.926 123.512 C 189.448 123.682,188.988 123.899,188.904 123.993 C 188.819 124.086,188.955 124.085,189.205 123.989 C 189.455 123.893,189.991 123.718,190.398 123.601 C 190.804 123.484,191.136 123.341,191.136 123.285 C 191.136 123.125,190.869 123.176,189.926 123.512 M79.886 123.864 C 79.600 123.987,79.558 124.059,79.773 124.059 C 79.960 124.059,80.318 123.971,80.568 123.864 C 80.855 123.741,80.897 123.668,80.682 123.668 C 80.494 123.668,80.136 123.756,79.886 123.864 M164.432 123.864 C 165.057 124.132,165.280 124.132,165.114 123.864 C 165.036 123.739,164.749 123.644,164.475 123.652 C 163.995 123.668,163.994 123.675,164.432 123.864 M57.125 124.358 C 57.357 124.539,57.961 124.711,58.468 124.741 C 58.975 124.771,59.572 124.893,59.794 125.011 C 60.016 125.130,60.690 125.212,61.292 125.194 L 62.386 125.160 61.136 124.984 C 59.529 124.757,57.738 124.401,57.159 124.193 C 56.723 124.036,56.722 124.043,57.125 124.358 M166.364 124.444 C 166.926 124.621,167.540 124.761,167.727 124.754 C 167.915 124.748,167.608 124.597,167.045 124.420 C 166.483 124.243,165.869 124.103,165.682 124.110 C 165.494 124.116,165.801 124.266,166.364 124.444 M187.500 124.329 C 187.251 124.497,187.343 124.518,187.841 124.407 C 188.677 124.220,188.858 124.090,188.277 124.094 C 188.037 124.096,187.688 124.202,187.500 124.329 M77.500 124.472 C 77.188 124.523,76.727 124.660,76.477 124.777 C 76.227 124.894,75.563 125.025,75.000 125.069 L 73.977 125.148 75.157 125.188 C 75.806 125.209,76.400 125.125,76.477 125.000 C 76.555 124.875,76.893 124.771,77.229 124.769 C 77.566 124.767,77.994 124.667,78.182 124.545 C 78.532 124.319,78.478 124.314,77.500 124.472 M185.966 124.702 C 186.185 124.759,186.543 124.759,186.761 124.702 C 186.980 124.645,186.801 124.598,186.364 124.598 C 185.926 124.598,185.747 124.645,185.966 124.702 M168.636 124.988 C 169.197 125.179,171.074 125.307,170.890 125.142 C 170.838 125.095,170.182 124.998,169.432 124.926 C 168.548 124.841,168.268 124.863,168.636 124.988 M183.068 125.141 C 181.647 125.367,179.553 125.447,176.208 125.403 C 173.560 125.369,171.541 125.423,171.720 125.523 C 172.536 125.978,184.862 125.441,185.375 124.928 C 185.561 124.742,185.623 124.736,183.068 125.141 M62.832 125.440 C 62.914 125.573,63.350 125.682,63.801 125.682 C 64.804 125.682,64.718 125.567,63.557 125.357 C 62.962 125.249,62.730 125.275,62.832 125.440 M68.750 125.455 L 64.659 125.584 68.864 125.629 C 71.277 125.656,73.213 125.581,73.409 125.455 C 73.688 125.275,73.667 125.243,73.295 125.280 C 73.045 125.305,71.000 125.383,68.750 125.455 "
      stroke="none" fill="#a7a7a7" fill-rule="evenodd"></path>
  </g>
</svg>