<svg id="svg" version="1.1" xmlns="http://www.w3.org/2000/svg" xmlns:xlink="http://www.w3.org/1999/xlink" width="400" height="400.44296788482836" viewBox="0, 0, 400,400.44296788482836"><g id="svgg"><path id="path0" d="M282.916 134.138 C 274.786 137.061,274.771 149.544,282.895 151.980 C 283.833 152.261,284.994 152.675,285.476 152.900 C 285.958 153.125,286.923 153.195,287.621 153.056 C 288.820 152.816,293.136 155.898,293.263 157.084 C 293.311 157.528,294.705 159.162,299.147 163.978 C 301.266 166.276,303.838 169.066,304.861 170.178 C 305.885 171.290,307.654 173.280,308.793 174.600 C 309.932 175.920,311.119 177.144,311.432 177.320 C 311.744 177.496,312.000 177.832,312.000 178.066 C 312.000 178.301,312.967 179.538,314.149 180.814 L 316.298 183.135 316.100 185.899 C 315.655 192.121,320.201 196.899,326.269 196.589 C 328.608 196.469,331.200 195.723,331.200 195.169 C 331.200 194.966,331.425 194.794,331.700 194.788 C 333.385 194.746,335.600 190.040,335.600 186.503 L 335.600 183.858 340.300 179.304 C 346.423 173.371,345.947 173.639,349.811 173.946 C 352.964 174.195,353.050 174.231,354.611 175.930 C 355.485 176.882,356.830 178.324,357.600 179.134 C 358.370 179.944,359.377 181.127,359.838 181.763 C 361.130 183.544,364.050 183.298,362.939 181.502 C 362.795 181.268,362.864 181.192,363.093 181.334 C 363.658 181.683,363.970 180.408,364.264 176.551 L 364.512 173.303 362.363 171.036 C 359.571 168.090,359.589 168.131,359.542 164.720 C 359.449 158.004,353.911 152.978,348.200 154.426 C 347.320 154.649,346.396 154.877,346.146 154.932 C 345.370 155.105,341.158 158.967,341.054 159.600 C 341.000 159.930,340.729 160.870,340.451 161.688 C 340.173 162.507,339.985 163.677,340.033 164.288 C 340.199 166.391,339.993 167.003,338.698 168.253 C 328.708 177.892,329.802 177.119,326.200 177.093 C 323.336 177.073,320.862 175.644,319.400 173.164 C 319.180 172.791,317.539 170.892,315.753 168.943 C 312.267 165.140,308.604 161.056,307.612 159.866 C 307.275 159.463,306.674 158.743,306.276 158.266 C 304.610 156.271,300.454 151.677,298.500 149.670 C 297.345 148.484,296.376 147.308,296.347 147.057 C 296.318 146.805,296.271 145.160,296.244 143.400 C 296.133 136.227,289.646 131.719,282.916 134.138 M288.083 138.816 C 293.623 140.355,291.047 148.833,285.363 147.767 C 281.309 147.006,280.722 140.641,284.551 138.975 C 286.081 138.309,286.232 138.302,288.083 138.816 M352.278 160.200 C 355.557 162.496,355.220 166.328,351.574 168.213 C 347.934 170.096,343.659 165.925,345.422 162.209 C 346.535 159.864,350.246 158.776,352.278 160.200 M327.346 182.552 C 330.540 183.886,331.474 187.655,329.169 189.909 C 326.946 192.082,323.859 191.810,322.059 189.284 C 319.546 185.754,323.366 180.889,327.346 182.552 M377.506 189.475 C 377.105 189.580,376.134 191.104,375.204 193.088 L 373.596 196.519 374.677 197.960 C 375.271 198.752,375.857 199.495,375.979 199.612 C 376.100 199.728,377.089 200.759,378.175 201.902 L 380.151 203.981 380.175 207.522 C 380.220 213.928,383.345 217.274,389.480 217.486 C 402.991 217.950,403.420 199.768,389.926 198.545 C 387.311 198.308,386.894 198.151,386.000 197.069 C 385.450 196.404,384.460 195.288,383.800 194.590 C 383.140 193.893,381.825 192.394,380.878 191.261 C 379.193 189.245,378.925 189.103,377.506 189.475 M392.404 204.266 C 395.950 206.361,394.276 212.716,390.160 212.786 C 386.631 212.845,384.016 208.579,385.857 205.769 C 387.222 203.686,390.247 202.992,392.404 204.266 M226.300 245.758 C 225.681 246.227,225.600 247.083,225.600 253.144 C 225.600 259.501,225.909 261.344,226.651 259.410 C 226.845 258.905,226.958 258.901,227.438 259.381 C 227.755 259.698,227.882 260.242,227.731 260.636 C 227.549 261.109,227.613 261.239,227.932 261.042 C 228.189 260.883,228.400 259.882,228.400 258.818 L 228.400 256.884 230.100 256.718 C 231.932 256.540,232.506 256.930,234.921 260.000 C 235.988 261.357,236.017 261.367,235.844 260.336 C 235.661 259.240,234.531 257.224,233.809 256.706 C 233.548 256.519,233.579 256.410,233.895 256.406 C 234.167 256.403,234.838 257.109,235.385 257.976 C 236.035 259.005,236.651 259.531,237.162 259.493 C 238.011 259.429,237.958 259.244,236.541 257.327 C 235.380 255.756,235.380 255.784,236.596 254.568 C 238.970 252.193,238.193 247.407,235.200 245.977 C 233.705 245.262,227.167 245.101,226.300 245.758 M241.043 245.833 C 240.530 247.169,240.730 259.987,241.273 260.530 C 241.899 261.156,250.800 261.370,250.800 260.759 C 250.800 260.562,250.524 260.400,250.186 260.400 C 249.687 260.400,249.656 260.243,250.018 259.566 C 250.666 258.356,250.303 258.209,246.671 258.204 L 243.400 258.200 243.278 256.300 L 243.156 254.400 246.878 254.368 C 248.925 254.351,250.330 254.237,250.000 254.115 C 248.547 253.577,248.315 253.074,249.273 252.543 C 250.096 252.086,249.864 252.026,247.200 252.008 C 243.495 251.983,243.108 251.762,243.272 249.759 L 243.400 248.200 246.997 248.083 C 248.975 248.019,250.732 247.795,250.900 247.586 C 251.069 247.378,251.091 247.289,250.951 247.389 C 250.524 247.694,249.200 246.809,249.200 246.219 C 249.200 245.915,249.425 245.580,249.700 245.475 C 249.975 245.370,248.187 245.284,245.726 245.285 C 242.317 245.287,241.202 245.417,241.043 245.833 M255.600 245.884 C 254.830 246.278,254.200 246.870,254.200 247.200 C 254.200 247.530,254.061 247.903,253.890 248.029 C 253.222 248.525,253.453 251.304,254.210 251.856 C 254.627 252.162,254.734 252.400,254.453 252.400 C 254.178 252.400,254.066 252.583,254.204 252.807 C 254.342 253.030,254.623 253.109,254.828 252.983 C 255.032 252.856,255.200 252.943,255.200 253.176 C 255.200 253.409,255.841 253.600,256.624 253.600 C 257.407 253.600,257.950 253.757,257.832 253.949 C 257.713 254.141,258.265 254.403,259.058 254.532 C 261.957 255.002,262.907 257.025,260.715 258.063 C 259.429 258.672,255.666 258.008,255.267 257.102 C 255.193 256.936,254.757 256.800,254.297 256.800 L 253.461 256.800 254.330 257.726 C 255.471 258.940,255.430 259.344,254.197 259.035 C 253.223 258.791,253.214 258.807,253.886 259.592 C 254.614 260.443,255.017 260.674,254.603 260.005 C 254.463 259.778,254.623 259.711,254.977 259.846 C 255.317 259.977,255.477 260.276,255.332 260.510 C 255.167 260.777,255.317 260.841,255.734 260.681 C 256.100 260.540,256.400 260.569,256.400 260.746 C 256.400 260.922,256.625 261.091,256.900 261.120 C 257.175 261.149,257.983 261.266,258.696 261.378 C 259.408 261.491,260.488 261.378,261.096 261.127 C 261.703 260.876,262.348 260.704,262.530 260.745 C 262.711 260.786,262.745 260.635,262.606 260.410 C 262.467 260.184,262.519 260.000,262.722 260.000 C 262.925 260.000,263.565 259.525,264.145 258.945 C 265.219 257.872,265.669 255.200,264.776 255.200 C 264.543 255.200,264.482 254.975,264.641 254.700 C 264.799 254.425,264.780 254.334,264.600 254.498 C 264.419 254.661,264.071 254.391,263.825 253.898 C 263.533 253.310,262.761 252.846,261.590 252.553 C 259.286 251.978,256.702 250.738,256.499 250.109 C 256.206 249.206,258.399 247.579,259.556 247.840 C 262.610 248.530,262.936 248.531,262.676 247.855 C 262.394 247.118,263.194 246.954,263.853 247.613 C 264.138 247.898,264.267 247.825,264.267 247.379 C 264.267 245.535,258.296 244.505,255.600 245.884 M267.950 245.389 C 267.923 245.505,267.875 245.735,267.844 245.900 C 267.813 246.065,267.668 246.388,267.521 246.617 C 267.375 246.847,267.255 249.249,267.255 251.956 C 267.255 254.663,267.153 256.981,267.028 257.106 C 266.701 257.432,266.758 259.719,267.106 260.240 C 268.072 261.687,275.738 262.280,276.808 260.990 C 277.492 260.166,277.105 259.880,274.883 259.570 L 273.000 259.307 275.500 259.253 C 276.875 259.224,278.000 259.019,278.000 258.799 C 278.000 258.550,276.705 258.453,274.600 258.543 C 270.488 258.719,269.890 258.408,270.071 256.184 L 270.200 254.600 273.536 254.483 C 276.193 254.390,276.829 254.253,276.659 253.809 C 276.541 253.503,276.660 253.164,276.922 253.057 C 277.263 252.919,277.249 252.854,276.876 252.832 C 276.588 252.814,276.464 252.620,276.600 252.400 C 276.858 251.982,276.555 251.923,273.600 251.816 C 269.860 251.681,270.000 251.751,270.000 250.014 C 270.000 247.967,270.851 247.492,274.203 247.667 L 276.738 247.800 276.880 246.575 L 277.022 245.351 272.511 245.265 C 270.030 245.217,267.978 245.273,267.950 245.389 M285.500 246.087 C 285.115 246.568,284.800 247.160,284.800 247.401 C 284.800 247.643,284.600 248.040,284.355 248.285 C 282.680 249.960,279.324 259.600,280.416 259.600 C 280.597 259.600,280.863 259.969,281.007 260.421 C 281.339 261.467,282.200 260.851,282.593 259.286 C 283.053 257.455,283.519 257.200,286.416 257.200 C 289.900 257.200,290.320 257.384,291.061 259.237 C 291.625 260.644,292.927 261.607,293.497 261.037 C 293.627 260.906,293.433 260.800,293.067 260.800 C 292.589 260.800,292.400 260.451,292.400 259.571 C 292.400 258.455,292.457 258.400,293.029 258.971 C 293.374 259.317,293.869 259.597,294.129 259.594 C 294.405 259.590,294.352 259.427,294.000 259.200 C 293.670 258.987,293.602 258.809,293.848 258.806 C 294.095 258.803,293.333 256.879,292.156 254.531 C 290.979 252.183,289.828 249.690,289.597 248.990 C 288.644 246.104,286.628 244.675,285.500 246.087 M296.800 245.766 C 296.800 246.115,296.648 246.400,296.462 246.400 C 296.276 246.400,296.141 249.100,296.162 252.400 C 296.183 255.700,296.065 258.400,295.900 258.400 C 295.735 258.400,295.614 258.805,295.632 259.300 C 295.649 259.795,295.754 259.975,295.865 259.700 C 295.976 259.425,296.307 259.200,296.600 259.200 C 296.893 259.200,297.224 258.975,297.335 258.700 C 297.462 258.384,297.548 258.442,297.568 258.857 C 297.611 259.737,298.673 260.107,298.967 259.343 C 299.095 259.009,299.090 258.301,298.956 257.768 C 298.383 255.485,302.724 256.454,304.563 259.019 C 305.423 260.219,306.323 261.186,306.563 261.168 C 306.856 261.147,306.849 261.075,306.542 260.949 C 305.571 260.551,306.418 259.314,307.518 259.525 L 308.575 259.727 307.888 258.663 C 305.850 255.511,305.927 255.870,307.025 254.687 C 309.175 252.368,308.506 247.505,305.846 246.113 C 304.018 245.156,296.800 244.880,296.800 245.766 M315.351 245.679 C 315.238 245.863,314.979 245.911,314.777 245.786 C 314.575 245.661,314.516 245.838,314.647 246.179 C 314.778 246.521,315.181 246.813,315.543 246.828 C 316.056 246.850,316.025 246.932,315.400 247.200 C 314.299 247.673,313.908 247.673,314.200 247.200 C 315.110 245.727,312.065 246.975,311.094 248.473 C 308.164 252.992,310.114 259.801,314.584 260.657 C 314.813 260.701,315.360 260.801,315.800 260.880 C 316.240 260.959,316.829 261.166,317.110 261.341 C 318.089 261.952,322.155 260.660,323.194 259.407 C 323.860 258.604,323.319 258.614,320.760 259.451 C 319.665 259.809,318.668 260.001,318.544 259.877 C 318.420 259.753,318.967 259.530,319.759 259.381 C 320.845 259.178,321.200 258.913,321.200 258.309 C 321.200 257.653,321.036 257.563,320.300 257.814 C 313.274 260.210,309.019 251.576,315.760 248.601 C 317.689 247.750,317.805 247.744,319.594 248.398 C 321.363 249.044,321.442 249.042,321.495 248.336 C 321.525 247.931,321.291 247.600,320.975 247.600 C 320.659 247.600,320.400 247.429,320.400 247.221 C 320.400 246.756,322.856 247.546,323.338 248.166 C 323.539 248.425,323.580 248.305,323.438 247.867 C 323.307 247.464,323.200 247.064,323.200 246.977 C 323.200 245.852,315.982 244.658,315.351 245.679 M337.605 246.179 C 337.058 246.482,336.457 246.635,336.269 246.519 C 336.081 246.403,335.989 247.490,336.064 248.934 L 336.200 251.560 333.671 251.829 C 329.462 252.279,328.624 251.836,328.480 249.084 C 328.364 246.876,328.325 246.804,327.380 247.041 C 326.759 247.197,326.400 247.116,326.400 246.820 C 326.400 246.563,326.228 246.459,326.018 246.589 C 325.721 246.772,325.688 254.788,325.967 259.114 C 325.992 259.503,326.194 259.524,326.800 259.200 C 327.342 258.910,327.600 258.905,327.600 259.186 C 327.600 259.414,327.864 259.600,328.187 259.600 C 328.649 259.600,328.755 259.069,328.687 257.100 L 328.600 254.600 332.300 254.485 L 336.000 254.370 336.000 256.971 C 336.000 259.174,336.124 259.638,336.811 260.006 C 337.260 260.246,337.498 260.641,337.345 260.888 C 337.193 261.135,337.543 260.991,338.123 260.568 L 339.177 259.800 339.167 252.700 C 339.161 248.795,339.031 245.606,338.878 245.614 C 338.725 245.622,338.152 245.876,337.605 246.179 M256.600 247.278 C 256.160 247.527,255.668 247.927,255.506 248.166 C 255.303 248.466,255.210 248.452,255.206 248.120 C 255.200 247.621,256.303 246.824,257.000 246.824 C 257.220 246.824,257.040 247.028,256.600 247.278 M236.038 248.471 C 236.354 249.062,236.356 249.220,236.042 249.026 C 235.801 248.877,235.405 248.384,235.162 247.929 C 234.846 247.338,234.844 247.180,235.158 247.374 C 235.399 247.523,235.795 248.016,236.038 248.471 M297.481 249.700 L 297.494 252.200 297.239 250.000 C 297.008 248.013,297.043 247.200,297.358 247.200 C 297.419 247.200,297.474 248.325,297.481 249.700 M232.800 248.124 C 232.800 248.302,232.944 248.358,233.119 248.250 C 233.718 247.880,235.600 249.987,235.600 251.028 C 235.600 252.657,231.695 254.277,229.309 253.639 C 228.279 253.364,228.178 252.823,228.373 248.627 C 228.409 247.863,232.800 247.364,232.800 248.124 M303.335 248.253 C 304.351 248.392,305.093 248.650,304.984 248.825 C 304.876 249.001,304.970 249.258,305.193 249.396 C 305.417 249.534,305.600 250.256,305.600 251.001 C 305.600 252.909,304.459 253.600,301.311 253.600 L 298.800 253.600 298.800 251.067 C 298.800 247.722,298.919 247.648,303.335 248.253 M287.985 251.970 C 289.304 254.582,289.257 254.659,286.463 254.465 L 284.521 254.331 285.261 252.881 C 285.667 252.083,286.000 251.139,286.000 250.782 C 286.000 250.195,286.333 249.600,286.661 249.600 C 286.731 249.600,287.327 250.666,287.985 251.970 M236.649 251.700 C 236.596 252.195,236.330 252.960,236.057 253.400 C 235.596 254.145,235.579 254.131,235.813 253.200 C 236.465 250.597,236.839 249.928,236.649 251.700 M255.797 251.605 C 255.658 251.830,256.095 252.119,256.782 252.256 C 257.461 252.392,258.114 252.660,258.232 252.852 C 258.532 253.338,258.188 253.289,256.587 252.620 C 255.283 252.075,254.689 251.200,255.624 251.200 C 255.857 251.200,255.935 251.382,255.797 251.605 M297.700 254.610 C 297.806 255.165,297.737 255.715,297.546 255.833 C 297.356 255.951,297.200 255.497,297.200 254.824 C 297.200 253.339,297.437 253.237,297.700 254.610 M313.805 258.728 C 313.534 258.999,312.425 257.999,311.926 257.033 C 311.600 256.401,311.798 256.483,312.744 257.371 C 313.430 258.015,313.908 258.625,313.805 258.728 M305.618 257.634 C 306.253 258.821,305.931 258.897,305.081 257.761 C 304.686 257.232,304.545 256.800,304.767 256.800 C 304.990 256.800,305.373 257.175,305.618 257.634 M251.544 259.010 C 251.794 259.532,251.794 260.067,251.546 260.510 C 251.334 260.890,251.253 261.200,251.366 261.200 C 252.045 261.200,252.319 259.648,251.762 258.955 C 251.177 258.226,251.169 258.228,251.544 259.010 " stroke="none" fill="#e58f5a" fill-rule="evenodd"></path><path id="path1" d="M326.000 132.580 C 321.177 133.468,313.211 136.729,310.560 138.902 C 309.922 139.424,308.741 140.250,307.936 140.736 C 306.459 141.628,301.600 146.551,301.600 147.155 C 301.600 147.335,302.866 148.945,304.414 150.733 L 307.229 153.985 309.810 151.249 C 325.484 134.633,353.504 138.683,363.725 159.043 C 372.198 175.920,365.234 196.193,348.292 203.970 C 326.244 214.092,300.800 198.280,300.800 174.455 L 300.800 171.276 297.171 167.232 C 292.990 162.575,293.095 162.587,292.359 166.687 C 287.092 196.029,313.914 221.598,343.200 215.153 C 349.194 213.834,348.429 213.402,351.434 219.800 C 352.880 222.880,354.426 226.210,354.869 227.200 C 355.709 229.079,356.591 230.986,359.400 237.000 C 360.325 238.980,361.492 241.500,361.994 242.600 C 363.378 245.632,365.573 250.348,366.705 252.724 C 369.580 258.760,379.540 261.053,384.204 256.753 C 389.397 251.967,389.689 244.950,384.962 238.536 C 381.769 234.202,379.884 231.606,374.558 224.200 C 369.130 216.652,368.336 215.556,365.431 211.600 C 364.220 209.950,362.918 208.027,362.538 207.327 L 361.847 206.054 364.624 203.126 C 392.708 173.513,366.245 125.177,326.000 132.580 M111.296 157.195 C 110.508 158.457,110.581 218.238,111.371 219.029 C 112.114 219.771,116.727 219.782,117.700 219.043 C 118.233 218.639,118.400 217.926,118.400 216.056 C 118.400 213.208,118.524 213.145,120.400 215.040 C 125.090 219.780,135.204 221.322,142.647 218.432 C 157.624 212.617,161.703 192.188,150.210 180.557 C 142.079 172.328,128.614 171.688,120.180 179.130 C 118.676 180.456,118.710 180.704,118.777 168.777 C 118.849 155.826,119.041 156.400,114.634 156.400 C 112.232 156.400,111.716 156.523,111.296 157.195 M18.800 159.858 C 7.855 162.008,2.385 168.011,2.875 177.338 C 3.342 186.238,7.856 189.634,24.800 193.832 C 34.952 196.347,38.077 198.684,38.125 203.797 C 38.221 214.020,18.448 216.518,6.945 207.737 C 4.647 205.983,4.153 206.103,2.544 208.800 C 0.848 211.642,0.879 211.911,3.119 213.712 C 16.385 224.378,41.645 221.026,45.414 208.100 C 48.709 196.799,43.071 190.744,25.034 186.214 C 11.848 182.903,8.064 178.932,11.561 172.077 C 14.289 166.729,27.213 164.525,34.267 168.204 C 34.890 168.529,35.607 168.796,35.859 168.798 C 36.112 168.799,37.102 169.248,38.059 169.795 C 40.857 171.394,41.295 171.221,42.745 167.938 C 43.440 166.364,43.962 165.030,43.905 164.974 C 40.376 161.528,25.615 158.520,18.800 159.858 M182.500 160.193 C 171.273 163.349,168.902 175.993,177.857 184.948 C 178.472 185.563,178.777 186.161,178.567 186.341 C 178.365 186.514,176.692 187.723,174.849 189.028 C 166.848 194.693,163.901 200.766,165.559 208.175 C 168.241 220.158,189.155 224.059,201.857 214.946 L 204.923 212.747 208.417 216.373 C 212.818 220.941,212.870 220.942,216.589 216.484 L 217.353 215.568 213.194 211.394 L 209.035 207.221 210.287 204.511 C 212.209 200.349,213.990 195.196,213.998 193.779 C 213.999 193.547,212.719 192.945,211.153 192.440 C 207.673 191.320,207.524 191.420,206.440 195.607 C 205.545 199.062,204.536 201.600,204.057 201.600 C 203.874 201.600,201.581 199.413,198.962 196.739 C 196.343 194.066,193.255 190.924,192.100 189.757 C 190.945 188.590,190.000 187.552,190.000 187.452 C 190.000 187.351,190.945 186.691,192.100 185.985 C 200.992 180.549,204.149 173.788,201.110 166.688 C 198.745 161.164,189.959 158.097,182.500 160.193 M246.845 160.218 C 216.572 166.786,214.354 209.246,243.800 218.528 C 253.934 221.723,264.905 219.986,273.071 213.893 C 276.689 211.194,276.736 210.907,274.011 208.210 C 271.445 205.671,271.714 205.675,268.600 208.139 C 260.735 214.361,247.818 214.251,239.400 207.891 C 228.802 199.883,227.791 182.769,237.361 173.400 C 245.610 165.324,259.968 164.530,268.952 171.652 C 271.481 173.657,271.815 173.617,274.396 171.004 L 276.565 168.808 275.189 167.389 C 269.059 161.064,257.004 158.014,246.845 160.218 M192.401 166.849 C 196.232 169.002,196.294 174.077,192.533 177.661 C 190.870 179.245,186.147 182.400,185.438 182.400 C 183.956 182.399,180.007 176.232,179.723 173.472 C 179.091 167.352,186.454 163.506,192.401 166.849 M70.918 174.590 C 56.972 178.507,50.100 193.978,56.454 207.149 C 63.082 220.886,83.829 224.507,94.275 213.750 C 95.928 212.047,95.934 212.124,93.966 209.652 C 92.115 207.327,91.330 207.142,89.721 208.650 C 82.448 215.462,68.987 213.932,64.190 205.747 C 62.758 203.303,62.968 203.062,67.052 202.457 C 69.004 202.168,71.230 201.779,72.000 201.593 C 73.669 201.190,77.325 200.462,79.000 200.199 C 79.660 200.096,81.460 199.750,83.000 199.430 C 84.540 199.110,87.330 198.562,89.200 198.211 C 91.070 197.860,93.905 197.291,95.500 196.946 L 98.400 196.320 98.400 194.814 C 98.400 181.598,83.916 170.939,70.918 174.590 M79.631 181.206 C 84.055 182.045,87.464 184.643,89.458 188.695 C 90.939 191.704,90.982 191.674,82.943 193.159 C 79.015 193.884,72.759 195.090,69.043 195.839 C 65.327 196.588,62.196 197.200,62.086 197.200 C 61.975 197.200,61.988 195.832,62.114 194.161 C 62.792 185.208,70.535 179.481,79.631 181.206 M138.553 181.579 C 149.989 184.232,152.792 203.540,142.709 210.213 C 132.961 216.664,120.394 211.282,118.846 199.994 C 117.090 187.184,126.163 178.705,138.553 181.579 M191.650 199.243 C 200.510 208.438,200.052 207.784,198.549 209.084 C 187.631 218.522,167.593 210.976,173.588 199.684 C 175.074 196.886,181.556 191.325,183.450 191.224 C 183.697 191.211,187.387 194.819,191.650 199.243 " stroke="none" fill="#fafafa" fill-rule="evenodd"></path><path id="path2" d="M333.600 131.600 L 331.000 131.862 333.924 131.931 C 335.787 131.975,336.758 131.855,336.600 131.600 C 336.464 131.380,336.318 131.231,336.276 131.269 C 336.234 131.307,335.030 131.456,333.600 131.600 M316.800 135.200 C 316.030 135.622,315.580 135.966,315.800 135.966 C 316.020 135.966,316.830 135.622,317.600 135.200 C 318.370 134.778,318.820 134.434,318.600 134.434 C 318.380 134.434,317.570 134.778,316.800 135.200 M309.400 139.450 C 308.681 140.062,308.534 140.305,309.033 140.057 C 309.766 139.693,311.141 138.376,310.749 138.414 C 310.667 138.422,310.060 138.888,309.400 139.450 M332.300 141.093 C 333.235 141.177,334.765 141.177,335.700 141.093 C 336.635 141.009,335.870 140.940,334.000 140.940 C 332.130 140.940,331.365 141.009,332.300 141.093 M343.000 142.400 C 343.440 142.589,344.070 142.744,344.400 142.744 C 344.778 142.744,344.704 142.617,344.200 142.400 C 343.760 142.211,343.130 142.056,342.800 142.056 C 342.422 142.056,342.496 142.183,343.000 142.400 M303.781 144.100 L 302.200 145.800 303.900 144.219 C 305.481 142.748,305.784 142.400,305.481 142.400 C 305.416 142.400,304.651 143.165,303.781 144.100 M363.200 143.325 C 363.200 143.394,363.785 143.979,364.500 144.625 L 365.800 145.800 364.625 144.500 C 363.530 143.288,363.200 143.016,363.200 143.325 M301.583 146.620 C 301.156 147.135,301.195 147.355,301.812 147.920 C 302.515 148.562,302.527 148.561,302.029 147.900 C 301.607 147.340,301.602 147.080,302.000 146.600 C 302.274 146.270,302.408 146.000,302.298 146.000 C 302.188 146.000,301.866 146.279,301.583 146.620 M357.000 150.400 C 358.306 151.720,359.465 152.800,359.575 152.800 C 359.685 152.800,358.706 151.720,357.400 150.400 C 356.094 149.080,354.935 148.000,354.825 148.000 C 354.715 148.000,355.694 149.080,357.000 150.400 M302.400 148.925 C 302.400 148.994,302.985 149.579,303.700 150.225 L 305.000 151.400 303.825 150.100 C 302.730 148.888,302.400 148.616,302.400 148.925 M308.975 152.100 L 307.800 153.400 309.100 152.225 C 309.815 151.579,310.400 150.994,310.400 150.925 C 310.400 150.616,310.070 150.888,308.975 152.100 M361.236 155.300 C 361.951 156.345,362.601 157.200,362.682 157.200 C 362.953 157.200,362.046 155.808,360.988 154.600 C 360.192 153.692,360.252 153.862,361.236 155.300 M372.278 156.195 C 372.644 156.962,373.014 157.519,373.101 157.432 C 373.284 157.249,372.070 154.800,371.796 154.800 C 371.695 154.800,371.912 155.428,372.278 156.195 M22.700 159.495 C 23.855 159.576,25.745 159.576,26.900 159.495 C 28.055 159.414,27.110 159.348,24.800 159.348 C 22.490 159.348,21.545 159.414,22.700 159.495 M186.900 159.487 C 187.505 159.578,188.495 159.578,189.100 159.487 C 189.705 159.395,189.210 159.320,188.000 159.320 C 186.790 159.320,186.295 159.395,186.900 159.487 M252.313 159.495 C 253.476 159.576,255.276 159.576,256.313 159.493 C 257.351 159.411,256.400 159.345,254.200 159.346 C 252.000 159.347,251.151 159.414,252.313 159.495 M198.000 162.525 C 198.000 162.594,198.585 163.179,199.300 163.825 L 200.600 165.000 199.425 163.700 C 198.330 162.488,198.000 162.216,198.000 162.525 M292.800 163.267 C 292.800 163.523,292.923 163.610,293.074 163.460 C 293.224 163.309,293.989 163.774,294.774 164.493 L 296.200 165.800 294.822 164.300 C 293.405 162.758,292.800 162.449,292.800 163.267 M6.800 165.400 C 5.828 166.390,5.123 167.200,5.233 167.200 C 5.343 167.200,6.228 166.390,7.200 165.400 C 8.172 164.410,8.877 163.600,8.767 163.600 C 8.657 163.600,7.772 164.410,6.800 165.400 M186.400 165.758 C 186.400 165.845,187.105 165.983,187.966 166.065 C 188.828 166.148,189.447 166.076,189.343 165.907 C 189.153 165.600,186.400 165.460,186.400 165.758 M274.800 167.000 C 275.546 167.770,276.247 168.400,276.357 168.400 C 276.467 168.400,275.946 167.770,275.200 167.000 C 274.454 166.230,273.753 165.600,273.643 165.600 C 273.533 165.600,274.054 166.230,274.800 167.000 M20.400 166.753 C 19.630 166.889,21.501 167.000,24.558 167.000 C 27.851 167.000,29.481 166.887,28.558 166.723 C 26.696 166.392,22.351 166.408,20.400 166.753 M252.300 167.095 C 253.455 167.176,255.345 167.176,256.500 167.095 C 257.655 167.014,256.710 166.948,254.400 166.948 C 252.090 166.948,251.145 167.014,252.300 167.095 M296.800 166.925 C 296.800 166.994,297.385 167.579,298.100 168.225 L 299.400 169.400 298.225 168.100 C 297.130 166.888,296.800 166.616,296.800 166.925 M291.693 169.600 C 291.693 170.370,291.775 170.685,291.876 170.300 C 291.976 169.915,291.976 169.285,291.876 168.900 C 291.775 168.515,291.693 168.830,291.693 169.600 M179.714 172.600 C 179.717 173.700,179.795 174.103,179.887 173.495 C 179.979 172.886,179.977 171.986,179.882 171.495 C 179.787 171.003,179.711 171.500,179.714 172.600 M172.114 173.000 C 172.117 174.100,172.195 174.503,172.287 173.895 C 172.379 173.286,172.377 172.386,172.282 171.895 C 172.187 171.403,172.111 171.900,172.114 173.000 M236.981 173.700 L 235.400 175.400 237.100 173.819 C 238.681 172.348,238.984 172.000,238.681 172.000 C 238.616 172.000,237.851 172.765,236.981 173.700 M291.301 174.200 C 291.305 175.080,291.387 175.393,291.483 174.895 C 291.579 174.398,291.575 173.678,291.475 173.295 C 291.375 172.913,291.296 173.320,291.301 174.200 M2.534 176.400 C 2.534 178.050,2.605 178.725,2.691 177.900 C 2.778 177.075,2.778 175.725,2.691 174.900 C 2.605 174.075,2.534 174.750,2.534 176.400 M66.800 175.800 C 66.250 176.114,65.980 176.372,66.200 176.372 C 66.420 176.372,67.050 176.114,67.600 175.800 C 68.150 175.486,68.420 175.228,68.200 175.228 C 67.980 175.228,67.350 175.486,66.800 175.800 M150.000 180.200 C 150.746 180.970,151.447 181.600,151.557 181.600 C 151.667 181.600,151.146 180.970,150.400 180.200 C 149.654 179.430,148.953 178.800,148.843 178.800 C 148.733 178.800,149.254 179.430,150.000 180.200 M91.200 179.325 C 91.200 179.394,91.785 179.979,92.500 180.625 L 93.800 181.800 92.625 180.500 C 91.530 179.288,91.200 179.016,91.200 179.325 M75.900 181.082 C 76.395 181.178,77.205 181.178,77.700 181.082 C 78.195 180.987,77.790 180.909,76.800 180.909 C 75.810 180.909,75.405 180.987,75.900 181.082 M96.028 185.800 C 96.028 186.020,96.286 186.650,96.600 187.200 C 96.914 187.750,97.172 188.020,97.172 187.800 C 97.172 187.580,96.914 186.950,96.600 186.400 C 96.286 185.850,96.028 185.580,96.028 185.800 M63.381 188.837 C 63.029 189.518,62.812 190.145,62.899 190.232 C 62.986 190.319,63.356 189.762,63.722 188.995 C 64.544 187.270,64.259 187.138,63.381 188.837 M294.428 189.800 C 294.428 190.020,294.686 190.650,295.000 191.200 C 295.314 191.750,295.572 192.020,295.572 191.800 C 295.572 191.580,295.314 190.950,295.000 190.400 C 294.686 189.850,294.428 189.580,294.428 189.800 M194.000 191.710 C 194.000 191.771,195.395 193.166,197.100 194.810 L 200.200 197.800 197.210 194.700 C 194.433 191.821,194.000 191.417,194.000 191.710 M188.600 196.400 C 189.683 197.500,190.660 198.400,190.770 198.400 C 190.880 198.400,190.083 197.500,189.000 196.400 C 187.917 195.300,186.940 194.400,186.830 194.400 C 186.720 194.400,187.517 195.300,188.600 196.400 M310.400 197.400 C 311.595 198.610,312.663 199.600,312.773 199.600 C 312.883 199.600,311.995 198.610,310.800 197.400 C 309.605 196.190,308.537 195.200,308.427 195.200 C 308.317 195.200,309.205 196.190,310.400 197.400 M297.838 196.400 C 298.311 197.429,301.784 201.980,302.105 201.990 C 302.272 201.996,301.642 201.052,300.705 199.894 C 299.767 198.736,298.677 197.341,298.281 196.794 C 297.886 196.247,297.687 196.070,297.838 196.400 M81.680 199.595 C 80.954 199.767,80.247 200.020,80.109 200.158 C 79.812 200.455,82.254 200.015,83.400 199.565 C 84.420 199.164,83.424 199.182,81.680 199.595 M224.628 201.200 C 224.772 201.750,225.050 202.371,225.245 202.580 C 225.816 203.191,225.641 202.314,224.969 201.200 L 224.367 200.200 224.628 201.200 M46.114 203.400 C 46.117 204.500,46.195 204.903,46.287 204.295 C 46.379 203.686,46.377 202.786,46.282 202.295 C 46.187 201.803,46.111 202.300,46.114 203.400 M363.986 203.900 L 361.800 206.200 364.100 204.014 C 365.365 202.811,366.400 201.776,366.400 201.714 C 366.400 201.417,366.018 201.763,363.986 203.900 M164.924 204.200 C 164.926 205.520,165.001 206.012,165.090 205.293 C 165.179 204.574,165.177 203.494,165.086 202.893 C 164.995 202.292,164.922 202.880,164.924 204.200 M302.400 202.525 C 302.400 202.594,302.985 203.179,303.700 203.825 L 305.000 205.000 303.825 203.700 C 302.730 202.488,302.400 202.216,302.400 202.525 M63.338 203.417 C 63.208 203.757,63.213 204.147,63.351 204.284 C 63.488 204.421,63.600 204.246,63.600 203.894 C 63.600 203.543,64.005 203.178,64.500 203.082 L 65.400 202.909 64.487 202.854 C 63.986 202.825,63.468 203.078,63.338 203.417 M320.615 204.341 C 321.104 204.785,323.678 205.655,323.887 205.447 C 323.973 205.361,323.186 204.998,322.137 204.640 C 321.089 204.283,320.404 204.148,320.615 204.341 M146.439 205.824 C 145.977 206.607,145.780 207.136,146.002 206.999 C 146.436 206.731,147.734 204.400,147.450 204.400 C 147.356 204.400,146.901 205.041,146.439 205.824 M305.233 205.300 C 305.325 205.355,305.940 205.850,306.600 206.400 L 307.800 207.400 306.830 206.300 C 306.297 205.695,305.682 205.200,305.464 205.200 C 305.245 205.200,305.142 205.245,305.233 205.300 M274.000 208.200 C 275.195 209.410,276.263 210.400,276.373 210.400 C 276.483 210.400,275.595 209.410,274.400 208.200 C 273.205 206.990,272.137 206.000,272.027 206.000 C 271.917 206.000,272.805 206.990,274.000 208.200 M209.232 206.811 C 209.214 207.147,210.505 208.677,212.100 210.211 L 215.000 213.000 212.346 210.200 C 210.887 208.660,209.596 207.130,209.478 206.800 C 209.290 206.274,209.259 206.275,209.232 206.811 M332.311 207.093 C 333.251 207.178,334.691 207.177,335.511 207.091 C 336.330 207.005,335.560 206.936,333.800 206.937 C 332.040 206.939,331.370 207.009,332.311 207.093 M123.200 209.000 C 123.946 209.770,124.647 210.400,124.757 210.400 C 124.867 210.400,124.346 209.770,123.600 209.000 C 122.854 208.230,122.153 207.600,122.043 207.600 C 121.933 207.600,122.454 208.230,123.200 209.000 M42.783 212.900 C 42.040 213.835,41.748 214.346,42.135 214.036 C 42.863 213.451,44.577 211.200,44.294 211.200 C 44.206 211.200,43.526 211.965,42.783 212.900 M167.133 212.209 C 167.586 213.131,171.783 217.201,172.276 217.197 C 172.454 217.196,171.751 216.467,170.714 215.578 C 169.677 214.689,168.357 213.385,167.782 212.681 C 167.206 211.976,166.914 211.764,167.133 212.209 M180.600 212.781 C 181.368 213.129,183.510 213.356,183.167 213.053 C 183.075 212.972,182.280 212.796,181.400 212.662 C 180.285 212.493,180.042 212.529,180.600 212.781 M189.400 212.800 C 188.311 213.077,188.293 213.107,189.200 213.125 C 189.750 213.135,190.560 212.989,191.000 212.800 C 191.986 212.376,191.066 212.376,189.400 212.800 M252.711 212.693 C 253.651 212.778,255.091 212.777,255.911 212.691 C 256.730 212.605,255.960 212.536,254.200 212.537 C 252.440 212.539,251.770 212.609,252.711 212.693 M22.291 213.089 C 23.001 213.177,24.261 213.179,25.091 213.092 C 25.921 213.005,25.340 212.933,23.800 212.931 C 22.260 212.929,21.581 213.000,22.291 213.089 M206.600 214.800 C 207.459 215.680,208.252 216.400,208.362 216.400 C 208.472 216.400,207.859 215.680,207.000 214.800 C 206.141 213.920,205.348 213.200,205.238 213.200 C 205.128 213.200,205.741 213.920,206.600 214.800 M62.782 215.378 C 63.090 215.749,63.895 216.334,64.571 216.677 C 66.095 217.452,65.852 217.167,63.800 215.774 C 62.932 215.185,62.474 215.007,62.782 215.378 M120.598 215.537 C 121.034 216.052,121.753 216.659,122.196 216.886 C 123.045 217.321,122.921 217.187,121.003 215.594 C 119.848 214.635,119.834 214.633,120.598 215.537 M147.200 216.060 C 146.430 216.735,146.162 217.105,146.604 216.881 C 147.335 216.511,149.147 214.778,148.762 214.816 C 148.673 214.825,147.970 215.385,147.200 216.060 M5.611 215.813 C 6.013 216.298,8.400 217.332,8.400 217.021 C 8.400 216.945,7.674 216.525,6.788 216.086 C 5.887 215.640,5.367 215.520,5.611 215.813 M269.500 216.229 C 268.005 217.040,268.096 217.378,269.600 216.600 C 270.260 216.259,270.800 215.894,270.800 215.790 C 270.800 215.532,270.757 215.547,269.500 216.229 M327.740 216.094 C 328.301 216.452,339.432 216.423,340.728 216.060 C 341.238 215.917,338.421 215.800,334.468 215.800 C 330.515 215.800,327.487 215.932,327.740 216.094 M213.780 219.561 C 213.571 219.760,213.040 220.009,212.600 220.115 C 211.841 220.297,211.844 220.310,212.651 220.354 C 213.119 220.379,213.726 220.130,214.000 219.800 C 214.543 219.146,214.391 218.981,213.780 219.561 M183.900 220.289 C 184.615 220.378,185.785 220.378,186.500 220.289 C 187.215 220.201,186.630 220.128,185.200 220.128 C 183.770 220.128,183.185 220.201,183.900 220.289 M352.400 222.549 C 352.400 222.981,353.989 226.000,354.216 226.000 C 354.326 226.000,354.030 225.235,353.559 224.300 C 352.632 222.461,352.400 222.111,352.400 222.549 M360.434 239.800 C 360.434 240.020,360.778 240.830,361.200 241.600 C 361.622 242.370,361.966 242.820,361.966 242.600 C 361.966 242.380,361.622 241.570,361.200 240.800 C 360.778 240.030,360.434 239.580,360.434 239.800 M388.509 246.400 C 388.509 247.390,388.587 247.795,388.682 247.300 C 388.778 246.805,388.778 245.995,388.682 245.500 C 388.587 245.005,388.509 245.410,388.509 246.400 M384.575 256.500 L 383.400 257.800 384.700 256.625 C 385.415 255.979,386.000 255.394,386.000 255.325 C 386.000 255.016,385.670 255.288,384.575 256.500 M250.000 259.800 C 250.000 260.130,250.180 260.400,250.400 260.400 C 250.620 260.400,250.800 260.130,250.800 259.800 C 250.800 259.470,250.620 259.200,250.400 259.200 C 250.180 259.200,250.000 259.470,250.000 259.800 " stroke="none" fill="#c4b6af" fill-rule="evenodd"></path><path id="path3" d="M255.900 247.232 C 255.515 247.456,255.203 247.856,255.206 248.120 C 255.210 248.452,255.303 248.466,255.506 248.166 C 255.668 247.927,256.160 247.527,256.600 247.278 C 257.040 247.028,257.220 246.824,257.000 246.824 C 256.780 246.824,256.285 247.008,255.900 247.232 M314.200 247.200 C 313.908 247.673,314.299 247.673,315.400 247.200 C 316.171 246.869,316.169 246.855,315.324 246.828 C 314.842 246.813,314.336 246.980,314.200 247.200 M320.400 247.191 C 320.400 247.365,320.760 247.601,321.200 247.716 C 321.640 247.831,322.000 247.783,322.000 247.609 C 322.000 247.435,321.640 247.199,321.200 247.084 C 320.760 246.969,320.400 247.017,320.400 247.191 M235.162 247.929 C 235.405 248.384,235.801 248.877,236.042 249.026 C 236.356 249.220,236.354 249.062,236.038 248.471 C 235.795 248.016,235.399 247.523,235.158 247.374 C 234.844 247.180,234.846 247.338,235.162 247.929 M297.115 247.500 C 297.043 247.665,297.098 248.790,297.239 250.000 L 297.494 252.200 297.481 249.700 C 297.469 247.290,297.397 246.858,297.115 247.500 M236.259 251.500 C 235.563 253.994,235.537 254.240,236.057 253.400 C 236.527 252.641,236.911 250.800,236.600 250.800 C 236.520 250.800,236.366 251.115,236.259 251.500 M255.200 251.620 C 255.200 251.981,257.523 253.200,258.211 253.200 C 258.939 253.200,257.827 252.465,256.782 252.256 C 256.095 252.119,255.658 251.830,255.797 251.605 C 255.935 251.382,255.857 251.200,255.624 251.200 C 255.391 251.200,255.200 251.389,255.200 251.620 M297.200 254.824 C 297.200 255.497,297.356 255.951,297.546 255.833 C 297.869 255.634,297.693 253.600,297.353 253.600 C 297.269 253.600,297.200 254.151,297.200 254.824 M233.830 256.670 C 234.067 256.851,234.601 257.585,235.016 258.300 C 235.432 259.015,235.916 259.600,236.092 259.600 C 236.605 259.600,234.601 256.663,233.972 256.493 C 233.605 256.394,233.554 256.457,233.830 256.670 M311.926 257.033 C 312.425 257.999,313.534 258.999,313.805 258.728 C 313.908 258.625,313.430 258.015,312.744 257.371 C 311.798 256.483,311.600 256.401,311.926 257.033 M305.081 257.761 C 305.477 258.289,305.860 258.665,305.932 258.595 C 306.182 258.356,305.172 256.800,304.767 256.800 C 304.545 256.800,304.686 257.232,305.081 257.761 M321.200 258.706 C 321.200 258.900,320.525 259.260,319.700 259.505 L 318.200 259.950 319.600 259.729 C 321.433 259.440,322.251 259.002,321.651 258.632 C 321.403 258.478,321.200 258.512,321.200 258.706 M273.233 259.347 C 273.620 259.687,277.200 259.871,277.200 259.551 C 277.200 259.358,276.270 259.200,275.133 259.200 C 273.997 259.200,273.142 259.266,273.233 259.347 " stroke="none" fill="#f5ac7c" fill-rule="evenodd"></path><path id="path4" d="M328.600 131.256 C 326.840 131.449,325.040 131.781,324.600 131.994 C 324.160 132.207,322.270 132.768,320.400 133.240 C 318.530 133.712,316.868 134.302,316.706 134.549 C 316.544 134.797,316.409 134.854,316.406 134.676 C 316.398 134.265,311.110 137.102,310.710 137.732 C 310.546 137.989,310.409 138.053,310.406 137.873 C 310.400 137.539,308.124 138.969,307.400 139.762 C 307.180 140.003,306.004 141.036,304.786 142.058 C 303.568 143.079,302.222 144.564,301.795 145.358 C 301.368 146.151,300.879 146.800,300.709 146.800 C 299.719 146.800,305.537 154.079,306.741 154.346 C 307.463 154.507,307.280 154.253,304.333 151.013 C 303.526 150.126,302.477 148.904,302.001 148.297 L 301.137 147.194 302.326 145.697 C 308.749 137.606,322.351 131.609,334.300 131.601 C 335.235 131.601,336.000 131.420,336.000 131.200 C 336.000 130.735,333.156 130.756,328.600 131.256 M336.528 131.483 C 336.668 131.710,338.069 132.022,339.641 132.177 C 373.733 135.536,388.527 178.578,364.286 203.882 L 361.909 206.363 365.623 211.482 C 372.175 220.509,380.147 231.533,382.000 234.128 C 382.990 235.515,384.719 237.935,385.843 239.506 C 388.518 243.247,389.080 245.231,388.443 248.686 C 386.857 257.296,381.402 260.843,373.501 258.402 C 368.630 256.898,367.653 255.607,361.991 243.200 C 357.456 233.264,355.058 228.066,353.594 225.000 C 352.753 223.240,351.243 220.025,350.237 217.856 C 348.800 214.755,348.270 213.964,347.761 214.159 C 337.685 218.026,324.063 216.808,313.600 211.106 C 296.974 202.043,288.395 183.401,292.446 165.139 C 293.096 162.210,292.920 162.168,296.443 166.100 C 298.069 167.915,299.715 169.749,300.100 170.175 C 300.615 170.745,300.802 171.646,300.808 173.575 C 300.891 201.092,332.143 216.660,354.141 200.144 C 372.677 186.227,371.161 158.255,351.200 145.901 C 338.102 137.796,319.178 140.497,309.484 151.857 C 306.875 154.915,307.512 155.158,310.373 152.196 C 313.624 148.832,316.839 146.502,319.529 145.565 C 320.228 145.321,320.800 144.977,320.800 144.800 C 320.800 144.234,326.457 142.736,330.292 142.288 C 335.760 141.648,344.680 142.924,346.848 144.657 C 347.152 144.900,348.249 145.468,349.287 145.921 C 353.554 147.781,359.526 153.141,361.212 156.625 C 361.692 157.616,362.310 158.653,362.586 158.929 C 364.187 160.530,366.089 168.688,366.025 173.685 C 365.960 178.855,364.194 186.920,362.746 188.665 C 362.502 188.959,362.459 189.203,362.651 189.206 C 362.843 189.209,362.808 189.344,362.574 189.506 C 361.960 189.929,359.600 193.466,359.600 193.963 C 359.600 194.193,359.136 194.685,358.570 195.057 C 358.003 195.428,357.123 196.344,356.615 197.093 C 351.506 204.610,334.435 208.062,322.539 203.982 C 317.933 202.402,308.400 195.365,308.400 193.545 C 308.400 193.355,308.209 193.200,307.976 193.200 C 307.743 193.200,307.657 193.031,307.785 192.825 C 307.912 192.618,307.698 192.264,307.308 192.037 C 306.919 191.810,306.722 191.619,306.871 191.612 C 307.020 191.605,306.518 190.565,305.757 189.300 C 303.548 185.632,302.371 181.329,302.119 176.000 C 301.885 171.058,301.307 169.412,299.355 168.134 C 298.830 167.790,298.400 167.299,298.400 167.043 C 298.400 166.787,297.905 166.127,297.300 165.576 C 296.695 165.025,295.837 164.063,295.394 163.437 C 294.645 162.380,292.806 161.861,292.146 162.520 C 290.277 164.390,290.620 182.342,292.607 186.569 C 292.925 187.246,293.553 188.877,294.003 190.194 C 300.420 208.965,322.929 220.625,344.200 216.196 C 345.960 215.830,347.576 215.501,347.791 215.465 C 348.241 215.390,350.764 220.002,351.979 223.124 C 352.434 224.292,353.885 227.479,355.203 230.207 C 356.521 232.934,357.600 235.416,357.600 235.722 C 357.600 236.027,357.961 236.693,358.402 237.202 C 358.842 237.710,359.379 238.778,359.593 239.575 C 359.808 240.372,360.252 241.379,360.579 241.812 C 360.907 242.246,361.181 242.870,361.188 243.200 C 361.196 243.530,361.934 245.222,362.829 246.961 C 363.724 248.699,364.816 251.082,365.255 252.256 C 365.694 253.430,366.271 254.528,366.537 254.695 C 366.802 254.863,367.308 255.455,367.660 256.010 C 368.013 256.566,368.998 257.358,369.850 257.769 C 370.703 258.181,371.694 258.659,372.053 258.833 C 374.608 260.066,380.634 260.130,383.448 258.954 C 388.678 256.769,391.408 245.083,387.732 240.617 C 387.181 239.948,386.207 238.590,385.567 237.600 C 384.927 236.610,383.601 234.810,382.618 233.600 C 381.636 232.390,380.825 231.197,380.816 230.949 C 380.807 230.701,380.501 230.251,380.135 229.949 C 379.770 229.647,378.689 228.230,377.734 226.800 C 374.941 222.618,372.394 219.075,371.405 218.000 C 370.899 217.450,369.839 215.977,369.048 214.726 C 368.257 213.476,367.430 212.342,367.211 212.207 C 366.704 211.893,363.600 206.688,363.600 206.152 C 363.600 205.931,364.670 204.656,365.978 203.319 C 368.803 200.433,372.736 194.585,373.730 191.793 C 374.121 190.697,374.787 188.900,375.210 187.800 C 378.273 179.846,378.090 167.350,374.791 159.244 C 374.136 157.634,373.600 156.089,373.600 155.811 C 373.600 153.977,366.171 144.581,361.667 140.716 C 359.030 138.454,351.758 134.109,351.328 134.539 C 351.205 134.661,350.878 134.535,350.600 134.257 C 350.323 133.980,348.589 133.418,346.748 133.009 C 344.906 132.600,343.201 132.115,342.959 131.932 C 342.271 131.414,336.224 130.991,336.528 131.483 M297.037 148.200 C 297.397 148.750,297.883 149.200,298.116 149.200 C 298.349 149.200,298.117 148.750,297.600 148.200 C 297.083 147.650,296.598 147.200,296.521 147.200 C 296.444 147.200,296.676 147.650,297.037 148.200 M301.600 152.893 C 301.600 153.026,302.350 153.914,303.266 154.867 C 304.183 155.820,304.738 156.240,304.501 155.800 C 304.033 154.934,301.600 152.495,301.600 152.893 M344.122 155.766 C 343.505 156.297,343.103 156.835,343.229 156.962 C 343.355 157.088,343.974 156.654,344.604 155.996 C 345.981 154.559,345.688 154.419,344.122 155.766 M111.896 155.467 C 109.542 155.866,109.599 155.051,109.613 188.280 C 109.628 223.563,109.132 220.129,114.239 220.342 C 118.407 220.516,119.200 220.036,119.200 217.342 L 119.200 215.607 121.144 216.804 C 122.214 217.462,123.281 218.000,123.516 218.000 C 123.751 218.000,124.241 218.299,124.606 218.663 C 127.765 221.822,140.435 221.409,145.890 217.970 C 147.260 217.107,148.550 216.400,148.757 216.400 C 150.230 216.400,155.056 209.470,155.999 206.000 C 156.268 205.010,156.693 203.766,156.944 203.237 C 157.605 201.840,157.566 190.322,156.900 190.100 C 156.625 190.008,156.400 189.584,156.400 189.158 C 156.400 186.340,152.356 180.542,147.992 177.103 C 141.170 171.726,125.072 172.071,120.381 177.696 C 119.638 178.586,119.626 178.439,119.613 167.944 C 119.597 154.747,119.269 154.217,111.896 155.467 M292.162 156.342 C 292.581 156.814,293.087 157.200,293.286 157.200 C 293.849 157.200,293.250 156.454,292.278 155.944 C 291.406 155.487,291.405 155.490,292.162 156.342 M118.320 156.880 C 118.671 157.231,118.800 160.416,118.800 168.711 L 118.800 180.062 120.418 178.677 C 127.463 172.647,139.259 172.249,147.336 177.768 C 159.388 186.004,160.161 205.496,148.816 215.090 C 141.305 221.442,127.220 221.659,120.565 215.525 C 118.435 213.562,118.400 213.574,118.400 216.320 C 118.400 219.308,118.062 219.600,114.600 219.600 C 112.924 219.600,111.563 219.403,111.280 219.120 C 110.585 218.425,110.585 157.575,111.280 156.880 C 111.921 156.239,117.679 156.239,118.320 156.880 M19.800 158.829 C 16.306 159.305,12.800 160.297,12.800 160.811 C 12.800 161.025,12.526 161.200,12.192 161.200 C 11.858 161.200,10.871 161.650,10.000 162.200 C 9.129 162.750,8.247 163.200,8.042 163.200 C 7.836 163.200,7.069 163.965,6.338 164.900 C 5.607 165.835,4.605 167.044,4.112 167.588 C 1.143 170.858,1.212 181.058,4.228 184.774 C 6.318 187.350,7.738 188.800,8.171 188.800 C 8.434 188.800,9.042 189.166,9.522 189.613 C 11.091 191.075,14.305 192.195,25.600 195.217 C 34.789 197.675,37.200 199.416,37.200 203.593 C 37.200 210.052,27.814 213.980,18.000 211.626 C 14.390 210.761,9.001 208.211,6.920 206.383 C 4.625 204.369,3.203 205.063,1.311 209.120 C -0.256 212.482,1.562 214.987,7.168 217.190 C 8.360 217.658,10.070 218.375,10.968 218.782 C 22.162 223.857,41.203 219.871,44.822 211.694 C 45.137 210.982,45.508 210.400,45.646 210.400 C 46.792 210.400,47.358 201.505,46.397 198.587 C 45.504 195.877,42.881 192.297,40.863 191.034 C 36.071 188.035,36.256 188.100,21.407 184.166 C 13.911 182.179,11.381 179.919,11.691 175.487 C 12.237 167.692,26.181 164.715,36.500 170.191 C 40.901 172.526,42.115 172.219,43.564 168.400 C 44.817 165.101,43.858 162.400,41.434 162.400 C 41.336 162.400,40.093 161.862,38.671 161.204 C 33.959 159.023,25.861 158.004,19.800 158.829 M249.600 158.835 C 245.100 159.333,244.232 159.623,237.262 162.967 C 226.596 168.083,218.689 185.723,222.367 196.200 C 222.599 196.860,223.183 198.728,223.666 200.350 C 225.701 207.193,232.645 214.916,239.041 217.449 C 240.559 218.050,242.160 218.766,242.600 219.041 C 246.548 221.507,261.362 221.364,266.376 218.811 C 267.159 218.413,268.970 217.523,270.400 216.834 C 273.534 215.324,277.200 212.013,277.200 210.693 C 277.200 210.105,276.368 208.952,274.888 207.487 C 272.188 204.815,271.112 204.603,269.114 206.348 C 256.526 217.343,236.618 211.408,232.527 195.440 C 227.053 174.070,252.722 158.676,269.514 173.259 C 271.379 174.879,272.033 174.714,274.771 171.933 C 277.477 169.184,277.694 168.406,276.122 167.097 C 275.529 166.604,274.584 165.750,274.022 165.200 C 272.801 164.005,272.094 163.557,269.200 162.143 C 267.990 161.552,266.910 160.942,266.800 160.787 C 266.399 160.224,261.993 159.193,258.342 158.808 C 254.160 158.368,253.823 158.369,249.600 158.835 M181.691 159.446 C 180.530 159.761,179.225 160.375,178.791 160.809 C 178.356 161.244,177.767 161.600,177.481 161.600 C 176.826 161.600,174.000 164.465,174.000 165.129 C 174.000 165.402,173.731 165.728,173.403 165.854 C 169.604 167.312,172.657 183.389,177.052 185.075 C 177.717 185.331,177.785 186.400,177.136 186.400 C 176.061 186.400,168.853 192.444,167.155 194.769 C 161.398 202.653,163.862 213.545,172.303 217.526 C 173.679 218.175,175.029 218.886,175.303 219.104 C 180.109 222.948,197.889 220.350,203.615 214.967 L 204.630 214.013 208.006 217.406 C 212.529 221.953,213.979 221.996,216.756 217.668 C 218.341 215.199,218.196 214.872,213.435 210.133 C 211.524 208.229,210.124 206.566,210.326 206.436 C 211.013 205.994,212.273 203.007,213.212 199.600 C 213.727 197.730,214.295 196.029,214.474 195.820 C 214.992 195.216,214.852 192.941,214.267 192.456 C 212.097 190.655,206.400 190.551,206.400 192.311 C 206.400 192.712,206.247 193.211,206.059 193.420 C 205.871 193.629,205.494 194.700,205.221 195.800 C 204.565 198.439,203.969 200.000,203.618 200.000 C 203.461 200.000,202.875 199.505,202.315 198.900 C 201.755 198.295,199.576 196.000,197.472 193.800 C 195.368 191.600,193.258 189.298,192.782 188.684 L 191.917 187.569 192.979 186.584 C 193.563 186.043,194.136 185.600,194.251 185.600 C 195.793 185.600,200.664 180.431,202.170 177.197 C 204.495 172.201,201.831 161.600,198.251 161.600 C 198.031 161.600,197.457 161.230,196.975 160.777 C 194.985 158.907,186.420 158.161,181.691 159.446 M32.419 160.187 C 39.730 161.837,44.252 164.136,43.795 165.970 C 42.745 170.190,40.851 171.743,38.530 170.289 C 29.740 164.780,14.528 166.065,11.437 172.578 C 8.312 179.165,13.017 183.401,27.000 186.591 C 43.736 190.409,50.052 198.994,44.593 210.507 C 39.525 221.198,15.921 223.634,4.148 214.680 C 0.541 211.937,0.608 212.135,2.236 209.070 C 3.833 206.062,4.509 205.789,6.562 207.327 C 16.718 214.937,35.378 214.425,37.585 206.477 C 39.495 199.602,36.330 196.872,22.418 193.394 C 11.510 190.666,5.494 187.283,3.947 183.005 C 3.668 182.232,3.335 181.600,3.207 181.600 C 2.840 181.600,2.628 179.670,2.614 176.198 C 2.561 163.727,16.036 156.489,32.419 160.187 M193.460 160.183 C 205.688 163.887,205.380 177.524,192.885 185.673 C 189.832 187.664,189.309 186.585,197.304 194.794 L 204.008 201.678 205.005 199.501 C 205.553 198.304,206.208 196.261,206.461 194.962 C 207.175 191.282,207.836 190.962,211.800 192.375 C 214.587 193.369,214.253 197.069,210.744 204.089 C 209.228 207.121,209.079 206.714,213.400 211.324 C 217.850 216.071,217.692 215.496,215.300 218.223 C 212.837 221.032,212.806 221.025,208.600 216.800 C 204.447 212.627,204.841 212.759,202.456 214.745 C 191.867 223.559,171.801 221.426,166.399 210.913 C 162.303 202.940,165.785 194.805,176.300 187.779 C 178.741 186.148,178.734 186.169,177.298 184.600 C 172.627 179.495,170.901 173.023,172.939 168.251 C 173.302 167.399,173.600 166.622,173.600 166.524 C 173.600 165.950,175.995 163.367,177.465 162.356 C 181.781 159.386,188.027 158.538,193.460 160.183 M260.292 159.832 C 266.609 161.136,271.260 163.371,275.100 166.947 C 276.786 168.516,276.753 168.742,274.517 170.978 C 271.613 173.882,271.685 173.877,268.343 171.410 C 260.879 165.901,248.004 165.706,240.594 170.990 C 227.584 180.269,227.556 199.326,240.540 208.444 C 248.620 214.118,261.580 213.740,268.944 207.616 C 271.429 205.549,271.747 205.577,274.287 208.086 C 276.923 210.689,276.924 210.664,273.900 213.386 C 264.840 221.538,246.813 222.400,236.126 215.193 C 214.284 200.463,220.015 166.856,245.465 160.432 C 251.034 159.027,255.516 158.845,260.292 159.832 M340.160 161.019 C 339.794 162.474,340.154 162.588,340.683 161.185 C 340.929 160.533,340.970 160.000,340.773 160.000 C 340.576 160.000,340.300 160.458,340.160 161.019 M359.400 163.800 C 359.400 164.790,359.535 165.600,359.700 165.600 C 359.865 165.600,360.000 164.790,360.000 163.800 C 360.000 162.810,359.865 162.000,359.700 162.000 C 359.535 162.000,359.400 162.810,359.400 163.800 M339.600 164.110 C 339.600 164.683,339.787 165.268,340.016 165.410 C 340.289 165.579,340.338 165.277,340.160 164.534 C 339.792 163.001,339.600 162.856,339.600 164.110 M183.400 166.940 C 178.583 169.230,178.626 174.927,183.501 180.365 L 185.443 182.531 188.500 180.468 C 194.881 176.162,196.700 172.359,194.202 168.547 C 192.588 166.084,186.962 165.246,183.400 166.940 M191.227 167.128 C 194.128 168.387,195.591 172.809,193.713 174.643 C 193.287 175.060,192.454 176.052,191.861 176.848 C 190.859 178.196,186.588 181.200,185.674 181.200 C 185.169 181.200,181.646 176.559,181.118 175.200 C 179.930 172.139,181.105 169.099,184.167 167.314 C 185.047 166.801,190.162 166.666,191.227 167.128 M338.181 168.423 C 337.312 169.316,336.870 169.931,337.200 169.789 C 337.763 169.547,340.263 166.800,339.921 166.800 C 339.834 166.800,339.051 167.531,338.181 168.423 M361.001 169.598 C 361.660 170.367,362.245 171.072,362.300 171.165 C 362.355 171.257,362.487 171.246,362.594 171.139 C 362.701 171.033,362.116 170.328,361.295 169.573 L 359.802 168.200 361.001 169.598 M331.787 174.478 C 330.333 175.987,330.028 176.417,331.007 175.578 C 332.521 174.280,334.631 172.000,334.318 172.000 C 334.239 172.000,333.101 173.115,331.787 174.478 M73.600 173.151 C 73.270 173.348,72.190 173.640,71.200 173.798 C 68.955 174.158,64.068 176.188,63.000 177.204 C 62.560 177.623,61.435 178.624,60.500 179.429 C 59.565 180.234,58.800 181.132,58.800 181.424 C 58.800 181.716,58.447 182.202,58.016 182.504 C 57.585 182.806,56.703 184.121,56.056 185.426 C 50.246 197.145,54.352 212.233,64.723 217.273 C 66.195 217.989,67.513 218.735,67.650 218.930 C 68.751 220.496,80.362 221.350,84.822 220.194 C 89.805 218.903,96.790 214.203,96.797 212.136 C 96.801 210.860,92.826 206.800,91.572 206.800 C 90.993 206.800,89.448 207.647,87.899 208.813 C 80.566 214.334,69.086 212.625,65.332 205.454 C 64.576 204.011,64.777 203.854,68.200 203.207 C 69.740 202.915,71.270 202.533,71.600 202.356 C 71.930 202.180,73.996 201.747,76.191 201.394 C 79.924 200.793,81.386 200.400,79.885 200.400 C 79.529 200.400,75.801 201.030,71.600 201.800 C 67.399 202.570,63.881 203.200,63.781 203.200 C 62.799 203.200,64.807 206.810,66.881 208.772 C 72.196 213.799,83.151 214.002,88.871 209.179 C 91.413 207.036,92.199 207.137,94.372 209.888 L 96.145 212.132 93.713 214.418 C 85.684 221.965,70.426 221.994,61.721 214.479 C 48.157 202.768,53.333 179.046,70.424 174.590 C 84.281 170.977,98.400 180.979,98.400 194.408 L 98.400 196.648 92.416 197.758 C 84.603 199.207,80.084 200.331,82.000 200.349 C 83.213 200.361,87.962 199.545,96.000 197.945 C 98.820 197.383,99.733 196.608,99.458 195.008 C 98.377 188.719,96.842 184.429,94.743 181.832 C 92.396 178.927,91.477 178.000,90.946 178.000 C 90.632 178.000,90.262 177.706,90.124 177.346 C 89.269 175.118,75.961 171.740,73.600 173.151 M357.400 179.600 C 357.798 180.040,358.192 180.400,358.276 180.400 C 358.360 180.400,358.235 180.040,358.000 179.600 C 357.765 179.160,357.370 178.800,357.124 178.800 C 356.878 178.800,357.002 179.160,357.400 179.600 M72.038 181.664 C 66.855 183.153,62.603 188.628,62.115 194.439 C 61.988 195.958,61.988 197.200,62.116 197.200 C 62.244 197.200,62.846 197.011,63.454 196.779 C 64.062 196.548,67.629 195.831,71.380 195.186 C 85.792 192.708,90.446 191.582,90.170 190.639 C 88.137 183.689,79.635 179.480,72.038 181.664 M128.838 181.777 C 114.155 186.566,115.750 209.774,130.945 212.420 C 149.125 215.586,156.273 189.928,139.400 182.067 C 137.646 181.250,131.013 181.068,128.838 181.777 M80.080 182.449 C 84.100 183.301,86.517 185.079,88.217 188.434 C 89.397 190.763,89.317 191.020,87.304 191.373 C 81.277 192.430,74.743 193.747,73.400 194.176 C 71.221 194.872,63.253 196.186,62.963 195.897 C 62.572 195.506,63.628 191.122,64.626 188.998 C 67.145 183.630,73.316 181.016,80.080 182.449 M138.192 182.798 C 148.617 185.464,151.575 201.947,142.826 208.619 C 141.712 209.469,140.800 210.275,140.800 210.409 C 140.800 210.967,136.069 212.088,133.773 212.075 C 121.930 212.006,115.524 198.610,122.218 187.908 C 123.390 186.034,126.529 183.262,127.569 183.182 C 127.696 183.173,128.700 182.915,129.800 182.609 C 132.601 181.832,134.589 181.876,138.192 182.798 M324.800 182.400 C 324.366 182.681,324.698 182.782,326.000 182.766 C 327.370 182.749,327.609 182.662,327.000 182.400 C 325.929 181.940,325.512 181.940,324.800 182.400 M377.600 188.824 C 377.600 189.057,377.439 189.148,377.242 189.026 C 377.045 188.904,376.784 189.066,376.661 189.385 C 376.479 189.859,376.631 189.892,377.488 189.566 C 378.066 189.347,378.802 189.269,379.126 189.393 C 379.610 189.579,379.624 189.511,379.208 189.009 C 378.629 188.312,377.600 188.193,377.600 188.824 M179.872 193.603 C 173.048 198.167,170.926 203.781,174.242 208.499 C 178.404 214.420,193.018 214.626,198.560 208.842 L 199.691 207.661 193.503 201.330 C 190.100 197.849,186.576 194.235,185.673 193.300 C 183.615 191.169,183.503 191.175,179.872 193.603 M191.060 199.900 C 195.091 204.025,198.346 207.514,198.294 207.654 C 197.993 208.467,193.854 211.054,191.866 211.673 C 180.460 215.222,170.068 207.971,174.783 199.751 C 176.144 197.378,182.064 192.425,183.565 192.402 C 183.656 192.401,187.029 195.775,191.060 199.900 M373.964 197.533 C 374.180 197.936,374.671 198.521,375.055 198.833 C 375.487 199.184,375.390 198.904,374.801 198.100 C 373.751 196.665,373.357 196.398,373.964 197.533 M225.680 245.680 C 224.669 246.691,225.040 260.243,226.100 260.985 C 226.925 261.563,227.041 261.558,227.500 260.931 C 228.249 259.907,228.120 259.721,226.800 259.915 L 225.600 260.091 225.600 253.189 C 225.600 247.086,225.681 246.227,226.300 245.757 C 226.685 245.465,226.811 245.220,226.580 245.213 C 226.349 245.206,225.944 245.416,225.680 245.680 M249.700 245.491 C 249.024 245.728,249.064 246.400,249.753 246.400 C 250.058 246.400,250.399 246.753,250.512 247.186 C 250.704 247.918,250.471 247.979,247.059 248.086 L 243.400 248.200 243.272 249.759 C 243.108 251.763,243.497 251.985,247.200 252.000 C 248.850 252.007,250.020 252.144,249.800 252.306 C 249.061 252.849,249.245 254.000,250.071 254.000 C 250.688 254.000,250.826 253.768,250.727 252.900 C 250.602 251.814,250.555 251.797,247.200 251.600 L 243.800 251.400 243.676 249.900 L 243.552 248.400 247.114 248.400 C 250.202 248.400,250.775 248.290,251.421 247.577 C 252.548 246.332,251.370 244.906,249.700 245.491 M276.644 245.902 C 276.975 246.232,277.146 246.765,277.023 247.084 C 276.900 247.404,276.800 247.696,276.801 247.733 C 276.801 247.770,275.642 247.740,274.224 247.667 C 272.807 247.594,271.322 247.723,270.924 247.955 C 270.377 248.273,271.063 248.379,273.729 248.388 C 277.657 248.401,278.668 247.920,278.245 246.238 C 278.078 245.572,277.725 245.300,277.026 245.300 C 276.151 245.300,276.109 245.366,276.644 245.902 M315.038 245.500 C 314.876 245.665,314.171 246.011,313.471 246.270 L 312.200 246.739 313.404 246.770 C 314.197 246.790,314.778 246.527,315.107 246.000 C 315.613 245.191,315.579 244.950,315.038 245.500 M325.857 246.152 C 325.496 246.598,325.205 247.151,325.212 247.381 C 325.219 247.612,325.420 247.463,325.659 247.052 C 326.010 246.448,326.160 246.410,326.441 246.852 C 326.717 247.289,326.789 247.293,326.794 246.873 C 326.798 246.521,327.078 246.434,327.637 246.612 C 328.293 246.820,328.444 246.725,328.337 246.172 C 328.146 245.189,326.648 245.178,325.857 246.152 M336.452 245.737 C 335.747 246.587,336.395 246.823,337.651 246.174 C 338.283 245.847,338.800 245.494,338.800 245.390 C 338.800 244.956,336.863 245.242,336.452 245.737 M267.042 246.235 C 266.735 247.035,266.721 257.412,267.028 257.106 C 267.153 256.981,267.255 254.659,267.255 251.947 C 267.255 249.235,267.431 246.803,267.647 246.543 C 267.891 246.250,267.896 245.983,267.661 245.838 C 267.454 245.710,267.175 245.888,267.042 246.235 M262.919 247.867 C 262.807 248.160,262.329 248.414,261.857 248.432 C 261.386 248.449,261.233 248.557,261.517 248.671 C 262.283 248.978,263.881 248.486,264.118 247.870 C 264.234 247.568,264.061 247.333,263.724 247.333 C 263.394 247.333,263.032 247.573,262.919 247.867 M229.377 248.053 C 228.509 248.239,228.803 248.318,230.500 248.353 C 231.765 248.379,232.800 248.265,232.800 248.100 C 232.800 247.734,230.979 247.709,229.377 248.053 M258.202 247.997 C 258.052 248.240,258.544 248.400,259.443 248.400 C 261.074 248.400,261.091 248.072,259.475 247.779 C 258.912 247.677,258.339 247.775,258.202 247.997 M317.164 248.031 C 316.753 248.291,316.899 248.389,317.700 248.394 C 318.894 248.401,319.110 248.204,318.264 247.880 C 317.969 247.767,317.474 247.835,317.164 248.031 M322.400 248.000 C 322.400 248.220,322.141 248.400,321.824 248.400 C 321.507 248.400,321.152 248.554,321.036 248.742 C 320.919 248.931,321.360 249.063,322.016 249.037 C 322.671 249.010,323.206 248.856,323.204 248.694 C 323.202 248.532,323.200 248.220,323.200 248.000 C 323.200 247.780,323.020 247.600,322.800 247.600 C 322.580 247.600,322.400 247.780,322.400 248.000 M300.105 248.287 C 300.714 248.379,301.614 248.377,302.105 248.282 C 302.597 248.187,302.100 248.111,301.000 248.114 C 299.900 248.117,299.497 248.195,300.105 248.287 M325.315 253.896 C 325.417 257.292,325.669 259.801,325.940 260.127 C 326.189 260.428,326.291 260.776,326.166 260.900 C 325.834 261.233,327.522 261.696,327.996 261.402 C 328.805 260.902,328.465 259.526,327.600 259.800 C 327.123 259.951,326.800 259.872,326.800 259.603 C 326.800 259.356,326.620 259.264,326.400 259.400 C 325.928 259.692,325.952 259.922,325.816 253.688 C 325.758 250.987,325.582 248.649,325.427 248.494 C 325.271 248.338,325.221 250.769,325.315 253.896 M289.818 249.700 C 289.968 250.195,290.255 250.776,290.456 250.991 C 290.657 251.206,290.619 250.801,290.372 250.091 C 289.865 248.638,289.397 248.308,289.818 249.700 M332.000 251.600 L 329.800 251.870 331.600 251.912 C 332.590 251.935,334.120 251.805,335.000 251.623 C 337.020 251.205,335.328 251.192,332.000 251.600 M276.625 252.359 C 276.499 252.564,276.621 252.823,276.898 252.934 C 277.276 253.087,277.280 253.145,276.913 253.168 C 276.644 253.186,276.528 253.469,276.654 253.798 C 276.953 254.576,277.600 254.168,277.600 253.200 C 277.600 252.343,276.971 251.800,276.625 252.359 M304.200 252.827 C 303.540 253.250,303.205 253.597,303.456 253.598 C 303.706 253.599,304.336 253.246,304.856 252.813 C 306.045 251.823,305.759 251.829,304.200 252.827 M263.931 254.024 C 264.121 254.538,264.489 255.000,264.748 255.049 C 265.008 255.099,265.035 255.048,264.808 254.936 C 264.581 254.824,264.484 254.587,264.593 254.411 C 264.702 254.235,264.520 253.865,264.188 253.590 C 263.669 253.159,263.633 253.219,263.931 254.024 M256.000 253.753 C 256.000 254.108,257.618 254.294,257.823 253.962 C 257.946 253.763,257.587 253.600,257.024 253.600 C 256.461 253.600,256.000 253.669,256.000 253.753 M243.359 256.200 L 243.400 258.200 246.200 258.232 L 249.000 258.264 246.321 258.114 L 243.642 257.964 243.480 256.082 L 243.318 254.200 243.359 256.200 M252.969 257.781 C 252.693 258.879,253.761 260.595,254.453 260.167 C 254.644 260.049,254.800 260.154,254.800 260.400 C 254.800 260.646,254.999 260.724,255.243 260.574 C 255.554 260.381,255.529 260.204,255.162 259.976 C 254.874 259.798,254.540 259.712,254.419 259.784 C 254.299 259.857,253.949 259.644,253.642 259.313 C 253.155 258.786,253.189 258.743,253.909 258.971 C 254.590 259.187,254.697 259.093,254.524 258.430 C 254.140 256.961,253.266 256.597,252.969 257.781 M279.519 257.581 C 279.140 258.189,278.674 258.333,277.416 258.233 C 276.527 258.162,276.295 258.182,276.900 258.277 C 278.211 258.484,278.231 258.617,277.204 260.300 C 276.432 261.567,276.431 261.600,277.173 261.600 C 278.374 261.600,279.216 261.158,278.968 260.658 C 278.843 260.406,278.999 260.515,279.314 260.900 C 279.980 261.712,281.422 261.827,281.841 261.100 C 281.999 260.825,281.994 260.720,281.831 260.867 C 280.994 261.617,279.400 258.722,280.016 257.571 C 280.555 256.563,280.150 256.571,279.519 257.581 M287.700 257.476 C 288.085 257.576,288.715 257.576,289.100 257.476 C 289.485 257.375,289.170 257.293,288.400 257.293 C 287.630 257.293,287.315 257.375,287.700 257.476 M320.884 257.758 C 321.168 258.065,321.535 258.234,321.700 258.134 C 321.865 258.035,322.000 258.143,322.000 258.376 C 322.000 258.609,322.360 258.800,322.800 258.800 C 323.749 258.800,323.874 257.791,322.967 257.443 C 321.667 256.944,320.320 257.147,320.884 257.758 M250.386 258.774 C 251.529 260.910,251.170 261.109,246.200 261.100 C 243.670 261.095,241.600 260.955,241.600 260.788 C 241.600 260.622,241.330 260.382,241.000 260.255 C 240.670 260.129,240.400 260.097,240.400 260.184 C 240.400 261.902,250.669 262.377,251.551 260.700 C 251.818 260.192,251.934 260.114,251.817 260.521 C 251.703 260.917,251.776 261.139,251.979 261.013 C 252.183 260.887,252.323 260.440,252.292 260.020 C 252.260 259.599,252.104 259.336,251.946 259.434 C 251.787 259.531,251.543 259.249,251.402 258.806 C 251.261 258.363,250.882 258.000,250.559 258.000 C 250.102 258.000,250.064 258.172,250.386 258.774 M264.520 258.520 C 263.993 259.377,261.734 260.798,261.391 260.488 C 261.215 260.330,261.201 260.425,261.359 260.700 C 261.809 261.482,262.514 261.295,263.626 260.100 C 264.761 258.881,265.355 258.000,265.043 258.000 C 264.931 258.000,264.696 258.234,264.520 258.520 M237.383 259.228 C 237.237 259.463,236.773 259.784,236.351 259.940 C 235.654 260.198,235.639 260.297,236.184 261.012 C 236.703 261.693,236.839 261.719,237.186 261.200 C 237.407 260.870,237.596 260.780,237.606 261.000 C 237.616 261.220,237.828 261.050,238.076 260.621 C 238.415 260.038,238.411 259.804,238.061 259.687 C 237.805 259.602,237.697 259.367,237.821 259.166 C 237.945 258.965,237.957 258.800,237.847 258.800 C 237.737 258.800,237.528 258.993,237.383 259.228 M293.403 259.195 C 293.262 259.424,293.463 259.503,293.879 259.383 C 294.276 259.269,294.150 259.403,293.600 259.681 C 291.829 260.575,291.317 261.280,292.652 260.987 C 293.529 260.795,293.658 260.836,293.200 261.162 C 292.670 261.538,292.672 261.588,293.220 261.594 C 294.111 261.603,294.800 260.785,294.800 259.720 C 294.800 258.790,293.869 258.441,293.403 259.195 M295.902 259.700 C 295.643 260.403,295.996 261.250,296.434 260.979 C 296.635 260.855,296.800 260.943,296.800 261.176 C 296.800 261.409,297.070 261.600,297.400 261.600 C 297.730 261.600,298.000 261.349,298.000 261.043 C 298.000 260.736,298.270 260.382,298.600 260.255 C 298.930 260.129,299.197 259.794,299.194 259.513 C 299.190 259.198,299.075 259.154,298.894 259.400 C 298.500 259.936,296.800 260.095,296.800 259.595 C 296.800 259.028,296.120 259.107,295.902 259.700 M306.694 260.035 C 306.067 260.400,306.056 260.513,306.589 261.046 C 307.284 261.741,308.173 261.344,308.256 260.300 C 308.318 259.517,307.750 259.420,306.694 260.035 M336.000 260.172 C 336.000 260.951,337.428 261.708,338.348 261.416 C 338.743 261.291,339.067 260.921,339.067 260.594 C 339.067 259.825,338.840 259.845,337.863 260.700 C 337.423 261.085,337.188 261.184,337.342 260.920 C 337.505 260.642,337.281 260.257,336.811 260.006 C 336.164 259.660,336.000 259.693,336.000 260.172 M314.400 260.810 C 314.400 261.024,314.625 261.202,314.900 261.205 C 315.175 261.208,315.833 261.327,316.363 261.468 C 317.064 261.656,317.243 261.593,317.022 261.236 C 316.856 260.967,316.629 260.837,316.519 260.948 C 316.408 261.058,315.886 260.985,315.359 260.784 C 314.753 260.554,314.400 260.564,314.400 260.810 " stroke="none" fill="#acacaa" fill-rule="evenodd"></path></g></svg>