<svg width="204" height="54" viewBox="0 0 204 54" fill="none" xmlns="http://www.w3.org/2000/svg">
<g id="PayPal 1" clip-path="url(#clip0_4045_7823)">
<g id="Group">
<path id="Vector" d="M65.1319 10.7988C64.7127 10.7988 64.3567 11.1032 64.2911 11.5175L59.4387 42.29C59.4211 42.4024 59.428 42.5173 59.459 42.6268C59.49 42.7363 59.5444 42.8377 59.6184 42.9242C59.6923 43.0107 59.7841 43.0801 59.8874 43.1277C59.9908 43.1753 60.1032 43.2 60.217 43.2H65.9715C66.3901 43.2 66.7468 42.8951 66.8124 42.4813L68.2378 33.4447C68.3027 33.0309 68.6594 32.726 69.0786 32.726H74.3104C80.4234 32.726 85.6127 28.2657 86.5605 22.2219C87.5162 16.1269 82.7546 10.8121 76.0059 10.7988H65.1319ZM70.7259 17.6684H74.9119C78.3581 17.6684 79.4804 19.7019 79.1256 21.9507C78.7707 24.2042 77.0278 25.8642 73.694 25.8642H69.4334L70.7259 17.6684ZM98.2644 19.7602C96.8114 19.7656 95.1394 20.0633 93.2623 20.8452C88.9566 22.6399 86.8889 26.349 86.0108 29.053C86.0108 29.053 83.2159 37.3029 89.5304 41.8353C89.5304 41.8353 95.3866 46.1987 101.979 41.5665L101.865 42.29C101.848 42.4023 101.855 42.5171 101.885 42.6265C101.916 42.7359 101.971 42.8373 102.044 42.9237C102.118 43.0102 102.21 43.0796 102.313 43.1273C102.416 43.175 102.529 43.1998 102.642 43.2H108.105C108.524 43.2 108.88 42.8951 108.946 42.4813L112.269 21.4082C112.287 21.2958 112.28 21.1808 112.249 21.0713C112.218 20.9618 112.164 20.8602 112.09 20.7736C112.016 20.687 111.925 20.6175 111.821 20.5697C111.718 20.522 111.606 20.4971 111.492 20.497H106.029C105.61 20.497 105.253 20.8019 105.188 21.2157L105.01 22.35C105.01 22.35 102.624 19.744 98.2644 19.7602ZM98.4431 26.4163C99.0704 26.4163 99.6441 26.5029 100.159 26.6683C102.516 27.4249 103.852 29.6893 103.466 32.1438C102.989 35.166 100.51 37.3913 97.3316 37.3913C96.7049 37.3913 96.1311 37.3053 95.6157 37.1399C93.2593 36.3833 91.9145 34.1189 92.3012 31.6644C92.7782 28.6422 95.2645 26.4163 98.4431 26.4163Z" fill="#003087"/>
<path id="Vector_2" d="M143.8 10.7988C143.381 10.7988 143.024 11.1032 142.959 11.5175L138.107 42.29C138.089 42.4024 138.096 42.5173 138.127 42.6268C138.158 42.7363 138.212 42.8377 138.286 42.9242C138.36 43.0107 138.452 43.0801 138.555 43.1277C138.659 43.1753 138.771 43.2 138.885 43.2H144.639C145.058 43.2 145.415 42.8951 145.48 42.4813L146.906 33.4447C146.97 33.0309 147.327 32.726 147.746 32.726H152.978C159.091 32.726 164.28 28.2657 165.227 22.2219C166.183 16.1269 161.422 10.8121 154.674 10.7988H143.8ZM149.394 17.6684H153.58C157.026 17.6684 158.148 19.7019 157.793 21.9507C157.439 24.2042 155.696 25.8642 152.362 25.8642H148.101L149.394 17.6684ZM176.932 19.7602C175.479 19.7656 173.807 20.0633 171.929 20.8452C167.624 22.6399 165.556 26.349 164.678 29.053C164.678 29.053 161.884 37.3029 168.199 41.8353C168.199 41.8353 174.054 46.1987 180.647 41.5665L180.533 42.29C180.515 42.4024 180.522 42.5173 180.553 42.6268C180.584 42.7363 180.639 42.8377 180.713 42.9242C180.787 43.0107 180.878 43.0801 180.982 43.1277C181.085 43.1753 181.198 43.2 181.311 43.2H186.774C187.193 43.2 187.549 42.8951 187.614 42.4813L190.938 21.4082C190.956 21.2957 190.95 21.1806 190.919 21.071C190.888 20.9614 190.833 20.8598 190.759 20.7732C190.685 20.6866 190.594 20.617 190.49 20.5693C190.387 20.5217 190.274 20.497 190.16 20.497H184.697C184.278 20.497 183.922 20.8019 183.857 21.2157L183.678 22.35C183.678 22.35 181.291 19.744 176.932 19.7602ZM177.11 26.4163C177.738 26.4163 178.311 26.5029 178.826 26.6683C181.183 27.4249 182.52 29.6893 182.133 32.1438C181.656 35.166 179.177 37.3913 175.999 37.3913C175.372 37.3913 174.798 37.3053 174.283 37.1399C171.926 36.3833 170.582 34.1189 170.968 31.6644C171.445 28.6422 173.932 26.4163 177.11 26.4163Z" fill="#0070E0"/>
<path id="Vector_3" d="M114.861 20.4969C114.428 20.4969 114.12 20.9197 114.252 21.3317L120.241 39.9167L114.826 48.6748C114.563 49.1 114.869 49.6491 115.369 49.6491H121.769C121.952 49.649 122.132 49.6016 122.291 49.5117C122.451 49.4217 122.584 49.2921 122.679 49.1355L139.406 21.4653C139.662 21.04 139.356 20.4963 138.859 20.4963H132.459C132.274 20.4965 132.093 20.5448 131.932 20.6364C131.772 20.728 131.638 20.8599 131.544 21.019L124.96 32.1347L121.618 21.1014C121.509 20.7423 121.177 20.4963 120.803 20.4963L114.861 20.4969Z" fill="#003087"/>
<path id="Vector_4" d="M197.145 10.7988C196.727 10.7988 196.37 11.1038 196.304 11.5175L191.451 42.2888C191.433 42.4013 191.44 42.5163 191.471 42.626C191.502 42.7356 191.556 42.8372 191.63 42.9238C191.704 43.0104 191.796 43.08 191.899 43.1276C192.003 43.1753 192.115 43.2 192.229 43.2H197.984C198.402 43.2 198.759 42.8951 198.824 42.4813L203.677 11.7088C203.694 11.5965 203.688 11.4817 203.657 11.3723C203.626 11.2629 203.571 11.1615 203.498 11.0751C203.424 10.9886 203.332 10.9192 203.229 10.8715C203.126 10.8238 203.013 10.799 202.9 10.7988H197.145Z" fill="#0070E0"/>
<path id="Vector_5" d="M17.1578 10.7988C16.7871 10.7991 16.4287 10.9316 16.1469 11.1725C15.8651 11.4134 15.6785 11.7468 15.6205 12.113L13.0662 28.3132C13.1853 27.5566 13.8372 26.9991 14.6035 26.9991H22.0883C29.6213 26.9991 36.0134 21.5038 37.1814 14.0568C37.2683 13.5008 37.3175 12.9396 37.3288 12.377C35.4144 11.3732 33.1656 10.7988 30.7015 10.7988H17.1578Z" fill="#001C64"/>
<path id="Vector_6" d="M37.3287 12.3777C37.3175 12.9403 37.2683 13.5015 37.1813 14.0575C36.0134 21.5045 29.6207 26.9998 22.0883 26.9998H14.6035C13.8378 26.9998 13.1853 27.5567 13.0662 28.3139L10.7176 43.2007L9.24647 52.5398C9.21776 52.7202 9.22852 52.9047 9.27804 53.0806C9.32756 53.2565 9.41467 53.4195 9.53331 53.5584C9.65196 53.6974 9.79933 53.8089 9.96527 53.8854C10.1312 53.9618 10.3118 54.0014 10.4945 54.0013H18.6187C18.9893 54.001 19.3478 53.8685 19.6295 53.6276C19.9113 53.3867 20.0979 53.0533 20.1559 52.6871L22.2958 39.1145C22.3538 38.7482 22.5406 38.4146 22.8226 38.1737C23.1047 37.9328 23.4634 37.8004 23.8343 37.8004H28.6175C36.1505 37.8004 42.5426 32.3051 43.7105 24.8581C44.5399 19.5727 41.878 14.763 37.3287 12.3777Z" fill="#0070E0"/>
<path id="Vector_7" d="M7.92794 0.000244141C7.16231 0.000244141 6.50977 0.557174 6.39069 1.31318L0.0154463 41.7393C-0.105442 42.5067 0.487589 43.2008 1.26464 43.2008H10.7186L13.066 28.314L15.6203 12.1138C15.6783 11.7476 15.8649 11.4142 16.1467 11.1733C16.4285 10.9324 16.7869 10.7999 17.1576 10.7996H30.7013C33.166 10.7996 35.4142 11.3746 37.3286 12.3778C37.4597 5.59781 31.8651 0.000244141 24.1733 0.000244141H7.92794Z" fill="#003087"/>
</g>
</g>
<defs>
<clipPath id="clip0_4045_7823">
<rect width="203.687" height="54" fill="white"/>
</clipPath>
</defs>
</svg>
