<svg width="220" height="104" viewBox="0 0 220 104" fill="none" xmlns="http://www.w3.org/2000/svg">
<g id="logo1">
<path id="Vector" d="M140.196 31.6872C140.196 31.6872 137.327 32.8348 133.993 36.5074C130.652 40.1863 128.713 44.3179 130.148 45.4146C130.703 45.8354 131.978 45.9183 134.292 43.8206C136.422 41.9691 138.094 39.6492 139.176 37.043C140.668 33.4087 140.196 31.7318 140.196 31.6872ZM158.451 38.3054C154.746 36.399 152.037 34.0718 149.218 32.6308C146.528 31.2536 144.787 30.6734 142.613 30.9667C142.311 31.0206 142.012 31.0952 141.72 31.1898C141.72 31.1898 142.842 35.0154 138.386 41.436C133.871 47.9522 129.778 47.9076 128.611 46.1159C127.394 44.2286 128.968 40.3776 131.595 36.9537C134.35 33.3704 139.183 30.3992 139.183 30.3992C139.183 30.3992 137.646 29.4556 133.859 31.6106C130.161 33.6892 123.804 38.6688 117.906 47.0596C112.002 55.4503 110.829 60.0665 109.987 63.7008C109.146 67.3351 109.911 71.2244 113.94 71.2244C117.97 71.2244 122.663 65.078 123.989 62.9421C126.45 58.9635 128.05 52.8617 124.703 53.6969C123.052 54.1114 121.719 55.9349 120.877 57.6946C120.346 58.8243 119.94 60.0088 119.666 61.2269C118.494 61.7086 117.394 62.3479 116.395 63.127C115.286 63.9505 114.249 64.8678 113.296 65.8686C113.296 65.8686 113.309 62.9612 115.624 58.2557C117.944 53.5567 122.191 51.408 124.601 51.2039C126.769 51.0318 129.593 52.8744 127.202 59.6648C124.811 66.4552 117.747 74.7121 110.331 74.8141C103.49 74.9097 99.0078 66.1747 108.533 50.9361C119.079 34.0845 131.449 28.92 135.459 28.3462C139.476 27.7723 140.783 29.5385 140.783 29.5385C143.199 28.5482 145.809 28.1188 148.415 28.2824C153.325 28.6139 157.112 32.0825 162.123 34.5245C160.816 35.7678 159.573 37.0748 158.457 38.299M180.48 32.6244C177.081 34.805 172.382 36.7815 167.862 36.3607C166.72 37.5403 165.496 38.9111 164.272 40.4031C172.102 41.9524 178.969 37.094 182.616 32.9623C183.946 31.4797 185.089 29.8395 186.02 28.0784C184.359 29.8081 182.499 31.3297 180.48 32.6244ZM170.049 54.7043C170.109 54.6014 170.158 54.4924 170.195 54.3792C170.172 54.1991 170.088 54.0324 169.957 53.907C169.826 53.7817 169.656 53.7052 169.475 53.6906C168.729 53.6587 167.709 53.7989 165.044 56.751C162.829 59.1924 160.923 61.897 159.369 64.8038C157.839 67.5965 157.22 69.6751 158.094 70.2106C158.381 70.36 158.713 70.3942 159.025 70.3063C159.618 70.166 160.293 69.6049 161.32 68.4254C161.798 67.8643 162.327 67.0737 162.965 66.2002C164.731 63.8028 169.169 56.2346 170.049 54.7043ZM142.32 57.9178C142.766 56.7574 143.333 54.4684 142.154 53.5694C140.885 52.613 137.659 54.851 137.64 57.1463C137.621 59.499 139.916 60.5575 140.464 60.7105C140.783 60.7934 140.885 60.7742 141.038 60.5256C141.525 59.687 141.953 58.8157 142.32 57.9178ZM139.878 62.1897C139.078 61.8202 138.331 61.3441 137.659 60.7742C136.986 60.2087 136.424 59.5234 136.001 58.7531C135.95 58.6765 135.905 58.7339 135.854 58.8041C135.81 58.8678 135.606 59.0527 133.884 61.5712C132.163 64.0961 129.523 69.3244 131.908 70.2106C133.444 70.7845 135.995 68.1002 137.391 66.3213C138.336 65.0782 139.193 63.77 139.954 62.4065C140.031 62.2598 139.954 62.2216 139.878 62.1897ZM167.026 68.2277C166.376 69.267 165.636 71.2627 167.772 70.0194C170.387 68.5146 174.11 62.8592 174.11 62.8592H175.8C174.263 65.2236 172.551 67.47 170.68 69.5794C168.034 72.5124 164.801 75.1839 162.519 74.9161C159.866 74.61 160.695 71.116 160.695 71.116C160.695 71.116 156.895 75.1648 154.255 74.8778C150.704 74.4825 151.788 70.0895 151.788 70.0895C151.788 70.0895 147.771 75.0245 145.029 74.8715C140.738 74.6164 141.816 69.3945 143.015 65.7156C143.652 63.7518 144.245 62.2088 144.245 62.2088C144.245 62.2088 143.818 62.3172 142.906 62.4511C142.422 62.5212 141.555 62.5723 141.555 62.5723C141.555 62.5723 139.769 65.7283 138.335 67.622C136.906 69.5157 130.824 76.051 127.241 74.7439C123.938 73.5325 125.034 68.47 126.96 64.4468C129.765 58.5809 137.672 50.1455 142.237 51.2613C146.961 52.409 142.345 61.0293 142.345 61.0293C142.345 61.0293 142.345 61.0612 142.39 61.0867C142.485 61.1185 142.734 61.1504 143.302 61.0356C143.891 60.9168 144.47 60.7461 145.029 60.5256C145.029 60.5256 149.786 50.5727 155.033 44.0565C160.281 37.553 170.75 26.3314 174.862 29.0475C175.857 29.717 175.411 32.0123 174.059 34.7986C173.45 34.9965 172.83 35.1625 172.204 35.2959C173.109 33.651 173.708 32.2674 173.887 31.2982C174.505 27.9317 166.65 35.0282 161.039 42.6474C157.658 47.243 154.653 52.1045 152.056 57.1846C153.069 56.5667 154.037 55.8763 154.95 55.1188C157.455 53.0438 159.835 50.8233 162.079 48.4687C164.237 46.2579 166.262 43.9201 168.142 41.4679C168.74 41.4388 169.336 41.377 169.927 41.283C167.876 44.0659 165.64 46.7073 163.233 49.1891C161.001 51.4526 158.578 53.8882 156.468 55.6607C154.588 57.2576 152.605 58.7294 150.532 60.0665C150.532 60.0665 145.622 69.9684 148.294 70.5996C149.862 70.9821 152.961 66.2002 152.961 66.2002C152.961 66.2002 157.01 60.0346 159.445 57.2483C162.774 53.4674 165.63 51.2804 168.499 51.2422C170.163 51.2103 171.145 52.9828 171.145 52.9828L171.93 51.7714H176.756C176.756 51.7714 167.741 67.0609 167.02 68.215M180.48 32.6372C177.081 34.8114 172.382 36.7879 167.862 36.3671C166.714 37.5467 165.496 38.9175 164.266 40.4095C172.102 41.9588 178.962 37.1067 182.616 32.9687C183.946 31.4841 185.09 29.8417 186.02 28.0784C184.359 29.8081 182.499 31.3297 180.48 32.6244M112.703 40.1353H108.113L105.518 44.3307H110.108L112.703 40.1353ZM90.9614 54.6533C92.9188 51.9754 98.3065 42.5964 98.3065 42.5964C98.2839 42.4174 98.2007 42.2514 98.0708 42.1262C97.9409 42.0009 97.7721 41.9238 97.5924 41.9078C96.8464 41.8695 95.6031 42.1246 93.1292 45.2169C90.6617 48.3093 88.7425 50.764 87.3462 53.3271C85.816 56.1198 85.1401 58.09 86.0264 58.6255C86.3106 58.768 86.637 58.802 86.9445 58.7212C87.5184 58.5809 88.2707 58.0007 89.2972 56.8211C89.8817 56.1203 90.439 55.3971 90.9677 54.6533M66.3375 41.9652C65.0686 41.0088 61.8424 43.2468 61.8233 45.5357C61.8042 47.8884 64.7307 48.6089 65.1069 48.6217C65.2171 48.6316 65.3278 48.6095 65.4257 48.5579C65.4932 48.5176 65.5466 48.4575 65.5787 48.3858C65.9242 47.7114 66.2349 47.0197 66.5096 46.3136C66.9559 45.1468 67.517 42.8642 66.3375 41.9652ZM64.4247 50.0626C63.5501 49.7882 62.7143 49.4025 61.9381 48.915C61.1839 48.424 60.5708 47.745 60.1592 46.9448C60.1145 46.8683 60.0635 46.9257 60.0189 46.9958C59.9743 47.0596 59.7192 47.3847 57.9913 49.916C56.2698 52.4536 53.7067 57.6309 56.1041 58.5235C57.6343 59.0974 60.2102 56.394 61.6129 54.6214C62.6611 53.23 63.6296 51.7803 64.5139 50.2794C64.5713 50.1264 64.5139 50.0881 64.4247 50.0626ZM101.915 51.6184H103.592C103.592 51.6184 95.1695 63.8092 90.4067 63.2417C87.7543 62.9293 88.5385 59.6521 88.5385 59.6521C88.5385 59.6521 84.8086 64.0196 81.3783 63.1333C78.2732 62.3363 80.2817 57.1655 80.2817 57.1655C79.9246 57.3057 73.198 64.8867 68.467 63.0696C63.5193 61.1568 66.0888 54.8063 67.0324 52.8999C67.8294 51.2868 68.7093 49.7183 68.7093 49.7183C68.7093 49.7183 67.9506 49.9351 67.466 50.0435L66.2801 50.2985C66.2801 50.2985 63.9401 54.0986 62.5119 55.9986C61.0773 57.8923 55.001 64.4149 51.4177 63.1206C47.8345 61.8199 48.7207 56.8084 50.7355 52.8234C54 46.371 61.7404 38.4393 66.4076 39.638C71.1194 40.843 67.2173 48.4878 67.2173 48.4878C67.2173 48.4878 68.1546 48.6089 70.4053 47.0723C73.6379 44.8662 77.9034 38.9302 82.526 39.6316C84.7066 39.9568 86.7341 42.182 83.9606 46.4156C83.0743 47.7737 81.5887 48.9851 80.4538 47.7864C79.7461 47.0341 80.3645 45.6824 81.1105 44.7451C81.3999 44.3658 81.778 44.0634 82.2116 43.8644C82.6451 43.6655 83.1209 43.5759 83.5971 43.6038C83.5971 43.6038 84.3623 41.8632 82.4176 41.8887C80.8427 41.9206 76.8641 45.5867 74.6198 49.2848C72.5604 52.6832 69.4362 58.4725 72.5668 59.735C75.4423 60.8954 80.9129 54.4047 83.4441 50.9999C85.9754 47.6015 91.7456 39.893 96.5913 39.587C98.2555 39.4786 99.2501 40.996 99.2501 40.996L99.8112 40.1098H104.651C104.651 40.1098 95.5329 55.3292 94.8188 56.4768C94.2577 57.3759 93.5181 59.4098 95.5648 58.2685C97.6179 57.1336 101.915 51.6184 101.915 51.6184ZM99.2756 76C95.7112 73.5318 91.4428 72.2857 87.1103 72.4486C85.939 72.4809 84.7918 72.7887 83.7616 73.347C82.7314 73.9053 81.8472 74.6984 81.1807 75.6621C79.3316 72.4422 75.6846 70.4657 70.0419 70.5103C60.9243 70.6123 51.8768 74.8205 44.7166 74.8141C37.8497 74.8141 32.8382 70.4976 33.004 62.8273C33.3037 49.3804 44.672 37.2661 53.152 31.8147C58.0423 28.6905 62.1357 27.7532 64.8072 28.0529C66.7583 28.2697 69.1046 30.5267 67.6254 33.8486C65.4512 38.7007 62.4481 38.3054 62.5565 35.9845C62.6203 34.4734 63.6277 33.5234 64.38 32.9942C64.9256 32.7044 65.5348 32.5554 66.1526 32.5607C66.5861 32.1972 66.8985 29.5385 63.4173 30.412C59.936 31.2855 55.7024 34.7221 51.6855 39.1534C47.6687 43.5911 41.4202 51.9754 39.8773 60.7806C39.1568 64.8612 39.6286 72.3083 49.3137 72.2254C57.5195 72.1617 69.6211 66.7485 80.7407 66.8633C84.6123 66.848 88.4148 67.8884 91.7392 69.8727C94.6148 71.6452 98.0642 74.2339 99.2884 76" fill="black"/>
</g>
</svg>
