<svg width="220" height="104" viewBox="0 0 220 104" fill="none" xmlns="http://www.w3.org/2000/svg">
<g id="logo1">
<path id="Vector" d="M68.5552 31H78.7274V57.6909C78.7274 62.2837 76.7545 71.9131 62.6419 71.9131C48.5292 71.9183 47 62.9466 47 57.9153V52.9884H56.8434V57.8057C56.8434 60.7545 58.8162 63.4946 62.5323 63.4946C66.2535 63.4946 68.55 61.4121 68.55 57.9101L68.5552 31ZM90.5383 53.6512C90.5383 50.6919 91.7388 48.2859 95.1312 48.2859C98.6333 48.2859 100.162 50.9111 100.162 53.646H90.5383V53.6512ZM94.4788 42.1586C85.1783 42.1586 81.0186 50.6919 81.0186 58.0249C81.0186 65.3526 85.7263 72.4611 95.3504 72.4611C103.774 72.5707 109.353 67.101 109.353 63.0562H100.053C100.053 63.0562 98.9569 65.6762 95.6792 65.6762C92.3964 65.6762 90.5383 63.8182 90.5383 59.3349H109.463C109.463 45.2222 102.464 42.1638 94.4788 42.1638M120.95 53.646C120.95 50.6919 122.151 48.2859 125.543 48.2859C129.045 48.2859 130.575 50.9111 130.575 53.646H120.956H120.95ZM124.886 42.1638C115.59 42.1638 111.431 50.6919 111.431 58.0197C111.431 65.3526 116.138 72.4611 125.763 72.4611C134.186 72.5707 139.766 67.101 139.766 63.0562H130.465C130.465 63.0562 129.369 65.6762 126.091 65.6762C122.814 65.6762 120.945 63.8182 120.945 59.3349H139.87C139.87 45.2222 132.871 42.1638 124.886 42.1638ZM151.561 57.6909C151.676 52.1168 153.863 49.8203 156.817 49.8203C161.629 49.8203 162.506 53.5364 162.506 57.3673C162.506 61.1929 161.848 66.2242 157.255 66.2242C152.662 66.2242 151.457 63.2754 151.561 57.6909ZM151.785 80.9945V69.2879C152.177 69.8098 152.401 70.0603 153.095 70.6031C154.191 71.4538 156.049 72.8995 160.209 72.8995C167.756 72.8995 172.13 66.339 172.13 57.3673C172.13 45.7703 164.802 42.4926 160.099 42.4926C155.397 42.4926 153.628 44.6742 152.991 45.4415C152.255 46.3287 152.015 46.8298 151.676 47.5552V43.2546H142.266V80.9945H151.785ZM168.309 76.6208V79.7105H168.852V78.4893H169.28C169.572 78.4893 169.776 78.5258 169.891 78.5936C170.084 78.7085 170.178 78.9433 170.178 79.2982V79.5435L170.188 79.6479L170.199 79.6792L170.204 79.7105H170.715L170.694 79.674C170.675 79.5444 170.665 79.4136 170.663 79.2826V79.0529C170.663 78.8963 170.606 78.7398 170.496 78.5728C170.432 78.4881 170.352 78.4178 170.259 78.3666C170.166 78.3153 170.064 78.2842 169.958 78.2753C170.117 78.2546 170.269 78.2032 170.407 78.1239C170.611 77.9934 170.71 77.7899 170.71 77.5133C170.71 77.127 170.553 76.8661 170.235 76.7304C169.962 76.645 169.675 76.6097 169.39 76.626L168.309 76.6208ZM169.974 77.1062C170.11 77.1845 170.183 77.3358 170.183 77.5602C170.183 77.8003 170.073 77.9569 169.859 78.0404C169.693 78.0956 169.518 78.1203 169.343 78.1135H168.852V76.9913H169.322C169.619 76.9913 169.838 77.0331 169.974 77.1062ZM171.436 80.1698C171.702 79.9104 171.912 79.5992 172.054 79.2555C172.196 78.9118 172.266 78.5427 172.26 78.1709C172.265 77.8015 172.195 77.4349 172.053 77.0938C171.911 76.7527 171.701 76.4443 171.436 76.1876C171.176 75.9226 170.866 75.7132 170.523 75.5723C170.18 75.4314 169.812 75.362 169.442 75.3682C169.073 75.3622 168.706 75.4318 168.365 75.5727C168.024 75.7136 167.716 75.9229 167.459 76.1876C167.194 76.4447 166.985 76.7534 166.844 77.0945C166.703 77.4355 166.633 77.8019 166.639 78.1709C166.639 78.9538 166.911 79.6218 167.453 80.1698C167.71 80.4373 168.019 80.6491 168.361 80.7919C168.703 80.9346 169.071 81.0054 169.442 80.9997C169.814 81.0045 170.182 80.9328 170.525 80.7892C170.868 80.6455 171.178 80.4329 171.436 80.1646M167.73 76.459C168.205 75.9893 168.774 75.7492 169.442 75.7492C170.11 75.7492 170.684 75.9841 171.154 76.459C171.623 76.9287 171.858 77.5028 171.858 78.1709C171.858 78.8494 171.623 79.4235 171.159 79.8932C170.938 80.1245 170.671 80.3075 170.375 80.4306C170.08 80.5536 169.762 80.6141 169.442 80.6082C169.123 80.6144 168.806 80.5545 168.512 80.4324C168.217 80.3102 167.951 80.1284 167.73 79.8984C167.503 79.6733 167.324 79.4047 167.204 79.1087C167.084 78.8127 167.025 78.4955 167.031 78.1761C167.025 77.857 167.085 77.5402 167.206 77.245C167.327 76.9498 167.502 76.6823 167.73 76.459Z" fill="black"/>
</g>
</svg>
