<svg width="219" height="64" viewBox="0 0 219 64" fill="none" xmlns="http://www.w3.org/2000/svg">
<g id="logos:tiktok" clip-path="url(#clip0_4045_7620)">
<path id="Vector" d="M41.7468 22.9773C45.8568 25.9136 50.8919 27.6416 56.3298 27.6416V17.1827C55.3006 17.1828 54.2742 17.0755 53.2672 16.8627V25.0952C47.8297 25.0952 42.7955 23.3672 38.6841 20.4309V41.7749C38.6841 52.4522 30.0245 61.1072 19.3425 61.1072C15.357 61.1072 11.6523 59.9027 8.57513 57.8372C12.087 61.4268 16.9856 63.6535 22.4043 63.6535C33.0871 63.6535 41.7472 54.9986 41.7472 44.3213V22.9768L41.7468 22.9773ZM45.5249 12.4258C43.364 10.072 42.0365 7.0733 41.7468 3.89118V2.5459H38.8446C39.575 6.71102 42.0668 10.269 45.5249 12.4258ZM15.3314 49.6435C14.1579 48.1057 13.5236 46.2241 13.5266 44.2897C13.5266 39.4065 17.4873 35.447 22.3744 35.447C23.2849 35.447 24.1903 35.5861 25.0581 35.8613V25.169C24.0439 25.03 23.0203 24.9709 21.9968 24.9924V33.3154C21.1284 33.0401 20.2228 32.9003 19.3118 32.9011C14.4247 32.9011 10.464 36.8601 10.464 41.7442C10.464 45.1972 12.4437 48.1869 15.3314 49.6435Z" fill="#FF004F"/>
<path id="Vector_2" d="M38.6842 20.4309C42.7955 23.3672 47.8298 25.0948 53.2676 25.0948V16.8623C50.2879 16.2253 47.5812 14.6744 45.5249 12.4258C42.0668 10.269 39.575 6.71059 38.8446 2.5459H31.2218V44.32C31.2047 49.19 27.2499 53.1332 22.374 53.1332C19.5004 53.1332 16.9472 51.764 15.3306 49.6435C12.4437 48.1869 10.4636 45.1972 10.4636 41.7442C10.4636 36.8606 14.4243 32.9011 19.3114 32.9011C20.2475 32.9011 21.1503 33.047 21.9964 33.3154V24.9928C11.5021 25.2096 3.06219 33.78 3.06219 44.3204C3.06219 49.5821 5.16395 54.3518 8.57515 57.8372C11.7588 59.9748 15.5082 61.1133 19.3429 61.1068C30.025 61.1068 38.6846 52.4514 38.6846 41.7745L38.6842 20.4309Z" fill="black"/>
<path id="Vector_3" d="M53.2672 16.8619V14.6359C50.5301 14.6401 47.8471 13.8741 45.5249 12.4254C47.5805 14.6747 50.2873 16.2255 53.2672 16.8619ZM38.8446 2.54635C38.7749 2.14847 38.7214 1.74793 38.6842 1.34571V0H28.1587V41.7745C28.1417 46.6436 24.1882 50.5869 19.3114 50.5869C17.9288 50.5891 16.5652 50.2661 15.3306 49.6439C16.9476 51.7645 19.5004 53.1332 22.374 53.1332C27.2495 53.1332 31.2047 49.1904 31.2218 44.3204V2.54592L38.8446 2.54635ZM21.9968 24.9933V22.6236C21.1173 22.5033 20.2306 22.4432 19.3429 22.4435C8.66005 22.4427 0 31.098 0 41.7745C0 48.4676 3.40352 54.3667 8.57557 57.8368C5.16437 54.3518 3.06261 49.5817 3.06261 44.32C3.06261 33.7801 11.5021 25.21 21.9968 24.9933Z" fill="#00F2EA"/>
<path id="Vector_4" d="M175.227 52.3542C182.871 52.3542 189.067 46.2081 189.067 38.6266C189.067 31.0456 182.871 24.8982 175.227 24.8982H173.141C180.785 24.8982 186.982 31.0456 186.982 38.6266C186.982 46.2081 180.785 52.3542 173.141 52.3542H175.227H175.227Z" fill="#FF004F"/>
<path id="Vector_5" d="M172.953 24.8982H170.868C163.225 24.8982 157.027 31.0456 157.027 38.6266C157.027 46.2081 163.225 52.3542 170.868 52.3542H172.953C165.309 52.3542 159.112 46.2081 159.112 38.6266C159.112 31.0456 165.309 24.8982 172.953 24.8982Z" fill="#00F2EA"/>
<path id="Vector_6" d="M113.803 18.6935V34.2997L121.764 26.4021H131.432L121.384 36.1813L132.57 52.3537H124.04L116.268 41.2578L113.803 43.5162V52.166H105.84V18.6935H113.803ZM199.684 18.6935V34.2997L207.647 26.4021H217.315L207.267 36.1813L218.453 52.3546H209.922L202.148 41.2587L199.684 43.517V52.1668H191.72V18.6935H199.684ZM173.141 24.8981C180.785 24.8981 186.982 31.0455 186.982 38.6266C186.982 46.208 180.785 52.3541 173.141 52.3541H172.952C165.309 52.3541 159.112 46.208 159.112 38.6266C159.112 31.0455 165.309 24.8981 172.952 24.8981H173.141ZM92.9493 18.6935L90.6739 25.8398H84.0393V52.1664H75.8852V25.652H67.7346V18.6931H92.9489L92.9493 18.6935ZM159.682 18.6935L157.408 25.8398H150.773V52.1664H142.619V25.652H134.468V18.6931L159.682 18.6935ZM102.426 29.4127V52.1668H94.4666V29.4127H102.426ZM173.048 31.9518C169.331 31.9518 166.316 34.9389 166.316 38.6266C166.316 42.3142 169.331 45.3026 173.048 45.3035C176.763 45.3035 179.778 42.3142 179.778 38.6266C179.778 34.9389 176.763 31.9518 173.048 31.9518ZM98.4448 18.6935C100.645 18.6935 102.426 20.4621 102.426 22.6423C102.426 24.8226 100.646 26.5911 98.4448 26.5911C96.2462 26.5903 94.4666 24.823 94.4666 22.6423C94.4666 20.4621 96.2462 18.6935 98.4448 18.6935Z" fill="black"/>
</g>
<defs>
<clipPath id="clip0_4045_7620">
<rect width="218.453" height="64" fill="white"/>
</clipPath>
</defs>
</svg>
