<svg width="220" height="104" viewBox="0 0 220 104" fill="none" xmlns="http://www.w3.org/2000/svg">
<g id="logo1">
<g id="&#208;&#161;&#208;&#187;&#208;&#190;&#208;&#185;_x0020_1">
<path id="Vector" d="M10 2V12V52V62H20H50.0001V92V102H60H160H170V92V62H200H210V2H10Z" fill="white"/>
<path id="Vector_2" d="M73.9395 40.9343V23.1099H83.3175V40.9343H80.3735V25.8054H76.8831V40.9343H73.9395Z" fill="black"/>
<path id="Vector_3" d="M91.7373 38.4735C91.7457 38.4735 91.7537 38.4755 91.7621 38.4794C91.7705 38.483 91.7789 38.485 91.7869 38.485C92.1349 38.4774 92.4121 38.4071 92.6193 38.2742C92.8261 38.1415 92.9857 37.9674 93.0973 37.7526C93.2093 37.5379 93.2813 37.2898 93.3145 37.0087C93.3477 36.7274 93.3645 36.4382 93.3645 36.1415V27.8914C93.3645 27.6023 93.3497 27.3171 93.3209 27.0358C93.2921 26.7547 93.2217 26.5047 93.1101 26.2858C92.9981 26.067 92.8365 25.8914 92.6257 25.7587C92.4141 25.6258 92.1225 25.5594 91.7497 25.5594C91.7249 25.5594 91.7041 25.5555 91.6877 25.5478C91.3401 25.5555 91.0625 25.6258 90.8553 25.7587C90.6481 25.8914 90.4909 26.065 90.3833 26.2803C90.2757 26.495 90.2053 26.7431 90.1725 27.0242C90.1393 27.3055 90.1225 27.5947 90.1225 27.8914V36.1415C90.1225 36.4306 90.1369 36.7154 90.1661 36.9971C90.1953 37.2782 90.2653 37.5282 90.3773 37.7471C90.4888 37.9655 90.6505 38.1415 90.8617 38.2742C91.0729 38.4071 91.3645 38.4735 91.7373 38.4735ZM91.7373 22.8759C91.7373 22.8679 91.7417 22.8643 91.7497 22.8643C92.6773 22.8643 93.4369 22.9987 94.0289 23.2683C94.6209 23.5378 95.0849 23.9011 95.4201 24.3582C95.7557 24.8151 95.9873 25.3482 96.1157 25.9578C96.2441 26.567 96.3085 27.2079 96.3085 27.8799V36.153C96.3085 36.8327 96.2441 37.4775 96.1157 38.0867C95.9873 38.6962 95.7533 39.2295 95.4137 39.6863C95.0745 40.1435 94.6085 40.5046 94.0165 40.7702C93.4245 41.0355 92.6689 41.1686 91.7497 41.1686L91.7373 41.157V41.1686C90.8101 41.1686 90.0501 41.0338 89.4581 40.7647C88.8657 40.4951 88.4001 40.1319 88.0609 39.6747C87.7213 39.2174 87.4873 38.6843 87.3589 38.0751C87.2305 37.4654 87.1665 36.8251 87.1665 36.153V27.8799C87.1665 27.1998 87.2305 26.5575 87.3589 25.9518C87.4873 25.3467 87.7233 24.8151 88.0668 24.3582C88.4105 23.9011 88.8785 23.5378 89.4705 23.2683C90.0625 22.9987 90.8181 22.8643 91.7373 22.8643V22.8759Z" fill="black"/>
<path id="Vector_4" d="M106.504 34.6179C106.504 34.3759 106.469 34.1491 106.399 33.9383C106.329 33.7271 106.225 33.5435 106.088 33.3875C105.951 33.231 105.778 33.1083 105.567 33.0183C105.355 32.9283 105.109 32.8835 104.828 32.8835H103.25V38.2391H104.84C105.113 38.2391 105.353 38.2135 105.561 38.1627C105.767 38.1119 105.943 38.0183 106.088 37.8815C106.233 37.7447 106.341 37.5575 106.411 37.3191C106.481 37.0807 106.513 36.7743 106.504 36.3991V34.6179ZM106.293 27.3875C106.293 27.1295 106.264 26.8951 106.206 26.6843C106.148 26.4735 106.057 26.2919 105.933 26.1395C105.809 25.9871 105.647 25.8699 105.449 25.7879C105.25 25.7059 105.005 25.6647 104.715 25.6647H103.25V30.3523H104.505C104.844 30.3523 105.129 30.315 105.362 30.241C105.593 30.1666 105.782 30.0514 105.927 29.8951C106.071 29.739 106.173 29.5435 106.231 29.3095C106.289 29.0751 106.313 28.7935 106.306 28.4655L106.293 27.3875ZM109.448 36.3523C109.448 37.1727 109.355 37.8719 109.169 38.4499C108.982 39.0279 108.699 39.5007 108.318 39.8679C107.937 40.2351 107.461 40.5027 106.889 40.6706C106.318 40.8387 105.643 40.9227 104.865 40.9227H100.306V23.1099H104.803C105.564 23.1099 106.225 23.2018 106.784 23.3854C107.343 23.5691 107.804 23.8347 108.169 24.1823C108.533 24.5298 108.804 24.9539 108.982 25.4539C109.161 25.9538 109.249 26.5243 109.249 27.1647V28.2079C109.249 29.1375 109.113 29.8758 108.839 30.4227C108.566 30.9695 108.119 31.3287 107.498 31.5007C108.102 31.6571 108.579 32.0067 108.927 32.5495C109.274 33.0927 109.448 33.7819 109.448 34.6179V36.3523Z" fill="black"/>
<path id="Vector_5" d="M113.434 40.9343V23.1099H121.421V25.8054H116.377V30.5163H120.563V33.2114H116.377V38.2506H121.421V40.9343H113.434Z" fill="black"/>
<path id="Vector_6" d="M131.107 27.4696C131.107 26.9228 130.987 26.5088 130.747 26.2276C130.507 25.946 130.084 25.8056 129.48 25.8056H128.076V32.122H129.368C130.005 32.122 130.455 31.9852 130.715 31.7116C130.977 31.4383 131.107 30.9775 131.107 30.3288V27.4696ZM134.063 30.3288C134.063 31.1883 133.955 31.9052 133.74 32.4792C133.525 33.0536 133.216 33.5124 132.815 33.8564C132.413 34.2 131.925 34.4424 131.349 34.5828C130.773 34.7236 130.126 34.794 129.405 34.794H128.076V40.9344H125.132V23.1104H129.467C130.163 23.1104 130.792 23.1843 131.355 23.3328C131.918 23.4812 132.401 23.7256 132.802 24.0652C133.204 24.4052 133.515 24.8524 133.734 25.4072C133.953 25.9616 134.063 26.6492 134.063 27.4696V30.3288Z" fill="black"/>
<path id="Vector_7" d="M137.466 40.9343V23.1099H140.422V30.5983H143.912V23.1099H146.856V40.9343H143.912V33.2934H140.422V40.9343H137.466Z" fill="black"/>
<path id="Vector_8" d="M158.257 40.9343L158.369 29.2155L154.717 40.9343H151.277L151.314 23.1099H154.258L154.158 34.5474L157.524 23.1099H161.214V40.9343H158.257Z" fill="black"/>
<path id="Vector_9" d="M173.831 35.2859V36.3407C173.831 36.9735 173.765 37.5807 173.632 38.1627C173.5 38.7447 173.264 39.2567 172.924 39.6979C172.585 40.1395 172.122 40.4931 171.534 40.7587C170.945 41.0239 170.196 41.1571 169.285 41.1571C169.277 41.1571 169.273 41.1611 169.273 41.1687C168.337 41.1687 167.573 41.0339 166.981 40.7643C166.389 40.4947 165.925 40.1315 165.59 39.6747C165.255 39.2175 165.023 38.6843 164.894 38.0751C164.766 37.4655 164.702 36.8251 164.702 36.1531V27.8795C164.702 27.1999 164.766 26.5575 164.894 25.9519C165.023 25.3463 165.255 24.8151 165.59 24.3583C165.925 23.9011 166.389 23.5379 166.981 23.2683C167.573 22.9987 168.329 22.8639 169.248 22.8639L169.26 22.8523C170.188 22.8523 170.948 22.9871 171.54 23.2567C172.132 23.5263 172.597 23.8855 172.937 24.3347C173.276 24.7839 173.51 25.3015 173.639 25.8875C173.767 26.4735 173.831 27.0827 173.831 27.7155V28.7351H170.875V27.7275C170.875 27.4615 170.856 27.1999 170.819 26.9423C170.782 26.6843 170.707 26.4519 170.596 26.2447C170.484 26.0379 170.322 25.8699 170.111 25.7411C169.9 25.6119 169.621 25.5475 169.273 25.5475C168.908 25.5475 168.621 25.6139 168.409 25.7467C168.198 25.8795 168.035 26.0535 167.919 26.2683C167.803 26.4831 167.728 26.7311 167.695 27.0123C167.662 27.2939 167.646 27.5867 167.646 27.8915V36.1415C167.646 36.4303 167.66 36.7155 167.689 36.9967C167.718 37.2779 167.789 37.5279 167.9 37.7467C168.012 37.9655 168.173 38.1415 168.385 38.2743C168.596 38.4071 168.888 38.4735 169.26 38.4735C169.6 38.4735 169.875 38.4147 170.086 38.2975C170.298 38.1803 170.461 38.0223 170.577 37.8231C170.693 37.6239 170.771 37.3951 170.813 37.1375C170.854 36.8795 170.875 36.6103 170.875 36.3287V35.2859H173.831Z" fill="black"/>
<path id="Vector_10" d="M183.047 33.7155C183.047 33.0671 182.916 32.6063 182.655 32.3327C182.394 32.0591 181.945 31.9227 181.307 31.9227H180.016V38.2391H181.42C182.024 38.2391 182.446 38.0983 182.687 37.8171C182.926 37.5359 183.047 37.1219 183.047 36.5747V33.7155ZM186.003 36.5747C186.003 37.3951 185.893 38.0827 185.673 38.6375C185.454 39.1919 185.143 39.6395 184.742 39.9791C184.34 40.3191 183.858 40.5631 183.295 40.7115C182.732 40.8599 182.103 40.9343 181.407 40.9343H177.072V23.1099H180.016V29.2507H181.345C182.065 29.2507 182.713 29.3211 183.288 29.4615C183.864 29.6023 184.353 29.8443 184.754 30.1883C185.156 30.5319 185.465 30.9907 185.68 31.5651C185.895 32.1395 186.003 32.8563 186.003 33.7155V36.5747Z" fill="black"/>
<path id="Vector_11" d="M38.8846 41.367L31.2614 31.2586C30.3724 30.0797 30.0053 28.6574 30.1334 27.2807C30.2618 25.8999 30.8855 24.5673 31.9772 23.5724C32.1289 23.4341 32.2894 23.3033 32.458 23.18C33.6343 22.3195 35.0445 21.9717 36.4051 22.1082C37.7392 22.242 39.0262 22.839 40.0002 23.8719C40.9742 22.839 42.2611 22.242 43.5954 22.1081C44.956 21.9716 46.3662 22.3195 47.5424 23.18C47.7109 23.3032 47.8715 23.4341 48.0232 23.5724C49.1149 24.5673 49.7386 25.8999 49.867 27.2807C49.9952 28.6575 49.6281 30.0797 48.7391 31.2586L40.0002 42.8464L38.8846 41.367ZM33.4927 29.5742L40.0002 38.2032L46.5078 29.5742C46.9654 28.9674 47.1546 28.2374 47.089 27.5323C47.0238 26.8312 46.7035 26.1513 46.142 25.6395C46.0577 25.5627 45.9738 25.4938 45.8908 25.4331C45.29 24.9937 44.5674 24.8161 43.8688 24.8862C43.1742 24.9559 42.5033 25.2734 42.0015 25.824C41.9267 25.906 41.8577 25.9899 41.7952 26.0753L40.0003 28.5266L38.2052 26.0753C38.1428 25.99 38.0738 25.906 37.9989 25.824C37.4971 25.2734 36.8262 24.9559 36.1316 24.8862C35.433 24.8162 34.7104 24.9936 34.1096 25.4331C34.0267 25.4938 33.9427 25.5627 33.8584 25.6395C33.2969 26.1513 32.9766 26.8312 32.9114 27.5323C32.8458 28.2373 33.035 28.9673 33.4927 29.5742Z" fill="black"/>
<path id="Vector_12" d="M21.4001 50.6001H58.6001V13.4001H21.4001V50.6001ZM161.4 50.6001H198.6V13.4001H61.4001V50.6001H161.4ZM200 53.4001H161.4V93.4002H160H58.6002V53.4001H58.6001H18.6001V10.6001H58.6001H61.4001H201.4V53.4001H200ZM61.4001 90.6002H158.6V53.4001H61.4001V90.6002Z" fill="black"/>
<path id="Vector_13" d="M79.9636 81.0319V73.3911H78.7588L78.7716 73.4031L75.8648 81.0319H72.722L76.188 71.9147L72.9585 63.2075H76.1133L78.858 70.6959H79.9636V63.2075H82.9072V70.6959H84.0008L86.758 63.2075H89.9004L86.6584 71.9147L90.1488 81.0319H86.994L84.0876 73.4031V73.3911H82.9072V81.0319H79.9636Z" fill="black"/>
<path id="Vector_14" d="M100.233 81.0319L100.345 69.3131L96.6929 81.0319H93.2529L93.29 63.2075H96.2336L96.1344 74.6452L99.5004 63.2075H103.19V81.0319H100.233Z" fill="black"/>
<path id="Vector_15" d="M113.286 74.7155C113.286 74.4735 113.251 74.2467 113.18 74.0359C113.11 73.8247 113.007 73.6415 112.87 73.4852C112.733 73.3287 112.56 73.2059 112.348 73.1159C112.137 73.0264 111.891 72.9811 111.61 72.9811H110.032V78.3367H111.622C111.895 78.3367 112.135 78.3115 112.342 78.2604C112.549 78.2095 112.725 78.1159 112.87 77.9791C113.015 77.8427 113.122 77.6551 113.193 77.4167C113.263 77.1783 113.294 76.8719 113.286 76.4968V74.7155ZM113.075 67.4851C113.075 67.2271 113.046 66.9927 112.988 66.7819C112.93 66.5711 112.839 66.3895 112.715 66.2372C112.591 66.0847 112.429 65.9675 112.23 65.8855C112.032 65.8035 111.787 65.7623 111.497 65.7623H110.032V70.4499H111.286C111.626 70.4499 111.911 70.4131 112.144 70.3387C112.375 70.2643 112.564 70.1491 112.709 69.9928C112.853 69.8367 112.955 69.6411 113.013 69.4071C113.071 69.1727 113.095 68.8911 113.088 68.5631L113.075 67.4851ZM116.23 76.4499C116.23 77.2704 116.137 77.9696 115.95 78.5475C115.764 79.1259 115.48 79.5983 115.1 79.9655C114.718 80.3327 114.243 80.6004 113.671 80.7683C113.1 80.9363 112.425 81.0204 111.646 81.0204H107.088V63.2075H111.584C112.346 63.2075 113.007 63.2995 113.566 63.4831C114.125 63.6667 114.586 63.9323 114.95 64.2799C115.315 64.6275 115.586 65.0515 115.764 65.5516C115.942 66.0515 116.031 66.6219 116.031 67.2623V68.3056C116.031 69.2351 115.894 69.9735 115.621 70.5203C115.348 71.0671 114.901 71.4267 114.28 71.5983C114.884 71.7547 115.361 72.1043 115.708 72.6471C116.056 73.1903 116.23 73.8796 116.23 74.7155V76.4499Z" fill="black"/>
<path id="Vector_16" d="M126.712 81.0319L126.824 69.3131L123.172 81.0319H119.732L119.769 63.2075H122.712L122.613 74.6452L125.979 63.2075H129.669V81.0319H126.712Z" fill="black"/>
<path id="Vector_17" d="M136.225 67.9892L136.523 81.032H133.579V63.208H137.393L139.877 74.036L142.373 63.208H146.174V81.032H143.218L143.516 68.1648L141.156 78.8056H138.61L136.225 67.9892Z" fill="black"/>
</g>
</g>
</svg>
