<svg width="139" height="56" viewBox="0 0 139 56" fill="none" xmlns="http://www.w3.org/2000/svg">
<g id="IBM_logo 1" clip-path="url(#clip0_4045_7763)">
<g id="Group">
<g id="Group_2">
<path id="Rectangle-path" d="M0 52.1008H27.0262V55.9863H0V52.1008Z" fill="#1F70C1"/>
<path id="Rectangle-path_1_" d="M0 44.6479H27.0262V48.5471H0V44.6479Z" fill="#1F70C1"/>
<path id="Rectangle-path_2_" d="M7.71005 37.2087H19.3025V41.108H7.71005V37.2087Z" fill="#1F70C1"/>
<path id="Rectangle-path_3_" d="M7.71005 29.77H19.3025V33.6693H7.71005V29.77Z" fill="#1F70C1"/>
<path id="Rectangle-path_4_" d="M7.71005 22.3308H19.3025V26.2301H7.71005V22.3308Z" fill="#1F70C1"/>
<path id="Rectangle-path_5_" d="M7.71005 14.8779H19.3025V18.7772H7.71005V14.8779Z" fill="#1F70C1"/>
<path id="Rectangle-path_6_" d="M27.0262 7.43896H0V11.3382H27.0262V7.43896Z" fill="#1F70C1"/>
<path id="Rectangle-path_7_" d="M27.0262 0H0V3.89928H27.0262V0Z" fill="#1F70C1"/>
</g>
<g id="Group_3">
<path id="Shape_16_" d="M30.8812 48.547H72.4462C73.1483 47.3441 73.6715 46.0304 73.9883 44.6477H30.8812V48.547Z" fill="#1F70C1"/>
<path id="Shape_17_" d="M69.2109 29.77H38.605V33.6693H72.4464C71.5651 32.1759 70.4774 30.8624 69.2109 29.77Z" fill="#1F70C1"/>
<path id="Shape_18_" d="M38.605 22.3308V26.2301H69.2109C70.5051 25.1377 71.5926 23.8241 72.4464 22.3308H38.605Z" fill="#1F70C1"/>
<path id="Shape_19_" d="M72.4464 7.43896H30.8812V11.3382H73.9883C73.6304 9.95552 73.1072 8.64203 72.4464 7.43896Z" fill="#1F70C1"/>
<path id="Shape_20_" d="M59.6698 0H30.8812V3.89928H69.5963C67.008 1.49329 63.4973 0 59.6698 0Z" fill="#1F70C1"/>
<path id="Rectangle-path_8_" d="M50.1837 14.8779H38.605V18.7772H50.1837V14.8779Z" fill="#1F70C1"/>
<path id="Shape_21_" d="M61.7762 18.7772H73.8918C74.236 17.5328 74.415 16.2192 74.415 14.8779H61.7762V18.7772Z" fill="#1F70C1"/>
<path id="Rectangle-path_9_" d="M38.605 37.2087H50.1837V41.108H38.605V37.2087Z" fill="#1F70C1"/>
<path id="Shape_22_" d="M61.7762 37.2087V41.108H74.415C74.415 39.7668 74.236 38.4533 73.8918 37.2087H61.7762Z" fill="#1F70C1"/>
<path id="Shape_23_" d="M30.8812 55.9586L59.6698 56.0001C63.5248 56.0001 67.008 54.5068 69.6101 52.1008H30.8812V55.9586Z" fill="#1F70C1"/>
</g>
<g id="Group_4">
<path id="Rectangle-path_10_" d="M77.2238 52.1008H96.5262V55.9863H77.2238V52.1008Z" fill="#1F70C1"/>
<path id="Rectangle-path_11_" d="M77.2238 44.6479H96.5262V48.5471H77.2238V44.6479Z" fill="#1F70C1"/>
<path id="Rectangle-path_12_" d="M84.9337 37.2087H96.5262V41.108H84.9337V37.2087Z" fill="#1F70C1"/>
<path id="Rectangle-path_13_" d="M84.9337 29.77H96.5262V33.6693H84.9337V29.77Z" fill="#1F70C1"/>
<path id="Shape_24_" d="M101.896 7.43896H77.2238V11.3382H103.231L101.896 7.43896Z" fill="#1F70C1"/>
<path id="Shape_25_" d="M99.3348 0H77.2238V3.89928H100.67L99.3348 0Z" fill="#1F70C1"/>
<path id="Rectangle-path_14_" d="M119.684 52.1008H139V55.9863H119.684V52.1008Z" fill="#1F70C1"/>
<path id="Rectangle-path_15_" d="M119.684 44.6479H139V48.5471H119.684V44.6479Z" fill="#1F70C1"/>
<path id="Rectangle-path_16_" d="M119.684 37.2087H131.276V41.108H119.684V37.2087Z" fill="#1F70C1"/>
<path id="Rectangle-path_17_" d="M119.684 29.77H131.276V33.6693H119.684V29.77Z" fill="#1F70C1"/>
<path id="Shape_26_" d="M119.684 26.2301H131.276V22.3308H119.684H109.193L108.105 25.4835L107.017 22.3308H96.5262H84.9337V26.2301H96.5262V22.6488L97.7516 26.2301H118.458L119.684 22.6488V26.2301Z" fill="#1F70C1"/>
<path id="Shape_27_" d="M131.276 14.8779H111.753L110.418 18.7772H131.276V14.8779Z" fill="#1F70C1"/>
<path id="Shape_28_" d="M116.889 0L115.553 3.89928H139V0H116.889Z" fill="#1F70C1"/>
<path id="Shape_29_" d="M108.105 55.9586L109.44 52.1008H106.77L108.105 55.9586Z" fill="#1F70C1"/>
<path id="Shape_30_" d="M105.544 48.5471H110.666L112.043 44.6479H104.181L105.544 48.5471Z" fill="#1F70C1"/>
<path id="Shape_31_" d="M102.942 41.108H113.268L114.631 37.2087H101.579L102.942 41.108Z" fill="#1F70C1"/>
<path id="Shape_32_" d="M100.354 33.6693H115.87L117.192 29.77H99.0182L100.354 33.6693Z" fill="#1F70C1"/>
<path id="Shape_33_" d="M84.9337 18.7772H105.792L104.457 14.8779H84.9337V18.7772Z" fill="#1F70C1"/>
<path id="Shape_34_" d="M112.993 11.3382H139V7.43896H114.314L112.993 11.3382Z" fill="#1F70C1"/>
</g>
</g>
</g>
<defs>
<clipPath id="clip0_4045_7763">
<rect width="139" height="56" fill="white"/>
</clipPath>
</defs>
</svg>
