<svg width="220" height="104" viewBox="0 0 220 104" fill="none" xmlns="http://www.w3.org/2000/svg">
<g id="logo1">
<g id="g4203">
<path id="path3433" fill-rule="evenodd" clip-rule="evenodd" d="M96.9276 27.7229C96.9276 27.7229 96.9276 27.7229 101.345 27.7229C102.954 27.7229 103.765 28.5181 103.765 30.3133C103.765 30.3133 103.765 30.3133 103.765 36.6747C103.765 36.6747 103.765 36.6747 112.417 36.6747C112.417 36.6747 112.417 36.6747 112.417 30.3133C112.417 28.5181 113.216 27.7229 115.031 27.7229C115.031 27.7229 115.031 27.7229 119.254 27.7229C119.254 27.7229 119.254 27.7229 119.254 31.9036C119.254 31.9036 119.254 31.9036 117.451 31.9036L117.246 32.1084C117.246 32.1084 117.246 32.1084 117.246 50.0121C117.246 50.0121 117.246 50.0121 112.417 50.0121C112.417 50.0121 112.417 50.0121 112.417 41.0603C112.417 41.0603 112.417 41.0603 103.765 41.0603C103.765 41.0603 103.765 41.0603 103.765 50.0121C103.765 50.0121 103.765 50.0121 98.9364 50.0121C98.9364 50.0121 98.9364 50.0121 98.9364 32.1084C98.9364 32.1084 98.9364 31.9036 98.7307 31.9036C98.7307 31.9036 98.7307 31.9036 96.9276 31.9036C96.9276 31.9036 96.9276 31.9036 96.9276 27.7229Z" fill="#ED1C24"/>
<path id="path3435" fill-rule="evenodd" clip-rule="evenodd" d="M131.925 27.3252L132.033 27.3372V31.9276L131.925 31.9035C128.306 31.9035 125.487 34.8915 125.487 38.6746C125.487 42.6505 128.306 45.8312 131.925 45.8312L132.033 45.8071V50.3975L131.925 50.4095C125.487 50.4095 120.259 45.2409 120.259 38.6746C120.259 32.3011 125.487 27.3252 131.925 27.3252Z" fill="#ED1C24"/>
<path id="path3437" fill-rule="evenodd" clip-rule="evenodd" d="M132.033 27.3374L134.272 27.5543C139.585 28.5904 143.59 33.0964 143.59 38.6748C143.59 44.4097 139.585 49.0964 134.272 50.1687L132.033 50.3976V45.8073L134.49 45.2772C136.862 44.1928 138.568 41.6507 138.568 38.6748C138.568 35.8314 136.862 33.4458 134.49 32.4338L132.033 31.9278V27.3374Z" fill="#ED1C24"/>
<path id="path3439" fill-rule="evenodd" clip-rule="evenodd" d="M144.595 27.7229C144.595 27.7229 144.595 27.7229 151.335 27.7229H154.554V31.9036H154.251C153.852 31.9036 153.041 31.9036 151.432 31.9036C151.432 31.9036 151.432 31.9036 151.432 36.4819C151.432 36.4819 151.432 36.4819 152.799 36.4819H154.554V40.4578H153.525C153.017 40.4578 152.339 40.4578 151.432 40.4578C151.432 40.4578 151.432 40.4578 151.432 45.4337C151.432 45.6386 151.432 45.6386 151.638 45.6386C151.638 45.6386 151.638 45.6386 153.078 45.6386H154.554V50.0121H154.13C153.404 50.0121 151.94 50.0121 149.024 50.0121C147.414 50.0121 146.616 49.2169 146.616 47.4217V31.9036C146.616 31.9036 146.616 31.9036 144.595 31.9036C144.595 31.9036 144.595 31.9036 144.595 27.7229Z" fill="#ED1C24"/>
<path id="path3441" fill-rule="evenodd" clip-rule="evenodd" d="M154.554 27.7229H154.651C159.08 27.7229 161.694 30.1084 161.694 33.6988C161.694 35.8795 160.689 37.2771 159.685 38.2771C161.5 39.0723 162.698 41.0602 162.698 43.241C162.698 47.4217 159.479 50.0121 154.857 50.0121C154.857 50.0121 154.857 50.0121 154.772 50.0121H154.554V45.6386H155.05C156.66 45.6386 157.676 44.6386 157.676 43.0482C157.676 41.4578 156.66 40.4578 155.05 40.4578C155.05 40.4578 155.05 40.4578 154.602 40.4578H154.554V36.4819H154.651C156.067 36.4819 156.865 35.4819 156.865 34.0964C156.865 32.6988 156.067 31.9036 154.651 31.9036C154.651 31.9036 154.651 31.9036 154.602 31.9036H154.554V27.7229Z" fill="#ED1C24"/>
<path id="path3443" fill-rule="evenodd" clip-rule="evenodd" d="M171.956 27.7229C171.956 27.7229 171.956 27.7229 173.989 27.7229H174.364V34.0964C174.17 34.494 173.964 35.0844 173.964 35.6868C173.964 35.6868 173.964 35.6868 172.355 40.2651C172.355 40.2651 172.355 40.2651 174.061 40.2651H174.364V44.4337H173.275C172.658 44.4337 171.956 44.4337 171.157 44.4337C171.157 44.4337 171.157 44.4337 169.741 48.0241C169.342 49.4096 168.543 50.0121 166.934 50.0121C166.934 50.0121 166.934 50.0121 163.908 50.0121C163.908 50.0121 163.908 50.0121 163.908 45.6386C163.908 45.6386 163.908 45.6386 164.913 45.6386C165.324 45.6386 165.324 45.6386 165.518 45.4337C165.518 45.4337 165.518 45.4337 171.956 27.7229Z" fill="#ED1C24"/>
<path id="path3445" fill-rule="evenodd" clip-rule="evenodd" d="M174.364 27.7229H176.784C176.784 27.7229 176.784 27.7229 183.222 45.4337C183.416 45.6386 183.416 45.6386 183.815 45.6386C183.815 45.6386 183.815 45.6386 184.626 45.6386C184.626 45.6386 184.626 45.6386 184.626 50.0121C184.626 50.0121 184.626 50.0121 181.806 50.0121C180.197 50.0121 179.398 49.4096 178.987 47.8193C178.987 47.8193 178.987 47.8193 177.583 44.4337C177.583 44.4337 177.583 44.4337 174.872 44.4337H174.364V40.2651H176.373C176.373 40.2651 176.373 40.2651 174.775 35.6868C174.775 35.0844 174.57 34.494 174.364 34.0964V27.7229Z" fill="#ED1C24"/>
<path id="path3447" fill-rule="evenodd" clip-rule="evenodd" d="M96.9276 56.3735C96.9276 56.3735 96.9276 56.3735 114.426 56.3735C116.036 56.3735 117.04 57.1687 117.04 58.9639C117.04 58.9639 117.04 58.9639 117.04 74.0844C117.04 74.2772 117.04 74.2772 117.246 74.2772C117.246 74.2772 117.246 74.2772 118.855 74.2772C118.855 74.2772 118.855 74.2772 118.855 78.6627C118.855 78.6627 118.855 78.6627 114.632 78.6627C112.817 78.6627 112.018 77.8675 112.018 76.0723C112.018 76.0723 112.018 76.0723 112.018 60.7591C112.018 60.7591 112.018 60.5543 111.812 60.5543C111.812 60.5543 111.812 60.5543 103.765 60.5543C103.765 60.5543 103.765 60.5543 103.765 78.6627C103.765 78.6627 103.765 78.6627 98.9364 78.6627C98.9364 78.6627 98.9364 78.6627 98.9364 60.5543C98.9364 60.5543 98.9364 60.5543 96.9276 60.5543C96.9276 60.5543 96.9276 60.5543 96.9276 56.3735Z" fill="#ED1C24"/>
<path id="path3449" fill-rule="evenodd" clip-rule="evenodd" d="M131.525 55.9758L131.622 55.9879V60.5782L131.525 60.5541C127.895 60.5541 125.087 63.5421 125.087 67.3252C125.087 71.3011 127.895 74.4819 131.525 74.4819L131.622 74.4578V79.0481L131.525 79.0602C125.087 79.0602 120.053 73.8794 120.053 67.3252C120.053 60.9517 125.087 55.9758 131.525 55.9758Z" fill="#ED1C24"/>
<path id="path3451" fill-rule="evenodd" clip-rule="evenodd" d="M131.622 55.988L133.933 56.2049C139.343 57.2411 143.191 61.7471 143.191 67.3254C143.191 73.0603 139.343 77.7471 133.933 78.8194L131.622 79.0483V74.4579L134.175 73.9278C136.584 72.8435 138.169 70.3013 138.169 67.3254C138.169 64.482 136.584 62.0965 134.175 61.0844L131.622 60.5784V55.988Z" fill="#ED1C24"/>
<path id="path3453" fill-rule="evenodd" clip-rule="evenodd" d="M144.195 56.3735C144.195 56.3735 144.195 56.3735 148.624 56.3735C150.234 56.3735 151.033 57.1687 151.033 58.9639C151.033 58.9639 151.033 58.9639 151.033 74.0844C151.033 74.2772 151.033 74.2772 151.238 74.2772C151.238 74.2772 151.238 74.2772 157.071 74.2772C157.071 74.2772 157.071 74.2772 157.071 56.3735C157.071 56.3735 157.071 56.3735 161.899 56.3735C161.899 56.3735 161.899 56.3735 161.899 74.2772C161.899 74.2772 161.899 74.2772 167.732 74.2772C167.938 74.2772 167.938 74.2772 167.938 74.0844C167.938 74.0844 167.938 74.0844 167.938 58.9639C167.938 57.1687 168.737 56.3735 170.346 56.3735C170.346 56.3735 170.346 56.3735 174.775 56.3735C174.775 56.3735 174.775 56.3735 174.775 60.5543C174.775 60.5543 174.775 60.5543 172.96 60.5543C172.754 60.5543 172.754 60.7591 172.754 60.7591C172.754 60.7591 172.754 60.7591 172.754 76.0723C172.754 77.8675 171.956 78.6627 170.346 78.6627C170.346 78.6627 170.346 78.6627 148.818 78.6627C147.015 78.6627 146.204 77.8675 146.204 76.0723C146.204 76.0723 146.204 76.0723 146.204 60.7591C146.204 60.7591 146.204 60.5543 146.01 60.5543C146.01 60.5543 146.01 60.5543 144.195 60.5543C144.195 60.5543 144.195 60.5543 144.195 56.3735Z" fill="#ED1C24"/>
<path id="path3455" fill-rule="evenodd" clip-rule="evenodd" d="M178.587 56.3735C178.587 56.3735 178.587 56.3735 193.677 56.3735C195.493 56.3735 196.098 57.1687 196.098 58.7591C196.098 58.7591 196.098 58.7591 196.098 62.5422H191.669C191.669 62.5422 191.669 62.5422 191.669 60.7591C191.669 60.5543 191.669 60.5543 191.463 60.5543C191.463 60.5543 191.463 60.5543 188.655 60.5543C188.655 60.5543 188.655 60.5543 188.655 78.6627C188.655 78.6627 188.655 78.6627 183.815 78.6627C183.815 78.6627 183.815 78.6627 183.815 60.5543C183.815 60.5543 183.815 60.5543 181.007 60.5543C180.802 60.5543 180.802 60.5543 180.802 60.7591C180.802 60.7591 180.802 60.7591 180.802 62.5422C180.802 62.5422 180.802 62.5422 176.373 62.5422C176.373 62.5422 176.373 62.5422 176.373 58.7591C176.373 57.1687 176.978 56.3735 178.587 56.3735Z" fill="#ED1C24"/>
<path id="path3457" fill-rule="evenodd" clip-rule="evenodd" d="M202.33 56.3735C202.33 56.3735 202.33 56.3735 204.363 56.3735H204.738V62.747C204.532 63.1446 204.339 63.735 204.339 64.3374C204.339 64.3374 204.339 64.3374 202.729 68.9157C202.729 68.9157 202.729 68.9157 204.423 68.9157H204.738V73.0844H203.649C203.032 73.0844 202.33 73.0844 201.519 73.0844C201.519 73.0844 201.519 73.0844 200.115 76.4699C199.716 78.0603 198.905 78.6627 197.296 78.6627C197.296 78.6627 197.296 78.6627 194.283 78.6627C194.283 78.6627 194.283 78.6627 194.283 74.2772C194.283 74.2772 194.283 74.2772 195.287 74.2772C195.698 74.2772 195.698 74.2772 195.892 74.0844C195.892 74.0844 195.892 74.0844 202.33 56.3735Z" fill="#ED1C24"/>
<path id="path3459" fill-rule="evenodd" clip-rule="evenodd" d="M204.738 56.3735H207.146C207.146 56.3735 207.146 56.3735 213.596 74.0844C213.79 74.2772 213.79 74.2772 214.201 74.2772H215C215 74.2772 215 74.2772 215 78.6627C215 78.6627 215 78.6627 212.18 78.6627C210.571 78.6627 209.772 78.0603 209.361 76.4699C209.361 76.4699 209.361 76.4699 207.957 73.0844C207.957 73.0844 207.957 73.0844 205.246 73.0844H204.738V68.9157H206.747C206.747 68.9157 206.747 68.9157 205.137 64.3374C205.137 63.735 204.944 63.1446 204.738 62.747V56.3735Z" fill="#ED1C24"/>
<path id="path3461" fill-rule="evenodd" clip-rule="evenodd" d="M65.924 37.2049C66.1539 37.1326 66.4565 37.2772 66.759 37.6748C66.759 37.6748 66.759 37.6748 80.4335 51.0001C81.2322 51.7953 81.2322 53.0001 80.4335 53.5905C80.4335 53.5905 80.4335 53.5905 66.759 67.1206C66.4565 67.5182 66.1539 67.6146 65.924 67.4941C65.6941 67.3736 65.5489 67.0242 65.5489 66.5182V38.0724C65.5489 37.5784 65.6941 37.2772 65.924 37.2049Z" fill="#ED1C24"/>
<path id="path3463" fill-rule="evenodd" clip-rule="evenodd" d="M42.5322 15H43.5003L44.4321 15.3855C44.4321 15.3855 44.4321 15.3855 58.5059 29.3133C59.111 30.1084 58.9053 30.7108 57.9009 30.7108C57.9009 30.7108 57.9009 30.7108 52.068 30.7108C51.0636 30.7108 50.2649 31.506 50.2649 32.506C50.2649 32.506 50.2649 32.506 50.2649 42.8434C50.2649 43.8434 49.4541 44.6386 48.244 44.6386C48.244 44.6386 48.244 44.6386 37.9942 44.6386C36.9898 44.6386 36.179 43.8434 36.179 42.8434C36.179 42.8434 36.179 42.8434 36.179 32.506C36.179 31.506 35.3803 30.7108 34.3638 30.7108H28.1316C27.1272 30.7108 26.9215 30.1084 27.5266 29.3133C27.5266 29.3133 27.5266 29.3133 41.6125 15.3855L42.5322 15Z" fill="#ED1C24"/>
<path id="path3465" fill-rule="evenodd" clip-rule="evenodd" d="M20.4836 36.9035C20.7377 37.024 20.8951 37.3734 20.8951 37.8794V66.9156C20.8951 67.4216 20.7377 67.7228 20.4836 67.8192C20.2416 67.9156 19.8907 67.8192 19.4792 67.518C19.4792 67.518 19.4792 67.518 5.59901 53.5903C4.80033 52.9999 4.80033 51.7951 5.59901 50.9999C5.59901 50.9999 5.59902 50.9999 19.4792 37.277C19.8907 36.8794 20.2416 36.783 20.4836 36.9035Z" fill="#ED1C24"/>
<path id="path3467" fill-rule="evenodd" clip-rule="evenodd" d="M37.9942 59.759C37.9942 59.759 37.9942 59.759 48.244 59.759C49.4541 59.759 50.2649 60.5542 50.2649 61.5542C50.2649 61.5542 50.2649 61.5542 50.2649 72.494C50.2649 73.6867 51.0636 74.4819 52.068 74.4819H57.5015C58.5059 74.4819 58.9053 75.0723 58.1066 75.6747C58.1066 75.6747 58.1066 75.6747 44.4321 89.3976C44.0207 89.7952 43.5245 90 43.0162 90C42.5201 90 42.0118 89.7952 41.6125 89.3976C41.6125 89.3976 41.6125 89.3976 27.938 75.6747C27.1272 75.0723 27.5266 74.4819 28.531 74.4819C28.531 74.4819 28.531 74.4819 34.3638 74.4819C35.3803 74.4819 36.179 73.6867 36.179 72.494C36.179 72.494 36.179 72.494 36.179 61.5542C36.179 60.5542 36.9898 59.759 37.9942 59.759Z" fill="#ED1C24"/>
</g>
</g>
</svg>
