<svg width="180" height="50" viewBox="0 0 180 50" fill="none" xmlns="http://www.w3.org/2000/svg">
<g id="NASA_Worm_logo" clip-path="url(#clip0_4045_7602)">
<g id="main_layer">
<g id="Group">
<path id="Vector" d="M32.4852 36.9356C33.0417 39.0385 33.9397 39.8516 35.5267 39.8516C37.172 39.8516 38.0347 38.8642 38.0347 36.9356V1.12889H48.3406V36.9356C48.3406 41.9828 47.6851 44.1696 45.1235 46.7294C43.2773 48.5741 39.872 50 35.5723 50C32.0985 50 28.7744 48.8514 26.6546 46.7297C24.796 44.8695 23.7751 42.9589 22.1797 36.9352L15.8557 13.0644C15.2988 10.9615 14.4012 10.1487 12.8142 10.1487C11.1686 10.1487 10.3059 11.1358 10.3059 13.0644V48.8715H0V13.0644C0 8.0176 0.65577 5.83037 3.21741 3.27061C5.06289 1.42664 8.46851 0 12.7686 0C16.2424 0 19.5665 1.149 21.6863 3.27026C23.5449 5.13046 24.5658 7.04111 26.1613 13.0648L32.4852 36.9356Z" fill="#DB362D"/>
<path id="Vector_2" d="M168.812 48.8715L156.91 11.6756C156.778 11.2649 156.654 10.9164 156.464 10.6839C156.137 10.2863 155.684 10.0775 155.075 10.0775C154.467 10.0775 154.015 10.2863 153.687 10.6839C153.497 10.916 153.373 11.2646 153.242 11.6756L141.34 48.8715H130.687L143.688 8.2395C144.365 6.12282 145.333 4.32577 146.562 3.12844C148.67 1.07492 151.155 0 155.076 0C158.997 0 161.482 1.07492 163.589 3.12809C164.818 4.32577 165.786 6.12247 166.464 8.23914L179.464 48.8711H168.812V48.8715Z" fill="#DB362D"/>
<path id="Vector_3" d="M116.138 48.8715C122.89 48.8715 126.183 47.4385 128.785 44.8537C131.664 41.9944 133.042 38.866 133.042 34.1952C133.042 30.068 131.529 26.2453 129.226 23.9579C126.216 20.9667 122.476 20.0241 116.378 20.0241L107.837 20.0237C104.573 20.0237 103.272 19.6297 102.243 18.6197C101.537 17.9268 101.205 16.8963 101.205 15.6817C101.205 14.4262 101.508 13.1862 102.372 12.3391C103.139 11.5874 104.183 11.2423 106.191 11.2423H130.877V1.12889H108.077C101.325 1.12889 98.0319 2.56223 95.4296 5.14669C92.5509 8.00596 91.1733 11.134 91.1733 15.8048C91.1733 19.9327 92.6858 23.755 94.9885 26.0421C97.9997 29.0333 101.739 29.9763 107.837 29.9763L116.379 29.977C119.642 29.977 120.943 30.3704 121.972 31.3807C122.679 32.0739 123.01 33.104 123.01 34.3186C123.01 35.5742 122.707 36.8142 121.844 37.6612C121.077 38.413 120.032 38.758 118.024 38.758H92.565L82.8005 8.2395C82.1232 6.12282 81.1549 4.32577 79.9263 3.12844C77.8177 1.07492 75.3331 0 71.4122 0C67.4914 0 65.0064 1.07492 62.8989 3.12809C61.67 4.32577 60.702 6.12247 60.0247 8.23914L47.0241 48.8711H57.6767L69.5788 11.6752C69.7101 11.2646 69.8341 10.916 70.0248 10.6835C70.3518 10.286 70.8045 10.0771 71.4129 10.0771C72.0214 10.0771 72.4738 10.286 72.8011 10.6835C72.9918 10.9157 73.1158 11.2642 73.2468 11.6752L85.1488 48.8711H116.138V48.8715Z" fill="#DB362D"/>
</g>
</g>
</g>
<defs>
<clipPath id="clip0_4045_7602">
<rect width="179.464" height="50" fill="white"/>
</clipPath>
</defs>
</svg>
