<svg xmlns="http://www.w3.org/2000/svg" width="160" height="80" viewBox="0 0 160 80" fill="none">
  <g clip-path="url(#clip0_4761_6956)">
    <path d="M77.0873 80C99.1557 80 117.046 62.0914 117.046 40C117.046 17.9086 99.1557 0 77.0873 0C55.0189 0 37.1289 17.9086 37.1289 40C37.1289 62.0914 55.0189 80 77.0873 80Z" fill="#1F1B21"/>
    <path d="M8.15817 40.5C5.49428 38.5 2.99688 36.6667 2.99688 33.1667C2.99688 29.6667 4.49532 27.8333 7.15921 27.8333C9.8231 27.8333 11.3215 29.6667 11.3215 33.1667V34.3333H14.1519V33.3333C14.1519 28 11.6545 25 6.99272 25C2.4974 25 0 28 0 33.1667C0 37.8333 3.16337 40.1667 6.16025 42.3333C8.82414 44.3333 11.3215 46.1667 11.3215 49.5C11.488 53.1667 9.98959 55 7.15921 55C4.32882 55 2.83038 53.1667 2.83038 49.6667V47.5H0V49.5C0 54.6667 2.66389 57.8333 7.15921 57.8333C11.6545 57.8333 14.3184 54.8333 14.3184 49.5C14.3184 44.8333 11.3215 42.6667 8.15817 40.5Z" fill="#1F1B21"/>
    <path d="M15.8164 28H22.1431V57.5H25.14V28H31.4668V25.3333H15.8164V28Z" fill="#1E1B22"/>
    <path d="M129.864 25.3333H122.871V57.5H125.701V43.5H128.532C132.361 43.5 134.026 45 134.026 48.3334V57.5H136.856V48.5C136.856 45.1667 135.691 43.1667 133.36 42.1667C135.691 41.1667 136.856 39 136.856 35.6667V33C137.023 27.8333 134.692 25.3333 129.864 25.3333ZM134.193 33V36C134.193 40 132.195 40.8334 128.865 40.8334H126.034V28.1667H129.864C132.694 28 134.193 29.6667 134.193 33Z" fill="#1E1B22"/>
    <path d="M156.337 25.3333L150.177 51.6667L143.85 25.3333H140.188V57.5H142.851V32.8333L148.679 57.5H151.509L157.17 32.8333V57.5H160V25.3333H156.337Z" fill="#1E1B22"/>
    <path d="M90.5718 16H79.5832L52.6113 28.1667L55.7747 30L79.7497 19H83.0796H90.7383C96.2325 19 98.5635 22.8334 98.5635 28.3334V53.6667C98.5635 59.1667 96.2325 63 90.7383 63H83.0796V38.5H79.7497L52.7778 50.6667L55.9412 52.5L79.9162 41.5V62.6667V64V65.6667H90.9048C98.5634 65.6667 101.893 60.6667 101.893 53.3334V28.3334C101.56 21 98.2305 16 90.5718 16Z" fill="#ACB5AD"/>
    <path d="M74.089 28.1667V29.3333C74.089 34.1667 71.7581 38.1667 67.4292 39.6667C71.9246 41 74.089 44.8333 74.089 49.8333V53.6667C74.089 61 70.9256 66.3333 63.2669 66.3333C55.6082 66.3333 52.6113 61 52.6113 53.6667V50.8333H55.7747V53.8333C55.7747 59.1667 57.7726 63.3333 63.2669 63.3333C68.7612 63.3333 70.7591 59.3333 70.7591 53.6667V49.8333C70.7591 44.6667 68.2617 41.6667 63.4334 41.5H60.1035V38.3333H63.5999C68.0952 38 70.9256 34.8333 70.9256 30V28.1667C70.9256 22.5 68.9277 18.5 63.4334 18.5C57.9391 18.5 55.9412 22.5 55.9412 27.8333V29.8333H52.7778V28C52.7778 20.6667 55.9412 15.3333 63.4334 15.3333C70.9256 15.5 74.089 20.8333 74.089 28.1667Z" fill="white"/>
  </g>
  <defs>
    <clipPath id="clip0_4761_6956">
      <rect width="160" height="80" fill="white"/>
    </clipPath>
  </defs>
</svg>