<?xml version="1.0" encoding="UTF-8" standalone="no"?>
<!DOCTYPE svg PUBLIC "-//W3C//DTD SVG 1.1//EN" "http://www.w3.org/Graphics/SVG/1.1/DTD/svg11.dtd">
<svg width="100%" height="100%" viewBox="0 0 23 21" version="1.1" xmlns="http://www.w3.org/2000/svg" xmlns:xlink="http://www.w3.org/1999/xlink" xml:space="preserve" xmlns:serif="http://www.serif.com/" style="fill-rule:evenodd;clip-rule:evenodd;stroke-linejoin:round;stroke-miterlimit:2;">
    <rect id="alert-triangle" x="0" y="0.314" width="23" height="20" style="fill:none;"/>
    <path d="M10.644,2.779C10.717,2.657 10.83,2.538 10.98,2.449C11.217,2.306 11.488,2.272 11.739,2.333C11.99,2.395 12.215,2.548 12.356,2.779L20.86,16.839C20.93,16.959 20.98,17.106 20.989,17.271C20.974,17.637 20.869,17.859 20.704,18.026C20.524,18.209 20.276,18.323 20.008,18.326L2.994,18.325C2.842,18.324 2.672,18.284 2.511,18.191C2.271,18.054 2.11,17.834 2.043,17.587C1.976,17.341 2.005,17.071 2.136,16.846L10.644,2.779ZM8.92,1.756L0.412,15.824C-0.012,16.551 -0.096,17.366 0.102,18.102C0.301,18.838 0.786,19.503 1.507,19.914C1.973,20.181 2.487,20.312 2.988,20.314L20.008,20.314C20.851,20.305 21.603,19.962 22.141,19.417C22.679,18.872 23.009,18.121 23,17.297C22.994,16.764 22.846,16.258 22.592,15.831L14.08,1.756C13.646,1.047 12.965,0.581 12.217,0.4C11.47,0.219 10.649,0.32 9.938,0.747C9.507,1.006 9.159,1.359 8.921,1.756L8.92,1.756ZM10.495,7.381L10.495,11.361C10.495,11.91 10.945,12.355 11.5,12.355C12.054,12.355 12.504,11.91 12.504,11.361L12.504,7.381C12.504,6.832 12.054,6.386 11.5,6.386C10.945,6.386 10.495,6.832 10.495,7.381ZM11.5,16.335C12.054,16.335 12.504,15.889 12.504,15.34C12.504,14.791 12.054,14.345 11.5,14.345C10.945,14.345 10.495,14.791 10.495,15.34C10.495,15.889 10.945,16.335 11.5,16.335Z" style="fill-rule:nonzero;"/>
</svg>
