<?xml version="1.0" encoding="UTF-8" standalone="no"?>
<!DOCTYPE svg PUBLIC "-//W3C//DTD SVG 1.1//EN" "http://www.w3.org/Graphics/SVG/1.1/DTD/svg11.dtd">
<svg width="100%" height="100%" viewBox="0 0 20 16" version="1.1" xmlns="http://www.w3.org/2000/svg" xmlns:xlink="http://www.w3.org/1999/xlink" xml:space="preserve" xmlns:serif="http://www.serif.com/" style="fill-rule:evenodd;clip-rule:evenodd;stroke-linejoin:round;stroke-miterlimit:2;">
    <g id="Artboard1" transform="matrix(1.05263,0,0,0.969697,5.26577e-05,0)">
        <rect x="-0" y="0" width="19" height="16.5" style="fill:none;"/>
        <clipPath id="_clip1">
            <rect x="-0" y="0" width="19" height="16.5"/>
        </clipPath>
        <g clip-path="url(#_clip1)">
            <g transform="matrix(0.950839,0,0,1.03216,0.944252,6.69281)">
                <g id="check">
                    <path id="Check" d="M18.047,-6.479C18.316,-6.455 18.387,-6.414 18.517,-6.336C18.962,-6.067 19.131,-5.419 18.856,-4.963C18.818,-4.9 18.805,-4.887 18.759,-4.829L6.759,9.171C6.385,9.572 5.748,9.613 5.326,9.258L-0.674,3.778C-0.866,3.588 -0.895,3.511 -0.945,3.368C-1.142,2.799 -0.711,2.098 -0.086,2.044C0.188,2.02 0.461,2.123 0.674,2.302L5.912,7.086L17.241,-6.131L17.297,-6.191C17.351,-6.241 17.364,-6.255 17.424,-6.297C17.536,-6.377 17.665,-6.432 17.801,-6.46C17.956,-6.492 17.996,-6.479 18.047,-6.479Z" style="fill:white;"/>
                </g>
            </g>
        </g>
    </g>
</svg>
