<?xml version="1.0" encoding="UTF-8" standalone="no"?>
<!DOCTYPE svg PUBLIC "-//W3C//DTD SVG 1.1//EN" "http://www.w3.org/Graphics/SVG/1.1/DTD/svg11.dtd">
<svg width="100%" height="100%" viewBox="0 0 21 21" version="1.1" xmlns="http://www.w3.org/2000/svg" xmlns:xlink="http://www.w3.org/1999/xlink" xml:space="preserve" xmlns:serif="http://www.serif.com/" style="fill-rule:evenodd;clip-rule:evenodd;stroke-linejoin:round;stroke-miterlimit:2;">
    <rect id="circle-check" x="0.663" y="0.314" width="20" height="20" style="fill:none;"/>
    <clipPath id="_clip1">
        <rect x="0.663" y="0.314" width="20" height="20"/>
    </clipPath>
    <g clip-path="url(#_clip1)">
        <path d="M20.673,10.319C20.673,7.557 19.553,5.054 17.743,3.245C15.933,1.436 13.431,0.314 10.668,0.314C7.906,0.314 5.403,1.435 3.594,3.245C1.785,5.055 0.663,7.557 0.663,10.319C0.663,13.082 1.784,15.585 3.594,17.394C5.404,19.203 7.906,20.324 10.668,20.324C13.431,20.324 15.934,19.204 17.743,17.394C19.552,15.584 20.673,13.082 20.673,10.319ZM18.677,10.319C18.677,12.531 17.782,14.532 16.331,15.982C14.881,17.433 12.88,18.328 10.668,18.328C8.456,18.328 6.456,17.433 5.005,15.982C3.555,14.532 2.66,12.531 2.66,10.319C2.66,8.107 3.555,6.107 5.005,4.656C6.456,3.206 8.456,2.311 10.668,2.311C12.88,2.311 14.881,3.206 16.331,4.656C17.782,6.107 18.677,8.107 18.677,10.319ZM14.461,6.612L9.168,11.905L6.875,9.612C6.484,9.221 5.851,9.221 5.461,9.612C5.071,10.003 5.07,10.636 5.461,11.026L8.461,14.026C8.852,14.417 9.485,14.417 9.875,14.026L15.875,8.026C16.266,7.635 16.266,7.002 15.875,6.612C15.484,6.222 14.851,6.221 14.461,6.612Z"/>
    </g>
</svg>
