<?xml version="1.0" encoding="UTF-8" standalone="no"?>
<!DOCTYPE svg PUBLIC "-//W3C//DTD SVG 1.1//EN" "http://www.w3.org/Graphics/SVG/1.1/DTD/svg11.dtd">
<svg width="100%" height="100%" viewBox="0 0 21 21" version="1.1" xmlns="http://www.w3.org/2000/svg" xmlns:xlink="http://www.w3.org/1999/xlink" xml:space="preserve" xmlns:serif="http://www.serif.com/" style="fill-rule:evenodd;clip-rule:evenodd;stroke-linejoin:round;stroke-miterlimit:2;">
    <rect id="circle-play" x="0.666" y="0.008" width="20" height="20" style="fill:none;"/>
    <path d="M20.642,9.996C20.642,7.238 19.523,4.739 17.716,2.933C15.909,1.127 13.411,0.008 10.654,0.008C7.896,0.008 5.397,1.126 3.591,2.933C1.785,4.74 0.666,7.238 0.666,9.996C0.666,12.753 1.784,15.252 3.591,17.058C5.398,18.864 7.896,19.984 10.654,19.984C13.411,19.984 15.91,18.865 17.716,17.058C19.522,15.251 20.642,12.753 20.642,9.996ZM18.633,9.996C18.633,12.2 17.741,14.193 16.296,15.638C14.851,17.083 12.858,17.975 10.654,17.975C8.449,17.975 6.456,17.083 5.011,15.638C3.566,14.193 2.674,12.2 2.674,9.996C2.674,7.792 3.566,5.799 5.011,4.353C6.456,2.908 8.449,2.016 10.654,2.016C12.858,2.016 14.851,2.908 16.296,4.353C17.741,5.799 18.633,7.792 18.633,9.996ZM9.209,5.164C9.053,5.059 8.861,4.996 8.654,4.996C8.102,4.996 7.654,5.444 7.654,5.996L7.654,13.996C7.653,14.184 7.707,14.379 7.822,14.551C8.128,15.011 8.749,15.135 9.209,14.828L15.209,10.828C15.312,10.76 15.409,10.666 15.486,10.551C15.792,10.091 15.668,9.471 15.209,9.164L9.209,5.164ZM9.654,7.865L12.851,9.996L9.654,12.127L9.654,7.865Z"/>
</svg>
