<?xml version="1.0" encoding="UTF-8" standalone="no"?>
<!DOCTYPE svg PUBLIC "-//W3C//DTD SVG 1.1//EN" "http://www.w3.org/Graphics/SVG/1.1/DTD/svg11.dtd">
<svg width="100%" height="100%" viewBox="0 0 21 21" version="1.1" xmlns="http://www.w3.org/2000/svg" xmlns:xlink="http://www.w3.org/1999/xlink" xml:space="preserve" xmlns:serif="http://www.serif.com/" style="fill-rule:evenodd;clip-rule:evenodd;stroke-linejoin:round;stroke-miterlimit:2;">
    <rect id="circle-plus" x="0.318" y="0.314" width="20" height="20" style="fill:none;"/>
    <clipPath id="_clip1">
        <rect x="0.318" y="0.314" width="20" height="20"/>
    </clipPath>
    <g clip-path="url(#_clip1)">
        <path d="M17.397,3.245C15.444,1.291 12.882,0.314 10.323,0.315C7.763,0.315 5.201,1.291 3.248,3.245C1.295,5.198 0.317,7.76 0.318,10.319C0.318,12.878 1.295,15.441 3.248,17.394C5.201,19.347 7.763,20.325 10.323,20.324C12.882,20.323 15.444,19.347 17.397,17.394C19.35,15.441 20.328,12.878 20.327,10.319C20.327,7.76 19.35,5.198 17.397,3.245ZM15.985,4.656C17.55,6.221 18.331,8.268 18.331,10.319C18.331,12.371 17.55,14.418 15.985,15.982C14.421,17.546 12.374,18.328 10.323,18.328C8.271,18.328 6.224,17.546 4.66,15.982C3.095,14.418 2.314,12.371 2.314,10.319C2.314,8.268 3.095,6.221 4.66,4.656C6.224,3.092 8.271,2.311 10.323,2.311C12.374,2.311 14.421,3.092 15.985,4.656ZM6.08,11.319L9.323,11.319L9.323,14.562C9.323,15.115 9.77,15.562 10.323,15.562C10.875,15.561 11.323,15.114 11.322,14.562L11.322,11.319L14.565,11.319C15.118,11.319 15.566,10.872 15.565,10.319C15.564,9.767 15.117,9.319 14.565,9.319L11.322,9.319L11.322,6.077C11.322,5.524 10.875,5.076 10.323,5.077C9.77,5.078 9.322,5.524 9.323,6.077L9.323,9.319L6.08,9.319C5.527,9.319 5.079,9.767 5.08,10.319C5.081,10.872 5.528,11.32 6.08,11.319Z"/>
    </g>
</svg>
