<?xml version="1.0" encoding="UTF-8" standalone="no"?>
<!DOCTYPE svg PUBLIC "-//W3C//DTD SVG 1.1//EN" "http://www.w3.org/Graphics/SVG/1.1/DTD/svg11.dtd">
<svg width="100%" height="100%" viewBox="0 0 21 21" version="1.1" xmlns="http://www.w3.org/2000/svg" xmlns:xlink="http://www.w3.org/1999/xlink" xml:space="preserve" xmlns:serif="http://www.serif.com/" style="fill-rule:evenodd;clip-rule:evenodd;stroke-linejoin:round;stroke-miterlimit:2;">
    <rect id="circle-info" x="0.635" y="0.314" width="19.982" height="20" style="fill:none;"/>
    <clipPath id="_clip1">
        <rect x="0.635" y="0.314" width="19.982" height="20"/>
    </clipPath>
    <g clip-path="url(#_clip1)">
        <path d="M20.645,10.314C20.645,7.552 19.524,5.049 17.714,3.24C15.904,1.431 13.402,0.309 10.64,0.309C7.877,0.309 5.374,1.43 3.565,3.24C1.756,5.05 0.635,7.552 0.635,10.314C0.635,13.077 1.755,15.58 3.565,17.389C5.375,19.198 7.877,20.319 10.64,20.319C13.402,20.319 15.905,19.199 17.714,17.389C19.523,15.579 20.645,13.077 20.645,10.314ZM18.648,10.314C18.648,12.526 17.753,14.527 16.303,15.977C14.852,17.428 12.852,18.323 10.64,18.323C8.428,18.323 6.427,17.428 4.977,15.977C3.526,14.527 2.631,12.526 2.631,10.314C2.631,8.102 3.526,6.102 4.977,4.651C6.427,3.201 8.428,2.306 10.64,2.306C12.852,2.306 14.852,3.201 16.303,4.651C17.753,6.102 18.648,8.102 18.648,10.314ZM11.64,14.314L11.64,10.314C11.64,9.762 11.192,9.314 10.64,9.314C10.088,9.314 9.64,9.762 9.64,10.314L9.64,14.314C9.64,14.866 10.088,15.314 10.64,15.314C11.192,15.314 11.64,14.866 11.64,14.314ZM10.64,7.314C11.192,7.314 11.64,6.866 11.64,6.314C11.64,5.762 11.192,5.314 10.64,5.314C10.088,5.314 9.64,5.762 9.64,6.314C9.64,6.866 10.088,7.314 10.64,7.314Z"/>
    </g>
</svg>
