<?xml version="1.0" encoding="UTF-8" standalone="no"?>
<!DOCTYPE svg PUBLIC "-//W3C//DTD SVG 1.1//EN" "http://www.w3.org/Graphics/SVG/1.1/DTD/svg11.dtd">
<svg width="100%" height="100%" viewBox="0 0 21 21" version="1.1" xmlns="http://www.w3.org/2000/svg" xmlns:xlink="http://www.w3.org/1999/xlink" xml:space="preserve" xmlns:serif="http://www.serif.com/" style="fill-rule:evenodd;clip-rule:evenodd;stroke-linejoin:round;stroke-miterlimit:2;">
    <rect id="circle-minus" x="0.726" y="0.314" width="20" height="20" style="fill-opacity:0;"/>
    <clipPath id="_clip1">
        <rect x="0.726" y="0.314" width="20" height="20"/>
    </clipPath>
    <g clip-path="url(#_clip1)">
        <path d="M20.736,10.314C20.736,7.552 19.615,5.049 17.805,3.24C15.995,1.431 13.493,0.309 10.731,0.309C7.968,0.309 5.465,1.43 3.656,3.24C1.847,5.05 0.726,7.552 0.726,10.314C0.726,13.077 1.846,15.58 3.656,17.389C5.466,19.198 7.968,20.319 10.731,20.319C13.493,20.319 15.996,19.199 17.805,17.389C19.614,15.579 20.736,13.077 20.736,10.314ZM18.739,10.314C18.739,12.526 17.844,14.527 16.394,15.977C14.943,17.428 12.943,18.323 10.731,18.323C8.518,18.323 6.518,17.428 5.068,15.977C3.617,14.527 2.722,12.526 2.722,10.314C2.722,8.102 3.617,6.102 5.068,4.651C6.518,3.201 8.518,2.306 10.731,2.306C12.943,2.306 14.943,3.201 16.394,4.651C17.844,6.102 18.739,8.102 18.739,10.314ZM6.716,11.318L14.745,11.318C15.299,11.318 15.749,10.868 15.749,10.314C15.749,9.76 15.299,9.311 14.745,9.311L6.716,9.311C6.162,9.311 5.713,9.76 5.713,10.314C5.713,10.868 6.162,11.318 6.716,11.318Z"/>
    </g>
</svg>
