<?xml version="1.0" encoding="UTF-8" standalone="no"?>
<!DOCTYPE svg PUBLIC "-//W3C//DTD SVG 1.1//EN" "http://www.w3.org/Graphics/SVG/1.1/DTD/svg11.dtd">
<svg width="100%" height="100%" viewBox="0 0 21 21" version="1.1" xmlns="http://www.w3.org/2000/svg" xmlns:xlink="http://www.w3.org/1999/xlink" xml:space="preserve" xmlns:serif="http://www.serif.com/" style="fill-rule:evenodd;clip-rule:evenodd;stroke-linejoin:round;stroke-miterlimit:2;">
    <rect id="circle-x" x="0.138" y="0.314" width="20" height="20" style="fill:none;"/>
    <clipPath id="_clip1">
        <rect x="0.138" y="0.314" width="20" height="20"/>
    </clipPath>
    <g clip-path="url(#_clip1)">
        <path d="M20.148,10.319C20.148,7.557 19.027,5.054 17.217,3.245C15.407,1.436 12.905,0.314 10.143,0.314C7.381,0.314 4.878,1.435 3.068,3.245C1.259,5.055 0.138,7.557 0.138,10.319C0.138,13.082 1.259,15.585 3.068,17.394C4.878,19.203 7.381,20.324 10.143,20.324C12.905,20.324 15.408,19.204 17.217,17.394C19.026,15.584 20.148,13.082 20.148,10.319ZM18.152,10.319C18.152,12.531 17.256,14.532 15.806,15.982C14.355,17.433 12.355,18.328 10.143,18.328C7.931,18.328 5.93,17.433 4.48,15.982C3.029,14.532 2.134,12.531 2.134,10.319C2.134,8.107 3.029,6.107 4.48,4.656C5.93,3.206 7.931,2.311 10.143,2.311C12.355,2.311 14.355,3.206 15.806,4.656C17.256,6.107 18.152,8.107 18.152,10.319ZM6.436,8.026L8.729,10.319L6.436,12.612C6.045,13.003 6.045,13.636 6.436,14.026C6.827,14.416 7.46,14.417 7.85,14.026L10.143,11.733L12.436,14.026C12.827,14.417 13.46,14.417 13.85,14.026C14.24,13.635 14.241,13.002 13.85,12.612L11.557,10.319L13.85,8.026C14.241,7.635 14.241,7.002 13.85,6.612C13.459,6.222 12.826,6.221 12.436,6.612L10.143,8.905L7.85,6.612C7.459,6.221 6.826,6.221 6.436,6.612C6.046,7.003 6.045,7.636 6.436,8.026Z"/>
    </g>
</svg>
