<?xml version="1.0" encoding="UTF-8" standalone="no"?>
<!DOCTYPE svg PUBLIC "-//W3C//DTD SVG 1.1//EN" "http://www.w3.org/Graphics/SVG/1.1/DTD/svg11.dtd">
<svg width="100%" height="100%" viewBox="0 0 300 300" version="1.1" xmlns="http://www.w3.org/2000/svg" xmlns:xlink="http://www.w3.org/1999/xlink" xml:space="preserve" xmlns:serif="http://www.serif.com/" style="fill-rule:evenodd;clip-rule:evenodd;stroke-linejoin:round;stroke-miterlimit:2;">
    <rect id="Cirro-App-Defaultimage" x="-0" y="0" width="300" height="300" style="fill:rgb(84,110,122);"/>
    <g>
        <path d="M184.254,127.391C184.254,108.181 168.681,92.609 149.472,92.609C130.275,92.609 114.689,108.194 114.689,127.391C114.689,127.998 114.705,128.605 114.737,129.212L121.684,128.848C121.658,128.363 121.645,127.877 121.645,127.391C121.645,112.034 134.114,99.565 149.472,99.565C164.839,99.565 177.298,112.023 177.298,127.391L184.254,127.391Z" style="fill:rgb(84,110,122);"/>
        <path d="M184.254,127.391C184.254,108.181 168.681,92.609 149.472,92.609C130.275,92.609 114.689,108.194 114.689,127.391C114.689,127.998 114.705,128.605 114.737,129.212L121.684,128.848C121.658,128.363 121.645,127.877 121.645,127.391C121.645,112.034 134.114,99.565 149.472,99.565C164.839,99.565 177.298,112.023 177.298,127.391L184.254,127.391Z" style="fill:white;"/>
        <path d="M168.922,142.714C172.432,138.379 174.348,132.97 174.348,127.391C174.348,113.953 163.438,103.043 150,103.043C136.562,103.043 125.652,113.953 125.652,127.391C125.652,131.809 126.854,136.144 129.13,139.931L133.304,137.423C131.483,134.394 130.522,130.926 130.522,127.391C130.522,116.641 139.25,107.913 150,107.913C160.75,107.913 169.478,116.641 169.478,127.391C169.478,131.854 167.946,136.181 165.137,139.649L168.922,142.714Z" style="fill:rgb(84,110,122);"/>
        <path d="M168.922,142.714C172.432,138.379 174.348,132.97 174.348,127.391C174.348,113.953 163.438,103.043 150,103.043C136.562,103.043 125.652,113.953 125.652,127.391C125.652,131.809 126.854,136.144 129.13,139.931L133.304,137.423C131.483,134.394 130.522,130.926 130.522,127.391C130.522,116.641 139.25,107.913 150,107.913C160.75,107.913 169.478,116.641 169.478,127.391C169.478,131.854 167.946,136.181 165.137,139.649L168.922,142.714Z" style="fill:white;"/>
        <path d="M136.536,147.049C138.925,145.438 139.555,142.195 137.944,139.806C130.508,128.782 118.08,122.174 104.783,122.174C82.706,122.174 64.783,140.097 64.783,162.174C64.783,184.251 82.706,202.174 104.783,202.174C105.714,202.174 106.644,202.141 107.573,202.076C110.447,201.875 112.615,199.382 112.414,196.508L111.928,189.568C111.727,186.694 109.234,184.527 106.36,184.728C105.835,184.764 105.309,184.783 104.783,184.783C92.305,184.783 82.174,174.652 82.174,162.174C82.174,149.696 92.305,139.565 104.783,139.565C112.299,139.565 119.323,143.3 123.526,149.531C125.137,151.92 128.38,152.55 130.769,150.939L136.536,147.049ZM133.619,142.724C127.153,133.138 116.346,127.391 104.783,127.391C85.586,127.391 70,142.977 70,162.174C70,181.371 85.586,196.957 104.783,196.957C105.592,196.957 106.401,196.928 107.209,196.872L106.724,189.932C106.078,189.977 105.43,190 104.783,190C89.425,190 76.957,177.532 76.957,162.174C76.957,146.816 89.425,134.348 104.783,134.348C114.033,134.348 122.679,138.945 127.851,146.614L133.619,142.724Z" style="fill:rgb(84,110,122);"/>
        <path d="M133.619,142.724C127.153,133.138 116.346,127.391 104.783,127.391C85.586,127.391 70,142.977 70,162.174C70,181.371 85.586,196.957 104.783,196.957C105.592,196.957 106.401,196.928 107.209,196.872L106.724,189.932C106.078,189.977 105.43,190 104.783,190C89.425,190 76.957,177.532 76.957,162.174C76.957,146.816 89.425,134.348 104.783,134.348C114.033,134.348 122.679,138.945 127.851,146.614L133.619,142.724Z" style="fill:white;"/>
        <path d="M190,196.957C190,199.838 192.336,202.174 195.217,202.174C217.309,202.174 235.217,184.265 235.217,162.174C235.217,140.097 217.294,122.174 195.217,122.174C180.927,122.174 167.722,129.798 160.576,142.174C159.136,144.669 159.991,147.86 162.486,149.301L168.511,152.779C171.006,154.22 174.197,153.365 175.638,150.87C179.676,143.874 187.14,139.565 195.217,139.565C207.695,139.565 217.826,149.696 217.826,162.174C217.826,174.66 207.704,184.783 195.217,184.783C192.336,184.783 190,187.119 190,190L190,196.957ZM195.217,196.957C214.427,196.957 230,181.384 230,162.174C230,142.977 214.414,127.391 195.217,127.391C182.791,127.391 171.308,134.021 165.095,144.783L171.119,148.261C176.09,139.651 185.276,134.348 195.217,134.348C210.575,134.348 223.043,146.816 223.043,162.174C223.043,177.542 210.585,190 195.217,190L195.217,196.957Z" style="fill:rgb(84,110,122);"/>
        <path d="M195.217,196.957C214.427,196.957 230,181.384 230,162.174C230,142.977 214.414,127.391 195.217,127.391C182.791,127.391 171.308,134.021 165.095,144.783L171.119,148.261C176.09,139.651 185.276,134.348 195.217,134.348C210.575,134.348 223.043,146.816 223.043,162.174C223.043,177.542 210.585,190 195.217,190L195.217,196.957Z" style="fill:white;"/>
        <path d="M124.727,148.209C120.171,141.701 112.726,137.826 104.783,137.826C91.345,137.826 80.435,148.736 80.435,162.174C80.435,175.621 91.336,186.522 104.783,186.522L104.783,181.652C94.025,181.652 85.304,172.931 85.304,162.174C85.304,151.424 94.032,142.696 104.783,142.696C111.138,142.696 117.093,145.796 120.738,151.002L124.727,148.209Z" style="fill:rgb(84,110,122);"/>
        <path d="M124.727,148.209C120.171,141.701 112.726,137.826 104.783,137.826C91.345,137.826 80.435,148.736 80.435,162.174C80.435,175.621 91.336,186.522 104.783,186.522L104.783,181.652C94.025,181.652 85.304,172.931 85.304,162.174C85.304,151.424 94.032,142.696 104.783,142.696C111.138,142.696 117.093,145.796 120.738,151.002L124.727,148.209Z" style="fill:white;"/>
        <path d="M174.347,149.634C178.749,142.308 186.67,137.826 195.217,137.826C208.655,137.826 219.565,148.736 219.565,162.174C219.565,175.621 208.664,186.522 195.217,186.522L195.217,181.652C205.975,181.652 214.696,172.931 214.696,162.174C214.696,151.424 205.968,142.696 195.217,142.696C188.38,142.696 182.043,146.281 178.521,152.142L174.347,149.634Z" style="fill:rgb(84,110,122);"/>
        <path d="M174.347,149.634C178.749,142.308 186.67,137.826 195.217,137.826C208.655,137.826 219.565,148.736 219.565,162.174C219.565,175.621 208.664,186.522 195.217,186.522L195.217,181.652C205.975,181.652 214.696,172.931 214.696,162.174C214.696,151.424 205.968,142.696 195.217,142.696C188.38,142.696 182.043,146.281 178.521,152.142L174.347,149.634Z" style="fill:white;"/>
        <path d="M174.348,179.565C182.027,179.565 188.261,185.799 188.261,193.478C188.261,201.157 182.027,207.391 174.348,207.391L160.435,207.391L160.435,179.565L174.348,179.565ZM174.348,200.435L167.391,200.435C167.391,200.435 167.391,186.522 167.391,186.522C167.391,186.522 174.348,186.522 174.348,186.522C178.187,186.522 181.304,189.639 181.304,193.478C181.304,197.318 178.187,200.435 174.348,200.435Z" style="fill:white;"/>
        <path d="M122.174,179.565C114.495,179.565 108.261,185.799 108.261,193.478C108.261,201.157 114.495,207.391 122.174,207.391L136.087,207.391L136.087,179.565L122.174,179.565ZM122.174,200.435C118.335,200.435 115.217,197.318 115.217,193.478C115.217,189.639 118.335,186.522 122.174,186.522L129.13,186.522C129.13,186.522 129.13,200.435 129.13,200.435L122.174,200.435Z" style="fill:white;"/>
        <path d="M146.522,186.499C146.522,184.579 144.963,183.021 143.043,183.021L132.609,183.021C130.689,183.021 129.13,184.579 129.13,186.499C129.13,188.419 130.689,189.977 132.609,189.977L143.043,189.977C144.963,189.977 146.522,188.419 146.522,186.499Z" style="fill:white;"/>
        <path d="M115.217,193.456C115.217,191.536 113.659,189.977 111.739,189.977L101.304,189.977C99.385,189.977 97.826,191.536 97.826,193.456C97.826,195.375 99.385,196.934 101.304,196.934L111.739,196.934C113.659,196.934 115.217,195.375 115.217,193.456Z" style="fill:white;"/>
        <path d="M198.696,193.456C198.696,191.536 197.137,189.977 195.217,189.977L184.783,189.977C182.863,189.977 181.304,191.536 181.304,193.456C181.304,195.375 182.863,196.934 184.783,196.934L195.217,196.934C197.137,196.934 198.696,195.375 198.696,193.456Z" style="fill:white;"/>
        <path d="M146.522,200.412C146.522,198.492 144.963,196.934 143.043,196.934L132.609,196.934C130.689,196.934 129.13,198.492 129.13,200.412C129.13,202.332 130.689,203.89 132.609,203.89L143.043,203.89C144.963,203.89 146.522,202.332 146.522,200.412Z" style="fill:white;"/>
    </g>
</svg>
