<svg width="300" height="256" viewBox="0 0 300 256" fill="none" xmlns="http://www.w3.org/2000/svg">
<path d="M112.445 107.566L95.8693 150.801M162.114 253C163.32 253 164.326 251.793 169.353 247.771C180.212 239.393 202.332 222.273 203.94 220.825C205.951 219.016 206.957 217.809 206.957 214.793C206.957 211.776 208.163 115.052 208.163 113.645V113.645C208.163 109.258 198.983 109.409 196.59 113.085C196.476 113.26 196.379 113.446 196.299 113.645C195.495 115.656 181.821 161.303 181.217 163.314C180.614 165.325 180.212 167.135 179.005 168.14C176.19 169.548 169.152 173.368 168.146 173.972L93.2144 163.156V156.632C87.1915 158.927 75.4205 163.569 74.6397 163.917C73.6343 164.365 72.8299 164.877 73.031 166.486C73.2321 168.094 74.6397 211.329 74.6397 213.138C74.6397 214.948 77.2539 228.22 77.455 229.025C77.6561 229.829 82.4822 235.057 84.091 235.862C85.6997 236.666 161.108 253 162.114 253Z" stroke="black" stroke-width="2"/>
<path d="M93.1397 160.7L77.6558 167.29C77.3207 167.625 76.6504 168.497 76.6504 169.301C76.6504 170.105 77.7229 210.323 78.058 230.03" stroke="black" stroke-width="2"/>
<path d="M77.6562 167.29C81.8791 167.893 94.5478 170.105 95.3521 170.105C96.1565 170.105 114.255 170.507 115.863 170.708C125.314 171.915 148.842 175.535 150.451 175.736C152.059 175.937 153.467 177.143 153.668 178.752L160.706 180.16L174.984 179.556L188.917 170.105L206.301 110.91" stroke="black" stroke-width="2"/>
<path d="M95.4609 170.48C98.8789 176.34 107.458 190.697 108.423 191.823C109.63 193.231 110.836 193.834 113.45 194.236C116.064 194.638 142.407 199.264 144.016 199.465C145.625 199.666 147.032 199.867 148.44 196.448C149.566 193.713 152.561 182.669 153.566 178.781" stroke="black" stroke-width="2"/>
<path d="M73.0312 165.279C73.5675 166.151 74.7606 167.893 75.2432 167.893C75.7259 167.893 76.6509 167.893 77.053 167.893" stroke="black" stroke-width="2"/>
<path d="M161.107 252.753L159.21 250.443C157.446 248.296 156.482 245.604 156.482 242.826V183.147L160.402 180.246M174.983 179.557L175.385 182.544L174.983 231.84L179.608 238.275L197.103 224.601H199.113" stroke="black" stroke-width="2"/>
<path d="M188.055 179.758L178.603 185.589L178.201 226.612L181.016 230.03L190.468 222.791L190.87 183.981L188.055 179.758Z" stroke="black" stroke-width="2"/>
<path d="M204.342 206.905L196.098 212.536V219.775L204.342 213.943V206.905Z" stroke="black" stroke-width="2"/>
<path d="M93.3418 162.493V153.151C93.3418 152.338 93.8341 151.606 94.5872 151.299L104.201 147.382V144.969H103.547C103.02 144.969 102.592 144.542 102.592 144.014V144.014C102.592 142.431 103.875 141.149 105.457 141.149H109.228L115.747 124.257M160.403 172.922L176.794 164.332V155.225L163.575 161.538C163.409 161.618 163.224 161.65 163.041 161.631L160.982 161.418C159.981 161.314 159.743 159.963 160.648 159.523L171.163 154.42L171.566 154.018V62.5225" stroke="black" stroke-width="2"/>
<path d="M159.471 160.855V165.307L98.5117 156.23V153.955C98.5117 153.142 99.0041 152.41 99.7571 152.103L108.383 148.589" stroke="black" stroke-width="2"/>
<path d="M124.711 100.729H116.868L105.607 103.947H112.444V117.621L148.238 120.637L161.711 116.213V63.9299L140.999 63.3267M140.999 139.137V126.67" stroke="black" stroke-width="2"/>
<path d="M131.952 194.604L116.887 192.094C114.672 191.724 113.195 189.604 113.616 187.398L115.54 177.323C115.945 175.204 117.957 173.788 120.088 174.122L135.269 176.498C137.517 176.85 139.019 179.003 138.573 181.234L136.531 191.443C136.108 193.56 134.081 194.959 131.952 194.604Z" stroke="black" stroke-width="2"/>
<path d="M95.3511 238.476L94.9639 236.992C94.4384 234.978 94.7188 232.838 95.7453 231.027L109.188 207.314C110.891 204.31 114.33 202.737 117.716 203.415L140.533 207.978C143.929 208.657 146.502 211.444 146.909 214.883L150.315 243.68C150.532 245.516 151.379 247.22 152.71 248.503L156.08 251.748" stroke="black" stroke-width="2"/>
<path d="M98.7711 239.281L98.4192 237.662C97.9985 235.727 98.3105 233.704 99.2948 231.986L106.787 218.907C108.487 215.938 111.887 214.379 115.246 215.028L139.216 219.659C142.667 220.325 145.278 223.165 145.653 226.659L147.334 242.306C147.529 244.122 148.34 245.817 149.632 247.108L153.87 251.346" stroke="black" stroke-width="2"/>
<path d="M77.2539 191.22L156.282 205.095" stroke="black" stroke-width="2"/>
<path d="M108.156 143.936V150.09C108.156 150.584 108.517 151.004 109.006 151.078L150.412 157.38C152.402 157.683 154.437 157.378 156.251 156.506L165.207 152.198C165.553 152.032 165.773 151.682 165.773 151.297V144.113" stroke="black" stroke-width="2"/>
<path d="M122.871 137.215L108.791 142.594C107.828 142.961 107.984 144.369 109.003 144.517L150.006 150.497C152.246 150.824 154.532 150.38 156.488 149.239L165.632 143.905C166.377 143.47 166.143 142.338 165.287 142.234L123.348 137.156C123.186 137.137 123.023 137.157 122.871 137.215Z" stroke="black" stroke-width="2"/>
<path d="M164.929 63.9298L138.184 63.1254L145.825 61.7178L171.564 62.5221L164.929 63.9298Z" stroke="black" stroke-width="2" stroke-linejoin="round"/>
<path d="M138.184 63.1255V91.0769M138.184 138.936V126.67" stroke="black" stroke-width="2" stroke-linejoin="round"/>
<path d="M161.711 92.3764L155.478 93.8928L143.613 105.154V110.583L121.828 108.957V103.586L133.547 92.3555L140.871 90.4023V63.5469" stroke="black" stroke-width="2" stroke-linejoin="round"/>
<path d="M165.773 64.0352V142.16" stroke="black" stroke-width="2" stroke-linejoin="round"/>
<path d="M171.766 108.572L199.717 110.985" stroke="black" stroke-width="2" stroke-linejoin="round"/>
<path d="M118.478 118.225V120.034L112.445 122.045V124.056L148.843 127.676L161.712 123.051V121.04L155.277 119.632V118.225" stroke="black" stroke-width="2" stroke-linejoin="round"/>
<path d="M126.319 99.1206L118.275 90.6748L87.9108 75.7942L79.8672 42.2122L87.9108 30.9512L98.7696 75.7942L128.129 91.2781V97.3108" stroke="black" stroke-width="2" stroke-linejoin="round"/>
<path d="M171.767 103.947L201.126 106.438M201.126 106.438L204.947 106.762L213.191 96.9087L187.452 81.2238L184.033 44.6254L170.158 31.3535L175.789 81.2238L201.126 96.9087V106.438Z" stroke="black" stroke-width="2" stroke-linejoin="round"/>
<path d="M90.5254 42.0112L171.565 43.4189" stroke="black" stroke-width="2" stroke-linejoin="round"/>
<path d="M170.158 31.5547L87.9121 31.1526L133.157 4.20654L209.772 3L220.43 22.1035L227.468 81.6261L212.99 97.11" stroke="black" stroke-width="2" stroke-linejoin="round"/>
<path d="M170.158 31.5547L209.572 3" stroke="black" stroke-width="2" stroke-linejoin="round"/>
<path d="M183.832 44.8267L217.816 17.4785" stroke="black" stroke-width="2" stroke-linejoin="round"/>
</svg>
