<svg width="300" height="256" viewBox="0 0 300 256" fill="none" xmlns="http://www.w3.org/2000/svg">
<path d="M44.4844 11.2661V3.40323L50.5328 3L69.2828 3.80645L68.6779 6.83065V14.8952L45.8957 14.0887L44.4844 11.2661Z" stroke="#2A343E" stroke-width="2"/>
<path d="M69.0801 5.01611L230.572 11.4677M230.572 11.4677V10.6613L248.717 11.0645V13.8871L230.572 13.4839V11.4677Z" stroke="#2A343E" stroke-width="2"/>
<path d="M44.6855 11.0645H49.121L50.9355 5.82258M50.9355 5.82258L68.6775 6.83065M50.9355 5.82258V3" stroke="#2A343E" stroke-width="2"/>
<path d="M150.534 31.8306L201.686 33.1856C207.104 33.3291 211.421 37.7624 211.421 43.1821V181.427L74.3242 187.677V40.0788C74.3242 34.4538 78.962 29.9355 84.5851 30.0822L130.826 31.2887" stroke="#2A343E" stroke-width="2"/>
<path d="M218.074 10.8628V20.3386L237.429 20.5402L239.647 18.3225H243.881L248.719 13.887" stroke="#2A343E" stroke-width="2"/>
<path d="M44.6855 11.4678V46.4728M82.5888 197.557V200.177L78.9598 201.992L58.3952 203L53.9597 202.597L52.1452 201.992L48.7178 211.468L44.6855 207.637V81.3267" stroke="#2A343E" stroke-width="2"/>
<path d="M72.3057 46.5487L24.7251 46.1455L18.2734 52.5971V57.4358H28.1525L29.7654 55.8229H39.2412L43.0718 63.081V66.9116L40.0476 72.3552H36.6202V79.0084H44.6847V82.0326L58.1928 84.452H69.6847V54.8149L72.3057 49.9762V46.5487Z" stroke="#2A343E" stroke-width="2"/>
<path d="M69.484 51.1855H65.4517L61.6211 57.4355V84.4517H66.863V55.621L69.484 51.1855Z" stroke="#2A343E" stroke-width="2"/>
<path d="M53.9597 199.774L44.6855 196.145L73.9194 194.532L82.5888 197.556L78.9598 199.371L58.5968 200.177L53.9597 199.774Z" stroke="#2A343E" stroke-width="2" stroke-linejoin="round"/>
<path d="M74.3242 187.677V194.734" stroke="#2A343E" stroke-width="2" stroke-linejoin="round"/>
<path d="M19.082 57.4355V75.1775L21.2998 77.7985H36.6224" stroke="#2A343E" stroke-width="2" stroke-linejoin="round"/>
<path d="M18.879 51.9922H12.629L10.8145 54.2099V74.7744L12.629 77.1938H20.6935" stroke="#2A343E" stroke-width="2" stroke-linejoin="round"/>
<path d="M24.1209 77.7983C25.6666 86.3333 28.4354 106.669 27.1451 119.734C25.5322 136.064 9.00002 149.369 9 163.885C8.99998 176.387 30.3709 177.798 44.6854 174.573" stroke="#2A343E" stroke-width="3" stroke-linejoin="round"/>
<path fill-rule="evenodd" clip-rule="evenodd" d="M44.6839 98.3903V92.8345C38.4151 86.015 32.0249 80.9512 27.0993 77.7983L24.1188 78.0001L23.0469 79.9416C28.3602 82.8753 36.7882 89.1584 44.6839 98.3903ZM74.5227 161.006V169.753C74.6305 169.979 74.7377 170.202 74.844 170.422C75.4882 171.754 76.0917 172.958 76.6526 174.077L76.6534 174.078L76.6541 174.08C79.0788 178.916 80.7082 182.166 81.3961 187.364L84.7932 186.782C84 180.788 81.9975 176.808 79.5248 171.892L79.5246 171.892C78.9822 170.814 78.4171 169.691 77.8372 168.491C76.8068 166.36 75.6934 163.928 74.5227 161.006Z" fill="#2A343E"/>
<path d="M44.6864 191.71L28.5574 186.871L25.5332 178.403V118.524L44.6864 121.75V117.919L26.9445 118.524" stroke="#2A343E" stroke-width="2" stroke-linejoin="round"/>
<path d="M211.418 163.081L181.579 157.234L180.369 163.081V183.04" stroke="#2A343E" stroke-width="2" stroke-linejoin="round"/>
<path d="M211.42 72.355L185.412 70.5405V157.839" stroke="#2A343E" stroke-width="2" stroke-linejoin="round"/>
<path fill-rule="evenodd" clip-rule="evenodd" d="M52.748 83.4765V196.75C52.748 197.641 53.4702 198.363 54.361 198.363C55.2517 198.363 55.9739 197.641 55.9739 196.75V84.0542L52.748 83.4765ZM52.748 46.3825L55.9739 46.4099V6.22559H52.748V46.3825Z" fill="#2A343E"/>
<path fill-rule="evenodd" clip-rule="evenodd" d="M62.8301 55.2493V196.347C62.8301 197.238 63.5522 197.96 64.443 197.96C65.3338 197.96 66.0559 197.238 66.0559 196.347V51.1859H65.4516L62.8301 55.2493ZM62.8301 46.5489H66.0559V6.62939H62.8301V46.5489Z" fill="#2A343E"/>
<path d="M242.381 185.863C242.381 186.691 243.052 187.363 243.881 187.363C244.709 187.363 245.381 186.691 245.381 185.863H242.381ZM242.381 13.4839V185.863H245.381V13.4839H242.381Z" fill="#2A343E"/>
<path d="M226.723 53.9918C227.828 54.0018 228.731 53.1145 228.741 52.01C228.751 50.9054 227.864 50.0019 226.759 49.9919L226.723 53.9918ZM70.8764 52.5805L226.723 53.9918L226.759 49.9919L70.9126 48.5806L70.8764 52.5805Z" fill="#2A343E"/>
<path d="M225.32 64.4835C225.873 64.4892 226.325 64.0461 226.331 63.4939C226.336 62.9416 225.893 62.4893 225.341 62.4836L225.32 64.4835ZM69.6752 62.8706L225.32 64.4835L225.341 62.4836L69.6959 60.8707L69.6752 62.8706Z" fill="#2A343E"/>
<path d="M225.32 71.7418C225.873 71.7475 226.325 71.3044 226.331 70.7522C226.336 70.1999 225.893 69.7476 225.341 69.7419L225.32 71.7418ZM69.6752 70.1289L225.32 71.7418L225.341 69.7419L69.6959 68.129L69.6752 70.1289Z" fill="#2A343E"/>
<path d="M225.917 79.7984C227.021 79.8084 227.925 78.9211 227.935 77.8166C227.945 76.7121 227.057 75.8086 225.953 75.7986L225.917 79.7984ZM70.0698 78.3871L225.917 79.7984L225.953 75.7986L70.106 74.3873L70.0698 78.3871Z" fill="#2A343E"/>
<path d="M236.218 48.9678H222.508L222.307 80.621L227.347 81.2258H233.799L236.218 79.0081L241.258 80.621H248.92V48.9678H236.218Z" stroke="#2A343E" stroke-width="2"/>
<path d="M238.837 79.8146V53.4033H231.377V81.2259" stroke="#2A343E" stroke-width="2"/>
<rect x="224.121" y="57.8389" width="2.82258" height="15.3226" rx="1.41129" stroke="#2A343E" stroke-width="2"/>
<path d="M148.717 73.5647C148.717 65.993 154.855 59.855 162.426 59.855V59.855C169.998 59.855 176.136 65.993 176.136 73.5647V74.976C176.136 83.327 169.366 90.0969 161.015 90.0969H148.717V73.5647Z" stroke="#2A343E" stroke-width="2"/>
<path d="M158.798 90.0969H144.686V73.5647C144.686 65.993 150.824 59.855 158.395 59.855V59.855H162.427" stroke="#2A343E" stroke-width="2"/>
<path d="M171.508 75.5807C171.508 80.4349 167.834 84.2582 163.436 84.2582C159.037 84.2582 155.363 80.4349 155.363 75.5807C155.363 70.7266 159.037 66.9033 163.436 66.9033C167.834 66.9033 171.508 70.7266 171.508 75.5807Z" stroke="#2A343E" stroke-width="2"/>
<path d="M168.684 75.5804C168.684 78.9029 166.248 81.4353 163.434 81.4353C160.619 81.4353 158.184 78.9029 158.184 75.5804C158.184 72.2579 160.619 69.7256 163.434 69.7256C166.248 69.7256 168.684 72.2579 168.684 75.5804Z" stroke="#2A343E" stroke-width="2"/>
<ellipse cx="35.2096" cy="64.6934" rx="3.83065" ry="4.03226" stroke="#2A343E" stroke-width="2"/>
<ellipse cx="259.049" cy="219.762" rx="3.02419" ry="4.03226" transform="rotate(-31.7591 259.049 219.762)" stroke="#2A343E" stroke-width="2"/>
<ellipse cx="257.144" cy="220.926" rx="5.31783" ry="7.09045" transform="rotate(-31.7591 257.144 220.926)" stroke="#2A343E" stroke-width="2"/>
<path d="M35.2108 60.6611H31.9849C29.8693 60.6611 28.1543 62.4664 28.1543 64.6934C28.1543 66.9203 29.8693 68.7257 31.9849 68.7257H35.2108" stroke="#2A343E" stroke-width="2"/>
<path d="M35.1278 60.6616C34.0963 59.4221 32.6177 58.6455 30.9752 58.6455C27.8575 58.6455 25.3301 61.4437 25.3301 64.8955C25.3301 68.3473 27.8575 71.1455 30.9752 71.1455C32.7744 71.1455 34.377 70.2137 35.4107 68.7621" stroke="#2A343E" stroke-width="2"/>
<path d="M129.975 77.5967C129.975 79.729 129.628 81.6134 129.102 82.9278C128.838 83.5878 128.548 84.0548 128.278 84.3404C128.01 84.6239 127.831 84.6613 127.749 84.6613C127.667 84.6613 127.488 84.6239 127.22 84.3404C126.95 84.0548 126.661 83.5878 126.397 82.9278C125.871 81.6134 125.523 79.729 125.523 77.5967C125.523 75.4644 125.871 73.5801 126.397 72.2657C126.661 71.6057 126.95 71.1387 127.22 70.8531C127.488 70.5696 127.667 70.5322 127.749 70.5322C127.831 70.5322 128.01 70.5696 128.278 70.8531C128.548 71.1387 128.838 71.6057 129.102 72.2657C129.628 73.5801 129.975 75.4644 129.975 77.5967Z" stroke="#2A343E" stroke-width="2"/>
<path fill-rule="evenodd" clip-rule="evenodd" d="M90.5725 74.9515C84.6157 75.8364 78.5782 76.8781 74.3242 77.662V75.1526C78.558 74.3809 84.2718 73.4033 89.9207 72.5642C96.6881 71.5589 103.531 70.7256 107.59 70.7256C115.372 70.7256 119.997 71.129 121.444 71.3576L120.753 73.7388C119.646 73.5641 115.292 73.1611 107.59 73.1611C103.908 73.1611 97.3771 73.9407 90.5725 74.9515Z" fill="#2A343E"/>
<path d="M132.185 39.2905H130.169L128.959 42.5163V44.9357L130.169 48.9679H132.588L133.798 46.5486V44.1292L132.185 39.2905Z" stroke="#2A343E" stroke-width="2"/>
<path d="M150.733 35.0564V34.3342C150.733 32.1586 148.994 30.3819 146.819 30.3352L131.983 30.0161L123.515 38.6855V42.7177H122.104V46.3468L123.515 47.1532V55.0161H121.096V65.5V76.7903V80.4194L133.394 91.5081V92.3145H131.781V95.5403H161.015V89.8952" stroke="#2A343E" stroke-width="2"/>
<rect x="144.686" y="34.855" width="22.5806" height="25" rx="8" stroke="#2A343E" stroke-width="2"/>
<path d="M150.332 34.855H143.01C138.591 34.855 135.01 38.4367 135.01 42.855V51.855C135.01 56.2733 138.591 59.855 143.01 59.855H150.332" stroke="#2A343E" stroke-width="2"/>
<path d="M147.913 210.662L74.3242 187.678L211.421 181.428L291.26 198.162L286.824 199.976L157.187 211.67L147.913 210.662Z" stroke="#2A343E" stroke-width="2" stroke-linejoin="round"/>
<path d="M74.3242 190.097L147.913 213.081L157.187 214.089L286.824 202.395L291.26 200.581V198.161" stroke="#2A343E" stroke-width="2"/>
<path d="M150.53 222.96L80.3691 201.243" stroke="#2A343E" stroke-width="2"/>
<path d="M147.912 230.016L77.5488 208.04" stroke="#2A343E" stroke-width="2"/>
<path d="M147.912 235.661L77.5488 213.685" stroke="#2A343E" stroke-width="2"/>
<path fill-rule="evenodd" clip-rule="evenodd" d="M233.799 13.4839V185.863C233.799 185.951 233.806 186.038 233.82 186.122L236.766 186.74C236.929 186.487 237.025 186.186 237.025 185.863V13.4839H233.799Z" fill="#2A343E"/>
<path d="M228.959 185.056L237.024 184.048L251.338 186.871V189.895" stroke="#2A343E" stroke-width="2"/>
<path d="M37.632 189.492C37.2288 189.627 36.2207 190.299 36.0191 192.315C35.8987 193.518 36.0191 194.734 36.4223 195.339C36.5118 195.473 42.0003 201.791 44.6885 205.016" stroke="#2A343E" stroke-width="2"/>
<path d="M43.2754 203.403V213.282L45.2915 216.71V224.976L50.3318 230.218L97.7109 226.589L147.106 241.911H148.114M175.735 241.105L171.703 241.307" stroke="#2A343E" stroke-width="2"/>
<path d="M155.775 213.887V217.113L148.113 225.782V243.524L152.549 247.557L167.67 246.952L171.702 242.516V231.427M162.831 213.686V217.113L167.871 221.952" stroke="#2A343E" stroke-width="2"/>
<path d="M56.1769 203V222.556L48.5156 219.331V211.065" stroke="#2A343E" stroke-width="2" stroke-linejoin="round"/>
<path d="M77.5468 202.194V220.541L56.1758 222.557" stroke="#2A343E" stroke-width="2"/>
<path d="M171.7 215.097L167.668 221.347L179.966 250.782L187.829 253L272.708 243.726L275.934 238.081L259.2 206.831L171.7 215.097Z" stroke="#2A343E" stroke-width="2"/>
<path d="M240.451 216.105L192.457 220.783L199.927 236.468L248.403 231.831L240.451 216.105Z" stroke="#2A343E" stroke-width="2"/>
<path d="M171.703 215.097L187.832 253" stroke="#2A343E" stroke-width="2"/>
<path d="M275.935 238.081L191.661 247.153L187.83 252.798" stroke="#2A343E" stroke-width="2"/>
<path d="M177.348 214.895L191.461 247.153" stroke="#2A343E" stroke-width="2"/>
</svg>
