<?xml version="1.0" encoding="UTF-8" standalone="no"?>
<!DOCTYPE svg PUBLIC "-//W3C//DTD SVG 1.1//EN" "http://www.w3.org/Graphics/SVG/1.1/DTD/svg11.dtd">
<svg width="100%" height="100%" viewBox="0 0 72 18" version="1.1" xmlns="http://www.w3.org/2000/svg" xmlns:xlink="http://www.w3.org/1999/xlink" xml:space="preserve" xmlns:serif="http://www.serif.com/" style="fill-rule:evenodd;clip-rule:evenodd;stroke-linejoin:round;stroke-miterlimit:2;">
    <g id="Artboard1" transform="matrix(0.989011,0,0,1,0,0)">
        <rect x="0" y="0" width="72.8" height="18" style="fill:none;"/>
        <g transform="matrix(1.18962,0,0,1.17655,-5.14526,-19.3856)">
            <path d="M34.909,27.503C34.6,27.905 34.172,28.21 33.626,28.417C33.079,28.624 32.458,28.728 31.762,28.728C31.047,28.728 30.415,28.566 29.864,28.241C29.313,27.917 28.888,27.453 28.589,26.85C28.291,26.246 28.135,25.542 28.124,24.737L28.124,24.07C28.124,22.78 28.432,21.774 29.049,21.049C29.667,20.324 30.528,19.962 31.633,19.962C32.583,19.962 33.336,20.197 33.895,20.668C34.454,21.139 34.79,21.816 34.903,22.698L33.45,22.698C33.286,21.671 32.69,21.157 31.663,21.157C30.999,21.157 30.494,21.396 30.148,21.875C29.802,22.353 29.624,23.054 29.612,23.979L29.612,24.635C29.612,25.556 29.806,26.271 30.195,26.78C30.584,27.289 31.124,27.544 31.815,27.544C32.573,27.544 33.112,27.372 33.432,27.028L33.432,25.359L31.674,25.359L31.674,24.234L34.909,24.234L34.909,27.503Z" style="fill-rule:nonzero;"/>
            <path d="M36.133,25.382C36.133,24.761 36.256,24.201 36.502,23.703C36.749,23.205 37.094,22.822 37.54,22.555C37.985,22.287 38.497,22.153 39.075,22.153C39.93,22.153 40.625,22.429 41.158,22.98C41.691,23.53 41.979,24.261 42.022,25.171L42.028,25.505C42.028,26.13 41.908,26.689 41.668,27.181C41.427,27.673 41.084,28.054 40.636,28.323C40.189,28.593 39.672,28.728 39.086,28.728C38.192,28.728 37.476,28.43 36.939,27.834C36.402,27.238 36.133,26.445 36.133,25.452L36.133,25.382ZM37.557,25.505C37.557,26.157 37.692,26.668 37.961,27.037C38.231,27.406 38.606,27.591 39.086,27.591C39.567,27.591 39.941,27.403 40.209,27.028C40.476,26.653 40.61,26.105 40.61,25.382C40.61,24.741 40.472,24.234 40.197,23.859C39.921,23.484 39.547,23.296 39.075,23.296C38.61,23.296 38.241,23.481 37.967,23.85C37.694,24.219 37.557,24.771 37.557,25.505Z" style="fill-rule:nonzero;"/>
            <path d="M42.965,25.382C42.965,24.761 43.088,24.201 43.335,23.703C43.581,23.205 43.926,22.822 44.372,22.555C44.817,22.287 45.329,22.153 45.907,22.153C46.762,22.153 47.457,22.429 47.99,22.98C48.523,23.53 48.811,24.261 48.854,25.171L48.86,25.505C48.86,26.13 48.74,26.689 48.5,27.181C48.259,27.673 47.916,28.054 47.468,28.323C47.021,28.593 46.504,28.728 45.918,28.728C45.024,28.728 44.308,28.43 43.771,27.834C43.234,27.238 42.965,26.445 42.965,25.452L42.965,25.382ZM44.389,25.505C44.389,26.157 44.524,26.668 44.793,27.037C45.063,27.406 45.438,27.591 45.918,27.591C46.399,27.591 46.773,27.403 47.041,27.028C47.308,26.653 47.442,26.105 47.442,25.382C47.442,24.741 47.304,24.234 47.029,23.859C46.753,23.484 46.379,23.296 45.907,23.296C45.442,23.296 45.073,23.481 44.799,23.85C44.526,24.219 44.389,24.771 44.389,25.505Z" style="fill-rule:nonzero;"/>
            <path d="M49.815,25.394C49.815,24.409 50.046,23.623 50.509,23.035C50.972,22.447 51.586,22.153 52.352,22.153C53.075,22.153 53.643,22.405 54.057,22.909L54.122,22.271L55.405,22.271L55.405,28.417C55.405,29.249 55.146,29.905 54.628,30.386C54.111,30.866 53.413,31.107 52.534,31.107C52.069,31.107 51.615,31.01 51.171,30.817C50.728,30.623 50.391,30.37 50.161,30.058L50.835,29.202C51.272,29.722 51.811,29.982 52.452,29.982C52.924,29.982 53.297,29.854 53.571,29.598C53.844,29.342 53.981,28.966 53.981,28.47L53.981,28.042C53.571,28.499 53.024,28.728 52.34,28.728C51.598,28.728 50.992,28.433 50.521,27.843C50.05,27.253 49.815,26.437 49.815,25.394ZM51.233,25.517C51.233,26.153 51.363,26.654 51.623,27.02C51.882,27.385 52.243,27.568 52.704,27.568C53.278,27.568 53.704,27.321 53.981,26.829L53.981,24.04C53.711,23.56 53.29,23.32 52.715,23.32C52.247,23.32 51.882,23.505 51.623,23.876C51.363,24.247 51.233,24.794 51.233,25.517Z" style="fill-rule:nonzero;"/>
            <rect x="56.958" y="19.611" width="1.424" height="9" style="fill-rule:nonzero;"/>
            <path d="M62.723,28.728C61.821,28.728 61.089,28.444 60.529,27.875C59.968,27.307 59.688,26.55 59.688,25.605L59.688,25.429C59.688,24.796 59.81,24.231 60.054,23.733C60.298,23.235 60.641,22.847 61.083,22.57C61.524,22.292 62.016,22.153 62.559,22.153C63.422,22.153 64.089,22.429 64.56,22.98C65.031,23.53 65.266,24.31 65.266,25.318L65.266,25.892L61.124,25.892C61.167,26.415 61.341,26.829 61.648,27.134C61.955,27.439 62.34,27.591 62.805,27.591C63.458,27.591 63.989,27.327 64.399,26.8L65.167,27.532C64.913,27.911 64.574,28.205 64.15,28.414C63.726,28.623 63.251,28.728 62.723,28.728ZM62.553,23.296C62.163,23.296 61.847,23.433 61.607,23.706C61.367,23.98 61.213,24.361 61.147,24.849L63.86,24.849L63.86,24.743C63.829,24.267 63.702,23.906 63.479,23.662C63.256,23.418 62.948,23.296 62.553,23.296Z" style="fill-rule:nonzero;"/>
        </g>
        <g id="logo_googleg_48dp" transform="matrix(1.01111,0,0,1,1.01111,1)">
            <path id="Shape" d="M16.6,8.2C16.6,7.6 16.5,6.9 16.4,6.4L8,6.4L8,9.9L12.8,9.9C12.6,11 12,11.9 11,12.6L11,14.9L14,14.9C15.7,13.3 16.6,10.9 16.6,8.2Z" style="fill:rgb(66,133,244);"/>
            <path id="Shape_00000116220169807278392790000010507946183177789884_" d="M8,17C10.4,17 12.5,16.2 14,14.8L11,12.6C10.2,13.1 9.2,13.5 8,13.5C5.7,13.5 3.7,11.9 3,9.8L0,9.8L0,12C1.4,15 4.5,17 8,17Z" style="fill:rgb(52,168,83);"/>
            <path id="Shape_00000036246365384756938600000009727008027918489747_" d="M3,9.7C2.8,9.2 2.7,8.6 2.7,8C2.7,7.4 2.8,6.8 3,6.3L3,4L0,4C-0.6,5.2 -1,6.6 -1,8C-1,9.4 -0.7,10.8 0,12L3,9.7Z" style="fill:rgb(251,188,5);"/>
            <path id="Shape_00000119091857408610178150000002521437217314766263_" d="M8,2.6C9.3,2.6 10.5,3.1 11.4,3.9L14,1.3C12.5,-0.1 10.4,-1 8,-1C4.5,-1 1.4,1 0,4L3,6.3C3.7,4.2 5.7,2.6 8,2.6Z" style="fill:rgb(234,67,53);"/>
            <rect id="Shape_00000011002407524849361790000009304613565924632997_" x="-1" y="-1" width="18" height="18" style="fill:none;fill-rule:nonzero;"/>
        </g>
    </g>
</svg>
