<?xml version="1.0" encoding="UTF-8" standalone="no"?>
<!DOCTYPE svg PUBLIC "-//W3C//DTD SVG 1.1//EN" "http://www.w3.org/Graphics/SVG/1.1/DTD/svg11.dtd">
<svg width="100%" height="100%" viewBox="0 0 21 20" version="1.1" xmlns="http://www.w3.org/2000/svg" xmlns:xlink="http://www.w3.org/1999/xlink" xml:space="preserve" xmlns:serif="http://www.serif.com/" style="fill-rule:evenodd;clip-rule:evenodd;stroke-linejoin:round;stroke-miterlimit:2;">
    <g transform="matrix(1,0,0,1,-2200,-40)">
        <g id="info-circle" transform="matrix(1.00029,0,0,1,1699.85,-3060)">
            <rect x="500" y="3100" width="20" height="20" style="fill:none;"/>
            <clipPath id="_clip1">
                <rect x="500" y="3100" width="20" height="20"/>
            </clipPath>
            <g clip-path="url(#_clip1)">
                <g transform="matrix(0.999707,0,0,1,-1279.48,3100)">
                    <path d="M1790,0C1795.52,0 1800,4.481 1800,10C1800,15.519 1795.52,20 1790,20C1784.48,20 1780,15.519 1780,10C1780,4.481 1784.48,0 1790,0ZM1790,2C1794.41,2 1798,5.585 1798,10C1798,14.415 1794.41,18 1790,18C1785.59,18 1782,14.415 1782,10C1782,5.585 1785.59,2 1790,2Z" style="fill: #808497;"/>
                    <path d="M1790,0C1795.52,0 1800,4.481 1800,10C1800,15.519 1795.52,20 1790,20C1784.48,20 1780,15.519 1780,10C1780,4.481 1784.48,0 1790,0ZM1790,2C1794.41,2 1798,5.585 1798,10C1798,14.415 1794.41,18 1790,18C1785.59,18 1782,14.415 1782,10C1782,5.585 1785.59,2 1790,2Z" style="fill: #808497;"/>
                </g>
                <g transform="matrix(0.999707,0,0,1,506.001,3100)">
                    <path d="M3,7L5.001,7L5.001,5L3,5L3,7ZM2,8L2,10L3,10L3,13L2,13L2,15L6,15L6,13L5,13L5,8L2,8Z" style="fill: #808497;"/>
                </g>
            </g>
        </g>
    </g>
</svg>
