<?xml version="1.0" encoding="UTF-8" standalone="no"?>
<!DOCTYPE svg PUBLIC "-//W3C//DTD SVG 1.1//EN" "http://www.w3.org/Graphics/SVG/1.1/DTD/svg11.dtd">
<svg width="100%" height="100%" viewBox="0 0 21 21" version="1.1" xmlns="http://www.w3.org/2000/svg" xmlns:xlink="http://www.w3.org/1999/xlink" xml:space="preserve" xmlns:serif="http://www.serif.com/" style="fill-rule:evenodd;clip-rule:evenodd;stroke-linejoin:round;stroke-miterlimit:2;">
    <rect id="lock" x="0.109" y="0.499" width="20" height="20" style="fill:none;"/>
    <clipPath id="_clip1">
        <rect x="0.109" y="0.499" width="20" height="20"/>
    </clipPath>
    <g clip-path="url(#_clip1)">
        <path d="M15.509,8.685L15.509,5.956C15.509,4.449 14.903,3.084 13.928,2.097C12.952,1.11 11.6,0.499 10.109,0.499C8.618,0.499 7.267,1.111 6.29,2.097C5.314,3.083 4.709,4.449 4.709,5.956L4.709,8.685L2.809,8.685C2.064,8.685 1.387,8.992 0.9,9.485C0.413,9.978 0.109,10.661 0.109,11.414L0.109,17.782C0.109,18.535 0.412,19.219 0.9,19.711C1.388,20.203 2.064,20.511 2.809,20.511L17.409,20.511C18.154,20.511 18.831,20.204 19.318,19.711C19.805,19.218 20.109,18.535 20.109,17.782L20.109,11.414C20.109,10.661 19.806,9.977 19.318,9.485C18.83,8.993 18.154,8.685 17.409,8.685L15.509,8.685ZM3.091,10.688L17.127,10.688C17.365,10.688 17.579,10.784 17.735,10.942C17.892,11.1 17.987,11.317 17.987,11.557L17.987,17.639C17.987,17.879 17.892,18.096 17.735,18.254C17.579,18.412 17.365,18.508 17.127,18.508L4.091,18.508C3.853,18.508 2.639,18.412 2.483,18.254C2.326,18.096 2.231,17.879 2.231,17.639L2.231,11.557C2.231,11.317 2.326,11.1 2.483,10.942C2.639,10.784 2.853,10.688 3.091,10.688ZM6.688,8.685L6.688,6.093C6.688,5.138 7.071,4.275 7.691,3.648C8.311,3.022 9.164,2.635 10.109,2.635C11.054,2.635 11.907,3.022 12.527,3.648C13.147,4.275 13.529,5.138 13.529,6.093L13.529,8.685L6.688,8.685Z"/>
    </g>
</svg>
