<svg width="70" height="35" viewBox="0 0 70 35" fill="none" xmlns="http://www.w3.org/2000/svg">
<g clip-path="url(#clip0_4660_2574)">
<path d="M33.7254 35C43.3804 35 51.2072 27.165 51.2072 17.5C51.2072 7.83502 43.3804 0 33.7254 0C24.0705 0 16.2437 7.83502 16.2437 17.5C16.2437 27.165 24.0705 35 33.7254 35Z" fill="#1F1B21"/>
<path d="M3.5692 17.7187C2.40375 16.8437 1.31113 16.0417 1.31113 14.5104C1.31113 12.9792 1.9667 12.1771 3.13215 12.1771C4.29761 12.1771 4.95317 12.9792 4.95317 14.5104V15.0208H6.19147V14.5833C6.19147 12.25 5.09886 10.9375 3.05931 10.9375C1.09261 10.9375 0 12.25 0 14.5104C0 16.5521 1.38398 17.5729 2.69511 18.5208C3.86056 19.3958 4.95317 20.1979 4.95317 21.6563C5.02601 23.2604 4.37045 24.0625 3.13215 24.0625C1.89386 24.0625 1.23829 23.2604 1.23829 21.7292V20.7812H0V21.6563C0 23.9167 1.16545 25.3021 3.13215 25.3021C5.09886 25.3021 6.26431 23.9896 6.26431 21.6563C6.26431 19.6146 4.95317 18.6667 3.5692 17.7187Z" fill="#1F1B21"/>
<path d="M6.91992 12.25H9.68787V25.1563H10.999V12.25H13.767V11.0834H6.91992V12.25Z" fill="#1E1B22"/>
<path d="M56.8157 11.0834H53.7563V25.1563H54.9946V19.0313H56.2329C57.9083 19.0313 58.6367 19.6875 58.6367 21.1459V25.1563H59.875V21.2188C59.875 19.7605 59.3651 18.8855 58.3453 18.448C59.3651 18.0105 59.875 17.0625 59.875 15.6042V14.4375C59.9478 12.1771 58.928 11.0834 56.8157 11.0834ZM58.7095 14.4375V15.75C58.7095 17.5 57.8354 17.8646 56.3786 17.8646H55.1403V12.323H56.8157C58.0539 12.25 58.7095 12.9792 58.7095 14.4375Z" fill="#1E1B22"/>
<path d="M68.3976 11.0834L65.7025 22.6042L62.9345 11.0834H61.332V25.1563H62.4975V14.3646L65.0469 25.1563H66.2852L68.7618 14.3646V25.1563H70.0001V11.0834H68.3976Z" fill="#1E1B22"/>
<path d="M39.6253 7H34.8178L23.0176 12.3229L24.4016 13.125L34.8906 8.3125H36.3474H39.6981C42.1019 8.3125 43.1216 9.98958 43.1216 12.3958V23.4792C43.1216 25.8854 42.1019 27.5625 39.6981 27.5625H36.3474V16.8437H34.8906L23.0904 22.1667L24.4744 22.9687L34.9635 18.1562V27.4167V28V28.7292H39.771C43.1216 28.7292 44.5784 26.5417 44.5784 23.3333V12.3958C44.4328 9.1875 42.976 7 39.6253 7Z" fill="#ACB5AD"/>
<path d="M32.414 12.323V12.8334C32.414 14.948 31.3943 16.698 29.5004 17.3542C31.4671 17.9375 32.414 19.6146 32.414 21.8021V23.4792C32.414 26.6875 31.0301 29.0209 27.6794 29.0209C24.3287 29.0209 23.0176 26.6875 23.0176 23.4792V22.2396H24.4016V23.5521C24.4016 25.8855 25.2756 27.7084 27.6794 27.7084C30.0831 27.7084 30.9572 25.9584 30.9572 23.4792V21.8021C30.9572 19.5417 29.8646 18.2292 27.7522 18.1563H26.2954V16.7709H27.8251C29.7918 16.625 31.0301 15.2396 31.0301 13.125V12.323C31.0301 9.84379 30.156 8.09379 27.7522 8.09379C25.3485 8.09379 24.4744 9.84379 24.4744 12.1771V13.0521H23.0904V12.25C23.0904 9.04171 24.4744 6.70837 27.7522 6.70837C31.0301 6.78129 32.414 9.11462 32.414 12.323Z" fill="white"/>
</g>
<defs>
<clipPath id="clip0_4660_2574">
<rect width="70" height="35" fill="white"/>
</clipPath>
</defs>
</svg>
