<svg width="160" height="80" viewBox="0 0 160 80" fill="none" xmlns="http://www.w3.org/2000/svg">
<g clip-path="url(#clip0_4601_14110)">
<path fill-rule="evenodd" clip-rule="evenodd" d="M77.0868 79.9993C99.1552 79.9993 117.045 62.0907 117.045 39.9993C117.045 17.9079 99.1552 -0.000732422 77.0868 -0.000732422C55.0184 -0.000732422 37.1284 17.9079 37.1284 39.9993C37.1284 62.0907 55.0184 79.9993 77.0868 79.9993ZM90.5724 15.9993H79.5838L71.8707 19.4786C70.1582 16.9603 67.4037 15.4216 63.434 15.3333C55.9418 15.3333 52.7784 20.6666 52.7784 27.9999V28.0908L52.6119 28.1659L52.7784 28.2624V29.8332H55.4888L55.7753 29.9993L70.2738 23.3472C70.7247 24.7358 70.9262 26.3672 70.9262 28.1666V29.9999C70.9262 34.8332 68.0958 37.9999 63.6005 38.3332H60.1041V41.4999H63.434C65.6822 41.5775 67.4251 42.2694 68.6458 43.5084L52.7784 50.6659L53.0671 50.8332H52.6119V53.6666C52.6119 60.9999 55.6088 66.3332 63.2675 66.3332C70.9262 66.3332 74.0896 60.9999 74.0896 53.6666V49.8332C74.0896 47.896 73.7647 46.1339 73.1052 44.6245L79.9168 41.4993V62.6659V63.9993V65.6659H90.9054C98.5641 65.6659 101.894 60.6659 101.894 53.3326V28.3326C101.561 20.9993 98.2311 15.9993 90.5724 15.9993ZM70.1609 45.9754L55.9418 52.4993L55.7753 52.4028V53.8332C55.7753 59.1666 57.7732 63.3332 63.2675 63.3332C68.7618 63.3332 70.7597 59.3332 70.7597 53.6666V49.8332C70.7597 48.368 70.5588 47.0769 70.1609 45.9754ZM71.554 42.1965L79.7503 38.4993H83.0802V62.9993H90.7389C96.2332 62.9993 98.5641 59.1659 98.5641 53.6659V28.3326C98.5641 22.8326 96.2332 18.9993 90.7389 18.9993H83.0802H79.7503L73.147 22.029C73.7869 23.821 74.0896 25.8981 74.0896 28.1666V29.3333C74.0896 34.1666 71.7587 38.1666 67.4298 39.6666C69.1381 40.1733 70.5098 41.041 71.554 42.1965ZM68.935 20.8028C67.7414 19.3428 65.9561 18.4999 63.434 18.4999C58.3549 18.4999 56.2637 21.9182 55.9767 26.6481L68.935 20.8028Z" fill="white"/>
</g>
<defs>
<clipPath id="clip0_4601_14110">
<rect width="160" height="80" fill="white"/>
</clipPath>
</defs>
</svg>
