<?xml version="1.0" encoding="UTF-8" standalone="no"?>
<!DOCTYPE svg PUBLIC "-//W3C//DTD SVG 1.1//EN" "http://www.w3.org/Graphics/SVG/1.1/DTD/svg11.dtd">
<svg width="100%" height="100%" viewBox="0 0 800 134" version="1.1" xmlns="http://www.w3.org/2000/svg" xmlns:xlink="http://www.w3.org/1999/xlink" xml:space="preserve" xmlns:serif="http://www.serif.com/" style="fill-rule:evenodd;clip-rule:evenodd;stroke-linejoin:round;stroke-miterlimit:2;">
    <rect id="neutral-designsystem-logo-white" x="0" y="0" width="800" height="134" style="fill:none;"/>
    <clipPath id="_clip1">
        <rect x="0" y="0" width="800" height="134"/>
    </clipPath>
    <g clip-path="url(#_clip1)">
        <path d="M99.91,132.724L99.91,-0L79.797,-0L79.797,93.205L18.436,-0L-0,-0L-0,132.724L20.112,132.724L20.112,39.333L81.473,132.724L99.91,132.724Z" style="fill:white;fill-rule:nonzero;"/>
        <path d="M219.419,132.724L219.419,114.662L154.724,114.662L154.724,74.74L209.911,74.74L209.911,56.865L154.724,56.865L154.724,18.062L219.419,18.062L219.419,0L134.611,0L134.611,132.724L219.419,132.724Z" style="fill:white;fill-rule:nonzero;"/>
        <path d="M340.234,88.001L340.234,-0L320.121,-0L320.121,87.068C320.121,104.78 309.117,115.781 292.516,115.781C275.916,115.781 265.097,104.78 265.097,87.068L265.097,-0L244.985,-0L244.985,88.001C244.985,115.408 265.47,133.842 292.516,133.842C319.562,133.842 340.234,115.408 340.234,88.001Z" style="fill:white;fill-rule:nonzero;"/>
        <path d="M454.336,18.062L454.336,0L361.138,0L361.138,18.062L397.681,18.062L397.681,132.724L417.794,132.724L417.794,18.062L454.336,18.062Z" style="fill:white;fill-rule:nonzero;"/>
        <path d="M574.032,132.724L543.476,73.998C558.384,69.902 569.93,57.796 569.93,38.768C569.93,16.2 553.915,0 528.741,0L477.292,0L477.292,132.724L497.404,132.724L497.404,76.791L522.585,76.791L550.563,132.724L574.032,132.724ZM549.818,38.955C549.818,52.013 540.678,59.661 527.248,59.661L497.404,59.661L497.404,18.062L527.248,18.062C540.678,18.062 549.818,25.896 549.818,38.955Z" style="fill:white;fill-rule:nonzero;"/>
        <path d="M697.096,132.724L648.434,-0L632.214,-0L583.552,132.724L604.993,132.724L614.129,106.062L666.519,106.062L675.655,132.724L697.096,132.724ZM660.926,88.933L620.095,88.933L640.79,30.017L660.926,88.933Z" style="fill:white;fill-rule:nonzero;"/>
        <path d="M800,132.724L800,114.662L736.05,114.662L736.05,-0L715.938,-0L715.938,132.724L800,132.724Z" style="fill:white;fill-rule:nonzero;"/>
    </g>
</svg>
