<svg width="138" height="114" viewBox="0 0 138 114" fill="none" xmlns="http://www.w3.org/2000/svg">
  <g filter="url(#filter0_d_4262_6786)">
    <rect x="21.6094" y="21.6013" width="80" height="56" rx="4" transform="rotate(15 21.6094 21.6013)" fill="#D6F5FF"/>
  </g>
  <mask id="mask0_4262_6786" style="mask-type:alpha" maskUnits="userSpaceOnUse" x="8" y="22" width="90" height="74">
    <rect x="21.6094" y="21.6013" width="80" height="56" rx="4" transform="rotate(15 21.6094 21.6013)" fill="white"/>
  </mask>
  <g mask="url(#mask0_4262_6786)">
    <path d="M68.7782 50.0316C70.751 48.7513 73.3973 49.4412 74.4941 51.5216L101.232 102.239C102.86 105.326 100.029 108.871 96.6584 107.968L22.4204 88.0761C19.0743 87.1796 18.3723 82.7428 21.2782 80.8571L68.7782 50.0316Z" fill="#71C045"/>
    <path d="M29.9941 56.1791C31.975 54.9138 34.6147 55.6211 35.6976 57.7074L51.9707 89.0589C53.5728 92.1457 50.7444 95.6655 47.3851 94.7654L1.34339 82.4286C-2.01592 81.5284 -2.70549 77.066 0.225429 75.1939L29.9941 56.1791Z" fill="#96E06C"/>
    <circle cx="31.5083" cy="38.7478" r="7" transform="rotate(15 31.5083 38.7478)" fill="#F1C232"/>
  </g>
  <g filter="url(#filter1_d_4262_6786)">
    <path d="M60.7055 14.4472C61.2924 13.4008 62.318 12.6732 63.4995 12.4649L79.3593 9.66834L110.873 4.1116C113.049 3.72799 115.123 5.18066 115.507 7.35624L129.399 86.1409C129.782 88.3164 128.33 90.3911 126.154 90.7747L63.1265 101.888C60.9509 102.272 58.8763 100.819 58.4927 98.6435L51.5468 59.2512L47.9745 38.9916C47.8141 38.0823 47.9733 37.1455 48.425 36.3401L60.7055 14.4472Z" fill="white"/>
  </g>
  <path d="M78.112 87.0608L76.0914 75.6012L80.6125 74.804C81.4817 74.6507 82.2515 74.6862 82.9218 74.9103C83.5914 75.1307 84.1383 75.5054 84.5624 76.0345C84.9895 76.5592 85.2702 77.2021 85.4044 77.9631C85.5386 78.7241 85.4928 79.4245 85.2672 80.0643C85.0415 80.7041 84.6458 81.2412 84.0801 81.6756C83.518 82.1093 82.7969 82.4038 81.9165 82.559L79.0348 83.0671L78.6925 81.1255L81.1825 80.6864C81.6487 80.6042 82.0188 80.4563 82.2927 80.2426C82.5696 80.0245 82.7574 79.7587 82.856 79.4452C82.9576 79.1272 82.9752 78.7799 82.9088 78.4031C82.8417 78.0226 82.7067 77.7041 82.5037 77.4476C82.3039 77.1866 82.0372 77.0048 81.7037 76.9021C81.3695 76.7956 80.9674 76.7838 80.4974 76.8667L78.8635 77.1548L80.5349 86.6336L78.112 87.0608ZM92.3763 84.5456L88.314 85.2619L86.2934 73.8023L90.3893 73.0801C91.542 72.8768 92.5747 72.9313 93.4874 73.2434C94.3996 73.5519 95.1547 74.0937 95.753 74.869C96.355 75.6437 96.7609 76.626 96.9707 77.816C97.1812 79.0097 97.1364 80.0753 96.8363 81.0129C96.54 81.9498 96.0126 82.7217 95.2542 83.3285C94.4995 83.9347 93.5402 84.3404 92.3763 84.5456ZM90.3708 82.7587L91.9096 82.4874C92.6258 82.3611 93.2059 82.1281 93.6498 81.7882C94.0969 81.444 94.3961 80.9816 94.5476 80.401C94.7021 79.8161 94.7041 79.0965 94.5535 78.2422C94.4042 77.3954 94.1572 76.7255 93.8125 76.2324C93.4716 75.7386 93.0345 75.408 92.5011 75.2405C91.9677 75.073 91.3429 75.0524 90.6266 75.1787L89.0823 75.451L90.3708 82.7587ZM99.7778 83.2405L97.7572 71.7809L105.345 70.443L105.697 72.4406L100.532 73.3513L101.014 76.0819L105.675 75.26L106.027 77.2576L101.366 78.0795L102.201 82.8133L99.7778 83.2405Z" fill="#2A343E"/>
  <path d="M62.5781 13.3194L48.585 37.6184L66.3115 34.4928L62.5781 13.3194Z" fill="url(#paint0_linear_4262_6786)"/>
  <path d="M103.448 46.0898C102.201 45.1561 99.9406 44.8874 96.8994 45.4237C95.2719 45.7107 93.4191 46.2041 91.4378 46.9465C89.9681 45.9324 88.5917 44.7892 87.3251 43.5306C86.3484 42.5787 85.458 41.5454 84.6282 40.5197C85.1668 36.5578 85.2102 33.3961 84.8217 31.1925C84.3862 28.723 83.0383 26.3069 80.4757 26.7588C79.6847 26.8983 78.9847 27.5152 78.6879 28.2941C77.8998 30.575 79.2233 35.0424 82.0077 39.1917C81.6531 41.6213 81.2159 44.0381 80.6969 46.438C80.1938 48.6443 79.6004 50.829 78.918 52.9866C73.5667 56.3463 70.3142 59.7334 70.3471 61.9415C70.3333 62.7767 70.7295 63.4688 71.3993 63.963C71.6239 64.0902 72.4758 64.6002 73.7277 64.3795C77.5533 63.7049 80.4676 56.6762 81.8491 52.4995C83.3254 51.692 84.8153 50.929 86.2987 50.1682C87.8758 49.4181 89.489 48.7463 91.1323 48.1552C95.8241 51.1423 99.4865 51.0974 101.276 50.7819C103.481 50.3931 104.104 49.343 104.239 48.5516C104.484 47.5145 103.986 46.508 103.416 46.043L103.455 46.0955L103.448 46.0898ZM101.68 48.0078C101.665 48.8375 100.97 49.513 99.8674 49.7074C99.5561 49.7623 99.2801 49.7515 98.955 49.7609C96.8608 49.6298 94.8008 48.9409 92.641 47.6607C94.0528 47.1599 95.5037 46.7768 96.9788 46.5155C98.069 46.3232 99.0254 46.2083 99.6877 46.2583C100.442 46.2864 101.683 46.5725 101.67 48.0153L101.699 48.0102L101.68 48.0078ZM90.1219 47.4458C88.7146 48.0012 87.3238 48.5977 85.9513 49.2344C84.7587 49.7955 83.5847 50.3953 82.4312 51.0329C82.8461 49.658 83.2143 48.2695 83.5352 46.8697C83.9045 45.2521 84.1505 43.6083 84.4211 42.0721C85.0949 42.8877 85.8318 43.6979 86.5524 44.4094C87.7254 45.5288 88.9284 46.579 90.1092 47.4709L90.1041 47.4421L90.1219 47.4458ZM79.7362 28.7387C79.7952 28.5333 79.9094 28.3481 80.0663 28.203C80.2231 28.058 80.4167 27.9586 80.6261 27.9158C81.7284 27.7214 82.1614 28.9656 82.3425 29.9926C82.6467 31.7177 82.5836 34.4305 82.2165 37.5772C79.9121 33.6883 79.1945 30.221 79.7417 28.7377L79.7362 28.7387ZM78.3733 54.7174C76.4946 59.6832 74.418 62.9235 72.8426 63.2013C72.5368 63.2552 72.2516 63.1924 72.0168 63.0727C71.6429 62.8051 71.4207 62.4582 71.4494 62.0122C71.4824 60.3465 74.0748 57.5693 78.3797 54.7151L78.3733 54.7174Z" fill="#FF2E00"/>
  <defs>
    <filter id="filter0_d_4262_6786" x="0.0136719" y="18.4993" width="105.973" height="89.0015" filterUnits="userSpaceOnUse" color-interpolation-filters="sRGB">
      <feFlood flood-opacity="0" result="BackgroundImageFix"/>
      <feColorMatrix in="SourceAlpha" type="matrix" values="0 0 0 0 0 0 0 0 0 0 0 0 0 0 0 0 0 0 127 0" result="hardAlpha"/>
      <feOffset dy="4"/>
      <feGaussianBlur stdDeviation="4"/>
      <feColorMatrix type="matrix" values="0 0 0 0 0.164706 0 0 0 0 0.203922 0 0 0 0 0.243137 0 0 0 0.25 0"/>
      <feBlend mode="normal" in2="BackgroundImageFix" result="effect1_dropShadow_4262_6786"/>
      <feBlend mode="normal" in="SourceGraphic" in2="effect1_dropShadow_4262_6786" result="shape"/>
    </filter>
    <filter id="filter1_d_4262_6786" x="39.9141" y="0.0500488" width="97.5469" height="113.9" filterUnits="userSpaceOnUse" color-interpolation-filters="sRGB">
      <feFlood flood-opacity="0" result="BackgroundImageFix"/>
      <feColorMatrix in="SourceAlpha" type="matrix" values="0 0 0 0 0 0 0 0 0 0 0 0 0 0 0 0 0 0 127 0" result="hardAlpha"/>
      <feOffset dy="4"/>
      <feGaussianBlur stdDeviation="4"/>
      <feColorMatrix type="matrix" values="0 0 0 0 0.164706 0 0 0 0 0.203922 0 0 0 0 0.243137 0 0 0 0.25 0"/>
      <feBlend mode="normal" in2="BackgroundImageFix" result="effect1_dropShadow_4262_6786"/>
      <feBlend mode="normal" in="SourceGraphic" in2="effect1_dropShadow_4262_6786" result="shape"/>
    </filter>
    <linearGradient id="paint0_linear_4262_6786" x1="55.7118" y1="26.2075" x2="70.1057" y2="35.8546" gradientUnits="userSpaceOnUse">
      <stop stop-color="white"/>
      <stop offset="1" stop-color="#E9E9E9"/>
    </linearGradient>
  </defs>
</svg>
