<svg width="42" height="41" viewBox="0 0 42 41" fill="none" xmlns="http://www.w3.org/2000/svg">
  <path d="M38.0799 14.2173C34.6847 13.6594 28.6156 13.4441 26.5398 16.6252C24.9375 19.0824 27.9669 22.4478 30.7251 25.7081C32.9358 28.3197 35.3411 30.8145 34.359 32.2728C33.5572 33.465 28.4158 33.4625 26.6436 33.5572C24.4938 33.67 21.3957 33.6765 20.8547 33.9723C20.3695 34.2318 20.0996 35.0426 21.9186 35.3683C23.3807 35.6317 26.8641 36.1649 30.537 36.1623C34.3707 36.1623 38.399 35.533 39.2721 32.5647C39.974 30.1801 37.5402 27.6243 35.3995 25.0335C33.0578 22.1948 30.6836 20.1722 30.8847 18.1626C31.0364 16.598 34.1021 16.5097 39.1904 16.4202C40.2478 16.4008 42.3547 16.3502 41.9486 15.5147C41.5866 14.7765 40.0103 14.5326 38.0799 14.2173ZM22.431 21.2944C20.254 19.8012 16.3723 19.3017 13.1782 19.4677C10.3331 19.6169 5.44068 20.5225 5.62491 21.4229C5.79876 22.3959 8.89428 22.0936 10.3136 22.0936C13.4338 22.0936 18.3858 22.2843 19.1655 24.294C20.8469 28.6272 9.44176 36.4036 7.0092 35.6563C5.90903 35.3203 9.24457 29.6664 10.4537 27.6347C11.1725 26.4203 12.2687 24.5145 11.3346 24.3835C10.2889 24.2395 9.13818 26.0337 8.3896 27.069C6.36052 29.8804 4.28343 32.9513 2.61631 36.1052C2.09866 37.0795 0.390029 40.0116 0.976439 40.3904C1.52523 40.7433 4.13294 40.2412 7.4503 38.9257C17.8811 34.7974 22.5776 29.416 23.8361 24.9699C24.2772 23.404 23.5143 22.0378 22.431 21.2944ZM14.6857 2.30487C14.473 1.60299 17.9512 0.690943 21.7668 0.522286C25.6109 0.353628 30.1581 1.11778 31.0066 3.65413C32.3948 7.8096 25.3553 13.8696 19.2226 16.8484C17.7177 17.5749 16.8082 17.776 16.4268 17.7254C16.0661 17.6774 16.009 17.3401 16.1271 17.1078C16.3438 16.6706 17.3362 15.7806 18.6583 14.8128C25.5629 9.76863 27.8073 6.06853 26.5034 4.57137C25.6666 3.61132 22.1676 2.94188 18.5324 2.94188C17.5464 2.94188 14.9543 3.15724 14.6857 2.30617" fill="#EE2722"/>
</svg>
