<svg width="287" height="254" viewBox="0 0 287 254" fill="none" xmlns="http://www.w3.org/2000/svg">
  <path d="M38.4844 10.2661V2.40323L44.5328 2L63.2828 2.80645L62.6779 5.83065V13.8952L39.8957 13.0887L38.4844 10.2661Z" stroke="#2A343E" stroke-width="2"/>
  <path d="M63.0801 4.01611L224.572 10.4677M224.572 10.4677V9.66128L242.717 10.0645V12.8871L224.572 12.4839V10.4677Z" stroke="#2A343E" stroke-width="2"/>
  <path d="M38.6855 10.0645H43.121L44.9355 4.82258M44.9355 4.82258L62.6775 5.83065M44.9355 4.82258V2" stroke="#2A343E" stroke-width="2"/>
  <path d="M144.534 30.8306L195.686 32.1856C201.104 32.3291 205.421 36.7624 205.421 42.1821V180.427L68.3242 186.677V39.0788C68.3242 33.4538 72.962 28.9355 78.5851 29.0822L124.826 30.2887" stroke="#2A343E" stroke-width="2"/>
  <path d="M212.074 9.86279V19.3386L231.429 19.5402L233.647 17.3225H237.881L242.719 12.887" stroke="#2A343E" stroke-width="2"/>
  <path d="M38.6855 10.4678V45.4728M76.5888 196.557V199.177L72.9598 200.992L52.3952 202L47.9597 201.597L46.1452 200.992L42.7178 210.468L38.6855 206.637V80.3267" stroke="#2A343E" stroke-width="2"/>
  <path d="M66.3057 45.5485L18.7251 45.1453L12.2734 51.5969V56.4356H22.1525L23.7654 54.8227H33.2412L37.0718 62.0807V65.9114L34.0476 71.3549H30.6202V78.0082H38.6847V81.0324L52.1928 83.4517H63.6847V53.8146L66.3057 48.9759V45.5485Z" stroke="#2A343E" stroke-width="2"/>
  <path d="M63.484 50.1853H59.4517L55.6211 56.4353V83.4514H60.863V54.6208L63.484 50.1853Z" stroke="#2A343E" stroke-width="2"/>
  <path d="M47.9597 198.774L38.6855 195.145L67.9194 193.532L76.5888 196.556L72.9598 198.371L52.5968 199.177L47.9597 198.774Z" stroke="#2A343E" stroke-width="2" stroke-linejoin="round"/>
  <path d="M68.3242 186.677V193.734" stroke="#2A343E" stroke-width="2" stroke-linejoin="round"/>
  <path d="M13.082 56.4355V74.1775L15.2998 76.7985H30.6224" stroke="#2A343E" stroke-width="2" stroke-linejoin="round"/>
  <path d="M12.879 50.9919H6.62897L4.81445 53.2097V73.7742L6.62897 76.1936H14.6935" stroke="#2A343E" stroke-width="2" stroke-linejoin="round"/>
  <path d="M18.1209 76.7986C19.6666 85.3335 22.4354 105.67 21.1451 118.734C19.5322 135.065 3.00002 148.369 3 162.885C2.99998 175.387 24.3709 176.799 38.6854 173.573" stroke="#2A343E" stroke-width="5" stroke-linejoin="round"/>
  <path fill-rule="evenodd" clip-rule="evenodd" d="M38.6839 97.3903V90.7624C32.7402 84.4823 26.7632 79.7837 22.0993 76.7983L18.1188 77.0001L17.0469 78.9416C22.3602 81.8753 30.7882 88.1584 38.6839 97.3903ZM68.5227 157.421V168.753C68.6305 168.979 68.7377 169.202 68.844 169.422C69.4886 170.755 70.0925 171.96 70.6537 173.079L70.6541 173.08L70.6541 173.08C73.0788 177.916 74.7082 181.166 75.3961 186.364L79.7932 185.782C79 179.788 76.9975 175.808 74.5248 170.892L74.5246 170.892C73.9822 169.814 73.4171 168.691 72.8372 167.491C71.5172 164.761 70.061 161.538 68.5227 157.421Z" fill="#2A343E"/>
  <path d="M38.6864 190.71L22.5574 185.871L19.5332 177.403V117.524L38.6864 120.75V116.919L20.9445 117.524" stroke="#2A343E" stroke-width="2" stroke-linejoin="round"/>
  <path d="M205.418 162.081L175.579 156.234L174.369 162.081V182.04" stroke="#2A343E" stroke-width="2" stroke-linejoin="round"/>
  <path d="M205.42 71.3548L179.412 69.5403V156.839" stroke="#2A343E" stroke-width="2" stroke-linejoin="round"/>
  <path fill-rule="evenodd" clip-rule="evenodd" d="M46.748 82.4767V195.75C46.748 196.641 47.4702 197.363 48.361 197.363C49.2517 197.363 49.9739 196.641 49.9739 195.75V83.0545L46.748 82.4767ZM46.748 45.3828L49.9739 45.4101V5.22583H46.748V45.3828Z" fill="#2A343E"/>
  <path fill-rule="evenodd" clip-rule="evenodd" d="M56.8301 54.2493V195.347C56.8301 196.238 57.5522 196.96 58.443 196.96C59.3338 196.96 60.0559 196.238 60.0559 195.347V50.1859H59.4516L56.8301 54.2493ZM56.8301 45.5489H60.0559V5.62939H56.8301V45.5489Z" fill="#2A343E"/>
  <path d="M236.381 184.863C236.381 185.691 237.052 186.363 237.881 186.363C238.709 186.363 239.381 185.691 239.381 184.863H236.381ZM236.381 12.4839V184.863H239.381V12.4839H236.381Z" fill="#2A343E"/>
  <path d="M220.71 54.492C222.643 54.5095 224.224 52.9567 224.241 51.0238C224.259 49.0909 222.706 47.5097 220.773 47.4922L220.71 54.492ZM64.8628 53.0807L220.71 54.492L220.773 47.4922L64.9262 46.081L64.8628 53.0807Z" fill="#2A343E"/>
  <path d="M219.32 63.4837C219.873 63.4894 220.325 63.0464 220.331 62.4941C220.336 61.9419 219.893 61.4895 219.341 61.4838L219.32 63.4837ZM63.6752 61.8708L219.32 63.4837L219.341 61.4838L63.6959 59.8709L63.6752 61.8708Z" fill="#2A343E"/>
  <path d="M219.32 70.742C219.873 70.7477 220.325 70.3047 220.331 69.7524C220.336 69.2002 219.893 68.7478 219.341 68.7421L219.32 70.742ZM63.6752 69.1291L219.32 70.742L219.341 68.7421L63.6959 67.1292L63.6752 69.1291Z" fill="#2A343E"/>
  <path d="M219.903 80.2984C221.836 80.3159 223.417 78.7631 223.435 76.8302C223.452 74.8973 221.899 73.3161 219.966 73.2986L219.903 80.2984ZM64.0562 78.8871L219.903 80.2984L219.966 73.2986L64.1196 71.8874L64.0562 78.8871Z" fill="#2A343E"/>
  <path d="M230.218 47.9678H216.508L216.307 79.621L221.347 80.2258H227.799L230.218 78.0081L235.258 79.621H242.92V47.9678H230.218Z" stroke="#2A343E" stroke-width="2"/>
  <path d="M232.837 78.8146V52.4033H225.377V80.2259" stroke="#2A343E" stroke-width="2"/>
  <rect x="218.121" y="56.8386" width="2.82258" height="15.3226" rx="1.41129" stroke="#2A343E" stroke-width="2"/>
  <path d="M142.717 72.5647C142.717 64.993 148.855 58.855 156.426 58.855V58.855C163.998 58.855 170.136 64.993 170.136 72.5647V73.976C170.136 82.327 163.366 89.0969 155.015 89.0969H142.717V72.5647Z" stroke="#2A343E" stroke-width="2"/>
  <path d="M152.798 89.0969H138.686V72.5647C138.686 64.993 144.824 58.855 152.395 58.855V58.855H156.427" stroke="#2A343E" stroke-width="2"/>
  <path d="M165.508 74.5807C165.508 79.4349 161.834 83.2582 157.436 83.2582C153.037 83.2582 149.363 79.4349 149.363 74.5807C149.363 69.7266 153.037 65.9033 157.436 65.9033C161.834 65.9033 165.508 69.7266 165.508 74.5807Z" stroke="#2A343E" stroke-width="2"/>
  <path d="M162.684 74.5807C162.684 77.9032 160.248 80.4355 157.434 80.4355C154.619 80.4355 152.184 77.9032 152.184 74.5807C152.184 71.2582 154.619 68.7258 157.434 68.7258C160.248 68.7258 162.684 71.2582 162.684 74.5807Z" stroke="#2A343E" stroke-width="2"/>
  <ellipse cx="29.2096" cy="63.6934" rx="3.83065" ry="4.03226" stroke="#2A343E" stroke-width="2"/>
  <ellipse cx="253.049" cy="218.762" rx="3.02419" ry="4.03226" transform="rotate(-31.7591 253.049 218.762)" stroke="#2A343E" stroke-width="2"/>
  <ellipse cx="251.144" cy="219.926" rx="5.31783" ry="7.09045" transform="rotate(-31.7591 251.144 219.926)" stroke="#2A343E" stroke-width="2"/>
  <path d="M29.2108 59.6611H25.9849C23.8693 59.6611 22.1543 61.4664 22.1543 63.6934C22.1543 65.9203 23.8693 67.7257 25.9849 67.7257H29.2108" stroke="#2A343E" stroke-width="2"/>
  <path d="M29.1278 59.6614C28.0963 58.4218 26.6177 57.6453 24.9752 57.6453C21.8575 57.6453 19.3301 60.4435 19.3301 63.8953C19.3301 67.347 21.8575 70.1453 24.9752 70.1453C26.7744 70.1453 28.377 69.2134 29.4107 67.7619" stroke="#2A343E" stroke-width="2"/>
  <path d="M123.975 76.5967C123.975 78.729 123.628 80.6134 123.102 81.9278C122.838 82.5878 122.548 83.0548 122.278 83.3404C122.01 83.6239 121.831 83.6613 121.749 83.6613C121.667 83.6613 121.488 83.6239 121.22 83.3404C120.95 83.0548 120.661 82.5878 120.397 81.9278C119.871 80.6134 119.523 78.729 119.523 76.5967C119.523 74.4644 119.871 72.5801 120.397 71.2657C120.661 70.6057 120.95 70.1387 121.22 69.8531C121.488 69.5696 121.667 69.5322 121.749 69.5322C121.831 69.5322 122.01 69.5696 122.278 69.8531C122.548 70.1387 122.838 70.6057 123.102 71.2657C123.628 72.5801 123.975 74.4644 123.975 76.5967Z" stroke="#2A343E" stroke-width="2"/>
  <path fill-rule="evenodd" clip-rule="evenodd" d="M84.5725 73.9518C78.6157 74.8366 72.5782 75.8784 68.3242 76.6622V72.1529C72.558 71.3812 78.2718 70.4036 83.9207 69.5644C90.6881 68.5591 97.5313 67.7258 101.59 67.7258C109.372 67.7258 113.997 68.1293 115.444 68.3578L114.753 72.739C113.646 72.5643 109.292 72.1613 101.59 72.1613C97.9075 72.1613 91.3771 72.9409 84.5725 73.9518Z" fill="#2A343E"/>
  <path d="M126.185 38.2903H124.169L122.959 41.5161V43.9354L124.169 47.9677H126.588L127.798 45.5483V43.129L126.185 38.2903Z" stroke="#2A343E" stroke-width="2"/>
  <path d="M144.733 34.0562V33.334C144.733 31.1584 142.994 29.3817 140.819 29.3349L125.983 29.0159L117.515 37.6852V41.7175H116.104V45.3465L117.515 46.153V54.0159H115.096V64.4997V75.7901V79.4191L127.394 90.5078V91.3143H125.781V94.5401H155.015V88.8949" stroke="#2A343E" stroke-width="2"/>
  <rect x="138.686" y="33.855" width="22.5806" height="25" rx="8" stroke="#2A343E" stroke-width="2"/>
  <path d="M144.332 33.855H137.01C132.591 33.855 129.01 37.4367 129.01 41.855V50.855C129.01 55.2733 132.591 58.855 137.01 58.855H144.332" stroke="#2A343E" stroke-width="2"/>
  <path d="M141.913 209.661L68.3242 186.677L205.421 180.427L285.26 197.161L280.824 198.976L151.187 210.669L141.913 209.661Z" stroke="#2A343E" stroke-width="2" stroke-linejoin="round"/>
  <path d="M68.3242 189.097L141.913 212.081L151.187 213.089L280.824 201.395L285.26 199.581V197.161" stroke="#2A343E" stroke-width="2"/>
  <path d="M144.53 221.96L74.3691 200.243" stroke="#2A343E" stroke-width="2"/>
  <path d="M141.912 229.016L71.5488 207.04" stroke="#2A343E" stroke-width="2"/>
  <path d="M141.912 234.661L71.5488 212.685" stroke="#2A343E" stroke-width="2"/>
  <path fill-rule="evenodd" clip-rule="evenodd" d="M227.799 12.4839V184.863C227.799 184.951 227.806 185.038 227.82 185.122L230.766 185.74C230.929 185.487 231.025 185.186 231.025 184.863V12.4839H227.799Z" fill="#2A343E"/>
  <path d="M222.959 184.056L231.024 183.048L245.338 185.871V188.895" stroke="#2A343E" stroke-width="2"/>
  <path d="M31.632 188.492C31.2288 188.627 30.2207 189.299 30.0191 191.315C29.8987 192.518 30.0191 193.734 30.4223 194.339C30.5118 194.473 36.0003 200.791 38.6885 204.016" stroke="#2A343E" stroke-width="2"/>
  <path d="M37.2754 202.403V212.282L39.2915 215.71V223.976L44.3318 229.218L91.7109 225.589L141.106 240.911H142.114M169.735 240.105L165.703 240.307" stroke="#2A343E" stroke-width="2"/>
  <path d="M149.775 212.887V216.113L142.113 224.782V242.524L146.549 246.557L161.67 245.952L165.702 241.516V230.427M156.831 212.686V216.113L161.871 220.952" stroke="#2A343E" stroke-width="2"/>
  <path d="M50.1769 202V221.556L42.5156 218.331V210.065" stroke="#2A343E" stroke-width="2" stroke-linejoin="round"/>
  <path d="M71.5468 201.194V219.541L50.1758 221.557" stroke="#2A343E" stroke-width="2"/>
  <path d="M165.7 214.097L161.668 220.347L173.966 249.782L181.829 252L266.708 242.726L269.934 237.081L253.2 205.831L165.7 214.097Z" stroke="#2A343E" stroke-width="2"/>
  <path d="M234.451 215.105L186.457 219.783L193.927 235.468L242.403 230.831L234.451 215.105Z" stroke="#2A343E" stroke-width="2"/>
  <path d="M165.703 214.097L181.832 252" stroke="#2A343E" stroke-width="2"/>
  <path d="M269.935 237.081L185.661 246.153L181.83 251.799" stroke="#2A343E" stroke-width="2"/>
  <path d="M171.348 213.895L185.461 246.153" stroke="#2A343E" stroke-width="2"/>
</svg>
