<?xml version="1.0" encoding="UTF-8" standalone="no"?>
<!DOCTYPE svg PUBLIC "-//W3C//DTD SVG 1.1//EN" "http://www.w3.org/Graphics/SVG/1.1/DTD/svg11.dtd">
<svg width="100%" height="100%" viewBox="0 0 21 20" version="1.1" xmlns="http://www.w3.org/2000/svg" xmlns:xlink="http://www.w3.org/1999/xlink" xml:space="preserve" xmlns:serif="http://www.serif.com/" style="fill-rule:evenodd;clip-rule:evenodd;stroke-linejoin:round;stroke-miterlimit:2;">
    <g transform="matrix(1,0,0,1,-2080,0)">
        <g id="question-circle" transform="matrix(1.00029,0,0,1,1579.85,-3100)">
            <rect x="500" y="3100" width="20" height="20" style="fill:none;"/>
            <clipPath id="_clip1">
                <rect x="500" y="3100" width="20" height="20"/>
            </clipPath>
            <g clip-path="url(#_clip1)">
                <g transform="matrix(0.999707,0,0,1,-1279.48,3100)">
                    <path d="M1790,0C1795.52,0 1800,4.481 1800,10C1800,15.519 1795.52,20 1790,20C1784.48,20 1780,15.519 1780,10C1780,4.481 1784.48,0 1790,0ZM1790,2C1794.41,2 1798,5.585 1798,10C1798,14.415 1794.41,18 1790,18C1785.59,18 1782,14.415 1782,10C1782,5.585 1785.59,2 1790,2Z"/>
                    <path d="M1790,0C1795.52,0 1800,4.481 1800,10C1800,15.519 1795.52,20 1790,20C1784.48,20 1780,15.519 1780,10C1780,4.481 1784.48,0 1790,0ZM1790,2C1794.41,2 1798,5.585 1798,10C1798,14.415 1794.41,18 1790,18C1785.59,18 1782,14.415 1782,10C1782,5.585 1785.59,2 1790,2Z"/>
                </g>
                <g transform="matrix(0.999707,0,0,1,511.999,3113)">
                    <path d="M0,-8L-5,-8L-5,-6L0,-6C0.552,-6 1,-5.552 1,-5C1,-4.448 0.552,-4 0,-4C-1.654,-4 -3,-2.654 -3,-1L-3,0L-1,0L-1,-1C-1,-1.552 -0.552,-2 0,-2C1.654,-2 3,-3.346 3,-5C3,-6.654 1.654,-8 0,-8" style="fill-rule:nonzero;"/>
                </g>
                <g transform="matrix(0.999707,0,0,1,510,3116)">
                    <circle cx="0" cy="-1" r="1"/>
                </g>
            </g>
        </g>
    </g>
</svg>
