<?xml version="1.0" encoding="UTF-8" standalone="no"?>
<!DOCTYPE svg PUBLIC "-//W3C//DTD SVG 1.1//EN" "http://www.w3.org/Graphics/SVG/1.1/DTD/svg11.dtd">
<svg width="100%" height="100%" viewBox="0 0 18 21" version="1.1" xmlns="http://www.w3.org/2000/svg" xmlns:xlink="http://www.w3.org/1999/xlink" xml:space="preserve" xmlns:serif="http://www.serif.com/" style="fill-rule:evenodd;clip-rule:evenodd;stroke-linejoin:round;stroke-miterlimit:2;">
    <rect id="remove" x="0" y="0.83" width="18" height="20" style="fill:none;"/>
    <path d="M13,2.83L13,0.83L5,0.83L5,2.83L0,2.83L0,4.83L18,4.83L18,2.83L13,2.83ZM14,6.83L14,18.83L12,18.83L12,6.83L10,6.83L10,18.83L8,18.83L8,6.83L6,6.83L6,18.83L4,18.83L4,6.83L2,6.83L2,19.83C2,20.382 2.448,20.83 3,20.83L15,20.83C15.552,20.83 16,20.382 16,19.83L16,6.83L14,6.83Z"/>
</svg>
