<svg width="189" height="253" viewBox="0 0 189 253" fill="none" xmlns="http://www.w3.org/2000/svg">
<path d="M160.712 149.818L1 148.965V226.089C1 234.839 8.02957 241.967 16.7792 242.087L145.198 243.86C154.177 243.984 161.499 236.696 161.418 227.716L160.712 149.818Z" stroke="#2A343E" stroke-width="2"/>
<path d="M85.957 149.778V193.559C85.957 201.706 92.461 208.364 100.606 208.554L127.032 209.172C135.481 209.37 142.425 202.552 142.382 194.101L142.159 149.946" stroke="#2A343E" stroke-width="2"/>
<path d="M160.752 150.185L186.768 140.429" stroke="#2A343E" stroke-width="2"/>
<path d="M171.507 140.429H187.139L187.899 213.911C187.955 219.302 185.291 224.359 180.814 227.363L178.016 229.24L152.111 242.373" stroke="#2A343E" stroke-width="2"/>
<path d="M35.1445 127.363L154.517 128.234L168.882 123.53M35.1445 127.363L36.1127 138.334C36.3394 140.904 38.484 142.879 41.0638 142.895L154.517 143.565M35.1445 127.363L56.6931 123.356L168.882 123.53M168.882 123.53V126.666L161.186 129.453V144.087" stroke="#2A343E" stroke-width="2"/>
<path d="M154.666 146.526L11.9766 145.671V17.0962C11.9766 8.22214 19.1986 1.04328 28.0724 1.09645L138.762 1.75973C147.561 1.81245 154.666 8.9603 154.666 17.7594V146.526ZM154.666 146.526L177.421 138.147V19.523C177.421 11.1855 171.019 4.24546 162.708 3.57483L140.576 1.78883" stroke="#2A343E" stroke-width="2"/>
<path d="M46.1211 125.388V23.6C46.1211 14.726 53.3431 7.54716 62.2169 7.60031L117.437 7.93102L150.394 8.14458" stroke="#2A343E" stroke-width="2"/>
<path d="M48.1523 28.6418H118.63L134.33 28.2354" stroke="#2A343E" stroke-width="2"/>
<path d="M118.691 45.7147H50.1855V28.7445M118.691 45.7147V28.9142M118.691 45.7147L133.311 45.0802M134.331 45.0359L133.311 45.0802M133.311 28.2354V45.0802" stroke="#2A343E" stroke-width="2"/>
<path fill-rule="evenodd" clip-rule="evenodd" d="M61.5691 46C61.9787 46.5911 62.7573 47.8862 63.8027 49.7876C64.963 51.8981 66.385 54.6309 67.8695 57.6782C70.8447 63.7856 74.0263 71.0644 75.872 77.0905L75.9996 77.5388C76.0757 79.3621 76.1189 81.0513 76.1189 82.5365C76.1189 83.9289 76.0896 85.4969 76.0375 87.1833C72.7534 97.0721 69.0372 106.594 64.9345 114.837C64.1563 116.4 63.3651 117.916 62.5614 119.377L60.9316 122.341H67.0133L74.6084 111.222C74.4526 113.256 74.3068 115.079 74.1843 116.576C74.0766 117.89 73.987 118.953 73.9242 119.687C73.8929 120.054 73.8682 120.339 73.8515 120.531L73.8259 120.824L73.6335 123H78.4418L85.511 110.968L88.9345 123H93.3134L97.9816 110.462C101.018 116.234 103.216 120.443 103.939 121.893L104.492 123H109.298L109.206 120.912C109 116.252 109.056 110.341 109.391 103.781C110.847 106.338 112.236 108.784 113.533 111.074L118.12 124.035H125.406L123.746 121.06C122.091 118.095 119.835 114.084 117.187 109.408L110.411 90.2605C110.633 88.0131 110.885 85.7404 111.165 83.461C112.165 75.3436 113.529 67.2035 115.269 59.8596L123.201 46H114.317L109.138 53.582L108.543 46H102.03C100.966 48.2911 99.4028 51.5027 97.5068 55.3022L93.9735 46H87.164C86.5762 48.703 85.945 51.4857 85.2715 54.3245C83.4443 51.2809 81.7384 48.4751 80.2048 46H73.3617C73.372 46.0949 73.3827 46.1934 73.3938 46.2954C73.5317 47.5671 73.7248 49.3826 73.9452 51.5555C74.2928 54.9817 74.7078 59.292 75.0818 63.7581C73.9007 61.0436 72.6612 58.3809 71.4655 55.9264C69.9548 52.8254 68.5027 50.0338 67.3078 47.8604C67.0586 47.4071 66.8172 46.9745 66.5862 46.5674H68.4992V46H61.5691ZM90.6862 48.6104L95.069 60.1493C94.1376 61.9886 93.1558 63.9141 92.1375 65.8985C90.7936 63.6112 89.4762 61.3796 88.1997 59.2302C89.0959 55.5992 89.9254 52.0437 90.6862 48.6104ZM96.9879 65.2012C96.1936 66.7576 95.3728 68.3575 94.533 69.9865C95.0527 70.8756 95.575 71.7704 96.099 72.6696L98.4933 69.1645L96.9879 65.2012ZM86.8059 64.7272C87.8416 66.4819 88.8983 68.2793 89.9688 70.1065C88.5497 72.8486 87.0826 75.6615 85.6008 78.4794C85.0349 77.412 84.4701 76.3468 83.9081 75.287C84.9313 71.7467 85.8978 68.2137 86.8059 64.7272ZM88.2632 82.0079L87.8677 82.757L88.4533 83.8625L93.6003 76.3275C93.1847 75.6131 92.7698 74.9008 92.3562 74.1915C91.0134 76.7749 89.64 79.3983 88.2632 82.0079ZM82.2817 80.7587L83.3413 82.7579C82.9722 83.4539 82.6033 84.1478 82.2353 84.8386L81.6533 82.7928C81.8648 82.1154 82.0743 81.4373 82.2817 80.7587ZM85.6023 87.0257C85.002 88.1517 84.404 89.2693 83.8104 90.3742L83.8677 90.5756L85.9037 87.5949L85.6023 87.0257ZM83.9209 59.8606C83.0695 63.2565 82.1611 66.7085 81.1977 70.1785C80.5668 68.9896 79.9429 67.8145 79.3287 66.6577C78.8941 61.0436 78.3569 55.4115 77.9248 51.1518C77.8728 50.6399 77.8224 50.1477 77.7739 49.6776C79.63 52.6979 81.7059 56.141 83.9209 59.8606ZM78.9634 106.574C79.0086 105.942 79.0538 105.299 79.0987 104.649L82.3562 99.8798L83.9974 105.648L78.2968 115.35C78.4928 112.91 78.7281 109.872 78.9634 106.574ZM86.7992 100.879L85.2921 95.5819L88.0187 91.5903C88.6961 92.8705 89.3664 94.1376 90.0265 95.386L86.7992 100.879ZM92.4079 91.3328C91.8009 90.1854 91.187 89.0255 90.5687 87.8573L95.8261 80.1606C96.3467 81.0586 96.8674 81.958 97.3875 82.8574L92.4079 91.3328ZM99.7156 78.8947C99.2526 78.0953 98.7894 77.2967 98.3268 76.4998L100.224 73.7219L101.218 76.3378L99.7156 78.8947ZM103.795 71.8568L102.974 69.6963L106.037 65.2131L106.224 67.6111L103.795 71.8568ZM104.805 49.4932L105.538 58.8513L101.243 65.139L99.435 60.3786C101.585 56.1138 103.438 52.3615 104.805 49.4932ZM109.754 61.4445L109.636 59.9438L111.969 56.5289C111.814 57.1374 111.662 57.7515 111.513 58.3708L109.754 61.4445ZM105.62 76.7214L106.779 74.6945L106.823 75.2517L105.939 77.6253L105.62 76.7214ZM102.976 81.2416L103.764 83.468L103.213 84.9479C102.815 84.2577 102.416 83.5663 102.017 82.8742L102.976 81.2416ZM105.844 89.3454L105.804 89.4517L106.005 89.8019L105.844 89.3454ZM99.6868 86.8401C100.26 87.8353 100.832 88.8281 101.4 89.8163L97.3522 100.689C96.4675 99.0126 95.5488 97.2734 94.6055 95.4887L99.6868 86.8401ZM103.99 94.326L99.8542 105.433C101.936 109.383 103.732 112.803 105.086 115.397C105.073 110.141 105.299 103.994 105.778 97.4491C105.188 96.4183 104.592 95.3765 103.99 94.326ZM92.2236 99.5428C93.3588 101.692 94.4504 103.76 95.481 105.714L91.3398 116.837L88.3129 106.199L92.2236 99.5428Z" fill="#2A343E"/>
<path fill-rule="evenodd" clip-rule="evenodd" d="M112.118 110.283C114.893 114.555 117.457 118.501 119.676 121.909L116.324 124.091C114.101 120.678 111.534 116.727 108.757 112.454C101.989 102.037 93.9737 89.701 86.6557 78.5443C81.4957 70.6776 76.6878 63.4054 72.9128 57.8123C69.0874 52.1445 66.4304 48.3656 65.5078 47.3319L68.4921 44.6685C69.643 45.958 72.4887 50.034 76.2283 55.5746C80.0183 61.1899 84.8377 68.4797 90.0004 76.3504C97.3234 87.5148 105.348 99.8644 112.118 110.283Z" fill="#2A343E"/>
<path d="M48.5586 125.388V125.388C48.5586 121.887 51.397 119.048 54.8983 119.048H61.973V7.50391" stroke="#2A343E" stroke-width="2"/>
<path d="M61.9744 118.884L165.684 118.937L167.991 118.923C171.621 118.902 174.574 121.838 174.574 125.467V125.467V138.803" stroke="#2A343E" stroke-width="2"/>
<path d="M1 148.965L35.9588 139.209" stroke="#2A343E" stroke-width="2"/>
<path d="M16.041 242.481L16.5551 249.593L152.96 251L176.608 237.812V229.858" stroke="#2A343E" stroke-width="2"/>
<path d="M153.031 250.594V242.057" stroke="#2A343E" stroke-width="2"/>
</svg>
