<?xml version="1.0" encoding="UTF-8" standalone="no"?><!DOCTYPE svg PUBLIC "-//W3C//DTD SVG 1.1//EN" "http://www.w3.org/Graphics/SVG/1.1/DTD/svg11.dtd"><svg width="100%" height="100%" viewBox="0 0 905 209" version="1.1" xmlns="http://www.w3.org/2000/svg" xmlns:xlink="http://www.w3.org/1999/xlink" xml:space="preserve" xmlns:serif="http://www.serif.com/" style="fill-rule:evenodd;clip-rule:evenodd;stroke-linejoin:round;stroke-miterlimit:2;"><rect id="testIO-logo-onwhite" x="0" y="0" width="900.648" height="208.333" style="fill:none;"/><clipPath id="_clip1"><rect x="0" y="0" width="900.648" height="208.333"/></clipPath><g clip-path="url(#_clip1)"><path d="M898.439,84.336c-1.279,-6.596 -3.204,-13.092 -5.72,-19.308c-2.567,-6.33 -5.784,-12.434 -9.55,-18.142c-3.855,-5.842 -8.342,-11.333 -13.334,-16.329c-4.991,-4.992 -10.487,-9.479 -16.325,-13.334c-5.704,-3.766 -11.808,-6.979 -18.141,-9.545c-6.209,-2.521 -12.709,-4.446 -19.313,-5.725c-13.054,-2.53 -26.704,-2.53 -39.767,0c-6.608,1.279 -13.104,3.208 -19.308,5.725c-6.337,2.57 -12.442,5.779 -18.142,9.545c-1.312,0.867 -2.533,1.871 -3.804,2.8l26.104,26.109c3.038,-1.838 6.188,-3.504 9.48,-4.842c4.033,-1.633 8.266,-2.887 12.57,-3.725c4.263,-0.821 8.63,-1.242 12.988,-1.242c4.35,0 8.721,0.421 12.979,1.242c4.304,0.838 8.538,2.092 12.579,3.729c4.113,1.671 8.079,3.754 11.784,6.204c3.808,2.513 7.395,5.446 10.662,8.713c3.267,3.267 6.2,6.854 8.708,10.662c2.455,3.709 4.538,7.675 6.209,11.784c1.637,4.046 2.891,8.279 3.725,12.575c0.825,4.271 1.246,8.637 1.246,12.983c0,4.346 -0.421,8.717 -1.246,12.983c-0.834,4.3 -2.088,8.53 -3.725,12.575c-1.671,4.113 -3.754,8.08 -6.209,11.788c-2.508,3.804 -5.441,7.396 -8.708,10.662c-3.267,3.267 -6.854,6.196 -10.667,8.717c-3.7,2.446 -7.666,4.529 -11.787,6.2c-4.033,1.638 -8.267,2.888 -12.575,3.729c-8.513,1.646 -17.438,1.646 -25.958,0c-4.309,-0.841 -8.542,-2.091 -12.58,-3.729c-4.12,-1.671 -8.083,-3.758 -11.779,-6.2c-3.816,-2.521 -7.404,-5.454 -10.662,-8.712l-0.009,-0.009c-3.262,-3.258 -6.191,-6.85 -8.708,-10.658c-2.45,-3.704 -4.537,-7.671 -6.204,-11.788c-1.642,-4.045 -2.896,-8.275 -3.729,-12.579c-0.821,-4.254 -1.242,-8.625 -1.242,-12.979c0,-4.354 0.421,-8.721 1.246,-12.987c0.829,-4.292 2.083,-8.525 3.721,-12.563c0.837,-2.058 1.775,-4.083 2.812,-6.05l-26.391,-26.396c-0.155,0.229 -0.342,0.438 -0.492,0.667c-3.763,5.7 -6.975,11.804 -9.546,18.142c-2.521,6.22 -4.446,12.716 -5.721,19.308c-1.266,6.525 -1.904,13.217 -1.904,19.879c0,6.667 0.638,13.358 1.904,19.875c1.275,6.596 3.2,13.096 5.725,19.321c2.567,6.333 5.779,12.437 9.546,18.142c3.858,5.845 8.346,11.337 13.329,16.32c0.004,0.005 0.004,0.005 0.009,0.005c4.983,4.983 10.475,9.475 16.32,13.333c5.7,3.767 11.805,6.975 18.138,9.542c6.208,2.52 12.704,4.45 19.317,5.725c6.525,1.266 13.216,1.908 19.883,1.908c6.662,0 13.354,-0.642 19.879,-1.908c6.604,-1.275 13.104,-3.2 19.304,-5.721c6.342,-2.567 12.446,-5.779 18.146,-9.546c5.842,-3.854 11.338,-8.346 16.329,-13.333c4.992,-4.996 9.479,-10.488 13.334,-16.33c3.766,-5.708 6.983,-11.816 9.55,-18.141c2.516,-6.217 4.441,-12.713 5.72,-19.313c1.267,-6.537 1.909,-13.225 1.909,-19.879c0,-6.65 -0.642,-13.337 -1.909,-19.879" style="fill:#21bef4;fill-rule:nonzero;"/><path d="M627.044,0.826l0,207.562l36.459,0l0,-207.549" style="fill:#21bef4;fill-rule:nonzero;"/><path d="M368.544,112.675l-25.025,-8.013c-16.737,-5.579 -24.879,-12.192 -24.879,-20.217c0,-8.07 5.738,-17.691 33.063,-17.691c17.387,0 34.65,4.454 48.616,12.537l5.563,3.221l0,-34.271l-2.246,-0.962c-7.008,-3.004 -26.104,-9.992 -51.933,-9.992c-40.217,0 -65.204,18.325 -65.204,47.825c0,21.463 15.679,37.942 45.291,47.638l24.425,8.37c15.534,5.175 21.867,10.838 21.867,19.555c0,14.891 -18.342,18.02 -33.729,18.02c-17.904,0 -35.7,-5.229 -47.609,-13.983l-5.895,-4.342l0,34.53l1.85,1.07c10.22,5.896 29.066,12.192 51.316,12.192c41.459,0 66.209,-18.379 66.209,-49.158c0,-29.288 -23.775,-40.463 -41.68,-46.329" style="fill:#1d1d1d;fill-rule:nonzero;"/><path d="M89.331,173.142c-2.588,0.6 -4.705,1.125 -6.555,1.579c-5.041,1.25 -7.92,1.954 -12.904,2.3c-0.316,-0.025 -0.637,-0.058 -0.941,-0.058c-21.921,0 -32.58,-10.908 -32.58,-33.35l0,-74.713l42.934,0l5.508,-28.062l-48.442,0l0,-40.783l-36.337,0l0,143.091c0,44.792 32.696,65.188 63.075,65.188c0.3,0 1.062,-0.079 2.079,-0.217c9.242,-0.167 12.338,-0.95 18.696,-2.558c1.946,-0.492 4.229,-1.067 7.129,-1.738l2.875,-0.662l0,-31.063l-4.537,1.046Z" style="fill:#1d1d1d;fill-rule:nonzero;"/><path d="M243.621,61.407c-12.875,-15.842 -32.025,-24.271 -55.4,-24.421c-0.72,-0.075 -1.47,-0.104 -2.254,-0.054c-47.475,2.95 -76.971,34.413 -76.971,82.117c0,59.029 30.713,88.954 91.28,88.954c18.733,0 43.762,-6.017 48.591,-7.225l2.809,-0.7l0,-31.004l-4.538,1.046c-2.121,0.487 -4.204,1 -6.296,1.512c-11.029,2.708 -22.441,5.5 -42.133,5.5c-29.129,0 -46.108,-12.5 -51.492,-38.071l0.054,0c-0.366,-2.525 -2.55,-18.058 -1.608,-26.854c0.008,-0.104 0.042,-0.192 0.067,-0.287l-0.104,0c2.116,-27.546 19.633,-44.525 45.158,-44.35c21.471,1.562 36.021,18.825 37.3,44.35l-55.204,0l0.329,27.141l85.921,0l0.296,-3.387c0.608,-6.979 0.729,-14.542 0.729,-25.242c0,-18.229 -6.029,-36.096 -16.534,-49.025" style="fill:#1d1d1d;fill-rule:nonzero;"/><path d="M528.041,173.142c-2.587,0.6 -4.704,1.125 -6.554,1.579c-5.037,1.25 -7.921,1.954 -12.9,2.3c-0.321,-0.025 -0.641,-0.058 -0.946,-0.058c-21.92,0 -32.575,-10.908 -32.575,-33.35l0,-74.713l42.93,0l5.508,-28.062l-48.438,0l0,-40.783l-36.341,0l0,143.091c0,44.792 32.7,65.188 63.079,65.188c0.296,0 1.058,-0.079 2.075,-0.217c9.242,-0.167 12.337,-0.95 18.696,-2.558c1.95,-0.492 4.229,-1.067 7.133,-1.738l2.871,-0.662l0,-31.063l-4.538,1.046Z" style="fill:#1d1d1d;fill-rule:nonzero;"/></g></svg>