<?xml version="1.0" encoding="UTF-8" standalone="no"?><!DOCTYPE svg PUBLIC "-//W3C//DTD SVG 1.1//EN" "http://www.w3.org/Graphics/SVG/1.1/DTD/svg11.dtd"><svg width="100%" height="100%" viewBox="0 0 321 292" version="1.1" xmlns="http://www.w3.org/2000/svg" xmlns:xlink="http://www.w3.org/1999/xlink" xml:space="preserve" xmlns:serif="http://www.serif.com/" style="fill-rule:evenodd;clip-rule:evenodd;stroke-linejoin:round;stroke-miterlimit:2;"><rect id="testIO-symbol-red" x="0" y="0" width="320.833" height="291.667" style="fill:none;"/><clipPath id="_clip1"><rect x="0" y="0" width="320.833" height="291.667"/></clipPath><g clip-path="url(#_clip1)"><path id="Logo" d="M187.391,291.415l0,0.048c88.576,-2.024 133.442,-51.035 133.442,-145.539c0,-96.769 -46.794,-145.924 -139.081,-145.924c-92.383,0 -139.225,48.866 -139.225,145.635c0.096,19.373 2.024,36.819 5.783,52.336l63.902,0c-5.735,-14.072 -8.53,-31.758 -8.53,-53.059c0,-62.649 25.541,-93.058 78.167,-93.058c52.577,0 78.166,30.457 78.166,93.058c0,64.047 -25.541,95.227 -78.166,95.227c-1.302,0 -180.403,0.225 -181.849,0.177l0,51.517c15.807,-0.048 187.391,-0.418 187.391,-0.418Z" style="fill:#ec0404;fill-rule:nonzero;"/></g></svg>