<svg width="24" height="24" viewBox="0 0 24 24" fill="none" xmlns="http://www.w3.org/2000/svg">
<path fill-rule="evenodd" clip-rule="evenodd" d="M12 2C6.48 2 2 6.48 2 12C2 17.52 6.48 22 12 22C17.52 22 22 17.52 22 12C22 6.48 17.52 2 12 2ZM7.07001 18.28C7.50001 17.38 10.12 16.5 12 16.5C13.88 16.5 16.51 17.38 16.93 18.28C15.57 19.36 13.86 20 12 20C10.14 20 8.43001 19.36 7.07001 18.28ZM18.36 16.83C16.93 15.09 13.46 14.5 12 14.5C10.54 14.5 7.07004 15.09 5.64004 16.83C4.62004 15.49 4.00004 13.82 4.00004 12C4.00004 7.59001 7.59004 4.00001 12 4.00001C16.41 4.00001 20 7.59001 20 12C20 13.82 19.38 15.49 18.36 16.83ZM12 5.99999C10.06 5.99999 8.50004 7.55999 8.50004 9.49999C8.50004 11.44 10.06 13 12 13C13.94 13 15.5 11.44 15.5 9.49999C15.5 7.55999 13.94 5.99999 12 5.99999ZM12 11C11.17 11 10.5 10.33 10.5 9.5C10.5 8.67 11.17 8 12 8C12.83 8 13.5 8.67 13.5 9.5C13.5 10.33 12.83 11 12 11Z" fill="#6E7579"/>
</svg>
